<mxfile host="app.diagrams.net" agent="Mozilla/5.0 (Macintosh; Intel Mac OS X 10_15_7) AppleWebKit/537.36 (KHTML, like Gecko) Chrome/140.0.0.0 Safari/537.36" version="28.0.6">
  <diagram name="Page-1" id="G2e1O82x71vTj7EqGWE7">
    <mxGraphModel dx="797" dy="628" grid="1" gridSize="10" guides="1" tooltips="1" connect="1" arrows="1" fold="1" page="1" pageScale="1" pageWidth="200" pageHeight="200" math="0" shadow="0">
      <root>
        <mxCell id="0" />
        <mxCell id="1" parent="0" />
        <mxCell id="BxdCIY4UVa0yPK-bbgme-1" value="" style="shape=image;verticalLabelPosition=bottom;labelBackgroundColor=default;verticalAlign=top;aspect=fixed;imageAspect=0;image=data:image/png,iVBORw0KGgoAAAANSUhEUgAAAZYAAAC6CAYAAACN4WtvAAAEDmlDQ1BrQ0dDb2xvclNwYWNlR2VuZXJpY1JHQgAAOI2NVV1oHFUUPpu5syskzoPUpqaSDv41lLRsUtGE2uj+ZbNt3CyTbLRBkMns3Z1pJjPj/KRpKT4UQRDBqOCT4P9bwSchaqvtiy2itFCiBIMo+ND6R6HSFwnruTOzu5O4a73L3PnmnO9+595z7t4LkLgsW5beJQIsGq4t5dPis8fmxMQ6dMF90A190C0rjpUqlSYBG+PCv9rt7yDG3tf2t/f/Z+uuUEcBiN2F2Kw4yiLiZQD+FcWyXYAEQfvICddi+AnEO2ycIOISw7UAVxieD/Cyz5mRMohfRSwoqoz+xNuIB+cj9loEB3Pw2448NaitKSLLRck2q5pOI9O9g/t/tkXda8Tbg0+PszB9FN8DuPaXKnKW4YcQn1Xk3HSIry5ps8UQ/2W5aQnxIwBdu7yFcgrxPsRjVXu8HOh0qao30cArp9SZZxDfg3h1wTzKxu5E/LUxX5wKdX5SnAzmDx4A4OIqLbB69yMesE1pKojLjVdoNsfyiPi45hZmAn3uLWdpOtfQOaVmikEs7ovj8hFWpz7EV6mel0L9Xy23FMYlPYZenAx0yDB1/PX6dledmQjikjkXCxqMJS9WtfFCyH9XtSekEF+2dH+P4tzITduTygGfv58a5VCTH5PtXD7EFZiNyUDBhHnsFTBgE0SQIA9pfFtgo6cKGuhooeilaKH41eDs38Ip+f4At1Rq/sjr6NEwQqb/I/DQqsLvaFUjvAx+eWirddAJZnAj1DFJL0mSg/gcIpPkMBkhoyCSJ8lTZIxk0TpKDjXHliJzZPO50dR5ASNSnzeLvIvod0HG/mdkmOC0z8VKnzcQ2M/Yz2vKldduXjp9bleLu0ZWn7vWc+l0JGcaai10yNrUnXLP/8Jf59ewX+c3Wgz+B34Df+vbVrc16zTMVgp9um9bxEfzPU5kPqUtVWxhs6OiWTVW+gIfywB9uXi7CGcGW/zk98k/kmvJ95IfJn/j3uQ+4c5zn3Kfcd+AyF3gLnJfcl9xH3OfR2rUee80a+6vo7EK5mmXUdyfQlrYLTwoZIU9wsPCZEtP6BWGhAlhL3p2N6sTjRdduwbHsG9kq32sgBepc+xurLPW4T9URpYGJ3ym4+8zA05u44QjST8ZIoVtu3qE7fWmdn5LPdqvgcZz8Ww8BWJ8X3w0PhQ/wnCDGd+LvlHs8dRy6bLLDuKMaZ20tZrqisPJ5ONiCq8yKhYM5cCgKOu66Lsc0aYOtZdo5QCwezI4wm9J/v0X23mlZXOfBjj8Jzv3WrY5D+CsA9D7aMs2gGfjve8ArD6mePZSeCfEYt8CONWDw8FXTxrPqx/r9Vt4biXeANh8vV7/+/16ffMD1N8AuKD/A/8leAvFY9bLAAAAOGVYSWZNTQAqAAAACAABh2kABAAAAAEAAAAaAAAAAAACoAIABAAAAAEAAAGWoAMABAAAAAEAAAC6AAAAAN/gHv4AAEAASURBVHgB7L0HlJ3Hce9Zk3POGRhkgCAIEiCYg5jELFmkaVLZtmzvk8PbPW/P2T3H562P9z2f57e21/KzLNuSRQUqmAoUc84JJDJAxBlMzjnnsL9/ffebuTMcgCApre1nNDBz79zb1V1VXV3VXV1dX8w8xaLK7NysxcXG2Xdfftye2P+GxcTEWAzfL6kUVf/82/McOM+B8xw4z4H/eTgQi86fmpmxstx8+7/u/R3Lz8wxmQnZgnMt8csrzs7NuWHZV3fcfrr7heBr2Z4P0ejyNs//fZ4D5zlwngPnOfBL5IBW+tLL4Yo/evWv99LX524HliKmduNjrTK70P7T3V+0fG/uwzX2PsMSgsfHxVlcTKx3KBxD/JdicP6v8xw4z4HzHDjPgf9fOCAlPMev2BhLTYy1RF4T0M3xvKbExdo4m4Lp2XmbmTOb4P3EDHVVX0qdOudaYqk7R/WkhMQF2/SxdyzCXWUOq6Xdi4pQCj/3D87l17nucs613kp9zoNfyLgPjeBKDZ7/7DwHznPgPAd+RRwIFanvJvjjbF6gaL2o9+i55IQ4y0qJtXWZSbarIMWq0hMsPynOshPjTMZghjr9U7PWOzFrJwcn7d2eCWsambJBPpuang2My9n6jJA9Tx1pfun/j6pW37dj+VgsjWKG/HF+fBNiFr6qAzFYP3pRveBtsLU7B8K9On3FcBaUALNnZVwWWwlbO/96ngPnOXCeA/+qOBCLF2iWBfGcFu3SlyrLdV6UHkW5WTxuqYr0RLulPN2uLUm1THTeFDuTafSeDMDgdGAApFK1iylLS3Cjc1dlhrWPzdornaP2fOuQdfB+nvY461Cvv9LyyzUsYpDr+Hmbl7KHyESYkgAdCbyP5/tpmCaGaMumHyeU73yrtpzBZyN9dsZ2bbjEbrnoMpuYmsSaJ543LWfj1/nvznPgPAf+xTggpT85M20JcfH2XlOtPbX/TZtEb7HVWIpTaFT0yv/8lAS7sSzNPl2VaanxMTaCERmcnHMwQTo0jS8s5PlM3qZJYCfQr+n4yu6pyrBPYJAerh+0tzvHrJ8dza/auHx8wxIyQuyRNcQ4pOH/y8aarMpItNX85LJVy0uOt3R6G4Ix2qr1wZy64SlrHp2yvqk5G+fHdzEyMirR7QafLPxWjXmiFm7edpn9ya//7sLn59+c58B5DpznwL92Djy+5zV76b29NjkxZjGcZS8E5oY6L+KB2ZiTbF/dmGNrcH3JnTUyPe/n3pGjb4eLjtQK37t+pK0YdKnaHuXQRWcwX92YZ5cXptk/nOi1luGZyGL+V8Otj2dYohkBM7KS42xjTpJdmp9ql+QlWzHWVjsUuaq0ZRO/fHPCex04YYDZqs3Ynt4Je6dnzE72T9rIpKwpX/juB4AVdjF86kZobHLcpjEwj+973R59+3nLTM+iL/V0vpznwHkOnOfAvw4O6PxjZHTErr5gh3326ltteHI0MCbotpWMitTfrqI0+531OZbNGcoAOjGOumpH9efnuQLiKpJfZygLRoaK8hTJ9aZF/ZbsJPvjbQX2N8f77FgfOyY1FOrxM7T1UT7+WIbFt1/sUpLw+a3LTLQ7KjLsmqJUNyaKSOiFITIkzoQIduzOAm8Zb+QZTGVncxtbvVvLUu2ljjF7umXEaoembAYrG4OVhY1ALmWg/tLnCfHx/vPYnlftez/5plleEbsmLPH58i/AgWBU/gU6/jfW5cfh08eB/TfGpv+Z0OUs2IYG7VDzabv3ihstPSklOGOBRtehEcUe40Zj3m4oz7Dfwqjo+GAcPZgQORORUQkNhtiz/O+QZaGxCuvq71hcbmpfZzP5yQn2xxcW2J8f6bZDHPC7nuU7V9RhIx/z9aMZlgiB8xCdmxpvd3BI9KnKTIN9fpAktS8Lq4MkleUM8L/1HZZXBmKYdkTXJ0rS2Kql2k/rh+zZlmEbxGUWyxmNfIbvJ3rR2mekpFp8RpYlpGfa7Owsho32Im45h9MuBnziGSBd9wyMlaO25Je+nVJd/YS+zwhsgras/FupBFRyfkTfTohghbN+eJ/IT3C89n5ox4d6M1xM9aJ9bgRWA57A32eDnaXunPp16y2eBv3Gga8uOp0JZ9H6Pj4pyo7P48HXBf4M9AZ8ok9tQcN+o/gEEitCBldtbZFPolXMi/A7gX5XhlS1gJYZjatopG5Iq/gUT1tng/UoR/FJRRNVuNNOHO91oHomWOcT+M1H6HN6I+8/SJ6E87TqrgC7oCwCjJb8XlmeqKLxge6PzCdgNbZnonVBFkM+SSEKdyBi/frBmeVJsEtkUePjcil2n10WF/iksRVcKBPnMGcXYIWnYFX8PaG49HtmWqmHCPj4LJMntfNx5uxyWRT94k1OWqbLmmRxQekLX/+bF5T+ruJU+2w1ugz9OAk/fLyEH8Xn5AIslIte/w4qw8/hmbftIMHngg2/1+gLF3mM/nBLvv3pwS5rHJz6pZ+5fHjDEiFAirssI8G+jGW9tCDVxjwyITAoMZqo1OO/z8OQiSJQJfx7PoYK/A+E3fxgKg6p+tyabKsklO6hmgEiGabPaFHDdqRsZhDiGH6mORBLSUy0qow0y9WOhj4GGbCeqWlrGRundzoMB0RKcaHwOfA5GKmSpETLYxcm3TPIZ50TU9Y9DqzglsBEgEUoOBSnpbIaSLT8eKI2EO5+eNI+OWkDggWXBYYs9Mkbn7hmlWlplpcYb5n0MQGO/YQHNo1P2ATwMbQnfi70zXvRPg9usbS7Jj3VcqiTDuwo3/VNzdjpsTE3smjO6N4cB8HO4EJMSUqyCudTrCUj/APs9vrw5TaNjNIXYKJVPwt9gwP/xafs5GQrSU+xbPbtyQhpF/j2TM9Y5yiwy/kUwksxwtSClBQrTk6yLOqp+d6ZWWudmGQhMQEs+KrvsISwzidFvKRYQUKCZWEQpviun0VJPeO6cBAajS/fL/AJPqxmfHJ4zWFsB6BhENjT0Do7zy53Oa0Oa8jVnCXS3yr4pD4z4XM3dA4A63xaLk8hvnoF53RksTIt3bKAS6KPXvjeJT4xPl7Eq2iYEH9g81LgMXzOBWdFEg2AS6vLk/gUkcXlsBF5KkWe8hPi/WcU/g4C20if4+GBcdhP+Cpk1BZldXq6ZYOv5s8gsOJVw/gYcws+SZ6W96m/+dFiZr34xGIw3eWJs1RgGpF/ZfRQFOcSOfbe+EX7acw58UlynABOA9TvmpzCVa45S4nmU/BJgIf4lIo8JSRZPme5M86neetg7vS6PC2bsxEavQlgxSfNu7z4BJukz/6ILA4DGwP9K+LrPI6xVchTbmTOjtNuH3NAtE4tm7PqUgvecPEY6i3hIBUo2Zun37WcqXx5XY7l4P7SuYgW5+o/rB+8hx5kbnZmgp9ph42LS2DaxDOnp21uBiMBnD6Li0/SWy+CXWhL7/lU0WX/cXOe/emBLsKUtYCghADBXx/594czLBEitVNZha/uj7bkWTVhcKMoUG1AwguVCwR8AFpabei/6qvIwMyheMZo/2p8jPmc2XztaK+1D09bLC4zfbcS4TE+OrLEGDuE847CHLsmJ8sKSEUQj3CM4d88OtBnz/UP21s9fTbOILugqtOQJvi6KTvb7szPsktzcy1bqwsmysBwv+3vG7Bn+wdtT99gIMyCW1YuK8yz2/Ky7cKcbMtIzfB63YN99s7AkD3dO2AnBgcXJ1YUbDL4XZefazflZNqGnBxLTU5zgWkb6rfX+4fsme5+a5Gy1io7wifxQIY9D6VzY0GuXQ/squwcS0xMRqgnrH6g314E9oWeXvyzCFo4Kek3VLSVGRl2S36OXQVsWVYOkyjRxsdG7eRArz3TN2Svwqcp8UlFwuZ988rk2wSNn4TWXdmZVpiVp42n+5AP9vfZk71D9m5//xJcHZ6xU9876POW3Ey7JCfXsthhavU2MEK0Sm+fPdE7aCeHhphskVW1+tWPFA/K/fLcHLspL9O2ApssPvF5Bzx+lfF5qqff2kJl7fgu0pqfkmTX5OXajTkZtjY73+ISk2xmetIawfc5+PRidy8TCz6FtEZeZbjLUB43MD7XA1uRU+BjOM3Z3vG+bnu6b9je7O1HCeggVBOe4n1LnudxD2faLfDpKmQxPzvP7eXY+Cjy1G1PAXsQmZoUj6NhUVqaB1ug9fbcLNuZl2MZyKKAB4bFp357Bj4dHxpmPkSt0iP9piCzO4G9lXHdlp9vScmpvtvqGOixV+nv+Z4Ba5A8qQgmfKWtDHh8DbR+Eth1uXmWkJRs89PTVt/fYy8ix6/Qd8coil7GJYSTXPBTgCzejCzeIHnKARZFp0Xe8b5eewEev8n49iOLSw6rg1ZYBGbYHQVZdhXzLh/PQ1xsvI2ODtmh/gHGZ9Deod/JaFrpz+UY+K3A3IlMiObM1EzGJ8b6mDt7BIscHxgY0FAsFtFMW9JVlxfm263I4oXQmpqSTj0WkeiJN8H3WfqsHRpZXNSGLdB3Kgb7euTpZsZ1Hf2Kx7PTU9Yy2I8sDtlzzJ12yaL4JP6csYgOvmdupGBQH2CnUkGo8CAGSucioUERuOtUDPPsNMtO2szIKbPU9AJLSc+1pCR0FYZ1ZpoF1tiAjY/22ehwl40MtFk8n8fCT+cXcKFuVtSu/pWnJtgX1ubY197rWaQ1lIsz4v3BX3w4w0KHMipFEP9Hm3Otilf5AIOz9kXrGhIRMIaB9P8RIRaTNNLO70VChaqI9lufvKrdjURD/MGmPPurIz3WMzETIZyKi00JzF0+2jGsSc+w3y0rsO2l5ZZUtsGyCistHiUyPNBlKa21trW7hRVRvD3W3hm4vCKDpwizS5iEv19ZaqtKqyylfINl5BWDS5yl9bZZZkuNbe9utr+qbWCCIKhCPlQG9HtLSaF9pbLMcktWW0bZGkvLLmYyz1hqV7Plt522Czqb7f+pa7ITTE43EEJawk0b95QW2WcrwBfYrNK1lpqVa9MT45bS2WQV7TW2Lq3Z/rqhzdoxjj4pBUufWeyMfrOihNj2SksoqbbM4tWWjKKeQEknd9TbOugtp863mtpsREoTIRfbZJBKWKX94eoK215cBp/WWiZ8Skhi1znUY6mtdbaxvdYKWWn/sLUNOnygAiUEzhuzMu3/WLPKSgtLLa1sHbAVTsdIf7dltp6yzW319s2WeHuurWPJxJKsXomS/F/XrrbMvFLLrIDH+SW+60rrabM7Wk7apvYm+zvw3Y8SChWQ/MJyS9wJjz9fVWEp+ZWWUb7O0lHyMxjRZPhU2nzcNmS0wacWax2OGGH6E2waSuBLleV2Q3GJpYpP0JuM4Z8aH7GktjqrbDlh69LT7K9PNyBzS8/nslGsfwSt28iZlAq+WaVrLAF5mhgeQJ5qbC081k7z2/UNbiA1NF7od01Guv3v0Lo6j8lfudlyiipcniSL1zSfRCaa7NvNbfZka3swLsD4+PB6GUrrP6wqt+IClEflJvhV7MpHfLq16Tj4dNhfge/BvkUDHs65u8pK7P6SIssurbZ0+JSWle9KL7mz0Qrg07bsHvuvNbUoPnY9UUWy+OVVFXZrQT7yv96ygRWfFLmUiAxXQO+mjC77y5o6XNfchwhhwTeHne8frK5EURdaYsVGyylZZYko2zEUfFJbrW3oaEAWk+17jS02gfKeR6l7gd/rWMz9QVWZXYAsCjarsNziuDow0tNpl9Pntp5m+/v4Rnu2oxuxxyUZzlkM8pVFBfa75SVWQX+pFetRtvCJ71O7Wy0LWbwYfv33mnrbFxoXzVnwVbmztNi+VFZsWWXVzFnxqYCFypTPu0Jw3trZan9e22T1w8NL5mwi8+gB4O4pZ+4wX7OQqZSMXPg0wrxrsCpkqpo5+7fIorwcgRx7l+//5YfwuBAxJNdhVDZkJfuiWjuVcDzDV+miKfpIzy614lU7rHLdVVZQeoHvVJY3rHpdbUes+dRr1t6wl8XmKAtsbtFrElIWjAsL8TgM8aX5KbaRYKsTfciEePRLKOdmWCKDoV1JOtvNr2zMYUIR8YXS0Wch8dGvYsQ8iM/OTKJDZ/y9D6ozDb+2tmrawkXqiZYQPjwb0EHThqwk+8L6bPvHY+w06E+pBnyJHEW88EhAEf5acYFtKyqzksvusk3br42qYTaMkO975rv2aZR2Eyund7ux0BFBy2cr/XmUdAmw62/6nJVWbVwC29vVZLsf/Uf7rSq5BCasVZMywpNVuA2+gFFJLaqyi+/8HcvKLVoC23r6iI0++W37nap5+5PRkzbMhJBoi8ZLWPHcU1pqCSiPy+/8Cqvw1CWwx/e+YJvGH7H72RF+43SdEcPh/Wo1cyuT6homcsbmy23HDfcFxjUCrV3AO8/9wG6ce8MacTE90dbpARXibxI0S9GuZZdSftnttv7i65f0KUXy+mP/YPeA5AlWtvtZMUoQVdLZ9v/eqkrLxvhtuvGzVlZ9wRLYgd4O2/P4P9pn+fTk8Ig1jrJqo08Z0SqU95cw3Kn5Zbbttt+0guKqJbDNdUdt9oUf2L1MsibcLj3jk8gGu1T4tbO40G4ryLPMqgts202ftQx2otHl6P5XbPtbj9qnGZcHcXmO8hOHO2YWBXh3VZXtwBgWbb3atl5/D7uByGo70sDel39mVx14zmpGRuxnLDiC+1eBAvoyyn0tq+nKK++2jTtuiO7SJnF37H/++3bj1BtWN1ZoLwGrHe4chjsTN98XUD7lGKTqT/yGVW/csQS2v7fTjj7/PbsTOptxsx7u6fGdtdyTa1C097D7LWGhsRFZLEbxRZfm+mNmL/7A7h8bsU7obEfxxbFYmsWNeVlhgd2ax0597Ta78JbPW3p6djSo1Rx5yyZf/JF9CaX4lxgm35FqDjA+N8Pj61h952y9ynbc/ACLxaV8OvrWEzb8+i/ssxj3b9TW+bzVjkmK9k5W/ruQxbydt9j2K+5Y0ucku7tDLz5s14y/bG3sfh5ragFfXWqeZXGUbJ8pyrfNGJXyq++xdRfsWgI72Nfpc/Ze3FItzNlD7CIkExqjotRUewDjUFJSZZtv+ZIVli/lU2dLre154lv2lappawK+m3ngcxZZ3pCZbg+Ul1py6WrbeffvWVpm7pJ+m07stZFnvmdfWTVv/+XYKRuXMaSGFP4V7EDvYs4mrd5mV975WwQPJS6BPfLWk7Zt8nG7l4XxP52uN5xVPgWWVNIfapD25tBxObj9r+JsOZtrGkPIv3ZTi8pfi+04m8Y45Bats61XfNFKV1/qzc3BwxlcX5rXrhb9U+4MJqVZefXl/lN76Ek7tveffRejdryu5mSAAF4eLlWyM/js6mz70/5OXIlCTEV1PnpBqs6hgIgU4RyRXp9Zk2nbc5O1e/OBCo1B9KtanJoYdndDWmYRg34hzNhl5VhZvRaWbWUbl+/fT02OUDsgIpqZ3h7bRCnJyznDuW0VB/MMlhsdd32pl6DIFVGBe+bClHjLXn+JGxX5H2dhuhTTNCtbKaN1uz5pJQUldilnEqmsstSffJu3FLPCm5u29Vfc6UZFsO6vFCzb+TxW9Jt23Wr5aRl2Nf1oVxUK6d2spMXEHTfe70ZFE1x9qo053pet2WobLr3JClB0VzIBXUnTr1w7N+HqSMzIsR2fuI/tbIpN454RrIRFsOu2XWMVWy63ai45bWUVO6eVIrDlTIxtKdwPqtxoF1x+q+Myw1bcBY02pCguuvouSy+utss4BylmVa3PpAguYNdQqTtGW6+w6m1XR/oTrvRLG4ngcdnNnyNRUIrdjaLSQbHPDI0DrrpS3EprLv6EG5WA1hmnVfRms7LefhNKCdzvKSv1PsUn+d4vzcKVhEGqvvhGNyoaE9EYjNO0VVRvsYodN1pF3JzdUIRxBh/tbJMZp52MVyUr2TU7b/Zx1JiEsBqnLRdfZ0lVm+2q7HRbx04BzePymcVZzq7MNCtGSW+4/DZXDKovvMN+d1z/GZvLLLRPM44ZKOiQ1jKU3pW52azc17tRCfubRdYEm8SZwHYMelJKmv1aCbtbn6yBPK5PS7bL8vMsa802NypynQV9zjiPc4heXHXpbdym5uIa4yHpd3B+7cKVpF1h8UXXuVGZnpIvnT7BWTyrWL3ZcjfuYg7m2oWcZwSAQb+3FRX6GeHGaz7lRmUGRR7gq34nbR1jnlm1ya7CSK9mMRXSqgCGe1HSxg5l540PIM+soiN88nmAAtt42W2WX77GLs/GcAEbynERfLoNFxhfulFx/oaw9Cm5XrfrFisvqbQdGamWjvxoTmt8L0aetnIlQfTIqIRjIl6LVi3SqnfeZJXI1U4WJspd5XOW76XcM1iwbrjqU25UFmGDOVtUvtbWXnKDlcLjK7IwsGKw+uX110pLCIiZs123fM6NivgUPWcrWQisuehaK2cRvYPxCWnNZPF6I4vBhMx8n7PxuJh83kXm7Dx8Ws8CpIKL2+uZY+uhb46xi12mrzRafr4slDAk1xaneZoWnauI93KPSf/xLa9aIE3jBUFv3fy/uVEJ552+005EC/QYcJHLSz+CC2V87bbbbfs1X2HhzXjrG/HAXxd3RTKYqzBuG9Hr/r337dU+8q9z2rGISCm1NdxRuZazD/Wr847lxsTrobzmUdIFFRe5AckvYXubi6slOR0GyA844UZnqK/RejpOWlfzIevtOB45aAqZuehW0x2YVJTy9YQx7+4asyZCkT1SDOaFxSMuWAUVcPCenJkHbsEKI54DOfExXgIJXtl5JRaHTzKf9nJQ7GNyEVGhEOWVjE84I7/Ula92MooUUomPTXShK6xcb4dRkJVMDO0YpgIm4KNMQRhiLQ83ifrQqkAFU+yvUuZ5KCcpuypWWa7xIFM7BwUJxDDxspg4MiYSEhViaHyA46EpA4VKcCKH3QiGiIEfeQh4Ns2nZBdYalqW4xcHrQ5LG1ImKfibE1ix5qkNDukcFvhyeJTAhMxB2fqqFFzUn8OCkwQynXZj4Znwk4sEpviEFP5a0RSyo9PkX6RVzWMGqJcJj1M46ymRV0mrDyZJCm2U0dYswl2IctL4aEyYDT7pdFaiz1JxR+TizsvjbpOGVyvTwtQkAhqIMETJZHBOoT40rgEsh+tMOuGSnlOE4c+0jLhOx1X1VmOQ5vg+BzeJJg9fIIOBv1n0hhM0t6jS5vq7/GB+iIN18aqasxW5Y0tWbfH2dfAcGg+NqejVxC7E9dl56iAhpIk2NMlZILJVkshuPj7ZivhOfcQxJtrNqOjcRrSmsEiRCzKpuxsffTLZI6Z8150O4cnQksUYSNlpXBf5rBXuDAudCutLy7H8uEZSGtGXxps2Emg3D9dMQgIKAhy1kwkUlPqVgmKhs2qzHa47giwm20ntKKmXBX6Sx0LcZ7Bdqs37dXyhU2UWI1FUtcVqa4/amtQ069auHZ6mMTbZyEUWc0e0isuhLM7TprwWychuehHusVPvWQWG+Pik3MkxlglPCjhTSeGcTrSqCFZdxvuZKlGnBeXWkJ7jC7Ms3JpdjKcqFCYlmKJB08nAK35qzmo8VHzO8llh5QY7xrhVpiLH4DrrMmDMgRSfa9nwP+ST4KLnbD4yI0NRRbCIdQU8EI+KGdtY5mw6iyQZa42tSjiHdM6ZXoDLVnMWmTgCrrE6hFxWfFz4TimpqgmCymDxqAP0YLfirIVMMMLozyIb2678smXnV/v4e+gwtPqcow21FY6zuuEjl3N9L3mpWHe19XXU2IkDP3MjpDpihb5Xkf7UruVqdOyRrlEPCJLh/Tjlgw0LfcuCamDuW51FioBYz575fmICJGU912y709byk57FKiiqiJDE+AxWeRn4Q0tZzV9uQ73NdurQY9Z44kUXEA2viA4YL5eR4Xdk68vKRiHNX+cw3/kRNViqy6VUniHApJ1lciNMEgp3a/DdHFvZWLb2mhyGAp9SXSk9FdrXJU6toub4PnC/uFYUEuDEfRoG0W/JUkfuOO9aSPD9lPrhn1al8itLUP3GqytVVYnlzESHpcSk4yZRf94uMJNqi4mnVQ9NRWCDyagZLrffjFasAHkYdARWrj9YEqzwEBzVlYLQ5FJ7UubCQ0IlQ6BuvQNeJjAqczHJ7MTGAQNQdPDfYdWGmmKSq5lJ/dL3KryO8bmm7hRuGEWhBLwJq6gR+Yun3M0hHoe0ipvKthoDr6Y4vBZPhFsswuwBGbTt7dH+JO4d3447fIzDCX4ePsiIqEiRCFbjKzpjdRjPLmZSfQtOOIPLMKtBycL0GH5yn4iih++dTwGs/PkTI8OAsNIVw71frh2ghBUuPzE6GKFVik8LnqB9prMrp7GRQTe+0+HY0gUpmSyR9iboV4bMx5e2BKs54PJJRzPjw6Ap95nkk+951ZrVkKUpaJUxclgxkv+iWwZ5iu/jXI5D+eRVLhRonRxFafMa1IfntMt/nwNS2sJXqnAEo+kI8aUOxtX/GGdH2l2qn+ASnnhMPeAFOwkvFGIt3gSN4uoWHfytcXVatZvUWNNeAMtYQ/MsLladrYwwR9WeGC12a8ycfqdVcqf+oEc80We0h2Y1ZkgwZ/lO3/vFa/qVm138lDz54PG13JGCFU7MCJ93rkQ1AMDKBai/3TCgrzRnJJMhrcGcxehSd8Inj/ClXX4UiShZEY+o4DDh3NF8klEO5qxkPugvSlWpGS/amUhYq9klVKYhg7wPxkoCxnf6Tf/Csahyu3t9gg9lQOkXPPS6UlnyvXgDrhsu+YzVH3+eec9t/whc+KrxSWRcN3HGk4KhE41UWqnpc/4sMPFnqS6jIj/gJg53dAlSBiYkygcLWP87otS27LrfLmLrJaMSbqc1cK7w1E/kvVY3WqVn5lWwrfyqbbj403wlRSDlKOZSlb5FPD0yaRS1lWQb5IaT9ogiPBmYZlZfdURijDSdsBEiubSSCFYxQeid3jeeOmDjve12mpXlgMIJ1Qaf7yGqiL+s5cjbHrYsJacVqgRMk0U4ncSPH8uWed8ALr6wf+DfwO+rQTm+5znvTwItOL1K4Gegs3b/yxziJRDd0hfgDdwIK+MDnEPEjw1ZzXtvOb4BLKsU4PR+kAPxzpP7bCg2wY5w1iFcRXcTZx/Ns7TB4WZb8ylgwdH7DWC182luOGYz3U12anLGQy8FJ3oP084kO8eWo7uJHJHPOuhL36kNKZBa8EmcHrN3odUNWkTQdAiq0Th18BVXHuHKSa9qR3TXH3qN8Zm1t/oWaZ1EARwZIfwZRVt79G3HQ/14n8Dq/RQKprt2v3Vx7nCIiCcNuJRdHwegTZwxDXHY3VZ/1HkcwmpMdZg+PNgLL05ZDRFlLZx9qAinZkKJ+5nVHazQ+wmkWEIr30tJ99LuSFejR1n1gUOgnGKsFnkaBO/WmgMLfPJxBU58Uvvt4DNAUEctkVLjrCqFr5TqaYW6jg5b++nDLEg4OKWfEDbcRXTVvWfdPe1WjyxOAaudoVwyDZwldDPu3fVH3ED7zo7vBK/30+DYWXfYuqG5jvMZ7UIEKwVdy9893e3WBazq+12mCKx4Ns6CoK3mIJGCE1ZDBCATzeVplH5PIIvD0NLReCLgk8MFMiG+DfV1WAuwgyjLes6jfO5Ar0LMjxHxONrZYP3Qo2CZQC4EG8yd7pbTeCbwTqCLOwhCCbwBsVbLfNXh+GDDUSI3hwM+RfqNYyfmc5bzjon+DqvhjGQYI+P9UkdRXyMY35Zj77jhCuZswKeQxzXIYgy07R8c8ToAO82vMw/jMQ4n970UzFmX3UVap1jEnD70is2D/x4iHENah2jrIMEhcRjY+hP7HN+Feae5Q/1eAge6kJmBmAQyDBOsA66hPnPBjPwKosEIOCLlVTF3AWUopcpl0MMi+qcmh61q/bUsWokM9CL9G8zlsN5Kr8JZ/bpuRhaSUjhnxEAtx0X1wrpp7JpWcabtMFF4rNT+B30W9yeU6EqKvNDK55mDb9k7bF0VNTDP8vi+NYTWYdG0bQqLM5w/9DrDIX31llt8y+a7Ber5RNageZ3A0gawDKIPJqsZjAng7jYbGewM3GKEyMFiV2JOJH9Jl2dyuKVQ5AMkUmP5a1eRIuHGrbvsuQNv2uv73rRkXCVr5yZsbLDH5nG7aDLJuA3zdwMC2nPgRXu3tdkeJsJkiMmliA3h3kqsfCmHtMVjvTbB4T6nX3wXhEsOciBdd/h16z38qr3c2WmPdHQy4Vm7MOgquhsjv34WuE8zgHIhiSAJZx/RYHUYnA6U+DMYoOc7IpFSUKY2dJ9hI2clKcDO4L6IxSCIvROstLowGo3vPmNNtYfske4+O0DocIivlNg4/a+PZQU70m8zohXDJaU2zoq0FYXX9PbjVkeE10PQ2owioIIrviEmqBTUmtlRmyN6ZE79Qqv4NIKyaq49YI1vPm4n+7rs201ElDGZfICgqRelnYkroHpm1MYxAHIJSIHNsksUnxqOvOk4H2AiP9TYZFpDeoGoXu4zFOCWq5oZ8fDcePl8GXfxqZeIpbo9z8Ont+0lQj2fbm9nUREIvPjUj6HSuVAB53b0StQQrjD4pEicDg5pazlY7sPAPtTW5SGqcsEEMsm9BFacW7gXkDDab7MYVBl4LXLGR4asDSV66rWfWR9usK/XN1qHDnjpV4hNI5fDLAouIcfd+GA3vkvcmPivxeORoV4MzkGre+sxayLE9O/r6m0oamU7hrKXvG5HXgeG+uBTKgqMHbPzqdPqj7xhXRjn3Rza/7SljcNhFm/qlb774HE2rs7Vc+M2Ih7jWhGPddbSh3Gs3feiDdcetEeAexWZkEJynKG5FWO4ifOZjMEuoq/4mHEW7CRGpKe9wU69/aQb4G83Ntshxkj890K/jbi2LuNMaYZAlXnGVfejNPfGUfidTSetHth2osO+3dxuDRgh32EBp3BpGZuduCxHelqdT1Kw4tMotLfWHraOfc/ZsdZ6+2F7t3VhTKQwacB6CdBIxoW3nmXdGHXnoVVzQAvOYXhej9HoR8G/2dpiP2/vcVmUN0B8aqGdqkzOe0a6/G5OjIfVstrG+Axi4GoPvGx9LJCeZc4+2dmNYVmcs00sVi4gFDylv5U5G4+eQJlKFifH0D+SRebsiT32aFefvdHV5fNOfJqBpm7JE3M2vr/dZhhXzR3J4gRRhp1Ejza9+7Q1nj5qPwH2qIwS8w5i2XFPWlVplX32mlutrqvFHnv3ZXbDk7ajJINznCR2UTSimtAXlFD/cb6149dZqBcFCh/a+U8J60Wqr/AiPqnoVWM5zXl2e8O7LhNhdX3udehXm9hTQ5PWpDxioJ3DmdsXr78TVyfnlpSwPf/jA36d3RUGXtompXKfRJaV+Wnj+JzUwUInfC8lkJySbVsu+5xPWiTHyQ4JWqgbhZwbDOBkYHxkgNl86a9ba93bvnMJrHKEKdQQHrrEtyo9ydKY7KNjbI4XrGrAwBc7eywWhXA72+4JlFU6kVoa2BmUrVb2x1lBfKet21dN7OkXBkqK5uHmFjea1739hI0SlpmEn1t4TyHwjQ3H7dDYJIq2NYik4XOAhZy7av6xvomH6szaJS/80IY4f0jgQF7fj7PKq286ZW+OTtsPm5p9QvlAOrqspFnZfoMQzC8xOUeffdD6OYBOwE04j5IfZAV4uqPZnuon5XUYcaQ+VaBJIbnfQah/feaAT+g+Qh91XjOHm6QXo1TT12M/6ujl/k6wahI+Ul7y2T7e2sqZUozdwoptmPBInePEatfAjqKLHd8R4vcfamm3bq3+RWtIL6P6EDxIod9L33zURgnVTRGfEErxSTx+e3DUHpayhKbQ+ArlUWj6DqG1unG+behhG2XVncB5mHaw433t1ozieal/xB5t7/BLiRo3jblobWZV+/0ODCd/byZyZYiD2bi0bFxHGEMUQW1Xqz3dM0goeK8rNMGori6WHuqFD5yh3T69xy5A8eUQlh2Dy3IORT1AuPDRnm57knsHR7VLktSKVmkKlMEryFMRyuOasTdsHIUr37nuC2jnJR7vJ9z3sa4eLkqiLKWIgRK83KNP83kuq/fLhwZsuv20JRFiLYU7jVFqbz1t7wD7SEcPZxXAYih9PqBwde/okY4uvyS4C6M13njUEjhHkJtlCnlqYLGwe3DYHgc37TQWaKXfDtr6IeM2yu5lB+MxyHlWPOcT4tMYofYnWwmXHx6zZ1C0Lr9S8JEiY/EgsngHxmyKsPMezofiOBed50x0qL3Bjna02guDY7Zb0ZTibwRO7qN97IIfJNrrdmBn+tqsu2SN82lufMh6wPdoT5f9jLs3J6Ro4ZOPDfhqUfkCuCQhP7eMvmoTHXWWyrmHG1Jceq2NJ+0oeH0Hg+QXlDm/CvWCXI8/am72+XjNG8gifEqCTyoTA93WwKLh4PiUfbe5LbiYqHGVPPE6yoLuH1hIPAD/xolE1JyNVwQdbrUxeTSaa+3VkWl0QiuyvfSSZBPG+xuEEn8eHo8NPmh9BNAkcKdqjr8HCfOvhU+PIcevYNBiHF9GbpHNjh/a0+mQyzqDBZPC6YfBjakRVQL+pKTlcz8NF7ujLt27pFJU/bO/1S4yI4vwfjUUVUIdrY91dqwLn0FnH62fsOmzGhZt17Rb2VzIYRUM0EG6EIk2FDIqfpFs05UYF23XAusoQkLjEXYW/RoSpNcgEMAsOS3XytdeYQ1Hn2dVmkz1gAneJ3/pTKIAI7eeG6oH2JJq1aTiCoj+hlBeP2NitTE5LxoatZzaE86sYYS/DSP8Eis8n8gYKCgRqgGOwGo1/mBDszUS/rgWZZwrvtL9ADOoEaPxfKdWRjSiFUWk32AAYqwNYfs7BPUmopnK+nZbjqw/4H3ge2pi2l4CNjAoAb5OVuTtCYzd3+Afv57ImsLOV/129ySj3Iuraz+unL3g7P2FfYrgSHmNdrvYvVzByie/qclSMRajrHwwr34h7RQKaAm+wIUK4ScYuuaCArtweNzyTp/gVji0smTpZha8hPJo1yU6+OJ9B1LtvU4xob9+ut5OcVdi3dABbrKzwQO3PuSkhb5fAKchuSzE4xAugnsP7sev1cEnovCq+t/h5r2YwI1lnO01uHFeRskoLY4U1wIsbWj3eBTX2t8wRtdh4EvZNWbSLwmyTc65A4z1bvFJBdhwXNSGVt4vtrVay0S2XQ6fCprq/Va4wr45UeAy3ACX+IKVpWQ5hBVeWln/c2OjnSY67uLRCcupOQGPY32F3o3dfAWD1IxBiuVQ2WUwhAdOu5Zvsms7BewFKMesmCN+tiF5aoLPL2N4+nXPgd1JeK4gfKV4WzBUf48BP8WKvpqdbhbDoPaHWEidYlf1ErCePmg5rSiFQ/CpAz6dgE9lrLYV5KFzwUH6PQQNb/HZ+8bV+RRrrzN2bbR/FfXyW1pcFkeYO73A7mGHc5jFTCzGejmt0gtPEdKueXcphiu74bQf6g/L9QXsm7ia63GXaSxCWKcV/IeQ3x+j/FuYJ1tZ0OTUHGNUYmyINlvhky6vyh0aKGnGx4dIMhGLIZ1gsddsDchx9cAg8w4+0d8A87aOPIXPo9yn2XUykIEcSz6gVTJdx2Ll75jvNzI+Jb1vwSd2qXzdhwwfh++vdmF8VVx2o+QC+MMYyL/FKF1bMG757K6VLUO7zl7keB80HGAMBAeWvPr/oK3IbxkW5wOGJ4VMvIGsC4TKC0WfE6giPchcCvRlUHdpvQWAs75RHwpDPhOs2BIfO+8hz9q+ofo/VvkAwxIQV04YbzIDOec7BIwNWIQI6nUWS19adQmfLbq7ouucCUPBhvX0Pp5ImsLybVZ7+Cl8tbLSSCbF6/Cq3aIsfBHGhQ/pL6DeceFvWX6tFt9m8rzdE0d2ZSKg+KwPRTcacXPIJ4rsLQgYjQTtM3hyfzzLKuV5JnsJkSMyAD1M0kncZlJYUjQBC/gCOP8RHj5BMGookmQu1RWwQlYOoi5g55g4BLsv1A3gFvvX4W0bSvwHKJ8MIsxy6HucydCNcOOfckXjVNKPw0bhHoMh0SrwBGcfObgUMln5DrMa00R0/qAEzghLv7tRJLvBvRBalVa7D3//sFyBGkcZBsn5Cv2KMc+3tNqLrN4LubMhw9IFfyfZBaA9AtgV4DROUriP4opRJFQBUTNaibexc9MNb+cxeGi8F2iNjI9cDh0Y8B/zkwaP84kK0sFqp2jV7gg6wvGIhkU/uUI7yar6JAuGLPDNYScxRJBAn2ilL1d4UXzVWxpz+vXdXpTMXhR8HrAKSe5hTEcwkiqxKHMPQJA8qOhVTJfRpO1X2YG9yrgoNYv4JHebzpNUz/uVJoyCdVln3MbgxxPs/OT2KyG1i+jooE+tjBdkcRmfhIfa7MQ9+zA8TgFfRTxq99gFj12e4JMbUEc28ov+NScEe5pzKv0oVFuyOAif+iX/tOH4CiQKX5cPaNVUPIih1aVN3QtLo58+YIeZAws8Xoav0yp8+Px13MSv07/mnVbO4vG4eMycW5izPt/hK9+HsLrU+iSyGKc5C4/Fp27wncbIySvhc1baPew7grvkqY/2H25ocj7lA6+Ank71KVnUnFWJhou8Fz6NuJe/x4/4lM1uf4S56ilk4NPC7jWEDVpa+C2ZdzRgejD8EZlZqKE3gY71IAG1Eymu68I/PuSrAhzU90oFDFy/LwQ1rVTpQ3x2dsMizcJPJspckyJEKZo4uaNkADIJKZZh0YDrRzuWcylqS/5YFbnFMrLLOPwlP5j6i3TodfhDVl7bZu2eHBnXfHpLxQh+qqvLl4QLsKJRNBaFz+KIdlB7QU/BZ/4B3zmsvhQsAqZ+WnUuoSLYyGfej3ASTFh47x9Br4R4gl1Tsya/isNyfqEKkfb988h3+kyTXIYJVy+Hk/iW3QBSQROKieb4ngVWQq7m+4Hrl/IQOShnYfhBsDrklOmW39sbgbfq09Hl8xVxDqjFL034MOPeoZ2NCnT4GRHfh+MRfBF857TqrfgEfnroUUvIpyhaJTtL+KtGaFvj6XziT7l6RqWwRKvaOxOfHDbgQ8inQRTOoIx2CEudFfkkWHCZc7qCcejFiPWKOeJThO9LjIpgVKQAVU+wkd2M7wD9uyjYM9DqStP5hD5nsdMSJYuhTJyRT7QZjv84CrJRClbCEMVjH9cILnrxEtIKXSqD8HcwlKdoHvu3Ub+g0cfW+RTIYg+GrSfCJx8fqjuPVTe68HdIR0jXEj5FZHHF8YnASuco3ZNC1qP5FIfB17wTi30wovuO0BrIotz7zFktAFWgNYR14Gg4vV+JTzJGlA+URa8lbNCPaosdmSIXg10cn4Kr9FdQGEf04QTpWaQPxSfnlebBQp1I1XN4UatK9bJ4fBDpxfnjoupBSd0k/pX8RlTrObS8cpWzGxafIKRZTor3OGeFuS4vQeQWhodtVkj8hyVc9QOmsVDgUDdeh2niclQRY/SZcuqEfsAF/i7jgish6us8QUVNhagvDhtfLDSw+F6DrMg3RdRoQgp2ARPvZ+EvNR0UKulTGQkFOyDqPpc1IVxoItXe9xLp3/kGhKJ7+O9F7Z0LrOqIf0Gm3QD2XPtVIIYEXEpS3XqfenWiV6BTzUd4gKfOqdTlOh8bvhLfBeoNhYwWjMpyWtWvFBZffSC+QQOOV8DjD8Enhw146XxSnx+GxxAk/ATrUVa8X8KnSPtLX6DKmSJYyYM2GSweFmAjfFoKtPgXfYUyofGRXJwzn0LYCNyHkqcIrRor5Sv7qHyKj9Aqgj5wbOlLQqN6TusSPukruH0GURSemnmzyORyPjmcc3QF4Eif+obZ8+HnbBSffM56PwGaZ52zkXpyhXltXkZwISvUWPgLZ8lZUKjFe6VjGRvp9Vv3mnEhXYv1ItXP8BK2KbwGehsCuYyq68cdMEKcVJj/EEloxVeNyccpZzUsQcMi+ly6OKdKKzYU8HIZvP5cgTavG64II625SwxGKAml+6vFJmfOsu743kvQ4dL3wGuwNMCzuJO0UlwsIMPqSUr0jLsPKuOZwttAbL/6kSUTDZqgmiy060IX3Xdk8EIh8VvSgtPnDovCp0/R4gIVDevMkXIO2p3R/QDt/MQz1QNOilsr7qA9Nbi0aFIo6kq3gxcEyWEJnaTdlWn1Dtz4Bhcbo2iNwDpOYvXyLp2uQNGq31lcWYu0on7hk/j/Pj4J7cj46O37+RTwWHS/n08BrLfLW925WM4nH1chGxkP5586CvHlK+1MHFafiQWaFPBPBiM6UlJgXhZgoecMPPbx8T4DnoagC/2Ck1whupcRfEYNaXsWVyE9Yd1oWMmTWL8Sn3ynJT4JIIKjw0beC07lfXwSrZwJrCgTIa3AadgVNu1tr8Sn6D7VUeRvv8B4Rj5JJsDsbLDsWJbyifrM2RX5FGlHtGoYlfpH50RB+/qQucO4rjjvomCFfsBjjQ9/wNdw3q0IK4BIcXrovHN8houReHzYdel6aWgIvBptymXX23bUiiu3wX9FCAYGZ0m9sNFlr2EdndUIrq3uHV4jq6pIXQVD+PeuC4zURowdeOnzj1POali8cRBSKnXtVoScT9yoHgNXGKFs3HtITl08vFfdcy1q08cLgpSGZYYLUUkiOKoBvZeQyLrrMZ0g4zCqItzicVc9UFFmBfKVys8p5S4cfMCppA7YWsp/284W/xnOYeQ+kjILhUJ46ILfTlJjbMjItETAteKUj/ol/OzduCTcf+rt0p5eBaw+KBJQpXFQevY8wnKVrK+Fvg6QRVfJH2VgnH8OBwCv3gLt6/2FeXlWgX86g3qCraW/kxxKqpK22Utg4Y8mxRxGUOHDF5GmowJfvC71DaA8j3Ce0Ma5jQQ94EOIL/1Cp09kfOC6Nb2FLMWl+OJFhnzbh4Htw43o+ApXHxxhSqFfjYwmVDF50jYRtlnIWYnSlevgV/dkRvFxu2tjCVykfz6Tol0F3IYM0rNzhqALeg24T45wVqSwZ02mJcYFGJc98Qk+bCStzjr6lh9ffKrDHXd8kIuBktHlPAbWlQuwOni+KD+fm9icKdFOL7yr4RC3XjzmO+dTQGXwG9o1DcVjpZa5hEPiIhJ7JjI5O3AxnRqGx354H0SsLcCHdItW+JQDj5W+JAe3mLgoPh0B3yFkI+ATn0bYu8BraJkjnX85YfBbCKsVrC6ZtuJ22cchujJh+OMUND5hifSrxZXebiL312r6Vgp8pc1XaPwhsg17Z4KLHlveK2mnL8zgzSUkoyzlzEKyqLsq9fC4hvOT9/Ep0qdgpdgTkPtLi4tdJnTmKXk6ShBJB3xeOGt0SaN/CVwEf90uz+FG/zbGtpA2GGnON6dsL8EVo3I1rSTHISxztjIri5T9Gf5IhTGMcSewuznz0bmCz51ltIpBQl0LnE2EWVfRtzwhQ/C1WXziTE0Iyq24ZN6JT/omMme3I0/lzLs06glWOfJOE6jgdEG/d0L95UU7La1Ejw5Ocgdvxi7mnuC0X+hdVPw6YpAnqO74C7Zqy82WmVMe4EJjoS4+k54VzkEdGZVY62o5wpWABv8sxEV1xAPVk7ehjUjbXgxLvM4NtXj/GOXshkWN06kejTmDoOvav7oTUwL28p46Qmy4v8XSM4sXEA8J+yDcAuJoTaOFLVCqZ92SV7veWaQBfS0FodvrQ3p2gPgfIV4rRqXHv4JBribX1CQHyOmE/LpQAaM+pKxGSB3OHSCrm0rlYiOp0vlc7XpHdCcld3tVpV2TlWY5TOpUwlJn8G9OMLG2pld5ZuOnOYwN+g4gQ0Urhf6ZqtV2UQquOhDPI1XFMPdR+jKSyDmVSSLILtKVo+gxbkGX4iQ9g4NSjn+mvNTWMhp6hkYmQQcDHFL3ZybbIXITPUkUVC9KyJVmAOTjoouI68nddCfJNytgXoEMC2cfA/R7bWaqvUvE19PAToK/G9AIrHYUuqB6GQb0RpLqlcTMcOBKxAh46xzhuuwMew0DoeijiOQFr8DLKSOl/8mKUrsCw1CECsjjUQWKUuoj1LkZI/UiE3oPPwvPkVG/GmAmcRLjdDew27n3UMAY5hAjr2eE9JC+ux5anyIyrIZIuYXoIwcFMyZtIWlIlJV2E/dDCmgnjVQhIxzAdxOCfgLl8CjhzIo8CxYL8Jc+fdIAuwE+fZKIv+o4xgZDmMoBfi/j0ZORbPtQZr8gcmyWRUswKkI4KNoxXILRvpl08uVEzeQCmxCXaN2kde/JTrPXBzPtOQ8H1+4i6DOkVWHY15FH7DryfxUxPrkc9Goh2I2SVhr+Z0lhv4e7LM6nZbCp0HdzUYldnskhOnKeR1r3CW5hd0/G+yMhfkEU1mmdvdCHIx2hVYZB9N1JLq0LkcVsvhaPBzlH64VPp6D1pxx29+rsRYAaFxXGVLJYSU6uT5FLS/MoF4OUQQqWHjITDCBPe0iQ+Sih6n5zXTCC1U8EdgttKwt12fy05SLTyRxqd3MP5gbyxL2CcXmRYBHJjs8675Z3oCCeX4UxuikfowJsPvhK4fcyttdJ/olS3KvIPcFG4St9IDVwW2UlsgifkMVCUgJJJvqnE+0KYB8ny3YNyt5LFKy61y3ze8qq7MJkUjzBx7y0DM6VuFQbkafH29r9jpsWM17oX0W/SzDYv0ai0TWROZuOruhHnvoZr330Kz0xgLHUOUkEzGHDX+K1xq5vZArDMuWPcpdw+OdUCowC/AF+fKTbju/9iV16wx/435LJ4B7g0vpqO4TXe08nhN5Tlo2Db/zTwndqWyV4DdLITOBp2csj4lUWqfQ/P9KvsxoW5wg46EBH6QmSmZSodAaYDwPcvEosJ8/dre9ZUcV2J1jEBYf3QjFScUX0YJwTGZCih9f0tp9gyxfE9Ycgas9boiklatMjj9VsuF3zNminn5vFXFMlEdxNBBOQQyhcrSCkMizD3Gg+/c7T1ttwMnARqW+1rVcG636MyiezeBgU90ny1m0nHbaMExfluGeReegVW4swDWNo3kRpLgygmoA3X1m92q7GIFWTNDKPfEyxxLbPs5Ia5j7N+sOvkTco2f665jQXBTmIE2Hqk7YzWQn/3iqyD7C6rLjgCssmhbeCBWZRtn3E5q/n5n0GE/x7RPko/t7hgNVdl7U8g+W3ywrtotJyKyXLcZruADAJZrjH03Vyr61vPE6eonl7AsWnKDXR6at3wqavIJvt54vzbVPlWisiCWBKboFL1OQID1fjomI16e/lHngVxbfAfNAWT6W07iW78upVG4HdYYncKREfdW+n/ehbnq4f17EdYGXtSlP00r8y4d7HYwLuIlS5vHqrFcDjuEj033B7vXUcf8cfkvYgbdWxG9CYiVcyKnro1QPlJYQqF1sxiUZzyAity6hzXMzt5+7NBm5CZ8HSbxNJNRDZiYYr8FUYwC9gzHYUFFrpliu431QBXqRagU89XOCrPrXf0tFw32nigh99LygScN6CMv1tdsLrC8l+fcFVlopcYeFteriPHGH7rZIb9KlM/l80twS0OsJaJcbwmIBc+y36rSiptOItV1pSehbUsDgaEJ/esdKEWhbisbabiKiFuyzU0PnGHfDoNxijEpJz5pPUUCtXiLVhLkm2cMGyBKX4tYZWv+Mjl4/jDazuen1xVZVdy+KgHJnIqdrglyx1Qa+f+zPVXPYtYkfw57WngwUHMGHJ5vOvVq+yC1j5V5CEMYMcarpkOasFErfjq7iwmM9q9u9OnV5cyQsYOVmbmeGPYqjMYUdIZvHUbO43MX5T3EfpYmxWNbzn958ebW4Odh/iE7zQZerrGNPfLAGOezclzJ8k0tBrxk/oIiq351exS/wb+vAw3oiSF3+1G3xgTbXdjoFfveFiy1tzEbKY4Z+P8riLZi5JriYy7s+Yd+0K2NDYqvCqufC/QOvlmWnsBq6ATxtdFiVPw1wEXctl3yIM9P97qnbxMQHAaM5qgfDVVWU8xyXXKi+82rLJzxaDzlIqlz6yLayTPOE2/D7hzJ4uB5xBf0kJvUES8AOkq99VkMI+SmdZAABAAElEQVSiBSPAwjnQnZrq4g/zhuetNJ18mfx/2Z7dWPehdIlUi3sPGBAfRZMaU/H3Wl/Bf1K47H/5G+QKO+kBN2ozqBLUFUvkHVParNd4NLwiTV23Rep55Y/w66yGhenhnR7qG0Ohp3OIz4RCsWuZIKJUNHkl2I0nXrZNO+5FEIPb2IHipZbvKoK6S/GDDTJQYgdtiI6JiSHSrrzid1jc7xcBEDO0glESuD6M3LEBubA0WBFGCg81gNJXht1VW3ZZIhNieSkkGWT3qT1m3IwNGSyX0AwK+y5SpF/D6jV/407bePWnLYdnYYRF3eRzKW/P49/iGShluIqGSW/Nik9CjgvoRlbC1/MAqwqEbBMp1tMyULSRMo3iVar4SVKsf2l1lf3FyRr6ZnsteuDbbYW5dgWr2uKLPmGbyaCciAEKSyGZkRPS8+wTu590t82PCY0Mz0VyWK3fWZhnOypWW/nld1g16c71XVjyyGI798rDXKDk6YysTt/hnodoFq/LWJV+BqW1sWqNrb/+PitZvSUE81dlTZ56+jv2Rcanjp1Ts6LGIkUPr7q3jGdgkJRzC6nZl/CJOllcrJt65vv2OYSkQbsu8Ymivnewa7i7rNSK1m63zdffSwRgvn+nX9MozyQSTc6+8Zg/ZfEfWXVqd6oR1jmTeKysx6UX30C26E8yyYLbwIItWXuRzSeTKRgDXs+O5Yn2Lr+RLuWhx9Peh3K/ECW/9rp7rWLzLjwy3NyPlKLVW22GCXhHwgE7yf2Rt+XuiciVHnz1FRYblRiTTZ/8TZ6DsTEi9QFwDjyef/lhuyv2Pdxiw3aMMF3fQTBFVpEA8zfZhZaQ9n7TzZ+3gpJVYZf+ml602uLe+LndPXfMw8118c7PelCWkoe7Wb2Xbr7MNlx9t2XDl7DMgX9ibrElklnhU+wuvw9/B1isuFww1veuqbLLWL2vufJOW739BpKU8tC5SCmFx/EkfIznFr3G/8etHe6WdDlGHn8LWjfgYlzPowlWbbmMaR3FJ1Lxx7PQmt39jDWwo3mqDc8CCwUtvPQ00S+XFtrq/GLbAK0Vay9cwqc8Fmrxrz9it029bq3jBba3mwug8Haas5gNLKg+zYO6qtdutXXX/joZOFaH6PprJs+FiX3uIfsChrGTHUAbfJZ3Qk+MvRJ5uIGd1FoM2bor7lryyAq5W9O5DDv79IM8sqLC/uxUXXD3x+fsPDurIrJh4wIjo7YyNyspaFim1l9syVxoneTxBF/ASP8tz6/RDkFtpoD3XczZncWlVrrjk7aBbMYJUbqmYNUFJLrNsRvffda6ShVarwUHuon/0QXRdDmLw0NxuHPcDpPB/cYyLilzFybQncGcCQ7Xg4VKzaEnPLJr7dbbLb90U3Rz/n5ZF9beuM9qyMPYVrcHnsnVHejLQN9qh60sKwQIMM9e7hjF06HrDdJpqre8tfd1d9YPFjXRStVoX26TIbLNNnLNP/qcJSRee1mhMMYTy04deMwHQL7BAPkAwYW6kT6CvwOjIwMi5axSe/gJj4CQ4nWDxWeqqx+ttEkZRW4hblsr+y14ubvMIYN6gpOPfpKb0WKa3mvbqFQa+nuCvFw6GwgVrBgYGJh5ts3Z3I9gQqLcpSyDQ1MdCNIX+JWxwi7dtNPyWa3oiY++qogMwKdRBDFcZLrwunvcqCgxniactqISutWkpy9cc6FdyNlLNRPX6Qc2hxXRLXmkTSdt+wU8x0J5r4Sfw/KaRubiqu2kTyfT6kWkYi8i/b0bUwRhI0p6axKPygWvNRg0DaTTq36ZsFJGqy+5yYp5INfODLLAsgtyXqJ8rmK3wUMLbBU7OxkVfR72q77zi6tIV36zFdKfUscv0Eq9m7lQpsi8zVd/apFP4rH4Cg4lqy9AoV1vxdS5DD75Ug0x0GMCrs3NwF3Ks1yuutONivfpsNOu7JWqvFgpx1nAbGY3pnMpwVfAM7nOlHF2LTjLqCzQyhgn4ybagiLNIOvvFRjNIsaIAfSfrYzrWu68lLFgqGJHKKOicQl5nI6i3XbD/fiVU/yZL/6YAOiUbOwAthL3WwXjV4JR0WchnOQpjxX9RtK2pyDvt+ICCmjVfSzSrWelWyVPuizbdq0blUV8lThx1spZNBSzA1qF0tnFeYZWwlrVpuksh0cdlBdXWAUKU+MYwirsVDis53EKSSXr3CWmB42x6gIWNx2Zt3eyAlfG5dXbP+FGJaRVeOuRCFtQojFkkb6D56ekgScTwNss49xJKV2yyAi8FnplVAQT/qRhVNbvuo3xy3GXos4HNLsFvx65vjg/z9KRxUqMynyEvyFsLvNJfKjMzbMreFSEdnzBjDe7hJ3OBviUz+5KRmVx3kmmpq0Uw5KzYadtof2tyLHmvcNC781FeZaP66ua58AoxX40rGSxil1MFny+hPOtdcpSHKFVOu1TjFcMxmTrNZ92oxLiqvkuPlUz7/LZFQu/UtzE4ZzNY3xuAZfY3DIWgrdw5MR5hPQLvBK+ejxHFfKvBcUl9JnLTlupYFbU09AgPJWP78mWYcKlp/ySs1z7CzrKa+hvnfXMWAPnLXte/Jq9+8LXXF/q7GSgp550TO3W311HrrcDdmL/I/b20//N9r38dfK7vclCXYvsUNeJDYHxCl4Dj9SjDUq2GjFq4tPHLGfdsUhy/BAHK7+7Z5zHgOqCGK4W8YnBCUqAjG6InjzwCC6ocqtcf40PsqKGPOGcMyWaWZDJ5FL+Hl0Q1Mrn9HvPWO2hx0m2JsUbWGi1L+I1iZXosZvbuQf68QNKi/pYhTgE9cL6Wl1IGUrwg0NvGTFFSQXRWWE9PvSVbSYCIEOWmlOE0iKligSBAQ3DlSU0wreIHU8zD0vaitJ4msN84aVdRw4Dp3TxiaT/EO7qR/CuyGlXB32FCOnJ994xHezXyedL3ynwsAihVfp7TWRlsg0TLLovmrZS8HGnF1dZ4rG9VobC9GelQ5ieR17gsLgc6E2TSq4jFxbaFg0ykDGkqtCzYHR50p8kCT46bEyC53r6o/AVnhqDgNeB8iysWGeHoGMVykq7Oo8uox8pWtXPr1i7wCdfCOAmDSdfPrsZGddVKCs+BIpHfdB+CcbNUOBKha5JKHzFJx2QiseKsJL7JQWcdHAcwhZicOVESsoptjTcSUtoJVOA+KaHpMXyXSGHaKLVYem6ip1DDBM/l7GT2DityEYwUWVQp11ZxpCnqgy+iNZpflSqwV+ZXotXsftzmUD0wFFtBD+siiUznDGVafctWvlJgi49JmCaOeGp6IEN5Dw4CBb+4nsqKUhy2d3mcWiqQVSbupSYwftEaM3QY5+B1ZmjeCTBF77KEpzGzjwbWc0CHwTO65UhD1SwHB7hIDeI00pdzQEVGRnJZg7jPtPfYXnwSRdqhfMqDJQ/EsHTxYc7RcmxZEsyolvgPAOINEktPPpal0z1qGGNWRGr7hjGtYC0+04bMPrcYX3uIMfIYUYuTx3lzCMV3owxZno4n2hNhs4M5kDQD4ElLhfCF1mEV3mkHOojq4fO1YLHBMzynJckUtOzQ0bGE+V29vGJmrPiMT/FPPmzm+SzlYztMXakNGhZ4J5GW9m0K5oCeYqmlXGkXgFPtKypOey8CR57rVT/Mf7MmzR2jT5fGA/PXccAKtJLfJIOSYfHSScPEeyRzKOSCVwIpoHzZOEXcuYh/5wZnkavvUwOxPuqMl0GNXY+l5e8KhFpih/CD3SfthZcY8mpPH5duQ05V5aB02NJJsZ4lPPYAOeUBJqwk1fn2r1rnMPisoH+0Uc/qCPgRufW2q38ksrZDYvjQpw3tfZ2jNgny9Jts7Jf8nmIpIjXj8osz1w++Pq3SCjXTeK0z/BJMFgSaEbZ67gWZIJIeAhqZfxm7L13f4xRecIFX5/7boU2RbwX3jOePIOaiKVuEvMRmjenLHtRJayrVwlZ+KMqGmyfuPo8bDMCLgyVql1hlNMkNXR4SYH+Ux/i/DPRqMfZyhiO6lJTpG8FNSDCniJddRQZI/7wNtKXOpqzaWD1bkyrcBX+kIGeYHeRSPK74DN1Cv7+vXCVngA3DsV1ZuH5t/Qdu0TtHseFt3ytERwdDCAZJbD2hyXpeSRKhaMzFi/gNUFjMwnBCkudiWbV935FDX/rMQDimz+1M4D035NaHfNuGpeTnonujAWfoI2gLfl1tfpWFJOPN31qAimiT/xTKvTA4EvhBspWDFEbetww63JS9gfnaIKf5v0k33tKfujVYoWWqBXCCpofdmM6C/Rwbw0ARbfziZ8CX3BC0QRKVt8F/alP/WilOiEl6FDBr7GIvEySAyuoz2/q6j1v9N/b1NMkF9KrR2gdUyAAtCrFvSdA9PoBTkEbyApjM87BqsbSC1/LkE2qXQ7qtfNUG/rWn+nh/aF42eVofJTp2JNQUocJRTqfQC5F64L8B4JIO+ADPTr3UDp/8c8f4xD07JmChZ1k3GVeijmY6Hwa0KrPJ0j1rxX/GLxWfRkD8QkGku2fqEn+uXEh0EHFaaWi+DsLrTO04VGbfCf3NprBEzRqceD9wIv5ENbxJbGkZFHjw98yNupXrjCWQ54a3+HEJf0XL6ghWmVEJ3TuCu2jmne8qqgdVdNjvFV0RiqpDvWY85y6rg/4Xg8SDIseBzGNDE6RtdrnO/ViNX7ODHCnos9Zzls0ZyfUp747QwkUPuPLwuHphiErI4jlGp6LoqSUkvJwboe4ga0bFzUnIzLU36xB4FPV1YIJ40o29MQUlmJOr8Yu4Jlwc5ypL6Sk+35En7sxaGFeMyrw6ccvH2yiwEZoSSn8lO2SwjsT3NItEi00hLxWoOMjPXZsz4/s1Uf+2OqOPsuBOekWZESwnv5DRI3+HuxtxP/3hNc7ue9nbmGVoTcQxEVlLiWZhFXpwP31ZMsI2VSdPRGmLTIgHAAJkxIqSoH4Cj76NfK5+giizsAZRk6y8hqD18ODJFLkUcLeBhPVV1AMgm6o67NaDvTSEcDniJbSbkyDoPsuh4l4GSWDcguZiLWiVdEKXEVwUyjLWvz/8uUfUiI+HzwuIyGwh4eHbZLggG6SQSrluJSQJqbD0lYvyQM7yDg8QICE8hv5OQo0nebcoxEFPUh6fKWN95UXk28RNt7qOfif5rnftaTO70f5eb/gsw8cJmiv8eCrUCOdpPDeSL+sjrVrOrbnBUuivT2EHksBuJDCt7d6BzwLw3F8yM5f55OUEBMTvBTFUvOOcr0lklaH0FY+UxlESR4iGiqOw9xT/piAYKyD3SBKABxER9fJd53WQwoBFiw/NeRMa+dG5nDjMc9mrLrqzxUYuIn21vpjNkXa95OkpVGKGJ8gwO4hgGAGmWskO/UEBkLjofH3fsFLsLWH37BYlN479OkGmO9F77vwSSGzx/c+53BahUthafGgcdZPA4fhykf1LmGxCJP3Owmtx0ZJFwOtNciML5YifNJCynenKKdOshR3ku/qhFbSmujIRS/j2o6iGuC5620kUnQeozBEq2DlLh0hweQQCTRPsRJuV3QXcIJVss5RxrXl1D7mXZfj54pEsgg9olUZtwcJKDlFrr1+8GRyO7zCZEfpo+H4u640hbPzGFgpLPGtl8P/bpJ+6vHck5x3aO6IH/XIVh/ZoltrDrmCUz/ukaC9cO70kKC0vaOJbAs8LgNY6RAZ1iYCSTp6OqxbgSb0Ec8uSnSKXrWjz1o5EO8nolOPFBCMaNVds3rmVRdp6rvJvqx6Go/FORvIVz2ZxSc4kD8uHmtcgVUamONEug2RcLKTJLHCUUUyIbWqtmRA64CdZD4o/X1woE5eO/rVWdoYSUn7SX6q8dDznny+07ZwULbuTvRIv8aCMVEwhjfsvSz9pf4CfcRjMFhpfvdkn58hp7F40GLMF4nis3CPFI2LBs75xd0Wpb9ScId2M37XRf1RR/UW4GjDZYF2pM+VhPYVDMovMCzCTZ+KN7+scva0+TXvLTBEB4vtw1NWnZ3MUxMDF4aQELJCPnxVOpUgPXgjQowwNeyxpprXrZmf1rrdDNYLVn/0OdLYv8ih0m73C2oFKjgxImwn+lVIvMnTI59q5KFKbLudWUzmq7futBu2XmqP7XvdjrBlvb64xArY0iflFLiS04OLtIoa4/kJelDXANlt20l33sak2zs0hhtAboXAFVPLRLssP99muxtthImipygm48vX9z1ELL3z7A9simd+PENW2ad46p/GgZH1cajh4PVqDu9HiSaZY0IKVn5a7dRaiRo6xHPGh0mV/Q9E8bgbzAUtWLn1oKR2pSfbAJlRYxCQDNwjOpdR+u/TKODGtx63011t9l2Sayp7ra+4wWmQyKc4hHoDocKDRMDEkRU5PafQldg4Z0nvvfuc9R58yd7taLeHOcxWuhjhK93XgYItIVKqYHwAZd5DFE6OP6JVbQ/3ddpBMhcPHN9tL5Fl91ES+blhoU8JXgsHxus4x0jnTG1kfDTCJ9yHNNxLJNkhDrO7Tx+yp0keqPDSkEeaeN0sStbhWkvsJwMvkzubA9JEghAk1M21R+zkaz+3VhTQz+Gx7hGEtOqQl/WhrcHNNY8RnmLyZuF6FJ+00tUzXk6/ycPiUDIPtXbiqw4SaErxjUL3LIpifRzRfXzvfGJ8dAA8QcjwyQOvWN3bT1nDQJ99q5nIO3AUnfrpZ0cow7KePVQ3spOalc8TSnN8Qg/Bp+McZDftfwlFQ94oAisW17X4rYHN4QxjNY8n6CbDcSZRUklpmW54JU/vvf6odRO59zJh3U+3tvHsD8mSVvtz3JHBjUgkVDZhpsrVJVr1iF+pk3YybR9++ac22l5r38etdBiDFj4mQIqoFbm4mHOWyc56HomQ5OMj5afdTRPRSode/GebHO6xv6xt9Fx22v2CFDsA5babsisJl23n+SmKYEvlPEzP9hlnDtUdftNOvv4z68KA/EVNXbCTFZ8ocqeJ9h14IJsxPGnwNwU+6fEbQ6S/P/bOs9Z54CXPBv19DrO1Kwtcq7ogOM6cTbGKySHrYmGRzvlPiqLn4Hs/c2YftE7WH7KfE2ighJTK+OBzFnk7TfLR7ToDZEEhY5EGbDKuY+1luppr7N3nH7JZsoT/A9mIjyiwQoV2USA8C2acM79cG2ROo5Ujc5a7JBiuZgz+ey/+mGfQtPM4BZK1Mu9CmdCzhZSo8nJCknvaG5CndJ+zMojSMadYaDTvfsJOdnfYgzxiQPnDfOGGTqkqDdLm12OQHnnnZXLGBclaHS/pUHAbxyX13iCPoKb9Ch4A5rm7+M5d+7yqSDeeSwnrha8+j5ExpcR6thWZrRmAb7QppeBNB+1q16nNqtLmf/7a2y0TN7MbbPqX7g1/zobL2V1hIfY0Jlsuwh881c92LZ5HdmJAhAzfRRsBGQdZ0sSkdH8EsfLTaPUizLWa1UpE9f35zChhnamojZWMiiaScoMdxf/441pWhFjZ4OwhYLAbGOqI6Yr+ydAhG+kPTr3yE0vCZ67VlAuEc03RXyhXJkkmwpAQ28PBm3zX/Fg8mVkn7e+bW+2P2IYnEVr8zumDhGnKi4t7hu10LJNRmUt/hJLWhBEuQYmxbhTf1+tb7EtMsFQiuLpRdFhA2mXrjvLqZmX0Q54noVVtIn5l0QViND3nkUjfbGy1zzGxU95EsTIBxSeWZjbHs1ZOd3fa90gbfooVZQjrAw9tr/f0+9nFfbQWR2hmPXS5a4nV8Cypzw8SffMd8NUlNSlhd9FRV/ctHm7p4I3ZHXF7eAZHo53AqKkonfwUhvcNdhsPEaY8A5AmjePLbyX5/FZzG/Jgdu2R1+wgK00GW9Sw7x9ja97B+VMviqDTdz6aA4y8uzd72E18s6nNvsLfKftfsHfZiXl+MdqMY4XY2dtl/8xjDd6ErkT6dDcBzYofx9gVfoe7QL/NeCVMPW6d7DJCeYqFT83Afrupnd3NmOMrPqjneGBfg5Z0FiS/EceqeKTPGjDCCI2Hg8/BtxM9gm1lNcrux1evkbGFx7/geTapjNldsQfsGAY8Rv588I/FDTGOUd7NRdvvc3+GW0a+E5GRVJH78YekxU9BaV0/+6YdJM1+KE8xuHYGSP//JHcdfs74zICLZEqwUkJKXvrdth7OFeNt+8wLtg8+sSz1OWLwqbe30x7GqOzm2TUwGVmW0wRaeX8Ko/rtli77MnMqngVCB+G68/CMVY7NsYPqQOE9xB0YPWRL8h/MD/GY3R08/h6wv4Es1r40hDyJT9RB2Sq8+kRXO3hxURg5VxCE00obmmfPcScnJ7Hd7mIsjw+wW4JPajuG3cI4aezf7uyw7zF+g+Dhsgi03HJjLL4ebu9lBR1n18+9be+xONM5nMZuDnkapS2l+X+UZxLpKbHB47tdovw5Pd9EeX8JfOP3P2+D8GkOPuly9CzzfIB5p0XKqxjvaFo19oqU/DqZkb/EXEnhuTodGATxUrAzLEQ7eKbLQ8y7g/BEEaZyNkEQE2TWH1r3Lebs/dCS/OpPrEkP+dPCAD7NIIsnujrsu8z3BnisOSs51dhIFlVCveV/hL/glT6XS6oL78zXjvTYA+uy7MYS7ojRtcKQPc2O5hP1hIvm1tmKt0clzXfpHOV7VBTYdzAoT7cMBecqvqChvYXGwEGGRkFZkJTCWVZ4Xna2vpZ/x3GGY7nwuR6JmojQ/McH/8K+9uSP/HPh79XUOQRWZibZf76o0FMsy58tRRdtXBYaC6FDBkTGxj/Wex8s/yv4SIylD/Wl1VcKwtbMweZ/PahnqLBtFxPCOpxL/J/3f9X+7IHft8/+j/9sP/z5P9l9Wy60QgZGF+7UpeMd9aoukxASuQ8eY1LP+H0HKaBIoe0MVtS35JMmPSONmH0e9Qp9Xdz0f7x7gIcjsTqMrPxDEH9Vw0yuVA6Kd3EZbC2HkyXEzysMtJH6b5NyvEuraNpfHMDFPvUun13Azsx0W0v/uimt2861xN7r2RvDrK68LAx+8Kf61MSvBG47ETNrgE1GKLq55/MeMHtxlUyHbqGVYFHeW4C9gBXjah2WI0ztKP+DuHH8KY7wSZPwfQUZiFH0Epcht/A88XJo1dlLE/UPjkzgokHhaeUvAY0uop+fZA7FFW2zRZFe4KCzIz39cD+7xlZ+ArpWgKWtHPi0g7HZID5hLPpZQZ4kRfx+Vq99uNq8LKdV/YJLWToPVSI8dTXjk44B6WR8jkPrXhYME6ycV6RVPKbuOvDdwfjqUJ6gNWsG32Ok4d8HrfNn4pNgoW8bt8IvIgS4RIfckFWP3B2GT8dwsXAhYeV+wTkBHu+Cx5ugVbfRx2nvNLAHMJ5NOhBGYbxPnsQAYNO5c3UlOK/BZ18ADn57nuCX3cD1icfLxyYCp5cidrOXI8eV9JnDfZl23FW1yNHbAyPsXsSnZWMTwiIra4ATn8rhUwqLr1bkSXySS3WOeXlGHoPjRdC6lejHcpSxdh2t9HuANPzOJ2RkRVrhic76xKf1yFM5EYB6JEIL/e5GJvRYg5XnHUgzt9MJprkMnNckJ/hds14WiY08x+Ut5mxvmMRW9EUXyRPapQg53AmvqnnwVxYy0gPsSebs21xHcD6FciiDMjxo23ZeY6/939+0l9/ba5/76z8mupVHU8tAe3uRDnjvOhC3WBo7i+s5176vOhOjjauYs11VlXEIhiBijMJ+aCK6LWGpu2g6E1PQVaOeC3V6gOzvPM1VlkaNRGjR3NfKM2UGN9k87kj+LmWH/t8//0dWTNSejJPwUtGrUv6kwbuqqirLRM6Wl3PbsQStORKyzE2kIfjasR77T1sIMUTwdPi48kGTQKAAnEOkltmSBXzEEGcor4FRwXIjHH97rNeNivp1pkGUGKaBnYY4/dx/+U2kNE+x4szsgD/61pkQ1PTq1A+ZXgROG+Cs+okuYpuUnJ7gp1XqLH3qgmE2n32CiXU97+UaWQq12IIuQ6ViFJRaXSuwNP7ORsGuQuAEJxW9HFZ9ajUkHipSJRPlk8BSIRXYHIz8ZuB1f2fBSi52B42B4Gj3IEUpWE45LF2wGLRdvKrfM8GqT/Wv+xqCV0mH1nx2djeAaHRGa/8y8kswCpHUCioLWC0AREM6Y1GOQdT38QjtMvYu4DEF/4WXMh0kMek0DmnQugZ4VK9PnOWwolW7VeEsHivyS6lV0mkrE/5eAJ+U/SCQoWhsJQsBnxT1JFo1PkrtIx7nArsDmp1PS8H8L9EiONGXzaJEfYvHyay0i6D1avHYZfP9wIKdBj8tvBTtJZlQSYbWMmBvpU3xcDmtXolf4nESbYvHIZ/E42rgtc+WgjkTrA6oRafGVfKjSLsc+lwHvLwAwWCEPQWv+lR0yv2iPhWOLFlMoq18+LQVPrksLgXzv0IeyyCEfBKOycAUAHtFFJ90Tqhx0vmk8BdscDEwJiJPkkXkCdgijP/Z+CRYLWrEW9Gq6MN0Gs1ifMqA1TjrTGb5vAtJ0JwVneKVIiVT+DtHPIZXkgnxZHlRn6EsaiecgXHQXJE8ZTM2W8M5GwHUOI1gpC7beCGykmBjuMeCMxvpx2WYCVc+085lFDfVU5wrH8ZjczMG5vbyDHDUg8oIBnI7G8zfJVqF5sIWCTazNBbHQ9R/sKafp2GOoUtZyIgoyUDIfBkZ7VAwLEVjiVY4zrUHWkkY4EGEf/0N5CyQUdepqsc/gRZxbeH3//A/2LYLL8DwyFMlDReUczcsqh8hmtGyI9wW/dND3faHm7l9ii9Qh/vaRvrhMlWdOdQPFHzQ2Uq/o+vJByi09WyQGiLA/gaj0qykaDDTB4D2VPRbhKXid05AIO7YcbX/+Je/xF8aoKDHX2Kj55s6z4F/5xzQXNZcd/fUv0NeZJCySed/UmLBQig0BRFmhHoWvScD1oQu/D7hw290jNtFPMZ4Z36KbSQ6V00oKlU6U/XUppa9shk6ujiIjt7XTaRu37i1sFtRglwUtOtxV6BqQMVf0NWgkTDHEy3ZtUgTz2OQBqaDyLmgYqB3VTFwjxHBiNtWhe6XlA9nWAQaIkPHpwen7L8c7LHf3pBjVxamchCEf5LVg7Zezjiqe4cRKxf2HCARMFWMFVO01VKkiFZorxDa/O1TgySJlJsgmvigBaeBVcITe18nkd8oESqTkZv2y6gLOzzD63JmhNVCEiM9Q2lQzlQ/hNMAhTALn50jbNjnh4VT/X9zsL8CPokPHzQ+/+b49C80tr86PnFeiUH54nV3WDnZDL725A9tjLkbR+SVq8czTJ4PGleN/UfG+UyyyKQP573aX6l8mD5Vd5qdjC7PnmxphG7dx4PuMxEnAH2nVwyMomFP9I9b7fCkPcfBeyEPXyzHzZnLjiSXXGfarQ2xjelFZ/YTANCAIenjvdxnbPzoi6bo22kK211GlM5g5QLTo5RndIBOtFsM0RL6FxbhG8tuSp4onR+Fu5TlvPjwhkU9hIjRXzcHTf/jaC9PgBu1+6uziWRQWgK20xEDI5RkCSU40UV/hQZFroRUUgmf5lb9j7iscwQLO6aAcRjqJewvugG2rfvrj9tB5f2CyPPlPAfOc+BfOQc0j3FRXbya/GVoor979ic2QuJGzxiu7/4dFNEtvedF2ngl3RbyIVpb+wKbsw10ax+pV/RzgtRWcjn7D3VlC+S21cbEA5fUDt/H4mFS8V7P0p/rahkRKrrBoy8ZNofzFiKfu9FZdHt529GV+OCjGZZoglH+I2yZ3iAm+ig+uauL0u3q4hTblMUZBaZPPnHfVjmygQGWBYzD2rgPkxvbR2HQqyRAe7uLfDW6Afr/tfclgHFd1dlHGo002mUtlvc1jp3YiRM7+0oIIQmEBJoQaFgbaAuFUvrz00LL/7OWQtuQsv6FUNbQkA1CEuJASOIsjh3v++54XyTZ2pcZjWb0f995c6WRLNlaZqQZ6Vx79Gbeu+8u333vfPece++5LKQjFZY6Pj/+ZuA5gBSNcjmdB5yetz+GgCGQmghQqEFjcZJKp7/S/K3nekmm1KzBsEulXWAVV/jTl1zrLwdHCLzHyUacI9HQSuSHLzA1hUGucnKJj27cEYgqSUKHJPCjFVOc+8xXI3o3eNojy8eoXjpMywWe6+u8u87j0IglPgV+J5uiYHXBqDx9uEmWH2+W8kCWLIUt8NwiuIFATenAshDeOxswR/8UHEmewowPjqOsg6vmk2Bf7qTWSSZkWj3JsHdu3b9ZaajRFgwBQyANEKBwpJ0FgYIpG+abdnwSqbFQiHZpBKkOCfHoQ3D3Wez4eO4+nOP0gig8nnzjbe+X+eVT0JkncfdMV81XmIQRhsuXO//n/tNlpsb3bEpKKkgTKQyruz5sYlELHEmNH1YSJWrExOtGzAQ5DDMZtRISLMxyyqicAQSC1ZlANJmFSSZ6a7fK5p1In79p8yCnD6RW0rGIAAUYPpzgQ22lge5WuEcRyEWF4bDrjPQxc4/rUQYssIed5zASiCeLwSQTd59qDsB0IhbfTsOCVm+mXUxDYZq4RgnLtYUhEAtDJZxv+uAVgDKb2mIzlibQrRVnZPo7Oe7DmYzDC0MnFj4kyN7XpZbxJ01cehol5syETiyA8iqmtfP+aIU0GuL7OUshFphiWgVigDp4vqBUydXfaVUHK6whMFIIUCBC6O86dkgunbdQvnPvP6h24WaSUjBQqGkPG+TDTitlgi5Z0DLyt55BJ7VbbrBjR4EawGDyy9s2yOOrnsfmVtxaY+xbM4gVZVA7xq5CmOrcoVO4u4lFrwM7Xya8u+N6aV6R/MctH8D+Rnk6s6sVbnF+9PiTUnWwWhdG0icdlUpvXHzoD8aQiYVMySb+73d9DF52i6B5eO7oh16U9LuTjcaX4t9eeUpe3r/NqwBfHguGgCFwOgLoHdM1TTMcOP7khd/Jb9e8pLtbcitrj1C4gBlrQrDWg7tl0tEk5UwuPDtQ1qj/MPS8OROJi6BJJiQj7gbKYzG2V/jzq26W57esgSd0eJYYB8SiGgtrD5z0u5M/7ohrDF48dPwx1FCENiiDuxa66eLGcH4MJ8AnbdckK7oXiqkD3s1D+DtMYuEeEFihjkKSMV0lh1COtLzFEUsOXgRUPi3rYIU2BEYMAXTEuBSBSwsOnayS/ZvXSBFWo3/ylrulAD3ofLhh+tnyp+UZEM6X7/kbuWDmPGnDOol/f/IXsIRkyLwps2TZxhXwUdcmX3nvx2UmdvWkJ/Sv/+Ynsn3/TikpKZe7rrhRhSeYasSqlUoZOSnkjq5sJAqKKJ6nEsAPFobgSLsStEJewIfxuCicP4eD4JCJxalYLJgr6Hgklij0RpvujKfQgiFwNgS08wWhBXJpwQ6hE2bNUyeHz21eJS+ufB77uczSDuoEeNDIg5uWHzz7CNwZtcrbllwNh43wV4YV8Y0Yk/nhx74gr+7cIN98+P9JBTay+9c//6R8/n++K0drazBmQNEIkWgdvR6twVX1lNm66RiuUFarPz1ApZ6+uyz5iBdrpx4JDPLHkImFBfNY0FPBvIKS58ZXGK/1Hl+tbLVNFALc44XjI81wMHn1eReruespkAo3LwvCkSj3OiniDqEwm1VhG4sSfM+FJhOEiyKOIZw7daYSzOaD2Iseg/9NOzbC+Wyebph2BPcroWj3O1ElTv90SCjc44bugz6MXUmLuI8SCIXmR3ouWbLoPNmCjdDoluXYoRPiD3njXMOpefcI2HBSsXsNAUPAEBgAAuwMszNGIRaA52eGTrjiXzz3fHnyc9+S+z78GTiCzZNy7Kz544/9H5i2bpKfPP872XlkP+LDsSV25WzjJmhcTg7vGwwh+Laj0OR4p9fZ1dP2J4aAKgEgF+Jz58LL4NzS26yRbUC3OjdfslQ+d8975KN3vE2y4WCY2o0S9DAQHLLGMow87VZDwBAYpwho7xlCjqauLYf2yOXzFski7Ku0acMK+d6Eclk4Y65ua3EEWwNwdtdzr7+gWs0FOE9i2XJor0wvq5QpZRNl6+7N2Ju4FOcD0oQ9hjiYrzPJkL6FbgQcsTj3K7ySkcH1LjELE4iemgu3HmFcj1R4beg4GrF042/fDAFDIMkIUHBxtlcJ1lI89/wT8vqMefL19/2t7HrTQZldOUWe37xaTtRjR1RMSw5i5lcHxlYw4q+lonmsEJtOfeHXP5CvYfD+zsvfLDPKJ8kDf/qNbAPhFCNNmndUOCa5HumUPMmcmPDoub8Hd8S0Ekf01AA5bZu/lVD0OPRaGrEMHTu70xAwBAaDQExYUcjpomJsdfGb15+Xx/HJhwbDwXk6lGWP+QsP/cBLGWMsDE+ufRl/8UEaDdjH5L33fU4KQSRBOHPkDqMMnuPbWC98mIJRExwjf4i3Yg5iJmnoZoCsGzDieRdcPDRATGsxjcVhY0dDwBBIVQRIKGrXx3bPk2fIeQsuhuZSdNqsyngjjBN7TsT1/M2z3hn2tKmx5HMLZwrQOIGZqnCMZLmITxeJALYMroAkRjEC7rqWoEKZxpIgIC0ZQ8AQOAsCGCgOYSbXql1b5F2X3yDvvfpmFXaJEGo0k3FzvifWvCi1mAygbl3OUpzxdJkYe2Yu1Fq5OEbRceSSSDyMWBKJpqVlCBgC/SPA3jFWya/eu0VW797Uf7zhXKGrFwrL2LjMcJKye4eOgBHL0LFL3J184fgyWDAExjICrncM4c+txpMR8CZ5wd4ph8SoHI1YRgX2uEzjXwDMaNEZfnwBjWjiQLKvYwaB2HPdRQDJqpi9P8lCdkDpJqfbMKCsLZIOnPEFILlgVTF8XYifbr/db0LE78OYT24oGwKGgCEw0giYxjLSiMfnR1LhDBaEafB5dNm5F0gZVhwfrjku6/btkBrM51cPrarVxN9o3w0BQ8AQSF0EjFhGs22ojMAdxYI5C+Rnn/iSnKg7KVuPvCF3X/kWOOkLyl/+11dBLiehyGRBZ0m68WA0kbC8DQFDYAwhYMQymo0J19W50FBuWXylPPjKMvneT+8TgVsLks1H7viA/NOf/YX8PRaCZUGboQdpC4aAIWAIpAMCNsYymq0EsqCzvUKsLn7o5WUipRWeYz1sfLTvxBFsegQnfTCDmbYymo1keRsChsBgETCNZbCIJTI+SCML0y6ngFDmTJomEwqKsP13lkTw+/zpcyWbe3eDVuhYz4IhYAgYAumCgBHLaLYUvInSKys32vnyez6m261mg1jCIJw52B3vxa1rsdBrGE3EYRndvNqIaVDNTMxI5rHDoO61yIaAISDDkFqG3rARwP7eJ5vq5bMPfltysrJ1HIVuF+j+OwhzmE5BLi2Hcz5ORR4COegt+KOCctilHScJEDR+wCpDwXycoGTVNATOhIARy5nQGaFrra0t0tqG3e9o+lJXFJ0yqXKa7qS3++AeyeDGPNp9HmSB2OOOdbtVXOK3esseZDLjIbqDqlOd87HGQIwnCZwFQ8AQGBQCRiyDgivBkdkjhhmM7r+vueQ6bL3aLjsP7pMp2GPiL258pxyvrZavbV8vvtJc7FWNHfMGGygYsSVpcShLStuz8BWO6PAbm8MONqUxH1/38QA+h/OD0u7z1hYZC4/5ZrcKJgkBI5YkAasr5mOmFDf4rloHTF1dJhaQih9ayl1Yt/IVjLFsO7JP6lqa4aU1IC9sWinfXvawSEnZ0EgF9WL27IEXh7NkTktAsiA4o/jtypOsqqdnuti6FfhUBdpBLGTkuHZKzwpZqQ2BUUPAiCUZ0MfIgxsPRTE+0okNjFTKY4/uDLgO73T7ReDaFMwGWzBtlkz/ixvg+TUgD3/mG/KZn98ne7Etq0ydrd5gdXV+jKQGU1yKR/a6SSYd0FS4uVIH/ZEhgHMsxBDguJYP7UI+UVOYnjeE7AExBIaKgBHLUJHr7z6nkeAYxdhJAHtyT8X04XaQyOGTJ6Qz2CaCzYjALvh06q53E4tK5a3Yn2JySYWEsBve0jnny8Kpc+RQbZVs2LVZMrC7XtdeCv3l28d5ikbwimoomTB/dUZBcJqvnuzjjnF6Cu1AQsmk112j3HH6EFi1E4mAEUsi0WRaan8CaUSicukFl8mtS6+WEiyA5F7Th+AD7LfYhvVw9XHJwLTiTvSS61ua5Fhtjdx7wx2qUXAv8NsvvV6/L9+2VjZsWSOZ2MI1QsIaRqAZjpv9eIITf61D3gPNRGw21SNB+2EIjGMEjFgS3fgkAHwml1fK19/3SVm1c6MsW79CikAOtyy5RhZMnyOf+P6XVch3wjRWh93uvvToD8WH3nIQJCPUaAqL5bqFS6Wde3kjju4PPsxyeoQyzETsdkPAEDAEBoCAEcsAQBpUFJBKBgbkb1p8hTy55iX57i+/LVJUIhJqk8dXvSj/+ZH/LfNnnSs7D2EaMeLRxBVuapAwVIgFMIFdNHu+zKmcKktmL5AVuzbJqnUviy+/QDow0G/BEDAEDIF0QMCIJQmtRO0gB/uqnGyqw3hKAOYxTO+F2SsDa1Qa21qkIJAHrQYZg1Q4aHz+vAvkXAzUz6yYLNcvXCKVmAn2qf/+pqxe+7Jklk2SjqEukExC3SxJQ8AQMATOhoARy9kQGux1aB5ROJdcARPYv3/g09KIlfX7aqokD2Mq1yy8RC6Yfo589df/hUWP2dIZDkkgN08+eds98oFr3yYf/9HX5UPf+6LcfNEVOu04q6BE07IBkcE2gsU3BAyB0UTAiCXR6HNUHDOvth/cK8s2rJB7brhdqhtqJRdTiQNw4fL5B78jYfgHy8SAfic0mBBc5D/+2nNYDFkjE0tK5Yvv/muZP3WGNLa2yp4Du0FAfmwGBvXGBtsT3VKWniFgCCQJASOWRAML85bAuWQGjt/78Tfle1Nn6bhJFCvndxw7KFfNWyRVFZOkrrFe43Hs5I+vPit//NNv5cLLbpDbMcBfhTGVWy66ChPLovLH1S9gVlg+uCW2GjzR5bX0DAFDwBBIMAJGLAkGVM1WIASuH7n3g3+HNSyV8vqezbIbpHLfB/8XBuHDsu3wG960ZOaN8ZOyabNl8cx58gI0l83rXxWBmewz7/uEvO3iq0A4vxFfXiEWWmLwntqQBUPAEDAEUhwBcxqV6AaixoKR+XOnzJKP3XyXTC+bKP9850flX9/3KalrOCXf+O3P5CT3sidJgIDo0uWa+YvluvOX6AK9/MkzJBPmr+Xb1mGcpUkCpRNBRrGV+4kuq6VnCBgChkASEDBiSTSoIBbuUb9oxjy5/6kH5a/+/m6578kHZffxg/LFL39Cqg/u9jwYk4Dg6qW4aIKcUzldnt3wmmTm5mOFfgcsaX7dp6WtPSRzMDW5E0dbwJfohrL0DAFDIFkImCks0cjGzFXFGJy/7ZKrZWJhqVww+1wpKyiWf/z8t6QV2seDLz2DhZENSjBBDN6349xUaCarqo6KYMqxwKtxOwbwp5VPlFrMKlNX+qoJJbqwlp4hYAgYAolHwIgl0ZiCADozorL50G6ZUVEppVhFfwoD9bVYBFmArYfr4S/Mxz1XSBSYgtwM4thwYJd84c57JRemsZ2nTsj0wgnyjqtukmN1NXLi2AHJyC/GRDMbY0l0U1l6hoAhkBwEjFgSjauOnXTKun07pBSE8NL2ddIebIXvsA7JziuSt1x4mZwEYdBViy6SRPw1u7bIr15ZJpcvvkwWh0KSD/cv+04ckZ9gplgGpikrCcU0oUQX19IzBAwBQyDRCBixJBpRpgdtpLywBIP3d8ryTavgcBKLIbEQJTcnR67CQH0z/IG9vBnns3E+IxtrWULyy2WPyHMbV0HLmazbFb/BmWNkHnpChiZjM8KS0VCWpiFgCCQDARu8TzSqNHFBu5iK2WCHYPYSTC/2w21LFkikGf7C/rDpNfgRu1wEA/J0065u7HE9M79ITpyqktVb18obR/brPiwZRiqJbh1LzxAwBEYAAdNYEg2ymsKiWDnfrLO9wiersAtkqQg9FYNAzp0yU47X1+r3+D1WuCkY16/oMkhMQc5C3Ahc71swBAwBQyDdEDBiSXSLxcZCDkP7ONVcL/d/7j55Zv1ruhL/+kWXyoWz5slH//OfsZo+z3OHz/hYVd/R3CyC6cbnYaHksbqT0lCNGWJYGNk1IyyWbqKLa+kZAoaAIZBoBIxYEo0oTWGY9dWB9ShfffQBuffGd8rbl14r2Vj02AjyuP+JX0gVFkp2mblAKj5oKHffdKe87/q3yxsnDsukCeVyAMTy5UcekBYO/BupJLqVxm56ePw0oL/CIbrYYURczTFr5segxcCunOqCgifcBX63MOYRMGJJdBM7EsD04H2bX5d/3r5B8qfMADdkSnP1MRGQikyajvF9vvV420Ltsvi8hfLhN98uP/n9Q3IIG3+VYjzmZvgN+4d3fki++F9fkyy6zo/ClGZvZ6Jba+ylpwI8JtAh2OlaiFIe/0ckuPw0M90Xmzkbq4wI+CmUiRFLohuDhIFPEQbjv3zvZ3UP+zAcTZJDdB8W5Pfwij/Kyh3rodn4xIf9WuZWTpPVu7fIw8t+jQWSU3SBZAM0no+85Z3ix+yyDt2rHgnY+5no1hp76SmD8FnplOIQxuog3DupOYzIw8Nn33tO23xRacvC2itlmhHKfuy1ZtrWyIgl4U2nbzYG3iNy+CRW0He0wzLmA9dEpUpqJdge1MWS+qJDqwlgj/vsbL88u3GlV5KWRnVMuevoAdmEhZOl8IRcVX3c279lxPqdCQfFEhwpBJRDOiU74pNZzdmSH86UKBbsoheTdGqBfqSqESeinMyNyO5CbLPNjhZztk7RSD0BKZGPEUuim4GqCT4tbc3yrZ/fj9TxUnNbYa6cd+tRijFLDC5f6Nm4E3utUGP5+FvvkpWXXCtFcP3SicWUc2A+i+Law6/+0RvA54vpcVaiS2zpjSUE+JxAQ8mKYt1UJBOfDIlwWjske7JlO9dqkUhILDnIP0O1JZJasnMeSw04NupixJLodqTwh3ZSCd9fX//bryhxlBeXSEFOnmTDhQs9Ft//1K9kORdIYvV9GxZHPr7yBdkPP2Gd0GzaodG0YfX9hD1bZdfRg1Lb2qJEFT81OdFFtvTGGAIx81cUBANewcfrkSRbvHu5eOM6zLOTnSwjlTH2cA2sOkYsA8Np4LFiYyxch3LLxVdLNVzkP/jyM/LStvW68j4bZLLz2AEdX1GyQHy+f9WNdfKHF56SJUuvkf/44Keloa1Fnlj9ory+7hXJwiwxc50/8CYY9zHxPHn6Cf9639yZkcDG5YrRHVOyRwLwFMzDVt4nulHIEphufKLulNz4xb+Wv//ZfWrSuuPy66Gx+OV5kMWJGiyapCNKmLyKYBLjXizclyW/vFLehdlgK3dvhu+wZ+Ry7DZZMXk6orWr1pLoolp6YxsBPImjHEa/BKMMwLjN3jSWRDe9qv/gDMzk2rlrk+yEWaw1FJSvvvfjctvS6+TmA3uwcLIBZINdJqGt5GBqcWFunmw5tFcKsUJ/5sTJ8ulf/CccV7bJTMwQmw5iqdlWIxmIY+awRDeWpWcIGALJQMCIJRmogkzgs0WuvfR6uf3SN8GFS438wy+/LYcwu6uuBmtZsnO8D8xltXDvchTejr/zkc/K1kNvyGSYvWoxvnL5VW+VyqJSOV57Ut3rJ6OYlqYhYAgYAslAwIgl0ahyjAXayGSYtZ7/0g9lO7wUN2H1/KXnLMKgfCtmzPjk58ufkhdjXo8jmBn21JqXJR/u8YtyC+TTP/0Pde3SGGyRtfu2ywmsxM/AWhfTVhLdUJaeIWAIJAsBI5aEIwtiwfTOeqyg/9B3vygn6k/qAGY2xlAyMa4Swo6RO44e8AbveQVaSwM2AXvgT09ILjSZFtwn2Bxs97GDuidLJ/dtYSBhxcxs3gn7awgYAoZAaiJgxJLodokJ/zZMG37opae9QXrmQWLQ4BGPDt47sgC5RDGQ39KKQXr4FGOI4De1GRKPkYpCYn8MAUMgTRAwYkl0Q9GFBSfDkDRICi70pW3wnCMXzhLD6mgNeg7fXTp93evStaMhYAgYAimGgBFLohuEi9GonJyNDByh9BUv/lz890SX1dIzBAwBQyAJCBixJBzUmMZytnSNMM6GkF03BAyBNEUgZntJ09JbsQ0BQ8AQMARSDgEjlpRrEiuQIWAIGALpjYARS3q3n5XeEDAEDIGUQ8CIJeWaxApkCBgChkB6I2DEkt7tZ6U3BAwBQyDlELBZYSnXJFYgQ2C4CMSmvHPaO6e1j5jz+ti6LBbfZat7wXBBloXxhIARy3hqbavr2EeAAh0ra7197r3vXqVHSrgzHy8vLQMXDDOMVPZebvZ3lBEwYhnlBrDsDYGEIhAT4MHMqLT54WUbHh24m+NIyHW3rZcP5BbyIW/VVhJaO0ssTRAwYkmThrJiGgIDQkAZxNu7cfMEbGtNjUHdDFGVSTa9IA+Xl3qgwBBusrMcECgWaaQRMGIZacQtP0MgmQioKQwZ0LODM0NlxgR+MvPVtJGny8sRjCuDEUzS0U+lDIZMLG5/EB7dJ5UqNhJlcfV2WIxEnpaHIXBGBJwAVwUlRihOuJ/xxgRddHmpxoLCuPIkKHlLJj0QGDKxZKBHRJuqDzZc/XRmopM0vp4iEgrrPt7qnR6P9jgvpb6KoynYRzPvcd72KVD9IROL66UHw2Fpw+ZV7dg/ZLwJWEcsEewY6U3rRIuOM3JNgWfYimAIGAIphsAwiSVD7l/5jASwyyGF63gkFtZ5R/VRI5QUe7CtOIaAITB6CAyZWFzPfNXBXaNX+lTJmVqKaSqp0hpWDkPAEBhlBIZOLLGCZ+jOh6Nci1HOXifi6ApnFMQIZpRbw7I3BAyB0UZg2MSiQnW0a5EK+RuhpEIrWBkMAUMgBRAwJ5Qp0AhWBEPAEDAExhICRixjqTWtLoaAIWAIpAACRiwp0AhWBEPAEDAExhICRixjqTWtLoaAIWAIpAACRiwp0AhWBEPAEDAExhICRixjqTWtLoaAIWAI9IGAWw3BS/197+O2IZ8yYhkydHajIWAIGALpgUAGnIKSUPiJXxnhvseTTSJqNOx1LIkohKVhCBgChoAhkBwEPL+OdJYbBbF4BBOfk3e9U6J6DZvCeSu+46MM+rsRy6AhsxsMAUPAEEgfBOjPkOSRmZkhfh92FI0jDmoqOC2BbL/kZGWBfGJeqaM4wnv9UIOZwoaKnN1nCBgChkAaIEBSIV+QRFo7wtBMIrCHeQUn2URw4UhtrRxvrEMcemrHNU9tGXLtTGMZMnR2oyFgCBgCqY+Ap61kSkckIj94/Tl58+zzZfHkmSCYKLSVTKmqq5VfLXseG45GJRgMSS5Zhyw0jGAayzDAs1sNAUPAEEh1BGjeysDOntza5NG1y2V7zVEQineO50/WN8rODbvl8NYj0t4a9rQZtxPoECtnxDJE4Ow2Q8AQMATSBYFOmLZIMFl5+ZLj8+vuv2oOg3Liw7hLTm62+AN+yeCAi5rChlczM4UNDz+72xAwBAyBlEcA+omWkeawjmhEotFO1WDIIRGYxKjNRPHhdvMadXiWMElPYqH9j6ocQNFZDCnfrMkrIKcIqj0UeFgwBAyB8YWAEgGqTDngPjpYH4NBB+MhKTNi1yk3C7IDUpSTq2SSif20Cvw5koVZYFlRTEmOmcCGyStpSiwUogCqE8zLj0ex4+uB6qqtD30D3WyNj4KRSxcu9sUQGAcIKBFAFmZBBvgzfeQNiEbP7KXV78xUy5YvwyeRTM746pQ9p07IikO7oblg8B6mr0OnaqQxNyohf7hLgpCI8P/0wHO80OfF7uhpq7EQkPKCMpmQm6cAjSvNRRuVc9OjUtXSKM3BFnCKz3il+7m2b4bAuECAYydkk6ZQUOogBzjTqwexkGhg9uLsr1AUA/OQHU/uXC/LD+zUuJSbEVxvrAiLT8IyvTlXcJAozmdkcu1Lz2F4ypxMn0/Px18jocWHNCWWqGT7AvL2cy+Wt55zgTSG2sDYEKzjJFDluCqmHAAAJSpJREFUJbEGw+3ys/UvyZr92yQzJ09oIe0vqMqM+/jQnSFaf7eP6fPERHHp9XKMeKXZNvFvaPxvfOc24DQA8+VmS1MosMhafhY2Pj5/WxjzCKgpHAsbf7HxVSkK5HrPcR+15nOicUEwbR3t0tYY9DqiTmT4M9BBx7OFeJh1LD59tnAXB/PjQgY0IKbDJy8UCum4DC/z0YsPaUcs7kUiA08tmiAXVM5QpqYaOF4CFzRR9W1pD+rDhNZVIdO7dbWt8UdJheCo0CKC+PR8XsYLdP3XE9gQpy6s+o+ZvCtsH76h/PA7P2hbhkwIj2h7u3SGQyLZOXjzs/A9LJ2RDvzOBun4ejd/8sppKacOAnxWMrPQudxO5jhzufjOY2yFIYMmdBf0kYsoWYRhLgv6MV4DTciP2WOTi8vEj2eP2WhAGpyq3NERkUmTKyU3N5Ye044LcanHnU3hr1o/VIy9tHbMcGhFr70Nn/A4Ihb2GHwgFtabszkogLTH3avd2NZUlTMxIOfDJxP/unoivR6EXreOy58+9Njc4OWIAxB7c2lm4HTQdhBGBD3L3EAemjdDWmtrpGLyDJk9cYrsPnZQ6psbZGLZRCktKJK9xw9LB7R28fvZi/AIacQrMEIZ8tmHUHSPL2c48V3QGU24lgUhyJlPlIQ+YKnvCjqhTi5GOCYbw5rvjQ9yg+do8aAZifHZaVUtEL+V3EeoagPOhuVH2YkBpwfz6Is9J3wAeJn11Q//xAWtP+49rQOFc+zCVOWFpQHjLSSWKSUF8n8/+FcyZUKZrs4noXgBcfF85ublyfQZ0/VUvFmMJ5JLLHEN6BUo9jcGTI9zA/zBqhErvmysKB8q9xlgEmkfjQNrrs7EgUGPDu9YDfUnCCWIXkgdBuZILp2wm3qPYiySHYgeXqqo4hOhzVqfMB6ArXuXko0T2xEdhcrSCrlkzvmy9fBe2b97i7zjmlvkUM0JaS6rlNsufzOKlCETi0tl++F9ctdVN0kAM3rYo/yfV5bJjv07QS7QZsZq4AON9z0C1yNgXa+WhSUSaWmGs6uAZGRlSwcIWAqK8d0vkaZ6aHMB6WhrRVzcy156fiFfFu9epBdpQlp5hdLRUIvefEC1vyjHLBkXaaRaYMlpBicUnDLM8RP+iNBNC76i7+jVTyNiphfikjBUmeFNru441xUUDvzB/6A/ImEf0sN7MLHIJ1dceYmU5hV3RR3ol8QTS6zwWr8Ym7K+TkvDKRWCPKfgaEn5S2unv+xPghAgpBCOtTlhac6mqus9e4Z0//iGQLxdz+IIAsWOQSd62kW5+TJ/ykw5Vlct+4NtcuHMedLQ0iRvWnSJBGH6/OHvfinTps6SMpiBSyAQf/LCk/K+a2+Ry+Ytkl2H92vPncJ3LIZMahVtzXLHDe+QySXlqGam/PTFJ+Wai66UjQd2SU31cfnIn90rj698Xurra+Tt174NBL1P3rTwEu2IVYM8nl7zkgcN8GZv/7Y33SZPr31F3nPL3bJ671Y5CBK/cP5FcqL+lByvrabdp/t5GC1QISi9jjT4FB4kIx2gCpRrcqFfKnKzpDALU4bxoYPJ5nBUmsIRfKJyoCks7UEQMOf14Drr6+Rwj6roI48/7EhBSpCjmD6Vu/qmZinOKYCs9srQ4z78oFbYV0ggsXg94S42jaDy/JAuyZJ+POw4RNpRWp5jg/nQuACDmodHvKgc41pIDAIKJeyh6IHAsJKYNMdFKrFncAQfRTVl4tmnabOtPeSZcyA4W2niQthz4rDcc81bpQE98p+++gcph3liUkmZvP+6W2XmxEny/NY1EuX4yxjWWEgk0WCr3H3VW+XFLWskAK2CpHHvjbfLVx55QHJhQvzrm/5M1uzZBoLOlRsWXap4Lp09Xx5a8Uf5m5vvkk0H98jh6mPaq83ETMqP3XSX/H7tq/KpW98rq/dtk0//+JvylsWXy6pdW+T4yRMQxhhfGK1nXgU+xCRkJWduRdqj0CKy5YIJOXIOjjPzs6UkO1Pys3ySl+VpJ20dndIC4mkGuRxri8j+pnbZ1RCULbVB1W58kMOnydqYnOjq2/N37EPi4Kc/YukPmuETS0xDoe3eqzwEGMhidnGOzEflS3N8WIDjQ6ODRFDYVpBNK9i0FiDtbWyX3fVBj4EBjg9x1KVzLM3+Cm3nB4iAPpj4oz2RAd5j0fBSxUTJiJrCPOC1X4X3hL1zTkgh0ZTBtPPMyuekNL9Arll6rZRjnOWl7etAOkEJYRyGJpGKwmLJhummXccFxqbGgr40QPLIl8JuesUkaYTZ6tUdG0Gy5fJ2YPO9Zb+W6eWVcvul18mzG16TVmh5uTBxzUTcICY7tAMvFzrRvh0wqRHz2pYGNT++99pbMX2/1evf4jlgd9nT891dI3R0chXZsTNeAM3kLTOK5NKKXJkNTaU02yfgEAmj7dlPJ1nwezZkaACydGKuTxaUwPFkZa4casmXHZCzy0+0yNYadFSgvbjOfBeZJLhawyOWOPXIq7xfrp1WIPOLAzI9P0umAIyinCwBqSrpsLWoqFCRaWzvkONg1MMtYRBMSFZUt8lJsGsGIqvKRqT0LUtwjcdTcnwn+OTocTxVfLh1jQE2grhx0kAneuRcj5AFodnOCSkYoOfgNE5I/aF98sBP75MHJk6VH37qq3iHIvLyjvXyyB8fw6D+LPnkrXfL6/t2yrFjB7yxguFCkLL3Z0g4EpZCrF9bt2uTvIxxqBDI4SMwj10y9zz5CPC455qb5cYLLpMHnvutTCmrQHzo6yBoanhVdadUW/HMhZ16jYP1zTA7/nz57+XXn/4XxZUzL70OGY4jHWJylUVgua+eUiBvnlwgF5UFJAeyNAjZWIeOOcWje0TdkZMP2DnHUhRMK/bM31PysmROYSGIJiBry1vld4eapQ7OJqm9UBZ3JZLAeg6dWFABmr2iMXvfDdML5drKfDm/JEfVM9QbC3I8lUw5IlZoNhMBoYYzuzAbJJQtV07MUyZ+rapVnjvWKmGoccmsdALxs6QMgYQgQFNDpj9bao4dhrCLyGduf79UXXcL3rEsuDR/RO6+86Ny2YILpRnjLfUYrN559KB8COMDty29TgXli9vXSkPDyZQccE4IQEhEtQdoZPmYMrti5yZZ+dLTkjF5hnRikP76hUulJRiUpuZGmVUxRXIxaM/p+IxbXV8rj770e8idTPnSez4mX3vsAVhJOtDJxZKF0omQqxkyHZMjwrj3oRV/kO/c+1m5+1ufQwc3tm4owcYwpSqyBgVh74DzOt4G2cn875xTLHfMLFINRU1cGDJh55yD8gx9mah4RZ8nxOGxHUwTghCeBoKZNatYZhVky6/21WMFfkh8YCpamvosi+YwtD9DIxYUlhXrAAFMBzG8G4W9uDRXJqCQbagE2ZT1ZgX5YVwHgAOVxyDNYgCK1y+aEJB5RTmwHwbkyUNNsuNkG8zFWAuqNwytcnaXIZA2CNDsAkHHjfuefH251GDwuAAD+ev3bcdAcq0chBuOgkN5aiJbvecl2Ycxlyi0llKYyWgKe2HrammBtkNywss2KtVmb1nz7ktgJqBEOlUWs7q+9dSvZH/VUfFVToPwhbkQ5PFvT/xC6kC6LMMvQSKPr3oBY1VB2XF0P4i4SbKg4TwC0tBxF8Th7Dpqg5/71XdhQuqQf3ro+0rKv3n9RV2/se3wGxqHcguVGn7pHSYuKfc7PmXk5U3i6JSSQJbcPbtYbp5aAFmKlfGUqdBWON7C8jh5yvh9BXeepInHSuOHSDD4LC3PlWJYhh7b3ygrjrVIJr7zGUokuQyeWFB5Vq4Ddr8l0FDeM6dIFkHFCoEkmsECrGdfbNpdUcCASASGdj7ixO/NSjAi103Kl6n5fnn4jQZZcbQlaYzaV2PYOUNg9BDAO4FeqmA9wpETh+RR+HLC2w5Jglk3EKavr39VXt+wwiseJQwI5NnlTyNObFIGZohxHUsUA/+jFlhWSrEkBcUH4yWrN6/yFoliTCkHMiQb5PrKRpzjIDbw23qA2EWweC9fGpub5BSIORfk44fp50VgmEesKPkgS1/COAx/6zG/SNvgoT88hjSLJI8LUR0RDLNObrSGso+muwjMVF7PO44YcI1LCQIo5/vmlsitIBWavUI6bI1rMVlJWcrvAwq97qGsbYFCMBfWog+fW6Id99UYe+GsMV4beMJnzn1wxIKMdYYCSOUtMwrl3bNLdByF09tYWY9NPaLwKt9/7R3RsDJ6L6LSrslpcjML/PKXCyZIIZj02YNNMbNY4ip9ZkjsqiEwigjARJOPgfhZxfMkF+RBgcTFf5lTuxf58a3iexO/KI09dRUMI1x0LQfefS7oPFhXgzEirBmh1Buw5BtEgZkmsQABMEQxEP93175D5pVO1vwpRxQr7dV73ym8daBae+T8zt45CDsWuB6M4xjuyPhu0WSiSIVZufbJg5eEX2x6RV7ZsU4y8wr0vBaF7cnqQczdNbtIbpqSD1KJQqvy1qyR4RBFZWWs6PgBUx3qzH/deCMS/8Nk6H3wIxacrCX1c/ZYBca/PzSvRE4Fw7KvEaMyipuLPbzjwIlFK44ZGSCVyyfnyz1zSqQs4IMpK6INxwrqg611jH1H2Xgef3uV0nsJFBS9HntRmAb+sdIlmPXwfrB2EKrbcpjGfMiLc7i7AeyVpP00BNIcAX2Hou0yqWCy3Lv0TTJ7wkQJQnj6kqgFDBcyvvPZWKBZjfGJ77/+B9lyfD/kXRKn6EJGcIW8YoLjhZNmytLJc6SpvU3HbYdbn2TdT5zYcaa7+uf2bQGDeHLTmQ+V/NBBvw3mrzvQaWdckgrPq1wlfUCM8jtnDPJHJByEaxX468JkBmpzlJ0cR+J1HxaLZvlz4TASbYG8vDS8+z2ZjLEXpD8VE6z+cn6p/OvGk9KEsT0Sm2Y0TCAGRiyoDAsThWA/B3OoKfAnYPwjiIF7Rw4suFdgr0SsHCvJcnbChkn2ZOA52kU5LOZY1TvvAcg0eFcQ5JIP9eweDF41hqKyvpq2QCyQ0pprUvbHEBhTCPDZ53tEly6Ti0pkFqbQ0mURe9MpG1heEEs2BFggNr7j6pHMMqugBF4coG/A9OBmHCmEUzWwvE5roXYHQdgl7LXcGEqYi/HlmzGrNgeaQzNkq7pfiqsT0yBRdIBQIiCUymkXScWUhVIwYSocDBSpphUOt0mwpVZqq/bIsYNrpK35FBwKFDG7rsB02EbU3MKYjTgfS0PePbdYfrztlI63oGCIG3dD150D/zIwYtFSwfYHQf+heaUyA6YqDgKxcO4h0iMZk//QY+lABcPoRVBdzyucCL95BVrYcKhJWptOQvsIY3A+T1nVIx4vPVdpkgsZdVKuX96NcZxjmB5X3YaZHADduGXgDWwx0wcBPvuUAOyRh2ASa+sIo4OFaaEpTCwsM/vKLKeamFB+rUeSYae8YaBpi/jwk+rE4lwxubLrEcKM/vwoOW+eVohFj35pgWzV+WgxLFW2AmefL1vaQBqTZ18i5y6+Q0oq5mBIbgJkaE83PnyMQm31Mq/pnXJs30rZvuZhJSTixbRcejyS7Ogi/2qsj3kRSsMbXPKRgOft7MSCQmZy4SJGkG6fVyzngd0wDKIPD0nDEYEWmiyHQpIxK2dcLNPPuVYmVJ4DUslXsuGjEIX2EsZq4vpT++Xo3lfl6P41YNQC3Ma0PA3IpUn1jjPHmOfbZxbKf2+t1cF8RGR2FgyBMYWAvvCoEY8UkvGfVK0o30RXTpabQeth76hicbY/nPHFJRtLMRFqaWnA6zQDO08edne2qakEW2tl/pJ3yYJL7pKCokldSXtEjpZgY6ANiH8gr0Q/JWWzIIPnyeo/fVtNZ062uraijIWIlSKMZ78H1qGvb6jWher0nTeccHZiwbNCR2dTCnPk+knQMKCVc060e3i6ChgrBfoNcsWt/yiTpl+MQcgKrWhfBayYer5MnXO51BzdKhtf+TEYtgHaCIvTi1z4gAKoS8tyZWVFQHbUYtYLfhNDC4aAIWAIpCsC1FMgzCBgM+QKaAyTsai8AWZ/ToLKAOHoNeoyGDpoDzbLrPNvkkVXflACuUWqHSqNQxZ6AcfYV49ocBay04eZc9PmXqmXXnv2mzi6+LzcLcepJJyDFf0z4S3lcAumoQ1zIP/MxlvUzUc1DSrK7bMKZRIW2FBbYYFJKF2kgt/stfiycuSa2/+vzF14s+QXTfTmgXNQCZpIj4+eg1PRgnKZOf9NctWtnwcJVXoDUACZwaVP3Gh2m4q8b5nuOUPDxS6vGxrZ/hgChoAhkGYIcDuLKNSFSgj06TCB0cRPQqHso7sZBh4pO3Pzy2TB0ru6SYUyMM5k1S0vu4mD12meJIFMBbnMPu8mTcsRT/c9nJGLme7QGq6YiP1VUBDK8+GEMxML0o6gYvlYrENzlB+Z0SbnVZyMysDfmRLG7JVLb/wUBpQW61m1tzIuKsfrpFP9h+8eIFABY7MVKqYulCU3/E1XXFdxPSrIzCtDZuRl64JM6m7DJFQto/0xBAwBQ2C0EKAcpURfBBMY1+5xBixPUe7xyEBZ2RFqkdkLb5KS8ll6Tc/H5KIjB40c++POOTkaS0rOu+TdTBBpuzNeXiQvyvVc+HhcWpZHkU5xi+BkfCzhQRzOSCxqcIIQvwhmqCKwGVnNMaornBYKBDFt9hUydfblWnE3VsI4XZVjZWIV8oADzaCS7nrltAtlDjQdDvpncP92BAUIlWYduVBoIqbGLUFZMA/PI5ah11vTtz+GgCFgCIwOAiQPCDDItZl5finHLFtOL6ZZzMlWCnZ+j2BcevLMpbGhAk/oORl6prKr/KQMRiTGz4WFqGzivC6Zy3u74sTIjMs8ymAdItGwLEMNZyQWVYfAJpeWB+CTH1oJKq758U8skBw49W3+xe/SipM7eJkF7q/yva9pPNgRZy98K1KNsXUsD86YYHzO6y7BitQF0JyQEWLh39Dr7YpvR0PAEDAERgEBykcIMLi7z8d+85S1p8lLXOcaleIJMzAQX6rXXRzKxIEEJ2td3PKpiyBiew7MO2WBaXPooxwdeGTWpQi4ewdzPCOxQKIjccGUX3oo7jaDdVeKBBPVsZJiqGmM65WnD5B6lcpVOP4YyC+V0knzdSoyffkweOYzL2HCUQxyCYDkOgD6ALHVdOyPIWAIGAIpgwDkF5YtYlw6U01QVFYoC1WLiRWSvEPrT6CgFDNzvd0svTiebBxIXXoTUV5+uRJU/L1KcDjBI9fOTMAMMU9zonwfWuifWJAm1SE/9lLxg1SgN7DmWvnurHAeg0MlFbO14qxE74p0xz39mwPJkUsW5mlPqJirU5J5zgWXJrUU7jdQBLVRx3qGXm+XtB0NAUPAEBh5BKAZ0ArDReAByDQ1PSmRdMs9Jxf9XEGvC855zeu0D7TA8XKU3/2BfHBGdx5Mx/0kkZFYaA6DIMcEqZ7xBpon4/VPLEiTAr0YrlTALR5h4Aae6w5eJXNyJ+gpFtyB0R3nzN9ceryP4OXkYn9lkBXNjy5omvgRRUU5wFSCArFRyHUWDAFDwBBIRwQ4ktyKoQZuMdItyuIEX6xSkQ7s/qj7BQ+/lly1f6ZAq1AzdxAbZuiXWJTFIMgDEORkMQp1Vp5CvjtwnIMrQrN6nO8Zpzt2X996xMXYCVU+ks1prIqbyeqc402tRTWWvhK0c4aAIWAIpDoCkKccV+nA+g3uqquzXNlXjpOv2nfGRKZgW6M3PMATtB3FxTlbNV3HnfH4PYS06AEgPrg47MxzAkEt3SkjD8r2oYZ+iQXlVxrlTo9cu8KK85QrhJchyAYAheCmJf58/PfBFIzO0tqRlk6J61Un/mRh6Z6/EY4w4YlsMElbXEPAEDAEUgcBCG2dHAXtgE53SRaUm/GyU13AoKPdeOogFkhCLiJ0x+klIPupWXy6HK85dXy7ytf46I6oOL5DYqkL0ZcZ0odsH2rol1hIam6DGfrsQrU9runBloiE360NVdAguj1ouoIOpFDxQEYi7dLWWK0msXi2ZBxWkQ3BjcQawHRQWgDyQHKwOIaAIWAIpBoCFF6Un51yFH4Q66El6D5WSi6xslK4Q85Rtp48vgPyjtuTeEs03ID72WqlsjMmszvaW9XTSW/57MiK8pWmuRPNYZW18bL5bPn0vt4vsbBCyqjYvIsLd0ggZNCemYF1MS5SW71PF/HwHlfInvF6Z+t+92TqDngoPXliZ5c5zMVS1sUPWMq0LA0wSureL8jPgiFgCBgC6YcANRQIMAzeb68PwY1KGF6taX7iODVJhwG/Md6cnVMo+zb/Hs57a7zTvII4Z5OxTha7m/ZueUbd7McTi4vjOu2bajme48l71VrczYM89k8sSEj1BFRgR30Qu0N6bpxdQbx8AAyFOz5H4EWzE2YqJQEUzCu8A6jvUhFYpse4/NRW75bmxhMgFhi6WLlY0Dj4HQbBHQWbwvWrEktcFBfVjoaAIWAIpAUCOk4MMjkAYjnS0oGxY7hggVBzcpGVoOxj572x7ojs2fS0rhmkrOT2IZ6M9eLEV9jJaCdXeayveUN2rX8M93QvSuc9Lg2Oo7di4fmqmjZqFMhXr8YnO6jvZyQWVpI2p9XYf76B4xqI7QrrcmElfLAD7lr3GNzkt7jTCggZh9d7h+6Kd7NusK1Odq59DNOb85SlkZHe5uJywL4mGJGNdXBCqRXnvb1Ttt+GgCFgCKQHAjT3q1UIJLG5rk23BeF6QQo2J/A9zSSKnajzQQyPy+4NT0A+YpMwmG+cHzDW1snJeHnL60ynsfawvLbsG5goEOohv909mheyrWrtkJ213Oqkb7k9GFTPSCzMmJnsg0fhU7ABctc2VxiXCTULFqyttU7Wvfh9XYPCSmvQaz0rzfvJGbwHXz2AsLp019rfyCmYwUhSHGTy7o/Fww+y+Qnsx7IZqhrJTmepedzjxbW/hoAhYAikEQKw03jLJrDo+4XjLbKtLii5dJ3F8WwKR4Ru7QUWI+y7smXVg7Jy2TelofaQyk4lBcTj0X30Rt4LAtoLE9oLj31WWmAJgrTtSpdxPBnszbTllvCP7G/ASdxHudpljmPMwYczu81nDuSIjKi8iIrTA2cBQAjD5OWCKxxVrCP7XpOM5+6XpTd8QvdgYRyPSHoygAeaR0icV735tZ/Lno1Pept+gVRIPBpHjzRDZmImWFQ2gE1DIZjC4AahuwSuJHY0BAwBQyDNEICMheiUTliEnjsGZ5PYnmRSnrc7L9e5UL5S2js5SrPYsQNr5Dh2h5yIHSQnz1yiG37lYP8Vdso5q7aloVqqj2zFXlevYW+sOtxLmep19p28JkqkLk87ER3n2VANP41wL+PJ3p4ym/EHE85MLEib5jBflk/+dKRJrq3MlcVwAunZ6TD3GgLfVdjLNFMO73kVYyV71ZPmjHnX417sudxlsvLMV0ocYNOjb7wu29Y+Ig0n92NchUXpZmoCwJ30CGouNJQd9W3y5CHMwQajq0bTleZgqmtxDQFDwBBIIQS08wzLEDrs66taZHVZjrxjepGayHQMBkVVbokjF8pcytSqwxv045FPd52UGLp/qrx2cZy8dmYyjq2cCobl53tr1RKE7j6UleGRCrM+M7EwBjLh1qOs3aMHGtW9c1kO92XpZlFXEVf41sYqWfv8d2Xjyz+ScuzJXFw6Q/dkpgtoLtBprj+q097aQ82xSnuunOPT0e/I2w9SqYIJ7A9g8w7MUKNvnYgOXLFwFgwBQ8AQSHMEKGMpy9GB/9nueqF8vW5Svg6mezKR8tEjE/52ctbJS3fsC4XecfnbpcGZtU3hiHxvZ52cwOQBaAqQ95D1HOcZZjg7sTAPVgYCfisG8Zcfb5XbZhTCGkV3zlQbvIrGV46F54eeOasOgVUPre9VTO861TqG3vfyNz9urIYzFV492gI1zSMVJN4rPftpCBgChkCaItAlzrBHFarwo911Ugi3VReXBbB40tuoi5Ybir3esnIgNeY9vQmGmkoQaT/0RoNsgnzNwBg2ojn1aCDJnjGOZ3g7YxQvM25PnAlGfXBvHaakteodbvaAK7g78qIDwCMZMm78x0MyPo67l0d+OFuCMyRWo9I/2lXrmcBUU+lqBS2D/TEEDAFDYEwgQObApwGzX7+/45RsOhWUHMhAKhBOLvYmiIHUm/e4+xmfSgHdyPwag/XPHoLVSEmFVqmBpDawOAMjFqaFwqjND+rSt7edkq2YwQAlpms9CQseX2n3/UzFiK9w/HeSSg4quwWD9T/YCdsfAtNnGSwYAoaAITBmEaAcBZNw6u/XNtfI8hNYwgGxhz69yn1HEE6+UiyqbOwFiDvn4vNuCntqKrWYKHA/ZPhTBxu9cZUkyNaBEwsLjkJpQVHIf9lYIyuqWkE2rLQn8F0lukmiV217/WR8xnXxeZl2Pya3CjMUvrHlpPoFUxCNVHqhZz8NAUNgzCEQk7FUU0JYEH7/tlp5+I1GuHzBzC5UlrKRHW8na0ErCoH77Y486eQrhTyGpiWEqNuwGPNLG6plPa1OOqaCi0mQrWcfY2EJ40OsEPB/KfeBUT947gR5y5R8tQlyzIU2QlaIDOm5JiAc3m986aqsi+MdUUdco2mNNsWXMTvihxhQcoSicZJQeZbHgiFgCBgCKYUAZR1kKN27QCTKY2/UQ3NplntmF8vS8ly15nAvLhICRS2la3ygxGUSPNIDPjhJTra2y6PQUF7FJChN1A3UM2ISwmnE4rLhMf5777xZGU5D/uWeetnWEJI/n12iM8byQKncKwW6iGoz3n0uJVbY+84jP0ooiNSOBI/AX86j+xvlNah/PpjCdLIxkYurvEuJx+7v7puX21j/24UhEHA4uONYr/tYrp9rQ3dkXV1bp2q9WT7KAj6JrtzumMwyuzx4ZEgHnLrKyvLGfVj+00JM5hFbjm3XQkB+F+armcUBuXpiHraLz5VSbHhI4qEWQweW/EfZS9eOHVh1j0m0sgsayipMulqBznoUFyizKVeVkeLkanz+8WXj96GE04iFFWHgset7L+GuEfCHleBssXUYYF8H09WtmC329mmF0F68XdFyyIooGTUOl5YWOlahdgwg0ZsmV33+6VizPHEY7vc5SSBGTi6f3kemRXAcQJ6eRIoaH4GO6cC8wFQngne1lcN4fKAw9mrJ9uvxbPN3P+9eqtSe5SO1REf4WXRY6TOPP3wnuJwhVYPKQJSRR8qtHuU/S6H1GUCcTNizDjS3y4HGkPxqT63MLcmRGQV+JZgykEwOZtnWYfzkVLBD3V9tgY/HEF3gk3TQUedRN0g8S34cS/cUgzi53Q8J9ZfUacTiGMpVpr8b3Xl97pUtRZZhAeMyLKRcXBqQyyvy5IKSgORglTzr5EOjM22u2iew7SCU3dB0XsM4zXq4jIl2wP8NDYFIi+M2ZwtKUBoJ3xKwoOds+aXS9a4XqKveAwAslSpgZTkjAl3PNoX2IF/oMyachIuqseA55L/RCN6TD5xSmFSIi7Yj2rIbqcG/syoXATM73vgr+5rCsq+xvZulNCNmxi84QJZmYtoyc6KcHmjwZL83juNu5LnBPIunEUtmbOn/kjkL5K4rbtSyuGX/ZysY3wHWiR3qeqCwHOSR64tKAaikkJVEFZsxONPcmSnNUZ/4CjpldlGGzMU1BhKOosBjP8HF9MN9weyKKUpE6sitn/hj8bSHgYg/yy9XnrtYJlWUS2d2ALvMKYJjscrjok58zzI6OmRi4QQpyS+gNBrUyzwaICmxoJx5eP6uO3+JzJ0xS7Vpet9NZqCpvLMjLKX5hSoD3DuRzDyHkzZxUjmFNl4y+zzJzc+VaHZObC3g0FKmvGXoqju/AHaHvB7dD405sD861h0KyYyKSZKfE9CbBkMqvAE+JAfDZQMrmLIck+UHJps+A9mH19Vc1gVNn1H7PAkN58CeHVJ7qhoOMNvU02ef8cboSX1Q0XNZvPQKyZ9Q5rF5ivfaxmhTJK5afCfQhp14qTeuWwUvFW0SBtGo6TNxuSQ0JS5i9uEd5/bkSy67UrJIiLF6JDSj3olF0ENFvptXvirt7W0qA4YgQ3unmtTfuowiEJC5CxZJ6aTJGAiBmQour8Zi6LdW9CUT4QOigU02WOEfuyfScdqd+gC4P9BqBhVIRihKBxqlLYQFRNnZ0tbSKtl+/6CSSefIbBsOwoUggBpbmyW7sEg5OqOrvdK5duO37OosEL49WlqbvI4SnvVk9PsSibCWL1bOBjyLRTk5WuaMaHLHOxQr+BIMw+cgH/5BSpFEQjDgtFhGeoNvaWuVQmhbOi4Ebkm9oCWlwoylJP1SxBmL3e9d7Ik4lypnTGGULtJWGcjNlWbsOpmNIwf9x0tQJZDmh4JsyYY6TZMYX/DBqqvjBa90qadrQ1/M1ZG+2elQ+JhNhuUeqWfRYcXuLqflpk1AWSlXRwqn0cKlX2IZrQINNF+q31NmnYPNxULejpMDvXEMxNNeIt4lEkk2bNsMRipjoGGtCkNCIJ2e/R5lpYVBe4lDqnZK35S2xMIGyoHazY8FQ2AsIcCOA80k7DxJOOwdU7SCLCvLSfMsTVIjHYhTtj9LQihDKltYiBMx8qOs2jEEULq//UgDNkL5pS2xEB/XQCOEVcpl06P3k3KlswINFQFOnc3yZ0t7sM0jlZGX1wMuujdjlAvv/KMy5bccg+AtDQ1SVonZYake0I4dGHPO5wQHhFQmwuFC+f8BlDO7rvKk0IgAAAAASUVORK5CYII=;direction=north;clipPath=inset(0.36% 3.67% 3.28% 2% round 5%);" vertex="1" parent="1">
          <mxGeometry x="100" y="310" width="55.59" height="119.17" as="geometry" />
        </mxCell>
        <mxCell id="BxdCIY4UVa0yPK-bbgme-2" value="" style="shape=image;verticalLabelPosition=bottom;labelBackgroundColor=default;verticalAlign=top;aspect=fixed;imageAspect=0;image=data:image/png,iVBORw0KGgoAAAANSUhEUgAAASsAAAERCAYAAAAjRYF/AAAAAXNSR0IArs4c6QAAAERlWElmTU0AKgAAAAgAAYdpAAQAAAABAAAAGgAAAAAAA6ABAAMAAAABAAEAAKACAAQAAAABAAABK6ADAAQAAAABAAABEQAAAAChQ4KbAAAxzElEQVR4Ae2dB7hdRfX2d0JCESTSUUQSgggBBRRQihJCCTWiEor6yYcNRQELiij+laKCSlER2yfPh43yKBYQKZZEjIKCBQGVoigqAqIoGsQQ9n/9hjOXy8259+41Z+aU3Hc9z87NOWfPmpl3z7yzZs2a2ZOq7slaltVn7Zpn16TuZauchIAQaIjAT+y+g+36XcP7u3rblC7mto7ltZNdk6ZOnVqtsMIKVV3XXcxeWQkBITASgUmTJlWPPPJItWTJEvrjlvb7pnZNeLLCmpqyyiqrVEcffXS1zTbbBJBGgqfPQkAIdA8ByOrOO++sTjvttOq+++6jj07tXu6+nLppWYWSYVXtuuuu1dy5c30l1d1CQAgUQeDmm2+uzj77bMiqiP5cSifnUiQ9QkAIDCYCg+KOEVkNZvtSqYXAhENAZDXhHrkqLAQGEwGR1WA+N5VaCEw4BERWE+6Rq8JCYDAREFkN5nNTqYXAhENAZDXhHrkqLAQGEwGR1WA+N5VaCEw4BERWE+6Rq8JCYDAR6HoEe26Yli5dWi1evDhs3WHrgEQITBQEVl555WrFFVecKNWtBpqsHnjggeqcc86pFixYoH2GE6bJqqIRgY022qg67rjjqpkzZ8avluu/A01Wt912W3XqqadW999//3L9kFQ5ITAaAjNmzKiOP/740X5err4faLJ6+OGHq4ceeqiaPHlyGF2mTZumY2eWq+apyrRDANfHLbfcEtwf9957b7tblsvvBpqseCL4qaZMmVJtv/321SabbKLp4HLZTFWp4Qg8+OCD1d133x3IaiL5aQeerOJDxLrikgiB5RkByIl2PpFIKj5P9e6IhP4KgQFAYFCOcykBpciqBKrSKQSEQHYERFbZIZVCISAESiAgsiqBqnQKASGQHQGRVXZIpVAICIESCIisSqAqnUJACGRHQGSVHVIpFAJCoAQCIqsSqEqnEBAC2REQWWWHVAqFgBAogYDIqgSq0ikEhEB2BERW2SGVQiEgBEogILIqgap0CgEhkB0BkVV2SKVQCAiBEgiIrEqgKp1CQAhkR0BklR1SKRQCQqAEAiKrEqhKpxAQAtkREFllh1QKhYAQKIGAyKoEqtIpBIRAdgREVtkhlUIhIARKICCyKoGqdAoBIZAdAZFVdkilUAgIgRIIiKxKoCqdQkAIZEdAZJUdUikUAkKgBAIiqxKoSqcQEALZERBZZYdUCoWAECiBgMiqBKrSKQSEQHYERFbZIZVCISAESiAgsiqBqnQKASGQHQGRVXZIpVAICIESCIisSqAqnUJACGRHQGSVHVIpFAJCoAQCIqsSqEqnEBAC2REQWWWHVAqFgBAogYDIqgSq0ikEhEB2BERW2SGVQiEgBEogILIqgap0CgEhkB0BkVV2SKVQCAiBEgiIrEqgKp1CQAhkR0BklR1SKRQCQqAEAiKrEqhKpxAQAtkREFllh1QKhYAQKIGAyKoEqtIpBIRAdgREVtkhlUIhIARKICCyKoGqdAoBIZAdAZFVdkilUAgIgRIIiKxKoCqdQkAIZEdAZJUdUikUAkKgBAIiqxKoSqcQEALZERBZZYdUCoWAECiBgMiqBKrSKQSEQHYERFbZIZVCISAESiAgsiqBqnQKASGQHQGRVXZIpVAICIESCIisSqAqnUJACGRHQGSVHVIpFAJCoAQCIqsSqEqnEBAC2REQWWWHVAqFgBAogYDIqgSq0ikEhEB2BERW2SGVQiEgBEogILIqgap0CgEhkB0BkVV2SKVQCAiBEgiIrEqgKp1CQAhkR0BklR1SKRQCQqAEAiKrEqhKpxAQAtkREFllh1QKhYAQKIGAyKoEqtIpBIRAdgREVtkhlUIhIARKICCyKoGqdAoBIZAdAZFVdkilUAgIgRIIiKxKoCqdQkAIZEdAZJUdUikUAkKgBAIiqxKoSqcQEALZERBZZYdUCoWAECiBgMiqBKrSKQSEQHYERFbZIZVCISAESiAgsiqBqnQKASGQHQGRVXZIpVAICIESCIisSqAqnUJACGRHQGSVHVIpFAJCoAQCIqsSqEqnEBAC2REQWWWHVAqFgBAogYDIqgSq0ikEhEB2BERW2SGVQiEgBEogILIqgap0CgEhkB0BkVV2SKVQCAiBEgiIrEqgKp1CQAhkR0BklR1SKRQCQqAEAiKrEqhKpxAQAtkREFllh1QKhYAQKIGAyKoEqtIpBIRAdgREVtkhlUIhIARKICCyKoGqdAoBIZAdAZFVdkilUAgIgRIIiKxKoCqdQkAIZEdAZJUdUikUAkKgBAIiqxKoSqcQEALZERBZZYdUCoWAECiBgMiqBKrSKQSEQHYERFbZIZVCISAESiAgsiqBqnQKASGQHQGRVXZIpVAICIESCIisSqAqnUJACGRHQGSVHVIpFAJCoAQCIqsSqEqnEBAC2REQWWWHVAqFgBAogYDIqgSq0ikEhEB2BERW2SGVQiEgBEogILIqgap0CgEhkB0BkVV2SKVQCAiBEgiIrEqgKp1CQAhkR0BklR1SKRQCQqAEAiKrEqhKpxAQAtkREFllh1QKhYAQKIGAyKoEqtIpBIRAdgREVtkhlUIhIARKICCyKoGqdAoBIZAdAZFVdkilUAgIgRIIiKxKoCqdQkAIZEdAZJUdUikUAkKgBAIiqxKoSqcQEALZERBZZYdUCoWAECiBgMiqBKrSKQSEQHYERFbZIZVCISAESiAgsiqBqnQKASGQHQGRVXZIpVAICIESCIisSqAqnUJACGRHQGSVHVIpFAJCoAQCIqsSqEqnEBAC2RGYkl1jjxROmjSpmjxZ3Nsj+JVtFxGYqO18uSCrRx55pPrd735XPfjgg1Vd111sNspKCHQfgf/+97+hrXc/597muFyQ1cMPP1xdffXVvUVSuQuBHiAwkQbngZ43rbDCCtXUqVN70ESUpRDoDwSmTZvWHwXpQikGmqxmzpxZveIVr6ie8IQndAEqZSEE+gcBfLRz5sypDjzwwP4pVOGSDPQ0kFHlxBNPrDbeeOPq3nvvrXiAEiEwERDAyX7IIYdUs2bNmgjVDXUcaLKiBmussUb1pje9acI8MFVUCExUBAZ6GjhRH5rqLQQmIgIiq4n41FVnITCACIisBvChqchCYCIiILKaiE9ddRYCA4iAyGoAH5qKLAQmIgIiq4n41FVnITCACPRV6MLixYuru+66q2L7TK9jptjGsNJKK1UbbLCBouQHsGH3usjsV6Ut/+tf/+p5WwYL+tO6665bDXLEe9+Q1QMPPFC9613vqi677LJet7Oh/KdMmVK97nWvq4455pi+aHBDBdN/+h6Biy++uDr55JP7hqwYfJ/97GdXH/vYx6r111+/7/FrV8C+Iat77rmnuvTSS8PpCZBEr4/BwLpjdKRMr3/964OV1Q5AfScE2iHw7W9/u7rhhhvCINfr/au0Y9rz3XffXd1xxx3LkFWvZzHt8Gv3XdfJCtCuu+668BABEYGY7rzzzjAK8f/Zs2eHLTTx93YFL/kdD+/666+vfvrTn1aQ6OWXXy6yKgn4cqibI4uQGTNmVLvuumvPLHP6EyR15ZVXVkuWLKkWLVpU/fOf/wwDMeWjrUNgHK/U79LNzXSbGRiL7FqTkYYTE+LxFgAGMQFm9BVhXfVSODOI8vCwez0y9hIH5Z2GAIPy0qVLK9oxvs9eCuV46KGHQt9accUVQ5sepe/9x8r5Yru+1cvyjpZ3N8lqLSvEeXbtOVph7PvIUH+3/y+2q5vlG1ms1e2LJ9rFaX4Pj/xRn4XAOAisYL+z2o7J8rdx7i3984qWAf2P8tCW251QSV+7yS6OcbjNrr6TSA7dKNgqlsmT7BqLgPjtkS222OJz8+bNW2ijEw+862JWXv2FL3zh/5j5fEAr87HK3PXyKcPBQeCJT3zija985Ss/ZBbNoz6PLhfdZjCPLFiwYIsf//jHx1m7Xs2yH60t8z0mIH20L6WbZPV8Q2Bbm1ZNWXXVVZeZwzMN/Pe//42JOvmtb33rIYcffvjedv9owBYH06aA6370ox9lujrJzsuaMihOyOLAKINGCOADwo2w4447zvrwhz98Sg/dGvV3vvOdVefPn/+Ev//975z9tsLIsjAl/M9//kN5cdX8X7t+ZtdSu/pKukVWWEiz7Vrpec97XvWBD3ygWnnllYeAwC/0+9//vjryyCOr++67r/rJT37C2ur6zLV7IRBTdJButdVW1Zlnnvm48vaiTMpzsBA45ZRTqksuuaT629/+tuq55567KW28F0K+t99+e/Cf4a8666yzQgjD8L5Fe7/wwgurM844A7/WvlbOT9p1Yy/K2w95PtUKcYNd9UknnWR4LCsGaG0nfzKX7qtrjz32qG3UWbbA+kYIjIGAhbv0VTumX6222mr1Nddc07bUN954Yz1jxgzKzHT1PXb1nXTLstraaj6Tg/J23nnntiA8+clPrg4++OC+CQq1JxpWccx87vlqTlvA9GVfI7D//vuHOKt+iWAHLIJCjZDa4rbZZptVlNlcH7heWBH8/3b93q6+kW75hE63Gr9l++23D2S01losTCwrLK+a2TwUA7LsHd37BrLCbKashFlIhIAHAdoPbRnfVT/4OykDxsIqq7DO1V5++MMfVgcccABHhON/Odquc9rf2Ztvu2FZrWNV25HqveAFLwiAjVZV4lGwsCRCYNARgBxGG5T7tW5YXrvvvnt1/vnnMzofbNdFdv21X8rbDa/fFlbZzW2+XO2yyy4hIK1fKq9yCAEh8BgCLHodeuihlYVb8OV2ds157Nfe/68bZDXbqjlt+vTpYc7c+yqrBEJACIyGALOfHXbYgZ+ZLx5qF7FZfSGlyYoAs+BR32mnncIRFX1RaxVCCAiBtghwhAzWFf5ak13sem7bG3vwZWmy2sTqtBW+qNmzZ4d9Uj2oo7IUAkLAgcCee+5ZPetZzyLFGnYdYldfvPa8NFm9wCq65oYbblhttx1TYIkQEAL9jsBTnvKU6qCDDoqrmOwkeWY/lLkkWa1qFYSsJhOy8NSnEhcqEQJCYBAQeOELX1htsgkTo2oDu9jc3K0wJ/JsKyXJarrl+BxilDjPp9fHZLStvb4UAkKgLQIQFYTVEjb0bxw/9OpvSbIitmo94qbYDygRAkJgcBBgTyFTwVbc46ZW8nm9Ln0psmIpgZWEqQSabbxxz0m51zgrfyEwcAiwiX/u3LmUOwaJrtfLSpQiKxxUYcmTVUA7lqKXdVTeQkAIJCBA+AJhDE96Ujjiiv29eyaoyZakFFltbyXckFf/2Hk+2QorRUJACHQXAfpv6/ABDuYjSHT17pbgsdxKkNXQ2VV24me1+eabP5ab/icEhMBAIcA2uZe+9KXxPLedrPBcPZESZMXBeSFen1XA1VfvGRH3BFBlKgSWNwR22223uFWOzvxSux47ObOLlS1x6gJz23B2FVtscgpHHw8/4TCnbukSAssLAqzk5TzWCHcOZ81de+219L89DCf6+DXdxqsEWc22Sqz69Kc/vWI1IZf88Y9/rD75yU9Wd9xxRy6V0iMEljsEOEeLAOyjjjoqayD2fvvtV33qU5+qbr75ZlYED7Lrx3b15CUYuR4aZ1f90K762GOPrY2FDbs8Yue213ZGEMeu6hIGagNjtAH6yfHHH1/zlqZcgq4TTjgh4n6r9UNeLtFVyW1ZzbLSz8Ipx1ETuQ7J5w2y3/ve98JLGrfeemuXxcYhaLfcckvFKYic08P8m6VYe4iNgOYNJfZ2kPBW2y233LJ6znOe0ygdN5E3bxQhPW/uwYf3tKc9rXHe6PjFL35R/fznPw+v/CYMxLMTYPHixeFt0hyty5ScqOSm9ebZ2bncvLyjWnvttQNuw1/yQdnGEqbrYP7b3/425MuxI03bA7jZaZXVVVddFbIAN4ITm5adRD/60Y/Cc8fKALem0yLy5qUlvMGYF91yBtt0O96oad6kv+2226of/OAHFW9xor2tueaajdOTJ6+ep/7MTjyr6cPzvvjiiyt7BVjcMjPWo2r0G7pf8pKXVOeddx5vT9/YEr3Irg80StynN/2Plau2Tl3/6U9/suebR+w17vV6661XW4OrP//5z7uVvvOd7wwjgm2mrv/617+60tv0s7bpbEj/kY98xJWWm+19bbXN+WsjmXrBggWu9Ixm73jHO0Lee+21V/3AAw+40v/hD38IL+GwVy/xHkRXWm4+++yzQ942QNR/+ctfXOntnY/1EUccEdKbv6O2431d6X/zm9/U66+/fm0EWVvHc6Xl5hNPPDHkbftSaxswXOnB7ZnPfGZIb6/RcqXl5u9///u1HbVSW3xh/c1vftOVHtxe+9rXhrxtwK+NOF3pr7/++nqDDTZILvtYmdnAPfRMrZ9fb9cG3eShnKuBRI7xbsAwiuOUyyWMUvbC0WCVeE9vwKKxBxiKglXGOdQeMdKt8Jdh0XCovlfuueeeYF0xunJ5hAUFzvFGsArHOj+7nV5eYY4ORsWR74prd//I77CkSMs54ujyCJZMPNbXBojw+nJPes5VYvc/77OzkdyTNNyLv5SgRp6d189JvtHfevXVV7vLTsiOkV2FZYt1aATQuPzgxp48rDIbpCsb7Bqn5UbytYEtpLnooosqG2Rc6ce6mTZ0yCGHxHbMSQycyNA1yUlWbNEOZ1dhOqd0jna1prGaRRJ+Ygo23Uxyj9DQbZQOSdij2HQqEvNgGgNhMA3hqBuvQHZMJSFvL1EylYpkRedtOpWJZcxBVuTJM6AsXonkDFmBgUdwJUS8eackpOuRTTfdNExfGSxwA3iEOsfp10033eQmS+rN1BMxKysMtOFDw384pYSBlen7N77xDVfdp06dGqLOaWs/+9nPwnS2YbaNbqNsTMtNOOOKs658oz8pEyUnWWFVrUUDe+5z8x0uyKgYLaM5c+a4fDZg8qtf/SqMrpAFPiev4LdhZDTTOoz03vR0NGSdddZxk9Vwy8pLdOQJwXRqWTHoQFZey4r88XWRHr8d1plHsCwiWfHCWd585BFzGwR/DeWGcLxCp8QytClh9ctf/tKbvKKtYg3/+te/DqThUQBu++7Lu0ar4O9kwPQIgzI+YwaIL33pS9U//vEPT/Ix72XrHFtweD4mnFCwy5gJMv6Yi6woOYUOZ1fRsXMJsR2Y8pjmKac3kJ4Gy/vSWufzNC7a8IZOWm+AK2QRycr8L/EBN86fxhYbWrRSGie2Gyl/JCtGXK8wDcTKQA+E5RU6HVMx0kJYXtloo41CEgYsb/6Q+zOe8YyQngUKb3ray6xZs4KT3V4M6prKkSnTMQZHpoIssHiFqRz96NZbb62++93vupJDJESd4zZYtGhRcPa7FIxzM5ZVyx1DvydItCubf3ORFa0qnF2F+etZsRoLFzoJq4B0eh4+pr1HMKOZ9yOY1a0NmY1VsCITyYb88d94hJUdiBZhFdAr5lAfeu9cClmBG1ZhJz4rLCMIz2sZUVcsE9pCfB+kt/5M+SE7ppE8C49Q59bRvGEayAqfR8A7rvyyssiz8AhEjXWDLFy4sGI66hGIkj15PD+mgrRlj2DZbbvttiEd1pWXrMfKC2zwXbUGQOaE2451f67fcpEVu5XD2VWtN2NkKR/+nuhgBPyW6dlY93B/lWfpPGYQnes8lJQ9jvibYieJVkLU3eRvJCusmxSyymVZQXqdklXEoUm94z2QFdYBoSuR9ONvTf5CVrQZFmcIJ/AKZAFZkxYLxyu8gw/fG1NBrDuPQPI42ml7WHY33HCDJ3mYgkMo+GgJhcB/lVP22WefioUEk7XtOtiu3GFQ6H6c5MhgRdPIFDD72VVYRczXMem32WabMELTcZoIHZwG8uc//zk4tzlTixHekx7HPJ0M5zo+J296OhiERYPHh+JNjzXBNIIGh6/Am56V0FhfiMuTPi5EgCPp7r//fnd60tJZIQtWpbA0KUcTIX/SQtJYt7QDyMOTHj8lzw6ywW+FGyHiMV4ZKDtTf6Zi5H/dddeFaV3T9Fh2pGc2QDtmVbB1esF4WYffqT+WHekpO9YVfaDpyiLpma4xFcZve+GFFwZfcnyujQoxxk34E4m7Ig7QyrSv3fopu3yMOob+dj/55jXtNDx63Onl9tPTzzjjjOrNb35z+7uc3/JQjj766MpifcKOb1icUbbpw6KxQFQ0ctKRHh+MJ/1dd91V3X777YEoMMu96bEIbHtCmEbhv8Dn5cmf9DQ0Okgn6ZnGUX9v/kw96CjkT9gGxOEpP+REekiTwQK/Y7fTgx8WKpYtHcybf0zPND46/Js2ZfLCqmLAYkrsDX0hPfnj7wN7r3U/PD34X3LJJcEP17T8493Hs91///0rWwCp7d6T7HrveGl6/Tsm4IM2itXmzDZ88ogRRW1zbkDQJQzUBjpsAzZ416ecckqeztnSYlZubQZFfDZYVdPtKiadTgPj2VUrM3J7R46xakXIAKMKUwFWNjyjMqYuUzCLdg/Lt+wYxxzGwmgiWGWMZjgmmYoxP2cp255Rk+RD9+ArYDVm5syZYde6Z0WOOuBn+NrXvhamsWDg2SZEeqxCAgMp9+GHHx627DStAxhgWX32s58NU0BGUKYlTTEEBO61CO4wDWKBYt68ea74O+pAjB2LLEzHXv7yl8dzlYYwHus/1IEYK6ZAWNcsuaPHgwHWNe0IB/WBBx4YLFQPBqzoXnDBBcHCZxoHjpSrW0JebHti+9CXv/zl6rDDDsu2wZmpMn2L+tkCAgfXMR38eLfq5s3nKZbgF3aF7Q3WCLJJ3CJjHaQ2INx67cHU5iuqjeRq8xm40xtRhO0e6Pj617/uTm9Tp/pVr3pVGHXs4P2kTaXnnHNOSI+FiaXpFWugtU39wtYPI39v8tqIujaSDxvI7cQLd3oSvOUtbwl1MKKqjfzcOsjXOlxtvpvapvXu9DxHm4LVRla1TYPc6W2RpTaSCXU47bTT3OlJYK6RkP75z39+bVPCJB2dJLIo/Np8rmG7mp2c0ImqZdLawkttA2mon/HA1XbhcC8ina4GbmOlCmdXeZyH49WEOT5bbBD0Mt/3CsvNOGOZq2PZeIXYHqwqHOspYQeMqAQUIvg6UkbTuIJGcCH+Mq9Qf6wALBQur5Am+glTVgPJL65iEn6AD8srxDtRBhz8rM56hfg22gDlx3/oFdIT9oIQjZ4SAsCqIHUguNS7quctb7v7CWFgQzW+R6wg+lcuoV1isdJGTdjlv1su3SP1+Fvw4zXsYh+zn12F6c6DBYjZs2e7OxqO6bhUy9SlBeTjSz7Op+hYZtrA5RWCOSE7JCVsAZKJjapTsmI1shOyog6pZMVAA1FDvClkBdHjCsBJnhK+QLxTjM9jddhbBnDjxArqgFsixt2BSVOB7HCRQLhMabstkVDAkTAIptY5xSzGuD1pFdN7qF2r5dQfdXVCVph7O6OI4Lc4gkbFnfwliA6fEaMqr/LySoyvoqGx9cdr1UAU+MwQypBSN4iKOlCGXpIVo2kOskqxKMAPsiKwE7Lh8gp+OsIPIMuUDc3UHX8qAtkwkHmFAQ8LG0s5xTKi/HHmAVlBWt0W+iihG+CIL5YV2lzCvlViulrB4BgwbMPJLp2QFWdXbQ5bA4SXEEarCU5dzG2EQE4c616BaIjrIS0hB16BZNiPhtDQcSR6hWkPlhH4MJXwCiQTLStv5H3MK04DU8mKejN9QTqxrCArYrVifWL5mvzFqozTcKwac5o0Sfa4ezhBgY6Es9y7zw5F0y04lXYEnrgXvGWgb+yxxx5hpsCMIQ6Ejytk4Q+0IaZrLPJAmJxTllN4v2BrxwCnr2BdEX+ZVTohq9lWkifxIBl5cgmNiSA6OgpBbXQ0r2Dq0tnxVXB5hfgsphxYRXFU9uogEBJLghE5ZRMy1h2kiaRYdqSLZEUDpS5eIU30laVaVkzDIArIKvrgPOWA7GN8EwNISjkIziRAFGvXewIDZaWj4/dBaFtxv2b4ouE/rAQyHeWZ5p6GNSxCeGEphMKgge+K9pFLsB7nz58f29lc08sRMlnF34IfzX6a/QlTQObzNIRcwlJ/PLuKcAGv0JDi1gY2W9LYvYK5TxnoaJBxikTnOtikkBWdEisTSSUrCBvSS7WsIKv4glrIBl1eoaNjnaVaVuQXp9EseqSQFc+AUzfj9N5rGVEG/DJYiISDxCOH+L6p4PdEB8LG5hTCa5rXaPdRBl4Jj1x22WUhYHe0e1O+Z3sQA4MJTt75dmWN0fCbLRSlqihR9rOraNCMOjQmGhedzLMChDWGX4KoYUxv/E2QDp22qdBB2Y/IqANZoQdLy9PAuZcyIOxNg3SoW1MhT+qNZcb/0ce01lMPsMOSIC0XG2npbB7CAYOYJ6MxBIwO9DURyo4lAQasjmIZ8Tw8IzrPlKkg1iFpeb48V089KCsjP8L0h3K0/Cvhu/H+oU0w4LBlCr8ZB/IxNfWUgXpg1fBcmAqy2s2MJOI7Xhly/E49GMA56pl6EHcVDxnMoR+igrA+9KEPoe6Fdv0/u27jQw5JZb43WeanW0jAZILNUqZa7QrP0jIBmPgmGJG9FhudY7gjlpGEjtK0c8UyRX8TFgE6eMhegVxw5tLRYkfx6KBzMxXlL+nR4xGwwJFLB4dgaKB0FI+AG4SHHvLH94Zej9AZIV4sIqbEWIne54EzmAGDDs/z8BANZaXM1APCZVoLFt5nCsFSBurBooE3nCa2TZ4pJEc9sPq9WHiwb3cv+UFU1INAaYshHDpKp9393u8YDCAs8w9iIbzdrjO8OnLez9k1X7UrBINZpa3+eeTcc8+tbQQNQYDWsWprUO7LGgXDfkhnjdudnjxJH3WklCGHjliPTsoRdfA3tR5RR45ypOrgOcZypNYFHeTfSRn6QQfPsVMs6FsRR9vPm6fztrTYDKK23RIR62sMb//qkiVqJ76h9lENG9mf7GdXMQJjXmNJYKq+5jWvCaa/YdCu3Mt8Zw8xTDnspQ4Vvo0XvehFFe86Qzw6SMuGbKZgb3zjG92mOuVg9DzzzDPDSH7kkUeG+njMfesUYTf7xz/+8YDBcccdF5zM3mkHVu8Xv/jFarr53Y455phgrTbVYY05WCRs9+FiNewNb3hD8GE1xRMd3EsZ8NPgpOa5eqeSnDwBFljenKDJbn/vc2U6GtsG6bHgPTp4Jkwf7QUSwXrnuVIf73NlJZBygA3PhAUcjw7SXX755WELEdad7RAIq96e58ozYQqI34q/L3vZy9yzmABem394toQxfPWrX8UiJ5p2T7s+1+bWrnz1Ksvlv2ZK1zb3tnrnEZv61dYhAiOfeuqpSUrtuIrwFhxGDrbbpAhbVGyaEbZo2MpPioraFglqm+6ELR5sdUgRe9hhu5D5Rmre9JIiZ511VsDTQkCStiyRJ8/Cnndt4SnuN63EMsetU3vuuWdtU+P4deO/jNa27B7K8epXv7q2wM7GaeON5h6obXoSdPD2GBsU40+N/7LlyQgq6Hjf+97XON3wG221u7YA0aAj1arh7TlGVLURQ33++ecPV9/4/1dccUXYhoUOG0wap2tyow30te2BDHW0tvMtu1iQ61i8zhhiJ3axq8jZVay0MFqkvnaeVUB8E/gkvMdpRCSJXMcZjk8BPSmCMxs/Dw76lJVA8mS1CD8Jx7rE8AFvWbBSEawCRuQUif4hfIEeC2B4XnE1k2fjjSBHD6N1DF+gjXgWK2I5wDCGoRDYmRIUiYM9br1hFpASe4ZjPh5QieWbUg7CIJh9gCUWDP4nr/BCDFYn0UGQKDOJXIIvjpiuVozeTqY3RA50qt9LVixJPo+Gzxts4rJ2p4UgPYFqNEKcfrFRefUSA4M5zKrEdJv6pAgrNQiNyuvgj/nhwKQc0aEcv/f8jTFWOLZjYKYnPfdGssKxzvQ0RSJR0jE9q3jD82IAogzUKaVjoYvnSbuLq6TD9Tf9PytflINpegwtaZqW+8ifSHT+strLtNArDBxmYYZyMLjGVWOPHsgAJzblYFWRFVKvoIOTPHi+EC8nM+QU9kO2dp+wMkSQqH9z64gCeVvwdpZ+QyyGuH1ghL6kj6xYERmMzJ49O/hWvIoIOIxbIYjPSiFSVu/i8bcQJsvlXjEzeWj/WGpAKHnGaO9OyCqSCx2kE7IibSeWFe0F6wgdkYS9uBKuQMfC4mRVLkXYn4eli+WbckwxedIBWZ1lQIoDm7csWEWsoLNiDFGkCBuT2aAPFt/6FjMtv6CD+tDubTqZZLGOlittn+NjaHsmu9vFoQcdiYesyHW2XStzNhEWUC5h6sXoQMfENGXE8ArhDgTr0SlitLFXB9sxGHWRlNd2kQ6LirIgbPeJlkn4ouE/TLciWXUyDYxk1allRXosotRpIJYVzwXLOdarIRRDt2HpEoZCx4rPaOjHhv+BZLC6mfrQ5lJkull4LDaABQHMTR3bw/MiyDW+qYkzz1hA8Apkh/WCcGYYU2yvMHOAUBiMzIcVFnW8Osa6nwWu1hl369l9RKMG5horzVi/eciKDHkxRJgCsnkxlzAFJHCSkYL5eIpwFjTWFb4mGlOK0AkYqRh9U46VIU+sB0gPiZHX4YPjHzpA7NSQFWSRInEa2KllRXo6OFeKQFb4viCrlC035EncHWQDvlg1KUI5hp/AkOL7YkCNOysIHsY36RWeJ1NBcOV0kJQtQKTlMEOmc0wneeVcikRCwcrjoMYU8h0tX4idVfmW7G9/N40fUv56yIplyJk0mpxTQKYF8ewqrCqmDCmCv4opGBZfKkngP8CCwLEeHbrestAZI9EwdUmR4WQVndNePWARLavUvYHkib+MzkWZUv1NdCg6eSeWFaSNdYVguVI/r2BBtDbbBis8dUpKO8ViTt16Q7k5DQTriMExtn9vfdDBNA7LjODO+Lw9emijnICK8FKK1OlxuzyZIREm0upLdIYh5mp3/3jfeYZsVgFXY2SKD3w85U1+j2dX0ZCY5+J38kw3AISpAW8fQdCRuqs9Nho6KA5YRhuPUAems0TAM/KxwsLI6akP+UEK0S+DxcnGbu+IR2eOW5XAh3LQwTydnDrgRCYNVhXlwFrzlIXnAykwDSQdfh4sAW/HogyUB6GN4OPEWvPWBx2QN9YvUx9cGp768Iyx7rDSwJdYJcrh0UEdqD+zAMgBosGPFevH700EbOmPnFJCHBu+K3R6ykKe080CYjZBWYipI64vl+D7JTbOTnzFMCJA7nN2PeprcWYyqeH9a9l937Brx2OPPbb64Ac/mORXapcX+4giOFht3gaITh4OHYIGwAie4lxHD85biIJOnTrNpTMzNaAT0QDopJ4ORTm4n/qgq5P6QJaMutQHy4TG7ZWR9UlddIj1wcri8mISByXqA6a0lZT60Eai5csz9hI4+NHeeMZgQ13wpaVIfD6p9aH+ECftlv9jhfN8vNgO7z+EZmBhpc4s2uGwYMGCYL3ZrINYmjfY9Zl29433XdPWy6tlv2YPZg1iMjj0PodgNRCPcemllwaS8o4ssQyM+jRC0kN2KYL1E30YNGBG0BShAXNRFhphSoeK+dLoOkmPnhw6Ynk6+Us96BSd1Ie03o7Yrsw5ykJd4rSYNpfSdikHOmh7vW67lAXio91/4hOfqCz4th10Sd8xwPCiCqLlTb5rFycyuM9WbjoNhKzWmG7mYit2wj52LnfcccfQ2VVYV7x12TNlio3OoqzDW2cJdHv3u98dfCyeRk1DYQOmRVoHq+z973+/extEROPTn/502ArBCHXyyScnjdzUC8KDhFOtRMoDBjQUprUpnSnWiXLwXFLjvWJZCICkPqkDAXpih0odlNBBXcAFiwisvQKWuC/e/va3h6n+CSecEFaxPW035nn66aeHqWRqe6EsONff+973hnq95z3vCUGnnrKAAYO97XgIZeGsK3xNzAxyCM8co4RpqrWB55pOXErsL84uLPtdYVd9xBFHJG1TsE7TVnjThjXc2hyntS0lt71nvC958w3bSSjfSSedNN7to/7+mc98JuiwyPfa/DSj3jfWD9ZAantdVNDD9hAbfce6Xb8NMAK0Ows/6LjdsXnfyCL0AfO1JiFi/s3ajpsJZXnb296WpINEF198cW0EXhu51Gz3yik2BaztMM1QRuurF9nFgQguaTLX2cQ0bs1IRtR66jL6yFIxWjOXxZzGWks9ZgbrjPgqRv1OrL4YUMpKYMoxxNSPaWSMAWLOnzJqj8RJn/sTARZyYntjYQZLLUWIt5puMxYWdIjbShFCOvbee++QFOslJTqfxPRvVhipC0GiqXVqVwf8aWxwbvk859g9BJi7pAlZsa9nbToxFcklxMoQp4Iw/cNPlCKscuG8pXyp+wGZWsTTH9GROsXAcRvjiFLDJ1IwUJreIEAID1NaQl5Sznan1MTzxWPBr7rqqiG/qbdGrLgR5ElZMAJSJBIKBgmri3GFPUVXuzQQamsrHQt2B9vl2iIyHllhqu1i12SIimXRXAJRMQKwOTRu7PTqNjM1zNf5S6RsavkIUYiBhixlp1pE8dA+/AgxJshbJ90/OAgQwkObw5qOlrm39CzCECCKQA6ppEdZ6KP4ngiFYABOkb322iuEczDo8iZr9OUSZhvEdLX6176md3OP7vHIaiNTti1Mi4mYanGMLBBTP9gfJzLk0ArJH3nbuJ/Z4xVjqjCnU8tHTBMNjmXo1hnS4+bd7oZIVoQJQMKS5RsBpm/slqA9p269ASEGawY3gl3jHlkvcjix2dzMQElZUrcTRUIhf7bxpLwYdqyyE9HeCpbe0O4j7qrxCsd4ZLWDKTMXzvrxJYZjlaPxb5ADEecIb7CBJFIEfxWrMjyo6D9I0UMwHDEv7OXrJL6EQENGNPwZuVZSUuqjNN1BgNXE6BphNTnGb3lz530DtF9mCEwFGcRThL6ELg4GgGhS5YADDgg+ZMjzK1/5SqqatunYYdIKfYKkXmwXBlEjGYusVjQNTAHD2VWpW0falYJ9fBAEc+ROtu4QUU1wHqNSqr+K8sXd8/i9cFamStzADFlRN8nyjwBnr7G4w9ablD1+IMSMIE4F4wstUpDD0ot6iKyHtFKEmQ5WGmIrhBVGQS7B8uMNO63jlzYzvY8e59sgg7HirHi76NDZValRuu3KwMZlLBBWALGKmKczqnglOhIhGFYuaDBeYU4OeSLsS8TqS/FZUf5oMtP42AWP41+y/CKAc53VLWYebEvCKU1bZFroETowVj3tD2JgGxC+LE+sFPmhB7cK5MkADGFhbaXo4eQSIvxp05dcckl11FFHeao05r1YkZwYYQHm8A+O9gvtGvfYiLHmi0SZnmdWwipEmMed5vZdR4Ljjnkr5/gAKlZIKjngI4KkmEZiyaTooWFBLEQS42tKnb5BVtQtBj5SL8nyjwBEQPshbIXOzTagFGHQxAfLFBAdqdu9CAlCD+WiT7BdK0WGlwd/NRZWztkCnMLhf+Z+4ZjTw+26YLxyjmZZxbOrVoGpc55dxWjEw2DkgCi8m4WHVwhyIuSBB5xDDw0uHu8yPJ+m/4/loaF0oqdpfrqvPxCgTdMOGfA6ee5YRlzMOjqJccLa42LgZEtbqlAW6oZRkTLzGStfTq5gx4lZkcQscZLopXaNWdjRyGpdS7iTXZW9KCCZ5Uk/UrBceHsMUy+vuTxSlz4LASFQFgEIi+OgOWUip2A5sgUHV44ZCWznYzHvqrHyGI2shs6uggFzC+EBnYQI5C6P9AkBIdB9BFgMgAgt5pK5M9bVQrtGPeFxtNVAVgGzn11lOiVCQAgIgYAAixHz58+PG9vn2pfPGguadmSFvRfMKaaAuc2/sQqj34SAEJhYCBAiQWyYCdEHLOq14yR+b/vDLPt+c1bYIKuUFbagWf8IASEgBMZBgL2RMabLbiW4a+ZoSdqxWJGzq0YrgL4XAkJg4iLAaiP7BYkzM9nErkejUdtAMpKsVrd7IKvwVmTtb2uDmL4SAkIgKwI42efOxWUVXtXFVLDtNpKRZAWzbUXMSM6zqyiFRAgIASHQDgFiLgljaAXUbmX3PHoMxYibR5IVZ1etw7EXuSLWR+Snj0JACAiBZRDg5Al85CYr2UUYwzQ+DJfhZFXs7KrhGer/QkAICIGRCLCgh3VFtLzJjnYtE+A5nKyeZjcMnV2VenInOUmEgBAQAl4Edtttt3hqKhsasa7YijMkw8lqB/v2yTjV2bMjEQJCQAh0EwE2/3N8TOs9D7tb3s8enn8kq6GzqzgPOufZVcMz0/+FgBAQAmMhsN9++8WTg9mffJBdj76G2/4TyYqlwh0IAGUVMOfZVaZXIgSEgBBohAAHCHKEVEv2t7/PiB8iWW1nX2zI4V+dnNwZleqvEBACQiAFAQwmXrDaeuHKDNMxxFyQFWYWG5ezn11lOiVCQAgIARcCvIRjn332Ic0ku3ipxIZ8gKzWtyt41HOfXUUGEiEgBISABwEODuSFqK1DFLa0tHuTHrLa3q6ZRI+2grL4XiIEhIAQ6BkCBKXPmTOH/HkRKue0r83he4S2T2MFEOcWR6HmPsLU9EuEgBAQAo0R4IRSXtnFWe12zDMG1d7MCW+1axPe0MF569wkEQJCQAj0GgHOob/22mvDyzisLAshq0fs4q9ECAgBIdCvCCyBpGp2Pc+bNy+c2KeXOPTrs1K5hMDEQoCzrm666abw/kNeDYbPKrwW67DDDquIHpUIASEgBPoFgQsuuKC68sorK8iK1UCJEBACQqAvERi+2Cey6stHpEIJASEwEgGR1UhE9FkICIG+REBk1ZePRYUSAkJgJAIiq5GI6LMQEAJ9iYDIqi8fiwolBITASAREViMR0WchIAT6EgGRVV8+FhVKCAiBkQiIrEYios9CQAj0JQIiq758LCqUEBACIxEQWY1ERJ+FgBDoSwREVn35WFQoISAERiIgshqJiD4LASHQlwiIrPrysahQQkAIgABvu4kSjojh+IWFCxeGI411nlWERn+FgBDoJQKcZ7Vo0aJq6dKloRjQFv+bzBslONJ4+JEMvSyo8hYCQmBiI4BVBVEtWbIEIB6GrBbatbNdmhIaCBIhIAT6DoGHrURX/C9tL+pIa6y6+AAAAABJRU5ErkJggg==;" vertex="1" parent="1">
          <mxGeometry x="220" y="160" width="299" height="273" as="geometry" />
        </mxCell>
        <mxCell id="BxdCIY4UVa0yPK-bbgme-3" value="" style="shape=image;verticalLabelPosition=bottom;labelBackgroundColor=default;verticalAlign=top;aspect=fixed;imageAspect=0;image=data:image/png,iVBORw0KGgoAAAANSUhEUgAABLAAAALPCAYAAAByhTnhAAAAAXNSR0IArs4c6QAAIABJREFUeF7s3QeYZEW9P+6a2ZnZwAYWWEAEESRI0KuSQUEFJIkJARUj6s8cWJSgGDAgigFQDHhFTKAoygNeIyCg6B9EQQxEFYEFxF3YHCb+n28tZ+ydndA907N7uuet69xZdk7XqfNWdU/3Z6vqtKSU+pJCgAABAgQIECBAgAABAgQIECBAoKQCLQKskvaMZhEgQIAAAQIECBAgQIAAAQIECGQBAZaBQIAAAQIECBAgQIAAAQIECBAgUGoBAVapu0fjCBAgQIAAAQIECBAgQIAAAQIEBFjGAAECBAgQIECAAAECBAgQIECAQKkFBFil7h6NI0CAAAECBAgQIECAAAECBAgQEGAZAwQIECBAgAABAgQIECBAgAABAqUWEGCVuns0jgABAgQIECBAgAABAgQIECBAQIBlDBAgQIAAAQIECBAgQIAAAQIECJRaQIBV6u7ROAIECBAgQIAAAQIECBAgQIAAAQGWMUCAAAECBAgQIECAAAECBAgQIFBqAQFWqbtH4wgQIECAAAECBAgQIECAAAECBARYxgABAgQIECBAgAABAgQIECBAgECpBQRYpe4ejSNAgAABAgQIECBAgAABAgQIEBBgGQMECBAgQIAAAQIECBAgQIAAAQKlFhBglbp7NI4AAQIECBAgQIAAAQIECBAgQECAZQwQIECAAAECBAgQIECAAAECBAiUWkCAVeru0TgCBAgQIECAAAECBAgQIECAAAEBljFAgAABAgQIECBAgAABAgQIECBQagEBVqm7R+MIECBAgAABAgQIECBAgAABAgQEWMYAAQIECBAgQIAAAQIECBAgQIBAqQUEWKXuHo0jQIAAAQIECBAgQIAAAQIECBAQYBkDBAgQIECAAAECBAgQIECAAAECpRYQYJW6ezSOAAECBAgQIECAAAECBAgQIEBAgGUMECBAgAABAgQIECBAgAABAgQIlFpAgFXq7tE4AgQIECBAgAABAgQIECBAgAABAZYxQIAAAQIECBAgQIAAAQIECBAgUGoBAVapu0fjCBAgQIAAAQIECBAgQIAAAQIEBFjGAAECBAgQIECAAAECBAgQIECAQKkFBFil7h6NI0CAAAECBAgQIECAAAECBAgQEGAZAwQIECBAgAABAgQIECBAgAABAqUWEGCVuns0jgABAgQIECBAgAABAgQIECBAQIBlDBAgQIAAAQIECBAgQIAAAQIECJRaQIBV6u7ROAIECBAgQIAAAQIECBAgQIAAAQGWMUCAAAECBAgQIECAAAECBAgQIFBqAQFWqbtH4wgQIECAAAECBAgQIECAAAECBARYxgABAgQIECBAgAABAgQIECBAgECpBQRYpe4ejSNAgAABAgQIECBAgAABAgQIEBBgGQMECBAgQIAAAQIECBAgQIAAAQKlFhBglbp7NI4AAQIECBAgQIAAAQIECBAgQECAZQwQIECAAAECBAgQIECAAAECBAiUWkCAVeru0TgCBAgQIECAAAECBAgQIECAAAEBljFAgAABAgQIECBAgAABAgQIECBQagEBVqm7R+MIECBAgAABAgQIECBAgAABAgQEWMYAAQIECBAgQIAAAQIECBAgQIBAqQUEWKXuHo0jQIAAAQIECBAgQIAAAQIECBAQYBkDBAgQIECAAAECBAgQIECAAAECpRYQYJW6ezSOAAECBAgQIECAAAECBAgQIEBAgGUMECBAgAABAgQIECBAgAABAgQIlFpAgFXq7tE4AgQIECBAgAABAgQIECBAgAABAZYxQIAAAQIECBAgQIAAAQIECBAgUGoBAVapu0fjCBAgQIAAAQIECBAgQIAAAQIEBFjGAAECBAgQIECAAAECBAgQIECAQKkFBFil7h6NI0CAAAECBAgQIECAAAECBAgQEGAZAwQIECBAgAABAgQIECBAgAABAqUWEGCVuns0jgABAgQIECBAgAABAgQIECBAQIBlDBAgQIAAAQIECBAgQIAAAQIECJRaQIBV6u7ROAIECBAgQIAAAQIECBAgQIAAAQGWMUCAAAECBAgQIECAAAECBAgQIFBqAQFWqbtH4wgQIECAAAECBAgQIECAAAECBARYxgABAgQIECBAgAABAgQIECBAgECpBQRYpe4ejSNAgAABAgQIECBAgAABAgQIEBBgGQMECBAgQIAAAQIECBAgQIAAAQKlFhBglbp7NI4AAQIECBAgQIAAAQIECBAgQECAZQwQIECAAAECBAgQIECAAAECBAiUWkCAVeru0TgCBAgQIECAAAECBAgQIECAAAEBljFAgAABAgQIECBAgAABAgQIECBQagEBVqm7R+MIECBAgAABAgQIECBAgAABAgQEWMYAAQIECBAgQIAAAQIECBAgQIBAqQUEWKXuHo0jQIAAAQIECBAgQIAAAQIECBAQYBkDBAgQIECAAAECBAgQIECAAAECpRYQYJW6ezSOAAECBAgQIECAAAECBAgQIEBAgGUMECBAgAABAgQIECBAgAABAgQIlFpAgFXq7tE4AgQIECBAgAABAgQIECBAgAABAZYxQIAAAQIECBAgQIAAAQIECBAgUGoBAVapu0fjCBAgQIAAAQIECBAgQIAAAQIEBFjGAAECBAgQIECAAAECBAgQIECAQKkFBFil7h6NI0CAAAECBAgQIECAAAECBAgQEGAZAwQIECBAgAABAgQIECBAgAABAqUWEGCVuns0jgABAgQIECBAgAABAgQIECBAQIBlDBAgQIAAAQIECBAgQIAAAQIECJRaQIBV6u7ROAIECBAgQIAAAQIECBAgQIAAAQGWMUCAAAECBAgQIECAAAECBAgQIFBqAQFWqbtH4wgQIECAAAECBAgQIECAAAECBARYxgABAgQIECBAgAABAgQIECBAgECpBQRYpe4ejSNAgAABAgQIECBAgAABAgQIEBBgGQMECBAgQIAAAQIECBAgQIAAAQKlFhBglbp7NI4AAQIECBAgQIAAAQIECBAgQECAZQwQIECAAAECBAgQIECAAAECBAiUWkCAVeru0TgCBAgQIECAAAECBAgQIECAAAEBljFAgAABAgQIECBAgAABAgQIECBQagEBVqm7R+MIECBAgAABAgQIECBAgAABAgQEWMYAAQIECBAgQIAAAQIECBAgQIBAqQUEWKXuHo0jQIAAAQIECBAgQIAAAQIECBAQYBkDBAgQIECAAAECBAgQIECAAAECpRYQYJW6ezSOAAECBAgQIECAAAECBAgQIEBAgGUMECBAgAABAgQIECBAgAABAgQIlFpAgFXq7tE4AgQIECBAgAABAgQIECBAgAABAZYxQIAAAQIECBAgQIAAAQIECBAgUGoBAVapu0fjCBAgQIAAAQIECBAgQIAAAQIEBFjGAAECBAgQIECAAAECBAgQIECAQKkFBFil7h6NI0CAAAECBAgQIECAAAECBAgQEGAZAwQIECBAgAABAgQIECBAgAABAqUWEGCVuns0jgABAgQIECBAgAABAgQIECBAQIBlDBAgQIAAAQIECBAgQIAAAQIECJRaQIBV6u7ROAIECBAgQIAAAQIECBAgQIAAAQGWMUCAAAECBAgQIECAAAECBAgQIFBqAQFWqbtH4wgQIECAAAECBAgQIECAAAECBARYxgABAgQIECBAgAABAgQIECBAgECpBQRYpe4ejSNAgAABAgQIECBAgAABAgQIEBBgGQMECBAgQIAAAQIECBAgQIAAAQKlFhBglbp7NI4AAQIECBAgQIAAAQIECBAgQECAZQwQIECAAAECBAgQIECAAAECBAiUWkCAVeru0TgCBAgQIECAAAECBAgQIECAAAEBljFAgAABAgQIECBAgAABAgQIECBQagEBVqm7R+MIECBAgAABAgQIECBAgAABAgQEWMYAAQIECBAgQIAAAQIECBAgQIBAqQUEWKXuHo0jQIAAAQIECBAgQIAAAQIECBAQYBkDBAgQIECAAAECBAgQIECAAAECpRYQYJW6ezSOAAECBAgQIECAAAECBAgQIEBAgGUMECBAgAABAgQIECBAgAABAgQIlFpAgFXq7tE4AgQIECBAgAABAgQIECBAgAABAZYxQIAAAQIECBAgQIAAAQIECBAgUGoBAVapu0fjCBAgQIAAAQIECBAgQIAAAQIEBFjGAAECBAgQIECAAAECBAgQIECAQKkFBFil7h6NI0CAAAECBAgQIECAAAECBAgQEGAZAwQIECBAgAABAgQIECBAgAABAqUWEGCVuns0jgABAgQIECBAgAABAgQIECBAQIBlDBAgQIAAAQIECBAgQIAAAQIECJRaQIBV6u7ROAIECBAgQIAAAQIECBAgQIAAAQGWMUCAAAECBAgQIECAAAECBAgQIFBqAQFWqbtH4wgQIECAAAECBAgQIECAAAECBARYxgABAgQIECBAgAABAgQIECBAgECpBQRYpe4ejSNAgAABAgQIECBAgAABAgQIEBBgGQMECBAgQIAAAQIECBAgQIAAAQKlFhBglbp7NI4AAQIECBAgQIAAAQIECBAgQECAZQwQIECAAAECBAgQIECAAAECBAiUWkCAVeru0TgCBAgQIECAAAECBAgQIECAAAEBljFAgAABAgQIECBAgAABAgQIECBQagEBVqm7R+MIECBAgAABAgQIECBAgAABAgQEWMYAAQIECBAgQIAAAQIECBAgQIBAqQUEWKXuHo0jQIAAAQIECBAgQIAAAQIECBAQYBkDBAgQIECAAAECBAgQIECAAAECpRYQYJW6ezSOAAECBAgQIECAAAECBAgQIEBAgGUMECBAgAABAgQIECBAgAABAgQIlFpAgFXq7tE4AgQIECBAgAABAgQIECBAgAABAZYxQIAAAQIECBAgQIAAAQIECBAgUGoBAVapu0fjCBAgQIAAAQIECBAgQIAAAQIEBFjGAAECBAgQIECAAAECBAgQIECAQKkFBFil7h6NI0CAAAECBAgQIECAAAECBAgQEGAZAwQIECBAgAABAgQIECBAgAABAqUWEGCVuns0jgABAgQIECBAgAABAgQIECBAQIBlDBAgQIAAAQIECBAgQIAAAQIECJRaQIBV6u7ROAIECBAgQIAAAQIECBAgQIAAAQGWMUCAAAECBAgQIECAAAECBAgQIFBqAQFWqbtH4wgQIECAAAECBAgQIECAAAECBARYxgABAgQIECBAgAABAgQIECBAgECpBQRYpe4ejSNAgAABAgQIECBAgAABAgQIEBBgGQMECBAgQIAAAQIECBAgQIAAAQKlFhBglbp7NI4AAQIECBAgQIAAAQIECBAgQECAZQwQIECAAAECBAgQIECAAAECBAiUWkCAVeru0TgCBAgQIECAAAECBAgQIECAAAEBljFAgAABAgQIECBAgAABAgQIECBQagEBVqm7R+MIECBAgAABAgQIECBAgAABAgQEWMYAAQIECBAgQIAAAQIECBAgQIBAqQUEWKXuHo0jQIAAAQIECBAgQIAAAQIECBAQYBkDBAgQIECAAAECBAgQIECAAAECpRYQYJW6ezSOAAECBAgQIECAAAECBAgQIEBAgGUMECBAgAABAgQIECBAgAABAgQIlFpAgFXq7tE4AgQIECBAgAABAgQIECBAgAABAZYxQIAAAQIECBAgQIAAAQIECBAgUGoBAVapu0fjCBAgQIAAAQIECBAgQIAAAQIEBFjGAAECBAgQIECAAAECBAgQIECAQKkFBFil7h6NI0CAAAECBAgQIECAAAECBAgQEGAZAwQIECBAgAABAgQIECBAgAABAqUWEGCVuns0jgABAgQIECBAgAABAgQIECBAQIBlDBAgQIAAAQIECBAgQIAAAQIECJRaQIBV6u7ROAIECBAgQIAAAQIECBAgQIAAAQGWMUCAAAECBAgQIECAAAECBAgQIFBqAQFWqbtH4wgQIECAAAECBAgQIECAAAECBARYxgABAgQIECBAgAABAgQIECBAgECpBQRYpe4ejSNAgAABAgQIECBAgAABAgQIEBBgGQMECBAgQIAAAQIECBAgQIAAAQKlFhBglbp7NI4AAQIECBAgQIAAAQIECBAgQECAZQwQIECAAAECBAgQIECAAAECBAiUWkCAVeru0TgCBAgQIECAAAECBAgQIECAAAEBljFAgAABAgQIECBAgAABAgQIECBQagEBVqm7R+MIECBAgAABAgQIECBAgAABAgQEWMYAAQIECBAgQIAAAQIECBAgQIBAqQUEWKXuHo0jQIAAAQIECBAgQIAAAQIECBAQYBkDBAgQIECAAAECBAgQIECAAAECpRYQYJW6ezSOAAECBAgQIECAAAECBAgQIEBAgGUMECBAgAABAgQIECBAgAABAgQIlFpAgFXq7tE4AgQIECBAgAABAgQIECBAgAABAZYxQIAAAQIECBAgQIAAAQIECBAgUGoBAVapu0fjCBAgQIAAAQIECBAgQIAAAQIEBFjGAAECBAgQIECAAAECBAgQIECAQKkFBFil7h6NI0CAAAECBAgQIECAAAECBAgQEGAZAwQIECBAgAABAgQIECBAgAABAqUWEGCVuns0jgABAgQIECBAgAABAgQIECBAQIBlDBAgQIAAAQIECBAgQIAAAQIECJRaQIBV6u7ROAIECBAgQIAAAQIECBAgQIAAAQGWMUCAAAECBAgQIECAAAECBAgQIFBqAQFWqbtH4wgQIECAAAECBAgQIECAAAECBARYxgABAgQIECBAgAABAgQIECBAgECpBQRYpe4ejSNAgAABAgQIECBAgAABAgQIEBBgGQMECBAgQIAAAQIECBAgQIAAAQKlFhBglbp7NI4AAQIECBAgQIAAAQIECBAgQECAZQwQIECAAAECBAgQIECAAAECBAiUWkCAVeru0TgCBAgQIECAAAECBAgQIECAAAEBljFAgAABAgQIECBAgAABAgQIECBQagEBVqm7R+MIECBAgAABAgQIECBAgAABAgQEWMYAAQIECBAgQIAAAQIECBAgQIBAqQUEWKXuHo0jQIAAAQIECBAgQIAAAQIECBAQYBkDBAgQIECAAAECBAgQIECAAAECpRYQYJW6ezSOAAECBAgQIECAAAECBAgQIEBAgGUMECBAgAABAgQIECBAgAABAgQIlFpAgFXq7tE4AgQIECBAgAABAgQIECBAgAABAZYxQIAAAQIECBAgQIAAAQIECBAgUGoBAVapu0fjCBAgQIAAAQIECBAgQIAAAQIEBFjGAAECBAgQIECAAAECBAgQIECAQKkFBFil7h6NI0CAAAECBAgQIECAAAECBAgQEGAZAwQIECBAgAABAgQIECBAgAABAqUWEGCVuns0jgABAgQIECBAgAABAgQIECBAQIBlDBAgQIAAAQIECBAgQIAAAQIECJRaQIBV6u7ROAIECBAgQIAAAQIECBAgQIAAAQGWMUCAAAECBAgQIECAAAECBAgQIFBqAQFWqbtH4wgQIECAAAECBAgQIECAAAECBARYxgABAgQIECBAgAABAgQIECBAgECpBQRYpe4ejSNAgAABAgQIECBAgAABAgQIEBBgGQMECBAgQIAAAQIECBAgQIAAAQKlFhBglbp7NI4AAQIECBAgQIAAAQIECBAgQECAZQwQIECAAAECBAgQIECAAAECBAiUWkCAVeru0TgCBAgQIECAAAECBAgQIECAAAEBljFAgAABAgQIECBAgAABAgQIECBQagEBVqm7R+MIECBAgAABAgQIECBAgAABAgQEWMYAAQIECBAgQIAAAQIECBAgQIBAqQUEWKXuHo0jQIAAAQIECBAgQIAAAQIECBAQYBkDBAgQIECAAAECBAgQIECAAAECpRYQYJW6ezSOAAECBAgQIECAAAECBAgQIEBAgGUMECBAgAABAgQIECBAgAABAgQIlFpAgFXq7tE4AgQIECBAgAABAgQIECBAgAABAZYxQIAAAQIECBAgQIAAAQIECBAgUGoBAVapu0fjCBAgQIAAAQIECBAgQIAAAQIEBFjGAAECBAgQIECAAAECBAgQIECAQKkFBFil7h6NI0CAAAECBAgQIECAAAECBAgQEGAZAwQIECBAgAABAgQIECBAgAABAqUWEGCVuns0jgABAgQIECBAgAABAgQIECBAQIBlDBAgQIAAAQIECBAgQIAAAQIECJRaQIBV6u7ROAIECBAgQIAAAQIECBAgQIAAAQGWMUCAAAECBAgQIECAAAECBAgQIFBqAQFWqbtH4wgQIECAAAECBAgQIECAAAECBARYxgABAgQIECBAgAABAgQIECBAgECpBQRYpe4ejSNAgAABAgQIECBAgAABAgQIEBBgGQMECBAgQIAAAQIECBAgQIAAAQKlFhBglbp7NI4AAQIECBAgQIAAAQIECBAgQECAZQwQIECAAAECBAgQIECAAAECBAiUWkCAVeru0TgCBAgQIECAAAECBAgQIECAAAEBljFAgAABAgQIECBAgAABAgQIECBQagEBVqm7R+MIECBAgAABAgQIECBAgAABAgQEWMYAAQIECBAgQGAEgalTp6ZJkyalnp6etGLFCl4ECBAgQIAAAQLrWECAtY7BnY4AAQIECBAot8CUKVNSBFbP2v9Zaauttko77bzTWg2ed9+8dM0116Q777wzLV26NK1atarcF6V1BAgQIECAAIEGFxBgNXgHaj4BAgQIECBQH4G2trZ00MEHpSOOOCKllvhf/n/9Jf93Sqkv9a3+u77H/tyX0qWXXpp+e/1vU2dnZ30aoxYCBAgQIECAAIE1BARYBgQBAgQIECAw4QWOfMGR6bnPfW5eJjhceFVADRZi9fb2ph//+Mfpyl9eOeE9ARAgQIAAAQIE6i0gwKq3qPoIECBAgACBhhFob29Przv+dWnnnXZOqaUl/jdogDXkBVXMwsrzsvr60rx589JZnzqrYQw0lAABAgQIECDQCAICrEboJW0kQIAAAQIExkXgtA+clmbPnp1acni1+uuxBCufr2IF4Vrnf2wh4eq/78tJVl5e2NfXl5YsWZI+f+7n0/z588el3SolQIAAAQIECEw0AQHWROtx10uAAAECBAhkgd133z0dc+wxq4Or1scCrNj5Kv57mOiqf/ngAMcIrooAq6+3L/3zn/9MXzzvi7QJECBAgAABAgTqICDAqgOiKggQIECAAIHGEpgzZ06ae+Lc/868am1JrS2t+SvCrCgDQ6wcXFVMuyqCrOLv+8OrCLJ6+1JvX2/66le+mv7xj380Fo7WEiBAgAABAgRKKCDAKmGnaBIBAgQIECAwvgKvfNUr00477ZRaW1vzOsEcXrX+92v1HQgfW0AYywMfK5VhVfxVzLrKpS/lwCr+O39/LMCa/5/56XOf/dz4XozaCRAgQIAAAQITQECANQE62SUSIECAAAEC/xWYPHlyev9p7++ffRV3HpzUOim1TlodYMWfi/2w1gisiqzqsdCqckZWDq56e/NXT29P/5/j7y++6OJ022236QICBAgQIECAAIExCAiwxoDnoQQIECBAgEDjCey8y87p2GOOzSFVhFYRYLW1taW2SW2pNYdZq4OsYhusyllWcbXFXlcxSyv/uWLWVYRXPT09qbu7O3+P2Vg3/H83pJ/+5KeNB6XFBAgQIECAAIESCQiwStQZmkKAAAECBAiMv8BBBx+U9ttnv9Tatnq2VVt7W2pvb0/tbe39s7D+e0fCNZcJ9reu4vaExXLB3p7VM7C6urpWf3V35dlYixctTmd/7uzxvzBnIECAAAECBAg0sYAAq4k716URIECAAAECawu89a1vTRtvvHGa1LZ65lVHe0ea3NGRZ1/luxEWdyKMuxEW+2Dlba761r47Yd7X/b+zsCLA6u7qTitXrUxdnV2pu6c7LVmyRIBlIBIgQIAAAQIExiggwBojoIcTIECAAAECjSXwlje/JW00Z6PU1tqW2jvaU+yJFcsHY9ZULPsrlgxGeBUBV/w8lhTGf+ewKjZoj5lW3V158/ZitlaxHLGnuycHWCtXrsx1rlq1Kn36rE83FpLWEiBAgAABAgRKJiDAKlmHaA4BAgQIECAwvgKnnHJKnn0Ve191dHTkr9izKkKsWPIXwVPnqs48eyqCqxnTZ6QNNtgg/zn2tIoZVgsXLsyPifAqHh9BWMzcimOmTpuaH79ixYoccsVxnzzzk+N7UWonQIAAAQIECDS5gACryTvY5REgQIAAAQJrCpxy8ilpUvuk1UsIJz22eXtLa+ru7U4rV6xMy5YtS52dnflBMQNr+vTpaeasmf1B17Kly9LSpUvTqs5VObSKYyLgmrbBtFxfbP4es7BWrFzRv4zwU5/8lG4gQIAAAQIECBAYg4AAawx4HkqAAAECBAg0nsBJJ52Uw6gIsCKAirAqNmCP2VexNDD+O0KsmGkVx2y8ycZp0003zUsJY1+rRx99ND388MN5aWDM4oq/j68IsSZPmZz/LpYZxsyrWEK4bPmydM7Z5zQelBYTIECAAAECBEokIMAqUWdoCgECBAgQIDD+AieeeGKaNm1anjkVe15FWBUB1tSpU9LkKVPy0r/4+/nz5+cQK2ZfbbPtNmmDaRvkn91zzz1pwfwFeabV7Nmz0wbTpqX2jo689DCCqwi9pkyZkpcTdnZ15tla555z7vhfmDMQIECAAAECBJpYQIDVxJ3r0ggQIECAAIG1BeaeMDdNnzE9dXS0p0kppa7uztTV05e22277PGvqqquuSrvuumt64hOfmK6//jdpypSpacstt8x7W8USw3vvvTctXrw4bbPNNmnrrbdOV199ddpxxx3TppvOSXfcfkfq7e3JAdaktvYcYP3n4f+k888/X1cQIECAAAECBAiMQUCANQY8DyVAgAABAgQaQ+Bxj3tcOuzQw9IV/3dFevWrXp33tdpgyuTU0daWWlta84yrlZ2rUmdXV1oedw/sXn03wvYbHO6nAAAgAElEQVS29ry3Vcy0iuWBq1auSgsWLMizqtraYvnglLRgwfw0c/r0tOHMWamvtye1TopYLKXu3t60YtWqdN/996dvXPiNxoDSSgIECBAgQIBASQUEWCXtGM0iQIAAAQIE6iew11575VlVEVzF0sGZM2akGVOnpsmTO9Kk1tYcVvX09aXe7tVB1sru7tTT05sbEMfPmjkr32kw9r1auGhh3qQ9SktLX5ra1p46JsfeV62ptXVSvjNhb09PPnbJihXpwYf+nX73u9+lHXbYIf3oRz+q30WpiQABAgQIECAwgQQEWBOos10qAQIECBCYqAIHHHBA2mnnnfJsq9hsfYOpU9LMDaanKTl4mpRaW1tyiNXd05M3Xl/Z3ZW6e/ryn3PgNXNmPq6ruystfHRhf7DV0dqSOtraU1t7+2ObwqfV9UQQtnJFWrRsWVq6bHme4RWztr7+9a9P1C5w3QQIECBAgACBMQkIsMbE58EECBAgQIBAIwgceOCB6clPfnLesH3OnDlpyuSONGPqtDS5oyPPrJrU2pJaWmMpYW/euH1FV2da1dWVVnV2pqlTp6Ypk6fEdKtIp9LyZcvTqs5VeZ+rqe1tqaO9I7W3PRaCpZR6entTd2d3Wr5iRVq8fFlauaozLVq0KPWlvnTB1y5oBC5tJECAAAECBAiUTkCAVbou0SACBAgQIECg3gJPe9rT0rOe9ax8F8FZs2blDdw3mDw5Te6YnDraH5tBNakl9falHGAtW7kirejszHteRVkdck1KPb09+ecxy2ra1Cl5H60It2J2VuRbOQDr7kmdnZ1pxaqVacny5WnVqs60cOHCHHjZzL3ePas+AgQIECBAYKIICLAmSk+7TgIECBAgMIEFtttuu/SCF7wgh0+tk1pTe3tbmtLRkb9iFlZHW0dqmTQp9fVFANWdVsSG7t3d6cEHH8qh17Rp03JQtXT50rz/VczK2izP5GpPUzvijoNtKfWl1NPdnVbl2VsRYHXmGVzx+FiKGHWcc845E7gXXDoBAgQIECBAYPQCAqzR23kkAQIECBAg0EACp556ag6SYj+qltaWvLfVlPb2NCWWALa35VlUUbp6e1JXT1/q7e1JS5YszbOp4iuCrfb29nxM7Ik1ZeqU1D5pUpo8aVKendUbG8H39KTOCK86Y/nhqtTb25dncU2ePDn/93nnnddAYppKgAABAgQIECiPgACrPH2hJQQIECBAgMA4Chx99NFp++22TytXrew/SzETq6PtsQCrpSX1pdbU15pSX2/f6vCqqzP/ube3Nwdfra2tq/e96mhPLfn/+lJEX32x91V3z+r9szq7cuAVx8bjp06Zmm7+483pyquuHMcrVDUBAgQIECBAoHkFBFjN27eujAABAgQIEKgQePzjH5+OOeaYPPMqShEwRYgVywhbYx+r1tZ8p8IIqorQavXdCbvzf0cg1dLSkpchxqyr+HPsixU/64uZW93dqbOzK8/0isfFrK6Ojo60fPnydO655+oPAgQIECBAgACBUQoIsEYJ52EECBAgQIBA4wnstttuafc9dk+zZsxKnd2dOYSKkKntsSWE8ecIsOKOgTHjqnPV6uWDEVLl8Cq15GWEk6dM7l9yGMfF0sH4Hnts9S9TbGnJAVd8XX311emWW25pPDAtJkCAAAECBAiURECAVZKO0AwCBAgQIEBg/AUiTIqQ6tBDD02xsXvMxsr7YbW2pda21hxSxWyq2Hh98eLFOZiKv4uvoqxatSqHWLM2nJWmTZ2WUsvq5YZxbMzqiu/Fn1euXJmWLFmSLrnkkvG/OGcgQIAAAQIECDSxgACriTvXpREgQIAAAQKDC8yZMycdd9xxOZjKs67ie9tj3x+blRUzqmIZYG9Pb55dFbOyohTHd7S3pxUrV+a/z8d19+alhsVsrHnz5qXLLrssh1oKAQIECBAgQIDA2AQEWGPz82gCBAgQIECgAQVi5tU73vGO1ftUtU5avadVLCVsa8t/zntbxYyqx5YEFiFU/H0cExu4xyysWG7YP+uquycvNYzHRfn+Jd9P8x6Y14A6mkyAAAECBAgQKJ+AAKt8faJFBAgQIECAwDoQ2HfffdOee+6Zz5RDrLbW1aHUY0sGY7+rKPE9ZmBFicDrsb/OM68i0Cr2voqwq5iptXDhwnThhReug6twCgIECBAgQIDAxBAQYE2MfnaVBAgQIECAwACBDTfcML32ta/t/9tYQhizq+Irz8aa1Ja/Wia15JlWUSKgiiWF3b3/3esqZlzFxu2xhLBYZvib3/wm3XTTTcwJECBAgAABAgTqJCDAqhOkaggQIECAAIHGE3jyk5+cN3QvSv/ywLbVSwRjqWCEWBFoRYk9rmLJYFdnVw6t4r/jzz3dPf3h1aJFi9LFF1+cYgN3hQABAgQIECBAoD4CAqz6OKqFAAECBAgQaECBCKmOPvrotOmmm/a3vgiuOto70uTJk/tnZMUBxWyrVZ2rcoCVQ6zO7v7wKo75wQ9+kO6///4G1NBkAgQIECBAgEB5BQRY5e0bLSNAgAABAgTWgUDsY7Xbbrul/fbbL+9pFSVmYnVM7kgRYrW1t+V9sWIvrLyxe3d36uzqTJ2dnavvMLj65oRp8eLF6fLLL0/z589fB612CgIECBAgQIDAxBIQYE2s/na1BAgQIECAwBACW2yxRYqN3eN7LBmM0Cr2xcobvLe25s3bYw+sWC4YdxvMG7b39qUlS5ak2267LX89+uijfAkQIECAAAECBMZBQIA1DqiqJECAAAECBBpLoNi8PWZgbbTRRvnuhLGscOrUqatnYBWbuPf15uBq1apVqXNVZ/rTn/6U7rjjjryUMGZnxaysfKdChQABAgQIECBAoK4CAqy6cqqMAAECBAgQaESBadOm9W/Unu80GDOtenpyGLXlllumKVOnpJkzZuYlgw8//HB66KGH8nLDCL7ie8zQimMj2IowSyFAgAABAgQIEKivgACrvp5qI0CAAAECBBpQYMaMGTmEiuAqSoRXxZ+L7xFQFXtk5SWFKfUvNawMsCLEUggQIECAAAECBOorIMCqr6faCBAgQIAAgQYTeOELX5iuvPLK1ftcPVYiwCpK3uuqry9/FccU34vZV3Fs/HyzzTbLodadd97ZYAqaS4AAAQIECBAot4AAq9z9o3UECBAgQIDAOAnMnj07nXLKKam9vT2deuqpOXgqZlhV7mNVzMCqbEZl2FU8Jo474IAD0iGHHJJuuumm9J3vfGecWq5aAgQIECBAgMDEExBgTbw+d8UECBAgQGDCCxx77LHpGc94Rpo8eXK2+PnPf94/C6sIpCqRihArfjbUzyP0mjt3bnrc4x6XH7py5cr03e9+N91yyy0T3hsAAQIECBAgQGCsAgKssQp6PAECBAgQINAQAttss02eHbX11lvnuwsOLH/84x/TD37wg3wnwcFCqqEuMoKrpz3taenwww/PdzAcGHxFkHXjjTemyy67rCqn2FB++fLlVR3rIAIECBAgQIDARBEQYE2UnnadBAgQIECgwQV22WWX9JSnPCVtscUWaYMNNkgR9AwMoiJMisBo/vz5admyZXkj9k022STNmjWrf7bVSAwrVqxI999/fw6dbr755kEPj7sP7rHHHunZz3522nDDDfvvYDhc3ZVtW7JkSW77zJkzU0dHR4pN5AcGX9GO+Iow65///Ge64oor8l0QFQIECBAgQIDARBQQYE3EXnfNBAgQIECgAQRin6mY2bTnnnvm0CrCnnVdIgR78MEH82njz8XywE033XRdNyWf75577kn33ntvuuOOO9Jf//rX9dIGJyVAgAABAgQIrA8BAdb6UHdOAgQIECBAYEiBXXfdNT35yU9Oz3zmMykNIxBh1r/+9a901VVXpcWLF7MiQIAAAQIECDS1gACrqbvXxREgQIAAgcYRiA3VX/7yl+dZV0r1ArFn169+9av005/+tPoHOZIAAQIECBAg0GACAqwG6zDNJUCAAAECzSqw/fbbp7e97W3Nennjel0xA+uDH/zguJ5D5QQIECBAgACB9SkgwFqf+s5NgAABAgSaVCA2KI99oubMmZNnVG222Wb5z1EeeeSR1NPTk2677ba8v1RsUP7QQw/l/aVOPvnkJhUZ38sKw3POOSfF5vJxt8UIA2PfsEr3//znP2np0qXprrvuyntpxUby99133/g2TO0ECBAgQIAAgToJCLDqBKkaAgQIECAw3gKVd92bMmVKvvNdBBaVZdWqVWnRokU5qBiqRKhx6KGH9m9I/vvf/z5vDB53u4tAKe7cN5oSdwaMO/4dccQRaYcddqipiltuuSX94Ac/SNttt116xSteke/Mp1QnEGHUd77znXw3xGOPPTb3QbUllh/+7Gc/y2FijJsYA6MpMR5nz56dtt5667Tjjjv2j63Yn+v222/PYdlQJTbnj7swxhLSgWM5/jvuKhmluCtj3M1RIUCAAAECBCaegABr4vW5KyZAgACBEgu0tLSk6dOnpwirtt122zyb5ulPf3pqb2+vqdVnnXVWmjdv3hqPiVBo5513Tq997WuHrevPf/5zuu6669KCBQvynfciFBusRDujXU984hPTC17wghxgjKXMnz8/feYzn8nh1amnnpoiFFGGF4hw6Mtf/nKecVWP5ZcPPPBAuuiii/Km8NHvg/V93B0ywsropwir9t1337TlllsO2dBHH300ffGLX0wxA2xgOfzww9Pznve8mro52hhjJa49voYbozVV7GACBAgQIECg1AICrFJ3j8YRIECAQNkFYhZUUWJZXK0lHh8h0BOe8IS09957p2c84xm1VjHk8SeeeGKepRWhWJQ3v/nNORAbTbn//vvzHe9ihk2Uxz/+8f31jqa+wR4TM78uu+yy9Nvf/jaHIx/60IfWmpVTr3M1Qz3h9MMf/jD38bvf/e7+WU/1vLZY7lnMyor+j7tDbrzxxqM6Rcz0uvLKK3N7u7u7c0Bbj9AtGhMzDq+//vocvMbzsKurK3+vtYz1+Vzr+RxPgAABAgQIVC8gwKreypEECBAgQCALxIf4+Hr2s5+9lkgslYoP/bEn0R133DGoWMxaif2hYjbUeJbPfvazqVhu9fznPz/PlilziZlf3//+9/OSsQizItg744wz6h6Uldmg2rb95je/yWFfhJMRusSMvUbYxD1Ct9/97ne53TE2I2QdrxKBW5RYxhiB1sBSPB8i1C2C2YHHXHrppenWW2/NyysVAgQIECBAYP0KCLDWr7+zEyBAgMA6FogP+rHcKfZaig/Qf//739M//vGPPCNkpPLiF784L5eqdTnfSPWOx8//9re/pf/7v//LVceMmeOPP348TlPXOiO0+shHPpKXrUV/RP/ETKwIsZT/CsTSzk9+8pM55IsgKIye+tSn5v2vyl4iSDr77LP7m/nWt741L0cscwnn2CvsggsuSHfeeeeITY3Xl3idideYu+++Ox8fwXbsL6cQIECAAAECoxcQYI3eziMJECBAoAEEDjrooLTPPvukuCtebBJduUSosvmx5098wPzWt76VlyNFKBCbYsfxscfOgQcemA444IAGuOLVTfz5z3+e/vjHP+b2R9t32223hmj7X//61/S9732vfxZWNPrDH/5w3hdMWS3w1a9+Nc/ui/AqNvGPcf2+972vITa+j1Ay9meLEmFWBKtx98lGKNHeb3zjG/mOmRFix0zB2N8rynOe85y03377pdiQfqgbEMTj47UkNqOPGxbELM3R3jChEby0kQABAgQI1FtAgFVvUfURIECAwHoV2HPPPfMMq1ieF5uKDxVYDdXI+JAZG07H92L5XSz3e81rXrNer6vWk5933nlp4cKF+fqj7Y0SEsTMqwho4q6IxSyspz3taemVr3xlrQRNe3zMSIvgJDZTj7AkAsrBlrOWFeCGG25Iv/rVr3L/Rruf+cxnlrWpa7UrZlLFpvmVJWa/xUb0xV5z1V5MzDSM0Dy+Lr/88hxsKQQIECBAgMDQAgIso4MAAQIEGlZgr732Svfcc0++I1ls2LzHHnukl7/85fmD/WhLLL378Y9/3B9eRT2xNCvutNdIJWa5xAfkCLDe+c53ln6ZVqVt7F30la98JQccxQyVj33sY+5KmFLe4D42bi9mX2211VbpjW98Y0Msay36+K677sozkCIkjufwIYcc0khPrfSHP/whb0YfJfohXm9OOOGEmsPyyouOGaAx5iPMiuA8gr3YeyuWiyoECBAgQIDAagEBlpFAgAABAutNIJaFzZgxIy/vmzVrVpozZ06+k1gsizrssMPyDKJiM+/Y+Dn2oIoNl2OJXyzvmzJlSv7zl770pfzhMT5E1joLYuDFf/e7381Le4qy+eabp9e97nXrzWi0J/7EJz6RA6D4cB13qCv7PkMDr/Pb3/52+stf/tK/N9n/+3//L+2www6j5Wiax8X+UXFHyBjnsYwt7uIXd4RspHLfffelb37zm7lvY/P01772tY3U/BwMf+Yzn1njtealL31p2n777cd0HbFR/Pnnn58222yz9OpXvzrXFX8XM7PitTI27X/44YfzUsUItmK5Yixj/P3vf5/3uYuZp2Ebr5tR7Lk1pu7wYAIECBAooYAAq4SdokkECBCYCAJPetKT8oe0CK6KEstzYulbBBUveclL+v8+PqzFsrK4Y9nADdSXL1+eN4WO0Oukk06qme6BBx7I4U7Rjk996lN5w+YoMRMiZnTFZsyNVmLfqAivIuiYO3duwwVY0a+xoXvMrIt+iD28oi8meok7DYZN9GssXXvVq17VcCQRslx44YW5b6PEWG208pOf/CTPxCoC81iuHGFilHnz5uVgPgKmWsvHP/7xFK+NL3vZy9Z6aARTsXzxve997xqzvb72ta/lgGvgJv4xMzVmLioECBAgQKBZBARYzdKTroMAAQINJnD44YfnfWMqS3zgOvfcc1P8bO+99+7/Ufz9Oeeck2dYbbTRRms8JjZFjjuyRYAVH+6rLY888kjehydmW0VAEkuxYrP3+DAYH0rjKzbHfte73pXvKNZIJWalRRBXXMd73vOehtwEPZZUxV3cir3I4sN99MlELdGvRdgT4eQ73vGOPG4brcT+ZnFHv2J5aDxv4/nbSCVCuHitiBLjM64lZojGDNKYoRUlgu94LRtqU/fBrjcs4nHFDKzKY2K5dJwzxkDl3n4R7kfIf8opp6xRZbQpwmuFAAECBAg0i4AAq1l60nUQIECgwQRiucsrXvGKtMUWW/S3PEKlWA74/Oc/P/3P//zPGlf0oQ99KL3pTW9a4/g4IB4Ty+XiA3B8r6bE3jtXXXVVXn74j3/8oz8giWWJ8d/FHloxM+u0006rpspSHROhz9e//vX+2SFvf/vbUyyFbLQSQUD4FwFW3GlvYIDZaNc0lvbG3lexB1YEkzE2I7CIZbSNVuIOmb/+9a9zs6NvTz311IYLWGMZZ8wWLa4hvscsrKLEn+PGCbHkedddd62qi2I5YIz3eEwxm6vygbFvWMzuilC9slx88cX57yOoLkq8xsVecl/4wheqOreDCBAgQIBAIwgIsBqhl7SRAAECTSwQM0ie8Yxn5GV78aEwNlE//vjj86bp8SE9ls1E0BQlQq+iFHfsig9q3/rWt3KQFQFHrXcdjMfFDIbYjyeCgVjGGHUWJWYwVIZsjdAV3//+99NNN93UPwMr7uC3yy67NELT12hjLDGLcKOYqfP6178+7bTTTg13HfVqcCwHi+dDjNMXvvCFDXX3vkqD2P/qtttuy+FVfMWSuE022aReTOuknquvvjrFMsKixHLB4rUn9vU6+uija54tGDNNY2llBF/HHXdcfi2K2VvFrMOwitfHWC4Yr5sRtMd4+OUvf5lnfsXraPz9v//97zyzNL4rBAgQIECgmQQEWM3Um66FAAECTSYQgVWEWkWJUOsJT3hC/s/rrrsuf995553TwQcfnP8cm8HHB8lal/zdeeedKWYxRFAS57jjjjv6Nw/fdNNN89LFgXtvlZk69o6Ku5oV5YgjjkjPec5zytzkIdsWd2KLwCPKUUcdlZd5TtRSGWBFsNeIs9GKwKqyD1/zmtekpzzlKQ3TrREMxV0+ixIbqEcAH68fxR0Ja93/Kl7nwiaC9Ajsr7322rx8Nl7T4u6q8fcx+04hQIAAAQITWUCANZF737UTIEBgAgjEhshxS/qYuTPcPjsRCMSMn7j7YTwmZkIUIVDMiIglPSMt14olbzF7K/ajeeihh/KynljGE19FibpjOV+EczvuuGOeZVbvfZ1iuWXsDVZZzjzzzIbbZ6hofyyriuVVL3rRixp21lE9nmpFgBU3OYi7MjZi+c9//pP3rKssL3jBC9L+++9ft8uJIChmaEYQFDMR4/kXAdDf//73NZ6HETLFUuV4LsZMpwi+R9qLK+qIZc5RYiZc3AEylvTF7M8IsOI14vTTTx/yWmID/li+HDOkYrmyQoAAAQIECFQvIMCq3sqRBAgQINBAAvFBNDZVju8xW+tpT3ta/0ytwS7jAx/4QP7QGxtjxxKgiy66KN144439h0bIFKFB7E8TJcKuCKtiM+f4gFy5nKhWpth76w1veENeqljsv1VrHZXHx15gEaJVlpildsghh4yl2vX22FgSecMNN6RnPetZeencRC2xeXeEMjEjMIKTRiuDzb6Ka4ix/+QnP3nMlxPPx1iGNzAgq6XiCAcjZI6ZmPE6EDMvI6iKcOr3v/99+t73vrdGdfF6EcfH+Ixxuv322+e9+gYrUcdnPvOZHFjHa9M111yT/vSnP/XP9qylnY4lQIAAAQITUUCANRF73TUTIECgyQVixlUEHcUt7mN5YMx2eMtb3jLksquPfvSjeZ+ol7zkJXk/rViGN1gp6oyfFZuL14sz9raJ5X5jXSYXwdsll1yyVrNiFlkRwNWrzeuqntigeqIHWO9///vzHe4+/elPryv2up7npz/9aZ59NLDEcy+Wyo2lxIzJCIPq/Zwc6fke7S5uHhF3EIzZZLvvvvuglxKzwWID+7gz4dOf/vR8TLGJfcwwVAgQIECAAIHhBQRYRggBAgQINJVAzKSKvYEqP3j+6le/SrHpciwP3Hfffde63vhgGcv6YlbLXXfdlc4///z1OisiZo3FcqaYmVLs+VVrJ8VSpZhFdvvtt/c/NGaKRIhXa4m9dyIciNlm8YE7ZpLEhtUxWyxmrDz3uc9dY4P9Wuuv5vgzzjgj9+ub3/zmag5vymMiwIrwY7/99hvX6/vjH/+Y91+K/cdiVlM8l6Kv43ssex1Nf8e+UZ/61KfWeF7GrMAIm0e7hPaWW27JM6KijbFEcH2VGTNm9N8hNeziroODLTeOm0WEQyw3rJxpWczuiqBdIUCAAAECBIYWEGAZHQQIECDQFAKvfe1r8zLBwcq9996bzj333HTooYemgw46KB8Sy4FiVtZf//rXvCyruNNd2TDiw30sMYzQIjZzrnWmSixZiuCpKHGXste97nXDbgD+l7/8JS+7fPDBB/Od0Kop0c6YQRYBRzjXuon1SOeIYCACuUadfTTS9VXz85iFVo/ZSgPPFc+FmBkV+6bFc6GaWUxFf8fSvxibw92pM+r/0Y9+lCJULUrsZxbhVS0l9pUrwtRo6/oMrYZrdyw7nD17dtpuu+3ynm2FTfRfbPge++0NVmJ23Re+8IU1nq+1+DiWAAECBAg0u4AAq9l72PURIECgyQViWVkELfGBds6cOen4449f64oXLVqUYv+gmDU0a9asfGyjLtmJmVnx4ThmeMQePbHnTtwpMT4YDyzxYX+wpYThEDPOYkZNbF4dH5zjK0xiH7DY32usJUK3zTbbLC/JjO/1KN/4xjfS0UcfXfNdJutx7vVdR9ylLmbv7LbbbmNuSoz/m2++Oe/xFs+N+BpriWA1xmRxB9D4c4yn+Bq4H1txrtirarDZVxEsxw0U4u6gEVpF+2JcVgZgY23vunx8hLkRasXS5HjuxlLDgSWu94ILLsheEQL/+c9/zscrBAgQIECAwH8FBFhGAwECBAg0pEDMaojNkiOQitlTl19+eV7mduKJJ+aZQEWJGVax70zMwmrmEkuS4o6GUeJ7fOCvRzBRD7NYYhX9ddRRR6VNNtmkLhvV16NdE62OK664Ii+RLdNzIcZGfBUz/aqd8deofRfP0wioiudCcR0xuzD6JvbuK2aSxn/HEsnYmF4hQIAAAQIEUhJgGQUECBAg0HACcdv7t7/97WvsMxOzhmJvmVe/+tU5wIq7Asat6js7Oxvu+pq5wRE4xrKz2G9s7733zjPAqi2xFDK+BtvHrNo6GvW4Sy+9NB155JE1eT366KPpb3/7W//+ZRFqKuURiFmK8Vx46UtfmmJ/rOiv9773vXm2VlH+/ve/p89//vPlabSWECBAgACB9SggwFqP+E5NgAABAqMTiM3YDznkkDUeHAHWySefnJ74xCeme+65p7T744zuipv3UbEMMpYYxpLGmJ0Vm9bHB/miRAATy6vi72JJWczkOumkk5oXZJAriz2p5s6dm/em2nbbbbNROMSS2SixLC18YjPzmLWzcOHCPPsuvJTyC0SQFUsvI9Q97rjj1mrw6aefvsZzovxXpIUECBAgQGB8BARY4+OqVgIECBAYR4FYYhObthclwqvLLrss/frXvx7Hs6q6LAKxh1DckXCilGuvvTZvgq40v0Ds8VZ5l8nYE+uUU05p/gt3hQQIECBAoAoBAVYVSA4hQIAAgfIJ7LPPPnk2SmzyHHdQUyaOwGjuYNeoOjHr6oQTTmjU5mv3KARidl3ccTSWQsdG+zGrTiFAgAABAgTsgWUMECBAgAABAg0mEMHlO9/5zgZr9eiaG/tWnXrqqaN7sEcRIECAAAECBJpIwAysJupMl0KAAAECBCaKwFvf+ta0ww47NP3lXnLJJem3v/1t01+nCyRAgAABAgQIjCQgwBpJyM8JECBAgPxkFscAACAASURBVACB0glst912+U6UzVyWLl2aTjvttGa+RNdGgAABAgQIEKhaQIBVNZUDCRAgQIAAgTIJNPssrLPPPjvfUVMhQIAAAQIECBCwB5YxQIAAAQIECDSowMYbb5w+8IEPNGjrh2923JzgzDPPbMprc1EECBAgQIAAgdEImIE1GjWPIUCAAAECBEohsP3226e3ve1tpWhLvRrxyCOPpI9//OOpp6enXlWqhwABAgQIECDQ8AICrIbvQhdAgAABAgQmtsDjH//49N73vrcpEObPn58++9nPpuXLlzfF9bgIAgQIECBAgEC9BARY9ZJUDwECBAgQILDeBDbbbLP0xje+MW2yySbrrQ1jPfF1112XfvzjH6fOzs6xVuXxBAgQIECAAIGmExBgNV2XuiACBAgQIDAxBWbNmpVOP/30dM0116T9998/tba2lh5i8eLF6eGHH059fX3pvPPOK317NZAAAQIECBAgsL4EBFjrS955CRAgQIAAgboLbLfddulf//pX2mqrrdIxxxyTNt9887qfo14V3nTTTenyyy9Pe+yxR4o/L1q0qF5Vq4cAAQIECBAg0HQCAqym61IXRIAAAQIEJrZAW1tbP8ALX/jCtPfee6f29vbSoNx///3pyiuvTH/5y19ym3p7e/OXQoAAAQIECBAgMLSAAMvoIECAAAECBJpKoDLAigvbeuut09FHH73eZ2NFSHX99dfnfa4q7zAowGqq4ediCBAgQIAAgXESEGCNE6xqCRAgQIAAgfUjMDDAKlpx6KGH5r2xOjo61nnDHnjggXT11VenW265Za1zC7DWeXc4IQECBAgQINCAAgKsBuw0TSZAgAABAgSGFpg0aVJqaYm3OGuXmTNnplhWuNNOO62TIKurqytddNFF6c9//vOQDY7ZWLGJu0KAAAECBAgQIDC0gADL6CBAgAABAgSaSiDCqwixhisbb7xxestb3pI23HDDcbn2CK5uu+229M1vfnPE+gVYIxI5gAABAgQIECCQBFgGAQECBAgQINB0AkMtIxx4oTEba9999x0x8KoFaMmSJeniiy9Od955Z1UP6+7uruo4BxEgQIAAAQIEJrKAAGsi975rJ0CAAAECTSpQbYAVlx93KPzwhz+cJk+ePCaN2Mvq9ttvTxdccEHV9cTSwcoN3at+oAMJECBAgAABAhNMQIA1wTrc5RIgQIAAgYkgUEuAVXjsuuuu6bjjjsuBVq0l9rj69re/XXMYZQP3WqUdT4AAAQIECExUAQHWRO15102AAAECBJpYoJp9sAa7/Ai+4rFxp8LW1tZ8SPE9wqb4WeWG67H8r/gazUbslg828SB0aQQIECBAgEBdBQRYdeVUGQECBAgQIFAWgdHMwhqs7YPd0XA0YdXAui0fLMtI0Q4CBAgQIECgEQQEWI3QS9pIgAABAgQIjCiw7bbbpqOOOipNmzYtLV++PM2bNy9dfvnlaeXKlSM+dl0f8PjHPz4dfvjhafr06fnUCxYsSD/84Q/TwoUL13VTnI8AAQIECBAg0BACAqyG6CaNJECAAAECBEYSOOmkk9IWW2yxxmEPPvhg+uIXv5hWrFgx0sPX2c+f/vSnp2OOOWatvbYuuuiidOONN66zdjgRAQIECBAgQKCRBARYjdRb2kqAAAECBAgMKhAbr5911lmD/izCq2uuuSZdddVV61UvljQeeeSRaZ999unfV6uyQdG+K664Yr220ckJECBAgAABAmUVEGCVtWe0iwABAgQIEKhaYObMmekjH/nIsMdff/316Ze//GVaunRp1fXW68BYMnj00UenLbfccsgq77jjjvSlL32pXqdUDwECBAgQIECgqQQEWE3VnS6GAAECBAhMTIGNNtooffCDHxzx4mOPqe9+97vp7rvvHvHYehwQdzPcdddd0yte8YoRq7v33nvTZz/72RGPcwABAgQIECBAYCIKCLAmYq+7ZgIECBAg0GQC1QZYxWX/85//TJdcckn6z3/+M24S2223XV4yGLOvqikCrGqUHEOAAAECBAhMVAEB1kTteddNgAABAgSaSKDWAKu49N///vcplhbef//9ddGYMWNGmj17dt6kffPNN6+pTgFWTVwOJkCAAAECBCaYgABrgnW4yyVAgAABAs0oMNoAq7B46KGH8h0Ab7rpprR8+fKaiWbNmpX23nvvdPDBB9f82OIBAqxR03kgAQIECBAgMAEEBFgToJNdIgECBAgQaHaBsQZYlT7z589P3/72t1Psl9XV1ZV6e3tTS0tLvnNgT09PPjTuKDhp0qS04447phe/+MVpypQpYyYWYI2ZUAUECBAgQIBAEwsIsJq4c10aAQIECBCYKAL1DLDWl5kAa33JOy8BAgQIECDQCAICrEboJW0kQIAAAQIEhhWYNm1aOuOMMxpa6ZZbbkkXXnhhQ1+DxhMgQIAAAQIExktAgDVesuolQIAAAQIE1pnA1KlT0yc+8Yl1dr7xOJEAazxU1UmAAAECBAg0i4AAq1l60nUQIECAAIEJLnD22Wc3tMBVV12Vrrjiioa+Bo0nQIAAAQIECIyXgABrvGTVS4AAAQIECKxTgQ984ANp4403XqfnrOfJLr300vTrX/+6nlWqiwABAgQIECDQNAICrKbpShdCgAABAgQmtsDLX/7ytNdeezUswhe+8IV09913N2z7NZwAAQIECBAgMJ4CAqzx1FU3AQIECBAgsM4E5syZk97//vevs/PV80TLly9P73vf++pZpboIECBAgAABAk0lIMBqqu50MQQIECBAYOIKdHR0pNNOOy3NnDmz4RCuvfba9KMf/ajh2q3BBAgQIECAAIF1JSDAWlfSzkOAAAECBAiMu8ATnvCENHfu3HE/Tz1P8MADD6TzzjsvLVu2rJ7VqosAAQIECBAg0FQCAqym6k4XQ4AAAQIECOyxxx4p9sNqbW0tPcaiRYvS5z//+TR//vzSt1UDCRAgQIAAAQLrU0CAtT71nZsAAQIECBAYF4HYzP1lL3tZammJtzrlLJ2dnenMM89MjzzySDkbqFUECBAgQIAAgRIJCLBK1BmaQoAAAQIECNRHIIKrfffdN73kJS9JkyZNqk+ldaxlxYoV6dOf/nRasGBBHWtVFQECBAgQIECgeQUEWM3bt66MAAECBAhMWIG2trZ87bEn1mte85o0a9as0ljceeed6cILL0wxA6u3tzd/KQQIECBAgAABAsMLCLCMEAIECBAgQKCpBGL2VTHrKv7c19eXTjzxxPS4xz1uvV/nddddly6//PLcjqJt3d3d671dGkCAAAECBAgQKLuAAKvsPaR9BAgQIECAQE0CMfsqNnCP4KoIieK/n/nMZ6YjjzyyprrqdXAsGTzjjDPSypUr1wivon0RYJmFVS9p9RAgQIAAAQLNKiDAataedV0ECBAgQGCCCkybNm2NK49wKMKs+Npggw3Su971rrThhhuuM52rr746XXPNNTm8iiAtQqtic/n471hKGF8KAQIECBAgQIDA0AICLKODAAECBAgQaBqBWDoY+1319PT0X1Oxz1R8j9lOMUNr2223TS996UvT7Nmzx+3ab7311vSLX/wi/fvf/86BVTEzrAixihNHu5YtW2YW1rj1hIoJECBAgACBZhAQYDVDL7oGAgQIECBAIAvE7KupU6euoREzryLQiq+urq78swiNIuzabLPN0m677Zb233//ugg++OCDKYKrG2+8MS1evDjXWQRW7e3t+ZwDA6wItxYtWtTftro0RCUECBAgQIAAgSYTEGA1WYe6HAIECBAgMFEEnvjEJ6bDDz88X+7MmTPTwoUL0w9+8IP+5XmFQwRYEVhFgBUzsIpAq3LfqQiVdthhh/y1zz775NlS1ZZ77703/fWvf0133313uu+++3L9RYnAKr6Gm4FV7NP1+te/vj/0iuWGF1xwQbVNcBwBAgQIECBAoOkFBFhN38UukAABAgQINJ/A9OnT02mnnZamTJnSf3G//e1v07XXXjvoUrwiwKoMs4plhkXgVARJUeEmm2yStthiizRjxozU0dGRZ2pFiRlcjzzySJ4xtWTJkvSPf/wjB2OVj43jin2uIhgrlg4Wd0cs9r8qGh7/HXW84Q1vWONOiRHIffjDH26+znNFBAgQIECAAIFRCAiwRoHmIQQIECBAgMD6FYi7CR544IFrNOKqq65KN9xwwxozoIoDiuAq/jvCosqN3Yu7FcbPiv2yInga7LERNg38WRFWFcFUUV9xbBxfuXn7wAArzhM/f8UrXpG23nrr/vNGO0888cT1C+3sBAgQIECAAIGSCAiwStIRmkGAAAECBAhUL/COd7wjPelJT1rjAffcc0/6zne+k/+uchlf5UFFkFUsHyzuTliESkWwVRkyFccU9RRhVOVjixCrcjZX5SysytBr4FUW55o7d+5a+3fFrLJLLrmkehhHEiBAgAABAgSaVECA1aQd67IIECBAgECzCjzucY9LJ5988lqXF3fy+9znPjfsZRehU2UoNXAJYeV/F2HYYGFVZVA2WIAVP68MsYZrWCxZfPOb37zWIcuXL0/ve9/7mrUrXRcBAgQIECBAoGoBAVbVVA4kQIAAAQIEyiBw0EEHpec///mDNuXcc8/Nm7nXUmLWVRE0DZyBVextVTmjqzKsqlx+GLOsKuuqpQ2vetWr0jbbbLPWQ2LT+fe85z21VOVYAgQIECBAgEBTCgiwmrJbXRQBAgQIEGhegdgras899xz0AmPfqHPOOSctXbp01AARQg3c56oywBq4HHDg8bWeeI899kiHHXbYkA+L2WarVq2qtVrHEyBAgAABAgSaSkCA1VTd6WIIECBAgEDzC5xyyilp8803H/ZCP/3pTw8ZYhUzqKqVqlxSOJqwqthva7Dz7bXXXsOGV/GYa665Jl122WXVNtdxBAgQIECAAIGmFBBgNWW3uigCBAgQINC8Ah/72MfS9OnTR7zAs846K4dYg931b8QHj/MBEYrtvffeI4ZX0Yx//etfI+7tNc7NVT0BAgQIECBAYL0LCLDWexdoAAECBAgQIFCLQGzUXk0oFTOf/vSnPw05e6maOmpp12DHDnU3xHe/+91pww03rOo6oo4TTjhhrE3xeAIECBAgQIBAQwsIsBq6+zSeAAECBAhMLIFYOhhLCGspcXfCX/3qV+nGG2+sKjCqpe5ajp00aVLad99904EHHlhzO+bOnZs3iFcIECBAgAABAhNVQIA1UXvedRMgQIAAgQYU2HLLLUd9V77Fixen66+/Pt1xxx1pwYIFa1z9wI3ZR0sTs6UGzrqaMWNGOu6449KsWbOqWvo42LlPPPHEFBvUKwQIECBAgACBiSogwJqoPe+6CRAgQIBAAwqMJcAqLjeCoJiVtXDhwnTfffelW2+9NT3wwAN109htt93SE57whLTFFlukqVOn5uBqrEWANVZBjydAgAABAgQaXUCA1eg9qP0ECBAgQGACCdQjwBqMKwKthx9+OC/TW7RoUd78vaurKx+6YsWKtHz58v6HxVLA2L8qSrGPVWwqH3/eaKONUltbW917RIBVd1IVEiBAgAABAg0mIMBqsA7TXAIECBAgMJEFxivAKrupAKvsPaR9BAgQIECAwHgLCLDGW1j9BAgQIECAQN0EYjne6aefXrf6GqGi2FMrAiybuDdCb2kjAQIECBAgMF4CAqzxklUvAQIECBAgMC4CZ5999rjUW9ZKI8A64YQTyto87SJAgAABAgQIrBMBAdY6YXYSAgQIECBAoF4C73jHO9KTnvSkelVX+nouvvjidMMNN5S+nRpIgAABAgQIEBhPAQHWeOqqmwABAgQIEKi7wPbbb59e+cpX1uXufnVvXB0rjCWD8+bNS5/5zGfqWKuqCBAgQIAAAQKNKSDAasx+02oCBAgQIDChBVpbW9Nzn/vc9LznPS91dHQ0nUXcBfEXv/hFuu6665ru2lwQAQIECBAgQGA0AgKs0ah5DAECBAgQILBeBdra2vrPH7OxnvrUp6YItRq9dHV1pUsvvTT94Q9/SLH3VZTu7u5GvyztJ0CAAAECBAiMWUCANWZCFRAgQIAAAQLrUiDCq5aWeAuT8vcIeqZPn57e9KY3pc0333xdNqWu54rlguecc06+nuK64ntnZ2ddz6MyAgQIECBAgEAjCgiwGrHXtJkAAQIECExggWnTpqXYHypmXEXYU8xUirBn9uzZ6aSTTmoonX/+85/pm9/8ZlqxYkV/uyuvraenJ8XMLIUAAQIECBAgMJEFBFgTufddOwECBAgQaDCBY445Js2YMSP9/Oc/T0uWLMlBVhFmxfcIe9rb29MznvGM9OIXv7j0V3f++eenu+++O02aNCl/RQhXXE/8Oe62GNdy7733pl/+8pelvx4NJECAAAECBAiMl4AAa7xk1UuAAAECBAjUVeAtb3lL2nHHHXOdq1atSl/5ylfSI4880n+OmIkV+0VFiBVfMRvr5S9/edpmm23q2o56VHbbbbelb33rW7m9EVzFssiYdVUsjYxzPOUpT0lHHXVU/+k++tGPpgULFtTj9OogQIAAAQIECDScgACr4bpMgwkQIECAwMQT2GyzzdLJJ5+8xkbtMQMrNjy/55578t8Xs7EiFCr+HKHWDjvskI4++ui04YYbrne422+/Pf3sZz9Lsd9VhFURXkXbKwOsaPv++++f77JYWR599NF0+umnr/dr0AACBAgQIECAwPoQEGCtD3XnJECAAAECBGoSeOc735m23XbbtR6zcuXK9N3vfjcvsYsS4U8EWBFcFTOx4s8bbLBB2mOPPXIoFHtoresSG7F/+ctfzu2M4KoyvIoAqwiyol0RXj372c8etIlnnXVWDr8UAgQIECBAgMBEExBgTbQed70ECBAgQKABBT7+8Y/nEGqwEiHWT3/603Trrbfm4CpCrMoAq/jveGwsK4x9tLbffvt1pnDLLbekb3/72/3nK8KrIrQqlg7G9UV4tddeew3Ztptvvjl94xvfWGdtdyICBAgQIECAQFkEBFhl6QntIECAAAECBAYViNDpQx/60Ig6d955Z/rJT36SYqldsYSwchZWZQXPec5z0hFHHDFinWM5YPny5el///d/+2eHRV3F7KtiyWARXsU+XS960YuqWub4/ve/Py1btmwsTfNYAgQIECBAgEDDCbTMnj27r+FarcEECBAgQIDAhBE4/vjj01ZbbVXV9UZwdfHFF6c77rgjLyEslhTGg2NWVmU54IAD0pFHHllVvbUeFOHV1772tfSvf/1rjYdWBlgxA2uTTTZJ++67b17eWG356le/mh544IFqD3ccAQIECBAgQKApBFqOPfZYAVZTdKWLIECAAAECzSmw55575j2iailxd8JLLrkkB0gRZBXh1cAQ6+CDD06HHHJILVWPeGxXV1eKvaoq75AYDyruMBjfYwZWLGOMzeWnT58+Yp2VB8yfPz/dddddNT3GwQQIECBAgACBRhcQYDV6D2o/AQIECBBocoG99967P/yp9VK//vWvp1haGBu7RxkYYE2dOjV99KMfrbXaYY+//vrr049+9KO1jikCrNhE/rDDDktxXaMpsedX7IWlECBAgAABAgQmkoAAayL1tmslQIAAAQINJrDxxhunHXbYYUyt/vvf/56++c1vpljWNzDAiooPP/zwfHfCepUzzjhjrdlXUXcEWLFR+2mnnZZnYI2lxIb19sEai6DHEiBAgAABAo0mIMBqtB7TXgIECBAgMIEEdtlllzRz5sy6XPEFF1yQ/va3v61VV3t7e/rEJz5Rl3PcfvvteeP2gSXCq2OPPTbtvvvudTlPhHIPP/xwXepSCQECBAgQIECgEQQEWI3QS9pIgAABAgQmoECEPnvttdeolw8OJIvZV5dddlmKJX4Dy4tf/OK03377jVn585///Fobt0elL3vZy+oWXkV9sYn7wA3ix9x4FRAgQIAAAQIESiwgwCpx52gaAQIECBCYyAL1DrAKywh+ImgaWM4888wxLe2LvbbOP//8NarddNNN09y5c8dU72BjIDaIjzstKgQIECBAgACBiSIgwJooPe06CRAgQIBAgwm0trbmGVjjUe677750zjnnrFH1UUcdlfbZZ59Rn+5rX/tauu222/of/6QnPSkdf/zxafLkyaOuc6gHPvrooymWKyoECBAgQIAAgYkiIMCaKD3tOgkQIECAQIMJTJo0Ke25557j1up77703nXvuuf31b7TRRul973vfqM4XgVLM4Orp6cmP33LLLdOb3vSmFHc5HI8iwBoPVXUSIECAAAECZRYQYJW5d7SNAAECBAhMYIHxDrCCdmCIFQFWBFm1lq9+9av9S/q22mqr9IY3vCHfcXC8yooVK9Itt9wyXtWrlwABAgQIECBQOgEBVum6RIMIECBAgACBEFgXAVacp3JPrAMPPDAddthhNXfAxz72sbRw4cK04YYbphNOOGFcw6tonACr5i7yAAIECBAgQKDBBQRYDd6Bmk+AAAECBJpVYF0FWOF36aWXpt/97ndp7733Ti996UtrJj377LPT/fffn97znvekzTffvObH1/qArq6udNNNN9X6MMcTIECAAAECBBpWQIDVsF2n4QQIECBAoLkF1mWAFZLXXntt2mSTTdLOO++c4g6I1ZYIk2699dY0ZcqUtMsuu1T7sDEdZwbWmPg8mAABAgQIEGhAAQFWA3aaJhMgQIAAgYkgsK4DrDCNIGratGlpm222yUsYRyoRJP3lL3/JwVc8Zl0VAda6knYeAgQIECBAoCwCAqyy9IR2ECBAgAABAmsItLa2pr322mudq/zpT3/KdxOMQGrWrFkp2jGw9PX1pUWLFuWN2+fMmZO23XbbddpOdyFcp9xORoAAAQIECJRAoOXQQw/tq7Yd8SaumrJkyZLU29tbzaH5mJkzZ1Y1VT/eKNZSqm1vrfXGEoHJkyeP2JRa640KR2pzvKFeunTpiOceeMBI9a5atSqtXLmy5no7OjqGvUV4tLW4pXgtlcedm9ra2oZ8yGhso7JYEhLjbagy2npH6rux1Bu3YA/ngSWeY/FcG0sZbFyMdiwU7YgZC9OnT1+rWaMdC5UVDdbesdgWdUd7B860qEe9g423etQ7cLzFB+nFixePZSj0P7bSuLOzM28UXY9S+Tq/bNmy1N3dXY9q8+tEcae3etkWDSssGqneeo6FwiF+38XzY/ny5XXps8pK2tvbUyy/G6rEeQ8++OC6n7eaCn/961+nGKsxdmfMmJF/P8dzIsKs+Pt58+blamLm1e67715NlXU9Jvbbiplfw5Voc73Hb/RZzFCrd71RZ9Q91t9BAz2K1556/A4a7PdRPX4XD/V7rp7Gla/t8Vwe7nlX7UCtfP2Nx9SrvQPf98Tvi3jO1aMMfB9RjzYP9r6n1s9Cg13bYJ836jHe4vVsYChfj+fdUJ81xmq8ruuN58Zof98N9R646N/RWsTv4RgPQ5XR1jvY+9/Kc4y23pE+d8ZnzhhztZaR6h3t69BI9Y7meRfPsXiujVRqNR5pLBTnq/V1fqTP3qMdFyPZjqbeluc973nDBliVQdTs2bNH6oP882o7ota6IwiJD2mD/UvowIbVWnc8iaKj4wPnSPtexAeE+IpSjUn8K2lRqqm/aHv8Ah/uxSrqrKw7/nskm6LueEINFxAV1gNdh6u/qDuuMe7CNFQprGupuzCPN7eDhSNFXQM9Ks9RTduH68/h6h6uXwuXoeqON2YjBVFD1V/UPdQMgfgFUU0AMZRN1D9Uu4fzqKZvo+4I5ga7zXw96h7s+VmN9UhtH6o/q7WurH+wfh3MvBaP4cb8wLrjeRV3TRttqRw3UXe8XsXrVpR4AziasH2w9kc7Y5zE8z9KjOnRBO5D2VS6jNZ6qHFThJhjtR5s3BTtrof1QJtob7yO18N6MJt4Ha8mdA2/ww8/fMTfy6Mdw8M9LsZCbOpe+X4i3t9UvhmL36MRsFWz1LDebYwA7eabb66q2ngdj+d68d6lqgdVcVC8BkRAFH1Zyz9cVlF1fr7HOCneU9az/uL9VWVIX6/6i9+ZlR8e6lF3WFeOvcr32mOtv/J38cAPamOtO4LJyn/0jXFY+T57LPUPfH8ysO4YZ6Opf6B11DNUIFVr/YO974nXmsHeh9Va90DraHfxvmes9Q/2XjB+D8fXYJ+bqm17vHYO9Q/LQ7lU268x7sJksDJc3dXUH+9JBvvH5XjsSHVXfo4crG0jfRYZ6bPkUPbDWUc74jUrPqNV+1mysu3DWcdx8TsiPluOpu7hrKPu4v3VSHUP1q+1fI4fqf7Kfh3JurAr3nOOVHdxnXGOkayLuuM9eLw/HGm8FMfHuBnJuji2eD9RTbuLxwwWnA82/isziKHqbznooIOGDLCKF6R4YRku7CjeED3yyCPVvCfpP6byBW+jjTYa8rGjrT8qjHPExQ8XqET98YQdzb/uFNcwVPuLtseLwmg+cFVbf/xiHc2/phX1x5u54oNnZUeMxb7wj+/xJnSwF/qoP54wY/kQPZxR1B8uIwVEww3ckeqPfh3tv9RUGg0cQ2O1r7ymuIbxrj9eUCvDqHq3P96EVAa6UX+trzlD9XP4xAtrEZAUvyjqVX/Rz5V9UM/2D6w/6h7ta8JwRkX7izcL1b5BrfYXw8Ybb5wPrbdNcf54jYtxFB9ax/KaMNT1xPiPMRqhz1heE0bqg3hTMpp/uRypH4rXiXijOZrfJyPVHz+PPl6wYEE1h+Zj1meAFef/wx/+kB588MH+9g4MsA444ICq/oW16guu4cC77rorL1+spdTqX0vdo+nfWuqP158YD7WMn9HUH6/79Q76oh1F+8ej/uK1J84zHq9v8fuxeA8Xr2/xVU+jeI9eGQLXu48L+2I81LMP4n1D+FR+pon3tKNZfTDYeI3fKfF7q7L+era/cuwU54/QK34P1KOPB9rHOYrPXONVf5yjHkYxJiM0Hiygq0f9xXuq5VR6IwAAIABJREFUweoP/+iHsRgNZl/0cQQnIwVpI71+Dld/8dlutO2P14T4/D7UpJLKz3ajOcdw9nHdlZ/txqP+YowW73lHsh7485HaP5b64zWh+EeH4Sb1xPuheJ2r1acyVxqu/srPYAPP0XLMMcesEWBVhgkjzUQaDH24IKryF0fxxnSkDhvY4JHCqMoXxmrOMRh68YI1XNsK1JGMhurUkZwiTIsX+NHWX7xZGus1jDQoh7uOMBqu/SPVHW2vfBINvJaR+qCa+qPOocK1eFLGk3Ooa6i2/uH6YjijWuof6hzFC/Bg11Br/UOdY6hrqFf9xb8gDOz/0dQ/2DUUL8ADjUZb/2DnGMxoLPUPDAsH1j+WugvnylB74My1etQ/0KnyGupVf+U5KmfI1bP+ynMU/5JW7/qLN3KFUb3rL66h+Be18ag/zjHaWUBHHHHEiL8LR3ovMdqfxwf1q666qv/hlQFWvFc47LDDRlv1mB8X+3Tdd999NdUTr3Px3B6PgLV4zxW/U+NDfT3/AaC4yGh/jM9471HvkL7yPWPxr/LFh8iakIc5uPg9E9+Lf1iN5129/jGgqL8wKppSj76o/B0Z9Vf+HhrrP0QOfL9evAZVvscs3pONti8G+x0/8D3sWJwGq3+wCQCjPcf/z96dBk1zVfcBnzf54qpUSMVJ4TgxhsggoX1fkRCKRSCglEWCWVJlk8XYQEwFsypmF8ZGNgJcwQFSEFdsqqBMjMCW2GyCJZDQgvYVJDt2Fic4qcqXfFfq1+T/ct/WLD0z3T3dM32rnprnfZ+evvece+655/zvOecuslHqNARgXJdPi+zEeXZ+fJR1+lj0/kU+1zrre5WdvshXaToXq94fkHEeP5r0scpXqh/gLvKHFs3Hqvcv81P8bRUNTd4PCFwWqbysj6a+8DKfFLA/Lyug6btX8cjf5wU0rHq/70XfCRZaVubGs/X1vc77m9BQn+8u3l/20eT9JY+CCxz5x//4H8+NwErIVpO0q0033j76QPSqfjL+Tenoq4/0syzda1s0vUkf2/ApyjWo+jzB9f42+vBuP4vCptvoYxm/2qIjht28k4ix9TGPX2QWHW06zZn30phvuw+02Iy77sO8R4a74FV9TrrqQz+J5NVHW6fTdYOt5FdbdbbmGYWhZepjtQsTXbypzj3jjDN2FuWEOml6MXxFY/3wD/9wRfTJJ5/8hMjW1dxo74kHH3xwpWOxqDfrZNP5aEoB/diF3k3/5f7elT4p++iKlj50VtlHm3ZDKQt996HvLmgp6eiij3m2adt0LOoj9DRdw8ueW2Rjt0nLsj7aomWRj9iGb1j6PKWvmP+Pz9aGLl5ER/poyz+cR0c5F9vSssxnb4uWrvso/c5lPvs2MrxOH5vOffrIOpynD8r53mTum/RR8im0HDn//PMfj7KJAxn0b1HaXXKey7obMeZLh65OaAz9fOaEa1F45rJ+FqU0lrTEoMGc1A1YRJMTsHn0LOqnTktoDU3CiechzfqBAiddMe+f109oWbQZ6MtczVsc6/ST8L9ljpi+5vFOlBg0OJEH6FjGs1Ubm3mah9I37acJLeVc1Wlq2g9eraIl/ZgjNNX5Yo7wjWIgK/W/r0PLMpqa9LNumHIKGpcpd+RaTZZF9OhjE2e/LntlP3hWrjM8W5eW8E7UgHlKmoR+RFtYq/V+NqUlfTlBePKTn3xURf6v//W/ntDPtn3k5X/7b//to6HAf/EXf1FFXiQ0mM5vKxXNCeEP/dAPVd122Y/3AxCceAIV/vf//t9H6dkkTXuZgS5S5W/9rb91TD9t8qzs2213ZA5AQgbbpqXUR9LI/uzP/qySa3121dCkHzphG4Dh7LPPnp122mldDXPlexVKv+OOO455ju576Utfekza8coXtfzA7/zO72xU+iDDQIMC9NZRFym1cXSiU93UuG7EWFOWkeUAD/SDFLQmNdaavj+0ZJ/Wl37I9X/5L/9lndesfDZ2FBtDP/Zb+5MIhaY1Zld1Yt/0EyAzhaf1o1/rto1W2oT2tNQ1Sy3T2Cfb9FXS4j36QZd9toxy87dtahyWMpZ+9FXaKPYHc+RnE2cuPlRpD8YWqNtCKb2xCU2xacpD5LIffy/rzeorNYyaztU8/yZ2c/hW7wff8HAdmubRsqofNKCJ3mtily7ycev9eG/dr0h9wCY0LfIJy35SQ22eT9ZEJpb566Vvu6wffKP72MfzbIj4Afgxzyec1w/Zn1fwfBlNy3zorNF8hp5F/dgHjSt1wCLnq2hZt5/IXl0flXyax7MyVc84y1p6i7AN8wPbSC3TJrRs009oyvjL/up6o96PvwdDob8XRaJFHo78vb/39x5nKBPATTZ7xo9mkOms7BTTUksjGy+HY5NG6ErQyzvKvkKH/9eXfjfd7DEvoYgpOlb2xenzk5sqNqUpfOBQ4GFugyj7Mjdoyy0s2/aFh3iZ2wbKviIDSatqonBXzSUZye1Ci/ralqaMIfIIiKj3ZQOgdBm2bUT7zOsrCt378bItuvDPT0kXeihcc8Ww3cRYmjd3nPbIRiIN0IN3aNLXNs5ovU98JI+AFq2Uwbb4V8pHFKN1jSa0cUDarvmDJjqEHPoxV2izptoGDaKvApbatPT1P//n/1y1PDf6O32lL5umftyG1hYQVh8QfUXuferrz//8zxtdTLARYbPZ7KlPfWo1b9/97nervrpsZJ9Tb57a0LXLxmpv+dEf/dHZQw891CVJ1bvpKuCVCKE2GmPoZ3/2Z9t41UbvALr8/u//fvVdRqP1S0e+4hWv2Oh9bX3pox/9aCt6H6jw9Kc/ffbwww+3NbSF77GnALrvueeezvtySPB3/s7fmUm1bGt/nDdo+pe804nAzrb3krJPOuNHfuRHKnuRPvzjP/7jzvhIz+sLfV33hS5zlb4chnUB4mdPLlNEu9pT0ERPxJfAQ/uk/bLtpq/SPtQXPdU2YKwP+qLeV/ytTX2uefxAE3vUugoIHvuQHb9N7dx5dqhDMX3lgC/2PJraskXZnd6fw9LUdS3t+S59FHSXffl3G7SZq9xKX/pe8R300wYf4wvlJtw6yFH6D+z7bezS0seLz1zKTdkX+34bfVX2RQfWLysr+9pmzsheAmz0YR+pg4bpK7dEbiofoSmHMMa9aL5yA+o6WNSR884773FCZxGZoNzWUC+4DYgq66Ak0mETJRxBCGATo7B8F8FDCKIstm0MgkxQJovgl6cO6ScnkNsIfGgwSXiZyJoySirINZTX4m7DmdWfOURbOXfmST9x1NvoK0IYoS/7Cw8zf20ARRZcFp15S9SPd5cnx23MG9pSkLN+jTNQILfQtNWX/nIaUL/5QV85HWoTMMp6qBdlTa2pNmnLeuC0WAORldDWRV/65CBZD/pM3vu618k21W3khG7xaS67ps1aiLFALgAtXfEx64EjaO5sbFnbTfmz7nN4KOpJf6KR0NaGHlk0DuvhaU97WvXnP/3TP+20r4xBf4DgTQ6N1uUnWbHWgbRt6pFF46hHPKw73kXPi3ZaVj+jrX4WvQeAlZos9gg65sd//Me77nbh++mzz33uc632b50zWvuQS+sOWEwuuwSXwiBgDB0NLG4ScbENY8mHPY/eop/bsruWrTmADPnc1pFaRTfHO3VD2UT666qeWg6t6S8yAuSP871qnJv8HV3Zy81dlzo6Nm3s6Ngpi2463ISefIcdpL/Q5/9T6N/ctb0eQpt+SvrQVgYabENTvhuwST/xuZIhEX3d5CbupmOZR5t9VR9slYBeTd+37LlEK1oH8e8yd2jUZ1u6Wl8l0FCCGmTFuosP1IY9Fr+OnafvAHneXRZn1+e2dkv88NBUB2ySFYXGMuhmkzlMXw7d7DeJBM270FaCegmG2aQv3ynlv1xveV/2nvjm28gLWuIf5/3zeOlv2/bHPoi/mD6yvtP3kWc961kLbyFcxVAThHlRjuUNYb5LUQXostj8vu1GnlvOcmNevc8IOyEhjG04dmWfJq80opMKiFZCuQ0CG34HTNQXHpc0lv15vi3FXNI4j6dxItvqz9j1SXb0V16xnJDUKJNVctj07/pKYWr9BcREG/ksizw3feeq53JzTK7szuZDPrvoL3y18NFIftAWdLvN+Qvt2YBSuNf/m8Ou6PP+bA5JDU5BUX125QyR13IeE+W07ea6TIb0iUayG+OhbWOz7N9aTARenJNtDg9WrY/IK+cLXRyUNnT2sn6TsmBtorHNE+NF/Zo/EYb66zrSKmNAn7ls+zavZbwF6nDYu2hXXnnlTtP1rr/++qNh+NbJcccdN5PauKv2ne98p4osarsFkJfW3EfDSxEqTnm3tQ+bjNe+GH2z6clyk37yTAx+/XaZqpn+YjMCku2HXdMY5zoRTfpsK4JkHp/ZbWTGj/0xDuA2jtmq+bQmAgDZD3PFe1fyqj9yk2iF+FJd7R36i03FnmNDoQ241QU4mcO+zCP+x3dio25yI/yyOQyQUKZcpU/yg8Y27bjSPy1vj+yKxvQXvyb+XFJC49+04Z+GzzngrwM0XdIY/7u87Tyyaly5/bkNgK2cw+i40B4aE2DThryW/dFxCSbSZ/xva5Kc0kHb6p46hlK/5bScx/h0q/TkqjXo75HR4Bz5TmQ1OJE5XKV7qgisoJ+lUCAu1+RmkjBMJ4lY2oQYgkCJROjrfQbBNkHJRdVP0OZN+vSdTFZAkxKw0Vc2pSht32mjJkQAE5tD2adFV4Jemag2+tRXjKYsvNCvn/TbZp8BMXOVcBZfbjvKwtPnNvJTn//Qpd+SvzlVIsNl35vKz7x+Y0Dhdei06HJDRBtzWfZrXvE1Vx6nz/JK67b7zLwmohDNqROmX8qm7T6zXtEZJzwnXIzUgH9tzWX5HjzNSb1NBI2pk9BFf6GV8Z8TKUYq+eXstLERL3IC8FbEBZqdNAcg64pO7yU/6TORal3IT50GwAoZ1pf5bNOQW8Qv/UkP7CKNY1GfiSbjtHYpP/X+ARDWaJdg4D/5J//k6D7epYwuevfnP//5CgzAY+vy3HPP3Wldrj/4gz9ovfZSSfvxxx8/+8//+T9vFf2+7jz92I/9WMXjLuWoHJM9RoQie6ztVKtFtLN/peX5VGeqi0Olet/sI/sanY+/fro66Enf+sNfB1upc9U1rdm7o+vtaatuT1tXRsvnzWFKcgAM9YdG+0xXtLLpk1pnPmP/0fexybahad53E92UAy52oTnNoVMXh1zpM2lp7N+kRXbF3/RZgnkloNZ2v3yH3KjGDrO3xPfWb8qexIdpY16Tnhbf1DvJUez6+PipndRGn3RAAJIEvfh3/PwEnrB721o3yTCJPxz/CT3lnMZOaqPfyE/s+vA2fSbrKhltoX9THkdOS387fZOlOsCW7K9twK8yGio2vb7MK91Uzqm/x77fhr/JniszBKtagSeeeOLaEViYFqHwwuRqBkAIWphTg9zes61REiZhiqgEfSeCBzFxSiyGIM6M6nnXZq4rMIlK0q+JoniSrpeoDxOUvtoKAw6vU9g8Sg7tJb1t8Th8SbpXIlwSVu3/EwKcSKnUAVuXp4ueDzCUSIkAnvpJVIjvbitP9f4DMqI16Wc+0Uvx6DsFOtui1XvCawZQQBsKRl+hN7nIbfYb5ZNCp4mCyymGPtvmccYfXqf+lf/vcm5LubaGpKhpxmFuGUZdpRimb7KkX/wmywzrrtM9MseAFP2SK6fjXc1rKZ/kGnAUPa2wex/9GgN69W1epSF2YWDPW4ucGTKNTvT21fBYhJfopz4AwZIuQIc6PG2eYM/jm3Q9dZp21W644Yaqdk2iWp/97GfPTjzxxF0NZ/a7v/u7nUfX2AuBk20XKV/FNOvXfvjoo4+uerTVv6sRB/x47LHHegG5M/hnPOMZ1a90VRv2ahOm0I+xK/uowWdMSX/PQScgrY9IP3q5rEVFT9LRXR9kSCOlm+39fBKgT9f9sm+s2URw0csBLLvkNfAwtnv8JXtgbOYueJ3ay/RUSnAkCCE1ubroN6mYKYeT+U3mQVdznPTdZD/pN5Eqie5sOwtBXwFm4uPrNwBbgFN8b5PX9HCAi0Tr+Ez0UQquh+dNdF6TZ8Jjz6LXHFtLwMT4gf5mjtsqb5Hozvid9eioeb5RG7wuaQ298beTmVTHFrbt17wGqMXbZAoF66Cv9FHvdx6vj1xyySUVgJVQ1dQXShqHl5Q5qNuEsCY3NI5yQo7LvsvUP78nLHibfiO0+jU5qb2l39Drs6S5zLNvq28TlJz+siBcve82aY7RkHxSRmGK0hsPYUnIXpzpstZZkwW/7JnwG+9t5CmQGIWQ8N22aTamcnHkxkb/r+/kPC+6dWJbusN3dKMZzwP6ojkFvcubL9voM+/IaQOFyFDNTRAUQyJtNr0lZ9U4c8ITnofflH+ii7pME7Pp4TmDKicCwCK0t7GWl9FPxjlf+jcH6OSUMFy7iqbKeBLdFNCZ0doHzfq34Yqsol8YNgzlrnldyjrHE+/pEZEUXfO6lIETTjih0imKDvdFc/pX9JiO+ZM/+ZNVy7L1v5966qkVzV1GOJSDBtC97GUva52Opi/8xCc+URmt9Av9Dbz6B//gHzT9euvPfeQjH2nttHrV4ICU9Elfc53xWNPqxeE7WeuzPeUpT6l0uSi0rvbKefQAwAEQ9i76xIFDXwC8mmT2rkSkbVufpel8xVZAd6JkfXZpJ2RsQCZrmo2Wwyw877pvslUCLylKrt/UHGrKv3Wfs18mkj91cu2d5aH0uu9s8nzmGd32rdQZS/Rum9kZ5Xj4IanDGqArtre1HTCmizkPzXRZoo/i28YX8O+2+0Znit+X/NZPDuPZpf4dv7vJHK56Bq8TYMLvSISZ74XuyFkyrtoqi4HXaE25mABCAUXYw5n38LsNvkemgikkmyI0lzWv6PQ2SxyVvm2CiYKxJLgkGWxlIMS2dNfxm3l9J4suKdfpMwEaq2Rp3t9TqqZKRXzmM5/ZOAIrTAlCZ4P1k+iccrIyUEqxreiRsn99lQXuglgm1DI1t5Kmsgmj6t9JkbsgsvkslUPQ4dxCl2iwNvqfR79NN/ndCf2MsLQdGRUwKkAMJUFRlbwv573taIsUkEvNpZy+6D98Z3iRubb7zvwFLU7oL8WFH9l48b7Lm8sCwkYWgQZa+u+Sdv2U0YfZIEsDqCu+l/zP5pS0u9AuOqJr4CL0k0G8T502J43bbghNdARZ07eNkrEf3dqXcxf5SzoK/abvtgyQVTxIunvmnkPdZ42nRAGrfwTE6DsyBX/MPWP829/+9ip2dfJ3/Vv7gNm+2z/7Z//smHqJffVvfwFgxe7wb3vfy1/+8r6GcEw/AMuvfOUrvfcN4BC9su0p7CYDt+YB5OSu7/7Ju4MgAAeds00Kxrq003noJm/kjr7rK0rLWPULVEtEOBtjm3SQdejngLJxjYGdweHu6tCvPi52Bl2HdnNA5lLbq48o19zyF9DDXpu0rjZq7iybB32zNaw5e17299RT03+XKagl7TkIzGF3bP2uQN3cDhjbPv3nZnt864p+feeSpdia6AzAl999tk1/6M3ha8r9JC01lzyV/sY6a3nVs4kGLQEvtm50Tcn/toHORAUFgLL20Z+C8uQ/ay//tw0IU/IiNaBTiqb080N7Mroy523RX78dsPTx/a3kvfVODkN/G/5ODtvxIHWb8cbvZU3x+JUl/ebkyPOf//wKwCI0vpA0gCyU3PTWVnoAZWCB+tQSNpYxYFJ+ygLwbSrs9GkcJsm/I7CEZx4P2nbMAwKFB1U+5/9Hq0seBKltu/+y3/AgfCE8JQ8SkdXFhlXnQ3J6yV2pPCzYroymEpCLLFgP2bTLRbxKCW/694whUXpOa+o86EIGyvGWfEixSzwggz677j8ymcsLjCch0jFe2lCaq+YofEiKsH/HYOiyUOy8uaCPALQBp/uYg4wjYeq5+cM66LP/yAP6jYH+iQOzag7b/HuiGY2jDOVus49V77IOGFfkoO8omIyNTuBI95kaWefLFVdc8YQrn1fxro2/OzX90pe+VL3KXpRDlBe/+MVtvH7td9x88807AU8zUNEj5LAtu3BdBnCsk5rU9aHFvLElJY1cpFTGujRs83wAhshjn/Xu9JlUMTqxvL24r4OM8vCSfrYvtx1Jsmp+MgeJJAofUox41fe3/Xv6j72Uw/Kk/nRhr5djLuv7moPUf035Fs92KQ98JuBmAgmMgY1Sgjz675IPmYNkF+WynchAHO6u+JD+41OHB2gO7eQhPuW2Mlf/fgnyzeNBZKArPqA3Yyh5oN8yeCR+TIlxtMWLAG/JcokPmbq92SMzhrbXRUDPYAglppLsOXRHBsxFm3woM7rQluAKayGRb5H/fLYlD0cuvfTSxhFY5YTnJj6D1PLp93Kx+B2zEm5WFxp/45Rs2vTrh/Dkx7vi/Kd/n4zv3DxX9scA2RYcwY9FvMhYTGZS6er0tpVilHGUvCjnxBhyq1l9DG2mv2Qc8+TCXCSCqcsxBKCMjNRlEy/qctmGLNRpSv+R0yiTKJH6GNqShfo46nNSAsX1MbQpC/VxBMTGj/DAZ9D4PN/lGEpFW24oZehvQLNNdVOT72XTLXmRlGrf7yt1JQB+Np1EOhlD1/NQ31fIB9m0yUUu+xyD8cQIMQb7RlKOm8xpm88k1ZpMcNJ2ARhEfzFU+p6Hkpd4oQbWM5/5zDZZ3Ohdd95551HAiFGYWiAveMELdhIR9rWvfa3SDbsAb6I7c6FHn9FI5WQlLd/pND3adkRCE8HIbYYis+iMRP43+W5bz0RHshuskeypXTru5djRncK+9EMcmD55Ud6AbAzR34ke6kNvljaUMZR7auak63GUY2DL+gkv6n5AW/K3SBb8f2zZ0ubz//jQFahSyoK+Yscts3/b5sU8f7eUidI/K+3wNsexaAzR3z5L/yzgQnzmbceyyOePDTHPVy1loo210nQMdV60NQ40lvZ8ydMA3gGe4q+Wz7QxjqQ3zpvPci5KHtT99mAY8V3XlY1F8+A9SSct/fX6fJS6K78by5G//Jf/8kIAS5qIl0pX0Jy6pSCh0zeKgVFN8NU86eq6Xk6lDbIcR0Jb9S+slxHFkCEUXY0DD4QTl+OQxqPhRwokCrE3pjYW4CJBMQ4Foc2PecEfhkPGwaBi4HbJC2NzCmMsnDzjwA+CZWFEJjI/6wr9us+rReNkPOOweeMHuZB20DUvjNdGjR/G4NMaMg/GIXIBT/pKf4ishh/kkkHRFy8yf3igfg0ZkYbh5iU8kAbTZmTlKnkhG2TEurGpuIYeT3YRUcIRz7xIQ8OTvqK7Sj6pY5RC+nhx//33r2JjJ3+XmuRmLvrswQcf3BlQQkYvuuiiSia+9a1vdUJrk5fSq2SVU44fu2xkpO+1Oo9eRdNvuumm2bXXXts7O9773vcejXwjq9arxji8+uqrex/P2972tsoO2UXts5JYa5bt8fDDD/fOg7LD0047rXKIH3jggZ2Ngx495ZRTKqeQnHYVdbGKQACvumHsLkXwtzkgXtXXor+zA+kvafbsr/vuu68X+6s+HnNCNuh1Nin5wJe+wD3jcTCHD2qq5VKgXfADL9RMZI+ZHzbpI488Us1LXyA0XcGfc9toCs2bF2Ow5/ZVDiD+E17wJRO5RZ927UNGRvnSfujx2ILkMvxI7dSu9Yh5oLPoDTZysj9Sy9Q4+LJdHl6VPj5eaOYlB7j8JuPgL2wbbLJMp1mr/OjMiWezVvyecfi9K3+SD0lfmRP+UvhhHGTTWjUOvOAzdDWOXGaGF0nlNja+U7IArFd+Q7K02s6QwYNgLMaBLwl+qWpg/cRP/MTjwI4wgZBYRF2lKaR+S0AgiqQEo1JfIAUFu5qcCHEJSKV4ZvKNS57kythNN/Qm35s3FouV4iC4hIOS78MgmTeWADGcqj5BkIyFwBJmzh2e+HF7Tp8GScYSQNX8KBrt09z0CUJQbgyjyK21Q2bxRT2oPluKv1rX5ochQI/swvnOHBmTtYwXCvH2WTckvDc/5sktU3hC2e+idpDxKNxqM2TEAu8Yr7tqHCw8AWQGSNzVWAA0xsLZ2xWAF9o5OSeffPLRdLVd8STyYs10ZQusQ9tznvOcChSgU97+9rc/IVpznXet++zXv/712ec///mjX7OOUvuMPfPLv/zL675yq+fVWPzABz4wo9/sN106Fk0Gysi89NJLZ/jUtbO1ajzm5vTTT69kpe905/rYzj333MpeufHGG3s7tJrHH3tyohbpt65t6kVzxDGm2+yH7DY3PfZhy84bD37gi/VLvwG2unSMF/GErQIEzsEvW9b67nuOOKtsA/tyHHbjYNP2rV/w5KSTTjqaGsjfyAFKn3yJHVna1+bxoYcequzKvsaSQuwOPXPDJJnFlwB/fezRARMcAOeSicgKOwGo0hf4Z07wgswCncrACbwIqNL1HAFUgDq5CALQYywplK//2PtdjiWglwNg84M/dfCtr7Gkbzwpx5HAloB/CWzZhi9Hnv3sZ2+UQhiFvCg0zKkLY6YME6yHpXlHQknbCIXPLQ/1zSJpikl7LNP9PJvTGGNpM2qK4kmf5ZhsCH2PRf/z5ip5wmX4XtIsu+LLMtlhdKb/3BCZOUr4YptzVM5LnT/6wZ96aGPCOrs21uvjCW9K+e1rLHhAWadZ3+ajLHbYV5i8MeQCB7/rN0VVIzNlDYBVTk8bf7eZ5upoRnnqAUR2k3feRl9N3lHqHk6uDa4cS5N3tPlMZJmBk30g9f3a7Kfpu4wnlw8YT9/zUx+n8ZinFAtuSkdXz6WQaNsnapuMNzUaEyUAzMqp3CbvW/c7t9122zE34DnwY2ukcbb6TGv86le/ehScSb2LvqJ6l/EuxWjbvLhm3bnyfC5asKY55rsEssgukMRY6ORdpSLjS2oF2RtzGQ1Z7nuNJ23eeIwFT7I/9J0mHfslY4nPkhu1+gRvcilWWU7AeOp34fBDAAAgAElEQVSpiZusiXW/E/ul9AXIcGpO5X1d8yd+UlIQy3IsxlBPz+pyPBlL3S+J31i318l2V7onaWfzyqOk0HZ9PF3pnjI1c5HvOK98Txe6p1xDkdFSZvCm9B3KddGm7onPuAhrIBuL5qnttbUIa4g/EH/a5yLMwrPbrq0yRbLOl3qKorEsS7/MeI789b/+148BsBKuFmfVZxYLgdM4iyGmLFjYVmGuurI1JgrMppJx+Xd9PHVnPsWn11Xeq56XNsCALcPZ5o0nAppaAF0WFMQj48qNNfPGU85Vfm8DOFzEr6Q2CtOlaNNn5KcuO10DQpFtJ9epjUBm6uPxf30YdYzI3HJDtq0zp4CJeigLQXbNm8whHhkX9ByP8MEm7CdOks8u5Wbe+peCmPD73MKU66a7AjQXyTV5tvY50YwC4yFDuRmkz/SEOCbGRK5jpDg5pf92capsTGTITX3k22mYn6708Sp9nb+LbiLf5kpU3q54k/E4ORQxkrTevtb4Mn6RI3rIqVjfcjxvXJx/a/9P//RPj/75+OOP7+32P3bOb/zGbxxzsEWGUi7AoOilN73pTcfUE2kqk5s8d8011xwT0YMfohiH0MiOaEZRyX2mh8+j3f7lYMFeZly75hEbKJHbPu+4446dTllsavsYmaajy3XW9+DMVaLsRWnR06KA+oguqdOKN8YTe1okNTuDrhap22cLgJ8LXdiK+GO/YJcZU59lEAKEpng8oMSPf6eszB//8R/3xiJzVV78Yyz2Mf/Plmavku0+siMCtNkTAtSyFflm5i2peGyPPrIkjMd82UfJERkyDnZZLgfCF3s9OSr3tbYnMIeomSvjSkki+jCpi+xEYzKerrJrUnAdjeV4cgOj+UtNXuvMWLL+u9BHASIzFuPCr4CQ5Md84ZnxpL6dcbH52wZK63OV8aTeYWoemrPYrYmm7UKOclCXNZXxHDnhhBMer19R2Lbg5n0WEaFI1XrCEkaUN1wR2uS+9uGcGhOFp+X6Vg46IQlvMqZEjHXFo7w3AFkWEl5RMvhkYzcei9w4+yxeGl5ZTDmNAST6CY/Q0OeYjMNCJ+TCJykBiyjXHpfXr3Y9b3m/hWbOyFVkCn/wJXzqk0cZF2M1V3Ibnw2LTHM48GsXTqv5Ai5Q4pzVrDt1ZhhEfYJlpXwwWskVmUq+uVTEXcxbxkUf4BGHw8ZlM/3v//2/7zx1R1oio5os4VEfxuKqtcxQ+7t/9+9WcsWg3kUK6bwxStNgkEhF2JVs18dFzsn7t7/97VVs7e3vjG1yNa/O02tf+9pjIkK7GtTv/u7vVvNUNjq9XqvljW98Y2Vgdt2++MUvzq3NlhTYrvtf5/1Sc4FGfRwGNRmXvU+kHP20qzTu+jitOfrAnqIuUh/27jJesVvsL9La7MMArbadoyZzVT6TtClgf2pn7npMbCd2FNuA3SmlmM25yz2GDk8tWvPIT2Ab7IpX7Dp8Mq6U/mAXpLbTLqJG2U/sgtjlZMuY8Kj0X9aV0U2fZ5sYE3+PLkjdIXPnJ7WO+jzcCrDEbyFPxhY+sVfoBJ99yhVZMh52kzEFzE3UVFLpdzEmMp7aWfjELo8PEwAuGSKbykmT7+FR/E5rLpe1JQI4B+x4RE/1wavMm/Fnzfnd/JF98wbTSCCAz3UOlo+cffbZG6cQ5pSizlzOHkeY4AcBTkpCbpeyABg26wy2ySR6prxBq/yOSQvjPGNiE14XI6vrm8cC2JXjItwEP6Hv4VUit7oek7EsGldSJeq3swUF7tqZ1695Khv5SrpCeEXwyVSbYaCr5K3kGT74MR5jy5jNXR/zV461HBe+MIqzceNRFFkiGFfR2dbfyVK53uiG6IgAVbuoiWFTTFqbjYduMC7rsYvTjXX4mbk0h+FX8uv7Krw6b7wMLfwxrpycWZe7MErnyX5uD6Tzd+lUZGzkC5/sf9ZiF6d468hVnrUeE2nQ1e2nm4zLd+qRTuV7FNpXCLjrpvZVHYxNeHvZt7EYU9cNgDWvZgQdZly7Xn8l/SkIbFx9GPBNea8uhzm1Vw9lXIlEMJ5d3+4YPhpT0h7pq+xFu+RZxpSyAWyYXY/LvhwH1t5sDSZrBS+NsW9gMj4QvZCMAg5raRvGT2u6btp4zvwZE/7gSeyruv/Rp4yl9EyZNp+b0erjYkt0feiUyFH6M2UpUm4hN9ftgl/xBfWdVEHybmxkPhFepZyQvS4jcWOnl35ifMH4XfN8yJSPaEOm6++gD8xd6TN7po4xsLsS6VTHA9oel/GUWEz6Lf3B6KrSTyvHwedvG6+ZhxHN45X/K/20jOuIEjL5B6ckYc7+z7/jnGTRJt83nwQ3zidF3TaBpaGNAIsn+en1scVZT+qV8Rh3144VZWxM+clCT15nma6HX8ZlYfvs2uCcN7aMC2/Ds4wrC7uPU9NlYwvPgmYnrLQvpz1jI29JGU10UniWGzj7jvCifLIWOHmZz6RoZS77uHhgnvKeNzZ6IcDLLsaVcYroMLdOAwKm0w9+pAv1bWiW/DM28sZoMad4hlechz5P4OZtnhmbTTkXSxjXLvlVzmlSPHKBQddGZlMDA99yE5eixUNqotMYUfUIoyGMESAkxWLRPiTy4aqrrup0qGpffepTn3pCH/gmiqfefvVXf/UJhy1tD/ANb3jDwjUnhZjjNxRwNLTTtdL4yH/X9s46/LZ3JtVoSGNL2qN9VJOyNgS+pWiycWUfyI3C6/C97WcToZWbuNlHScveJd+Mi3zZzwFKeGYfZ2uk4HXbvFj1PsCD8ZTjimO7y7FlXLG1I/tJfeMr5fa1Pg+kyrS7pLgmZdHfjNvYEtHS59iMJ/wypzkcDhC3q7GV4yKPGZs1EJ7Z19mOffItgFEujcOneTzL2BwU+b3rOc0BItwgoGXG5d8BCzOfdFoudUsgyap1v8nfjSuHUJm7BAAZSyK+Mr7gGRkbf7QLHKFch0fOOeecxwlSPcolBHcZpZG81wh5GMFBisLCgLJgajkRXY5NP8aXyKikByTELddGzhub8ffhQIV/ESpjBqYMYWzhX043UigZ6IOHxhhF69k47JsstE2/w4A1LnObekH5LNfDLsaWnOfkPWdN+CzH1vUaWMRb85r1EXDRZ3lRw67GZsz4ljx/MmcsGRvgapeGrfExIKNTrNkAQUMYW8ZnfjnEnAFrdShjMz7pivYLm2UOAzbVA118D3CVNPhdroN5tFm7IgYAHV0YGNvy00FQE+PnxS9+cae3EYq+mhftRO7m7e8XXnhhdXtWV00dl+uvv37p6xnn2xZb7WL8cZJFP0lrGlLL2KQ5+V06/VBaTvPZS1L7klI0hPHF9qXfcqNf6lPuenzl2OwV9lprls7rM7qnzgdOX4qApxxJwKTcZN2H7zBvfupjI3O57c3zeJf9tu/5Lf0sfLNvse8SuZjxAQf7PlSr+4DWg/0VcBMbj71pbOa4z8PIeWNjB6cecMYX/6KvtZGIoLo/D7gpfZ/8PTWo+hhfCWyl/8hciVmEd8kk6yPSeB7esGxsxp+5Tc3grtbusrGRuYCtZamFBIOUeM864zsmAmudLy561uBCiN8t4tzEkrDaVKO3oINuEky/d618olQypqDDDIUAKimoVo6vz/z2oJ74ZcGkgNmi8fXFu3LOM8+Z42X8M699p4YlvbUMD45cJnySMcj5daVzn5tK+Bge5kQzxqpPSid1l3bpkETp2JAzxz6T453i3G3ojk3eQZekvgLHN5tPis8rbtpX1N4qnci5TPh8DOl6LZ1NeNDGd/DQHOMhQ5bMcTR3zbuSNg4cHtKP1m4fRVDX4S1drZYbGRSh07fOazJWtW3I4JBqXdX3FRFOTaLCXvOa18wUMO+qvfnNb54r/4sisNRXetWrXtXVcGbve9/7qr1qWaObTzvttNldd93V2Ti2ebE9OEXehxYphi76RSQb4HJo+oVdesIJJ1T6xf4LaGMn7KJu5TwZACjQ0eyaOE30dFdZGevIId7Z2zK+RFY4ZNj1rZnoMDb7L7At5VVymMpG2CUP2Vj2DIcysaHZBcZX1vvZ1RiTkWNuE7mVGsbWCdueD5IsgHXkpo1nUzTd+khx94wvETTlAXUbfa7zjlyO5jMppxlfaiwHpOkja6gcu/GQv1zEsWh8CSzJYWFfslhmXiUzhj7GN1hGmRVTB5O61tvWKr2nZphxspvZ9hlfboCN75tsumSIdc3DyFtuhUxZp/r48K2MNMtawdsjF1100coaWCmYFgcbsFKm6+1KMZSCnjH6v+S8ptZPBGfXp834lrENdYzhX8L0CP3Q+GiMlFpuibAQCHhSWQF6XQOhTTeIyGVZiyCpdE3f0fVzFIfxZX2nblfXobPr0hWAihGQtL+ua7CtO0ZrPMUmyWFOFtZ9T9fP29QSYcWI39Wp7zI6rR28NMdDq89Ujjs39Q4FjJzH05xUDxE0yHhTj6up3gEknXvuuZ0sFWlbd99999x3M/RSm6T+wD/8h/+wk2Lu9jMF5Zs2kRPzoseafr+P5zjrDhiGqHtCv0gFe83QoigzPvZZbqoy30Oxe0r5YVfkkiR6fNd2+DzZttfQ48YqYruPSI911lh8h6RJ0kHJZljnPV0+m3Q7QE38htySNpQ1bp7jO2SM/BvreyhymTq6ST3l2+R26dRF7nIem7w79Z2SlhcwJDXgdhEQUB93fK8yoiolckqftgm9XTyTtLz42gmciS8bAGmXcpno5IwxtwDG7wqwmbpjXfBp2TuP/OAP/uDjuVKSAqd8/Dv5mH7PlZbJV+0z/YbiLiNTTLIx+tESvZIx+j+ORN+n38YVBDERPuFnFFJS+3JjX99jjCAYT/K4gQI2Rcq8zstd8LEU1oQ0+7SAGLwBCCjMnJCKdugazV62iHJNbeoc5CQInyOXakXsWqkn6hAvI5uM38gjQ33VCX9fCgrv6CC1bsimCCHOjsggV2sPpWWTdEIEbCELbiQaUhoKXkUHufEKL42xz6uum84XGTU+kUz2Hmt7lxGIi8ZtbNaQaBd6aIi8zNhFvFhDDz74YNNp2MlzT3/606uov6Ynf5zirupgffKTn5zde++9c/lANhet71e+8pWdRIXhyTve8Y7G80JvWje7NH5XDdYaOv/882f3339/p4V+V41j1d9POeWUau+27wzhdtV546WLRGfZy90SNjQAxpiNUW07e5H1w/4d2jjpyeOOO66yNZPSxw7eRcHzRXLJdk+koPGa89yi5/dd25nGHT8NL/kXHF7ReCnnMAQAITLJbkuqJD+C3jROP3zdXR+SJkKKTCYLxxzjZ+rJ4ueuQAR85FPkFky+uXHiG8zAGk+d4ETt7cJfi61ub+TrGmf2x2S7JFUxl3L1vZYSTMC2oS+1jDO1r3Kga2wBDvuU0WSGGVvGmQCNFO3PPhn5LCP5Vu236/z9yAUXXLAyAmudFzZ5NilxAc6S91ovRh00t8k7u3rG2JKzHjSSQo7wBB1vemrc1TizaaToYU5sLNoylJFgDeE0JDcu+jTm8BQdWah9K49lc+M0JPOfywMSHtrHdaRN5SaAb9YYxRJEf0jjLOU1QGWuex1qJEtuvmRQ5PaVofE0cpITMvNvPQ0RBMpY8TU3jDDKhtysfQYF52aoc1/KgPEOee4zVqDlJtFhl112WeVstt2uu+66heAPR2FRzVBA9qWXXtr2cCqA9I477ljrveWJ7lpf3MHDDn2kow8xgqhkR+qzkNVdOGFNp8aeygEiq32U5mg6rvpzZJTjaw+gT5Pyten7uvxe6t/EnhrqWFOagg2Q9Ej2ypDsafOUQ3M2q/lP5sQQ+Zoo66QAptYwH4DOGoJPhaeJ0ItNnWyK+KlJbetynTR5dyLC4/+Rgcy/seanybu6fiblU3LRAB5Gp5r7jHXXMpBx4of55wMCtMmosWWc9q1d7l0Jkoo/7dM+YP6N09hKni6zCVqtgWUQBDE3DZhwm5MwbAs/RZUZ1JxUA+Ww7MJhjXGXelyJoJKWkCgfygCCmNvJGFi7GCuBTOheHP9s/HhrnBwAm9X/+B//o/oUTt7l9aWrlEZdFjj9cujJAYeDYSUKhKB+5zvfWfW6zv8e/kYujLGsC/Qnf/InVQTQUG5eyzrLaRw5sL78m7wOrYZHlJRx/+iP/milF4xX9IrT2KGdxBpn9IDxOrURDdSkNk/nwjqng2xYom2M19p6+OGHd356uIgXxqsek4gwenWofI2+Jb9nnXVWpQPogqE3kWHafffdN/ShVsaWvUHkyLrtBS94wezv//2/v+7Xlj7PYHLb36K2qAZWnv/ABz5wzGUW2w6OUfdv/s2/2Uju/tE/+kezz372s9sOoZfvX3LJJVXUWwzZXjrdoBMAwbOe9axqnxU9NqQ6gXVy6C1jJUMA0JT+2IDszr/CJjjxxBOraA57F1vLeHfpbC0iWuSBCxs44vYEdkxAjaGNFzgs8o2Dy5+xf8X/SiH5zie3QQfxacgAwIgekLlgnQG1jHUoYBFesrkdWJAB4+N7ATbIbSJOkL1rebCeRJixtey1mXOHIok4CqiR+kMNpquTR6wrvpdP+oAMGBPbABBDFjLW8uKjTgaz4qXG6IefaKwBCfEUrmG8JSizq7WWDKvwNcBxLhlK9kB4i2y0BEzqk7dAd1hBxppMhwTehLewDeDskZ/8yZ9cGYFVXuMYYoI27hp1XMTcsY15bOPF9/qYxyYTQx9vncdjGG/GHNlIVGWfSnDdvko5HsN4Sx6PZbzGzEAd03jJhZ9dG6DryPOiG/LWeUffz24zZo6EFK82mzTGZWCaVDJO4aIG6Cxv2tl2bAzh22+/fePXbMPfjTvd4ovl3rHFa3r76hj1xNh0cXmDcG8Tu0VH5W3MY9g/IsNIHsMeXY53DGOexrvFYmrw1Tp/xyoTGXcDknt/ZBGPdznmYyKwoLQiDVKHBLII+YLMQeQSgVQquF0jthkzlDGhyMab05vHHnusmuiMedfjNZaM2emYHHHNqYgx1nm8CxR03sogC4z23JQihYYhn5oL4e9QxosGToSTJ/w2fqdOZMOJWU6ghjReYy5PIJzwiE5KNFV5O0Pv2mtJh9IqRCWIooDui/4RUROZGGJaCB3nBFXdHaen1p0TtMjDUIF5zrqb15ya4DGZGCJ/S3E5/fTTKz136623VmtvCDp41frBZzrjlltuGVzqxaKxn3POOVXUreiFsbTzzjuvigzZdL0xqj74wQ+2Sq5aU8tqHa2KwPqZn/mZVkE1UUm/+Zu/uTGNdJ1IAcDcGJo5Pfnkkysbbkj1DhfxLtH7F110UVVnjo4bckvpDnpZFLQosiEX/M942XGic+gKY95VNsSquc14fbLnjFnkyyOPPFLZRkNryULxiceJkBfh8MADDwxONuJIJ1vCPu0GWFFbIjRcwEGeh1L/rxxv/D97iGyUpPjLQuFj76oucimT9fGmBq3o/hyGWINuMsbnPusvzVs7OfCQMaFl3cED4Bl4zC4SJQcPENW5y1qGGW+ZqUZPkAfrL1iG/Y+O45uwmXelo+eN1/9Zd3xUn4meNGaYgAg00Wddj7m6hdCiKXM6CUHCNXepbDnGwskwKDnISTUS/pZbVxKaN5Tw0ic/+cnVInIds0WVgnD1MePtkMLPhe1RVlJ7kpOc4pDJ9U1+6i7lot530v3ICF6ncDqllRz1oTn5lCqlhddkxVitwzj44feQ+GwsFJaNwdjJrvUIACrzq4c2ZuMhI37oFLpOOmCugt7Uee6DTmOmRxhj+IzfQ9IZi3iQQrgAWDI9hjGj5eyzz66cDHpvLGNm+EgPAGru2phcZ03QIfTGtrXEAEbLIqLWGZNn3/e+9y2d+1U3/F144YWz5z73uet2u/B5KYAcyW0aQIiTNCb5SKHqe+65ZxvSe/2uQ7Mzzjij0tPbzlkfA8/NcfYZeztnaYggS8mLXJrDzrbu8doB8FBvijT2XKADMMRrn3idA/Y+5nrdPsLn3CLpgJL9Tz6GCoanZrFP8uyHT8OxdkHR0OpBBuwEcPqdTPNj+L0pKE+2hwLGkaEARam3TJZzqzU6jJUvMyTZLkuu4LOxG3Od13xHoFGfF9UtWpcpYxJ++8xlA2wnfotx0nvkmz7ZdQuffZYHD7nUIXKNz3zcbcd95ElPetLKFMI2mRLBEcnDQPGZWzQQBJQq81zb7HvbdwVMk6cJ2eU4BPzLuIdWKDE0J1c3i1YElYVq86fYhzpu47dxAnwod7wXKUO5c9iGAlouki0RYHieW/QsWOMfMr/RYlMCruE9GSHnY3GQnW5lQ3US4ERu6PzGc4aiiDB8ZyAyAMbicNKHgDbjFTEyNMB4me4X0Yb3QM2mN+Btu5e09X03j5GTMfEb7fZ9stKG0/kTP/ETFfDYVnv3u9+9lJ8c0GXGominV7/61W0NZ/bxj3+8FVDh1FNPraJAxqJTwkARIYxh9XDG1Mi4yBAA3JAc0FU85PTTicZ85513bhwduaqftv+eWw7ZinR5bqluu5+234ffAeOA+eyVoQEt82gm3wBEY7dv0ons26HVMy3Hnigzn2wtB5p4nlpbQz20ykVnfGY2ecbN7+THbXsI1LZM5334zLbK2kxqLXvc+iTnQ7S58DuF5nOrfHieGsOpIdUV7zZ5L15r5ATYlay03FIpolmwxND0C347/Em9NuMmKzAWYFcZSFOOvdUi7hQaR10InB+DghDaCDGQsZprSQmw34eiMABrxh+QKrd3GbsJt8gSsZGrIofkNIT3EYDwXbQJvmfsQ+J5FihB5fwGrCIb+G2sucoWr4dyRXBdsXBoElGFFjJjE0dDis0N2YB1LTz5sWbxOJuK33d5EUATBU7fJL01EY5kfgg3mDYZP7DNBmnMDECfQ7jRtMnYyQ1jipyLtDLuoejzVeOnJznG9P5Qr51fRgPjhFHICBzCaeEqftf/znkAiLcR/egmQiBWW+11r3vd0letSiH05Q996ENtDWe2ajzrdCSdaUwppqGNQSuFZZtaYOvwqa1nE73iUMK+OoYLIEK7w0J7Kx1vnTqYGMNBUK55Z88Ak0WFiIYbqpNfypr9yOEhP4SOZ0+yC/wMWc8bNxsYr40/KVHs90Q0D8lfqvMcv43dp30VPTnkt26HaJMZIzsmNw7GB/H/ZCXBCUOT+1zoxMc2dnrG2P343d/xm11G7wxp/HgLVPFp7H5P+lwdcAHmDmXs4Tke+93Y/Q5gJPOhy3pNNhBbfgjjNzZy4dN4M/bq32efffbKCCyLJGFsWfgEzP8nBDnXSufaTgtoKMULEW2xlC3jxwxjN6nG63Qy4ElbRkwb7yFk88ZvYi0iLVflDvEExBiDDhsrHkcB+wzAI9KnDaemDZ7X31HOgcWdHPak+wF8hgxUZfyp8xTZIfPGPcRNum5okBXjpXeijBOy3MWct/3OzAGZARoa+9BOQ5bRXI6f/rfBDdUwnUdH9D05Mu5d1kLYVLZi7HVdX2DT8a36nogDY29LzwOULr744lXdNvq7cX3xi19c+iy5qdtD9S/85E/+5NF9uVHHCx6i6z796U9v84pjvmv94vvQDybmEZwUmxzKtSU/rTF3xYvoewAQOtiabUQf9jV2tg7HnlMWW3/o9kJ4w1YQJZS9li9gDsYw/twYxlbL+LMHj2H8bASAFn7Xxx+7sy8ZXrcfYw8olwNRfkvpBwx1DshLgKH4hnS+vau8YGSI4ycrkZvMGf4n7azkP3qGFsFl7PQl/of3PmPnz/Pl15XNrp439gBGiZbD+9jK8bvK/u1ju8J6jvzgD/7g45iNqRarFsMg9YOyeBFB4IcmMMaeUws0lLe1hQaAmnEPcfx4HhoIkJOj+hwkugE4NdSTmMxBZCk0BNQMDUNAdRcpgMwDY5MCQkNkiAKyCQzd+Leec7VrgFmAWyIJh1r8tD4nIpOcQtrQciVt0hm7UuBtvhfvU1sk+eocAGmNY2oilciTdczBH9v48RrIQT8ByMeWihRZSeHXodXEWEeWFY6+7777WgOv9C2a6+d//ufXGcbCZ//oj/5o9rnPfW7pu5pEYL3lLW+poj+2bfbMt73tbdu+5pjvq5dmDx4TcF4SwEbK5RtjpIGDYG+jj0QhDt2eqAuf8UsZN35NpMQQHeFFi4b82M+M3x6dWixKaYyhcSKTHpSaT3wC+zInf+hRcomgEKUVZxnfczGU9TBkcJp9zSZ1EJPgjtSw4synrMxQAWryY9yJkrMG/KR4u3HzEZLJMLQ1gdfGy0cL4BIajBUdaBC1GMxiaDQYN18zaXNl7aiMNRkw1vSQ9Cv+BjMy/kTNJToqc0APhQZrugsajjz1qU99PFX5h7iRBkgATCXiK5E8UXLlRA+RBhMqBD7htT5ToC03tSXdzPiHHBVA6Rm707iEIqIPHQEHE4Y4NKVRjsfmk0iGbD5oiCwxjIcKFIaObKJZG4wBNOS0Ygg3hDSRAfJEriJbQf4ZZAqAjyXChxyRK2vD70C33CLShA9DeYYcSRuxwZIxefNjjPZJeqn1IcVxjM4umRA9AAhFwxBuKdpUTjnt1nLbxUbVv/qpn/qpTYd1zPeGBmDR5cCwtpt0PLUYuzAq2x7rovcpO0BXqXc0dKd9Hg10qxqZIoIczACCdnWSvemcsQEBonSsOWC/ju2AgAPGPqdnNWvOvj2mPY9vxPawZ5uTOI/sp6ECKXWZsw6A/mhJlGIiFcdCBxrYf7HJ0ZGSKHw8BwdDnw80sMXRkGjLXJSGBj/01ZDpQIP1nFpW8VFzCVlKA9FXQ6QjkU6CWdCS4KLIUwIrUsQ9tyxuqse7+B49lIv4Es2YfnITuU/ylHqo6FinDMmRM888c2UKYRfEeSfiEmpnYgw8qYcWPSewbEM1tlKArEznQ4cfE1KGDA49bDbItvlAT+ggZFlE2eSHXgw2gCEZs1AAa5RVmU46VJmqr7kAuWhCg/koUzLHQge6bPCpMWfcWQeer3QAACAASURBVOdjoiHzE9DNOrdmtDHSkWKPxh4QdOjre9G+BLgydnRYJ2MBQOv02FcAV0M7gdvEHsi+0kX057nnnjs76aSTNhnWE77javBbb7116bvIVdb6ogdf+tKXtpJC6P0iwrqIWqa7upiPViai4Uvs7dYJW0V061gb24pTxelCx5BLESzicZwue2GceFFNY9O/dFVsxkQYxHYcE8AYv4MvlZIFAAm6ZKgH/fNkK3TwD/GfLWx+ktY0RACiTof1nYNZPpU5SQSUZ1MfemjZTXU65qW/WeuJwkEXG3LI8hV/vY4tBI9ISR50BJQf4r6S+mElKBT/NnW6yJx1Yz8JUDQ0WuoyFR8q8+HfmZPUUk+5pFaLuJeMSZiozSBhogGrCLu/2xQguU7GfQ55c4CEEgZM9enfKXyWfHoCz/gYcgSVOSqL/5kTodTmw2bNOE/opRP/MbTk2Aep9okW8uTkZiynN3gdENSi9js5s/mlIOBYwtwjN4yNsjApusyHwp5jM9Ktc7JmThgfaHFboJPzMbYU7kcLg8N6H9uchO+MEnMj3ZH+FZUx5pbiyffff/+YyajGzgaQOuhGsy7aK17xitmZZ57ZyqtFj3zwgx9c+q4mKYS/9Eu/dMzB1TaD+8QnPjHrQg6sf2t/TIXFF/FRFJA9fyw3zi6iw17v5kJ6mD4eui25TK7tj6ecckpFQ1LnxwZmhb6TTz65ki82fvyWIdaaXaVngA32SLYlOlLvF6g1pr3ffp8b+diXHNsAv+bFv8cia+wWwDW70l6Zch/oCPAwhrkhU/YU6cVoCXAScC6ZXgEiV8nqLv9uTkQDxgdLcE3WS2718+8hzw1f2JzkgjrrJnXDEpySeUqpn6Gm75oTP2zjFM/fCMBKDq3P3ICAUYQ2oWIcIqd7qVkz5ElGByWYkzw0hZ6EgnJUTTzHe50Qt10twvJkEj2UisZgDWho0xpLPZvIXMBP9GRuGHoWHSBhTKkEZCynAaFH5Ig0IQ74WDbgyDiZy9oROULWrBeGxRhPxxkTKSbJwKA83fqmbslYG5lLugQD9rHHHhsrKdW46QOpExxYczNWMDGTQOaiq8dyDfwyAaK31Sv6zne+05mcvec976lsj7baL/zCLyytwbIKwCKT11xzTVvDmTVJa9y0sxjqIs/2oZ133nkV8CM9cuztuOOOq/ZQtgCbYEy2TZ339tGzzjqrsj3Z0vaesUb42kOlQ9PTbGj08AnGCGiZJ6AWHW2O+AN+0MM5H5vMoUVqMb1m7PSAeUlK5ZhkLs66emds69yKmGAPYOqY6DE39k57dVLHYASwAvMDIyB3Q5c5B9kAoZSoME/mBlCX6MbQY36GPkfmxT6DJrQYr/kxNwFT0ZN0Xr72UOboyMUXX3xMCmFSxyi23LTDkc5PCjdmg0rI4JCNhXk0JcWEw5DbAtAwBnpKwCDzlNxe81TO0ZjoQUtZHyw0kcOEEI6NHjSlwCA6yB0aMkf+PeRw20XrOsVDfVJyARg9P9Y6PQGwk0KXORorPZk7QG9yzhmpY6cHXWiydjgT+0APmnI70NDTCNbZ6xmrXTp2jK7nPve56wxp5bNS9pYZaOanvMmp/sLjjz9+dtppp63sp+kD+rvhhhuaPr72cyJlcqK89pcH+AU2BDvI55APTpuyzuFqbk2lx8dOE1robyBW6Bq6k7dsrkJPnNbQZJ6GGs3QhJ7YcjkMt6bGSFPmBz0p6s3nSzSK/xuT/Bl7uf+wf+b5TWOiCYiSlnIvkTv/H19wLDSV9GQdlX7g2GiaRw8a4pcHK8o8+ewjAOPID//wDz8uusACULhXxwkpl640hhoJACoOtM+AHaIMgioy0BI18cgjj/TC2KbGybLnQk8+RbUQpNyggiYbpNPToSCiTegOPebKonb64/+cnEgnJXNO7MeirEJz6MotMSJD0MSBkzYnvWEM0Xv1OQxd5krx3xQpl2r64IMPNpnywT6DJnrCaaqTLmtp7JEviYx1gu/E64EHHqgi4cbe6AuAhXQ0cmdN7UNDlxpOTr7HliK8jP/2K+tLhEJX7dJLL5296EUvavX173znO5fWnFoVgfXKV75yJuWorWYffNOb3tTW6+a+R6rXQw89NOgyDusygJ6wntq+NGDdcbT1vLVErujA2267bfRAFr7Yqy6++OLqkz1rrnK43Bbf+n4Pe4k+V6DfjauKwQOhc4jU93ja6u/EE0+sbHX2LDtJVH0iM8YI1PGj+L5+gFzkj/8hkiYBG23xrq/38Hv5HexZQJeIIBGp5iqgwpBL9czjE38DTVL60IcmFwvlpsREBI2JLj4HumAuoYnssWl9oqX86Ut+tukneMuP/MiPVMAWX5cuhyehxby1TddGKYTbELnpd+tFUxlcNj2bREIr5XSO8VrikrYsVCkxNgfKh0Ida6pPaBPNgib59/5Pqo96I10Up91Uxtb9HjpEgJBBisiGQf4AIGNMmQv9mTOKCF02Q3R1UYdlXZ5v+3yiMRmYjDGANiNz7C1zduqpp1bz9Y1vfGOQt6tswme0AU5tkA8//PDeRFzhBYCbXrzxxhs3Yc2gvwNAuPfeezsd4z/9p/90dsYZZ7Tax8033zz7zGc+s/CdqwAsKYjmtc325S9/efbFL36xzVc+4V3Pf/7zZ1/60pc67aPvlzuYveSSS6o0zDE5OKv45LDF+rrppptGd9C3jDb2r+hFBy5s3jECI/PoO+eccyrgEaDK7hV1P3baRNeyN0QDicxiH4qqGztdZNDhH8CEHc9GTKmVsdKWWypzAC1qy3wBV0PTGGkDPNKFwFWAZMqVODQb85yRQb4XmxfABTQG2NGLfod1aGOaM3a8uXKw6Yc+hN2YM8Cd+SqzkZrQNkgAS8SUCUQsoWSEAHIAOqJYtISn9RGmtsqYWOfvkEl0pW4LRZIJJKAmLShlkwlcp++un3VCaL4IJ3DAZkZBMkRSuG/Mp1AnnHBCJYs2ASCV+SKXY52vUh4Ai+o6UJZON6IoQ1vXstPl+603DqVPpwG5rnxsumMejwCo5BItwJ2xnhzOo82GJ+IAMAwIGVOUaRN5ft7znje74447Rg12L6KTE8pA7noPe/e7310ZQm02cvbGN75xYwBLEfhVtxSuO152wrve9a51v7bW89K67AMctn1q5sKBp5PtsUfXlvOCLvYIAJctMubajHW6RKUCSC644ILKxhJFPPaWTBHrjK3FjuS43X777aMmDV2J0udwAxPoZHa/SOmu94AumSdIgiymaLwLFtDKZ6NL+DdjbGjgr/kUCRRggT5BGxt5jLRljZm3XE4GjAxYAmiFIYyNtpIu8mad0SP8GvNnb0MTgHxMtEV3JIMOPsKnAd6Zv9Bmf6MryWaZmXXkr/7Vv3pMDaw+FmOZNuY0UxROwuZswmNLHavzDAhAIeQzIJWTl32ob0LAnvKUp1SbMAFMEct9uM3IXEL1KT0gI+DN/O1LkdsoP7RZe4Aq87YPcpl1SPGpQ0M2FfHcJ6cl8yfqD0C8b84m+gBWUsO+8pWv9LEd9d6HuaND9yHybx7zgAV9OJxSP1772td2Mn/ve9/7FtYmFOG4KNXziiuumJ1//vmtj4lNdPXVV7f+3voLc6NX5x3tqAN65ZZbbhm9jTmPfYADUSO33nrr3kTfhk5yCcwSfXD33XfvSHq66Zbz5uDXBQQK9rM19ylaEG2AH+AIe5NNlgiSbjja31tLXwhNaBv7DcjhHjvM3KXwOj9daZcxZ5eEtpSjEGzBT+crAFqTRjrGUi+l1AeUZCOR0VwOltvfx1h3OfQJcLIfAO86icDK7QmYmELIhJ9QQNEIShSY9LgxtuTlAgIs9NxCAMxxguuH0Ix5IUB5KTCnsubLrRcM91y76f/GvtEGwYbQ51bG8nrRsUd9kE3zh04hmoBidJLNsa69ur4go2TVWiSfNli0jXnt1WkEFotqNHdOx+ibfaIPvVJitNRsGOO+sGzMHJXLLrusiroCPu5j40Db3/uo5XX55ZfPAEZdtN/6rd+a3XXXXXNfvSyF8M1vfnN1sNN2w1OpiX006U5oH/vevohXqTvSB8jax3yVfaT+pgM49LHZ9qmxZ/gUopfYMKIp9uUSD/OUm7WB5OwZYIi6YPsA+KQ+MeeTYw08YMfsyxwC6MinH/6EOZS6Z68fO42J2CKfAlCSJSVKUlQTGh0Uj3UtJhrNfPkdXaKB+BX+TU75T3yLMdpuuXSLbCY6DV3WoDnlV/hB35huvN0IwMIERlqu/CbAuRlF+FqKd+X/x2gIWbAB4tAKyEAXx9gpUG7t8e8xgxyElxAHbUeXzZIgh8YxLth5IAek3VyiBwJt7vyQ032JQFK3SnRcbmtMUcp9mMPMqc0FjUBkdAVU3Sca0ao2EmfLxkmv2ljGqEuXOVAMBDJr/QGu9mUd1mkWdQWE2Jco1Xlz6qTPfPZ1YcDrX//6Cpzvoi1L2VsGYF1zzTXH3Grc5tiuv/762R/+4R+2+cqF73rWs541++Y3v7l3+iYEc1SAIHSOPXLfWoAsNg/Heh/BOkAIG93hnH2RHSACZp8aIISsyujgULNxHJKPOYKinJ/MIdrQSV4Bkw7p9mVdhkZ2qz2Sz8UWYNcBJ8du88ABcjNiAFhy6/8B6DKPxlwbjS5FC/nMXJJhB+foRiM/0lyOtaYzutCSG2/9bi4BlcAv8gr3AFLStV3eLL2O/j5y0kknLU0hRATlghAbYW4yMGnqrYx1wupMQptFh16TlytxgTkU6ZjzuEtazSP6KFKL0mZhM/Q5FKFcR4AXPRtFYz4tQJsEoGpfNsXQDWhNPjQ6zSEa96G+U31undrZRKxNG+I+yWtotVmaT+sUjYDkfdE99fl0Qkl+gQVjN+KW6SxgK1kd6+lkU33sIATQ2pfueclLXlKB2F01UVjzIh/sm/MOreinK6+8sqvhzL71rW8tjApru1M2H1tv36I863wCnluX+xapVNLJBnIQAtzZVzpj73EqOVn7El1eziP7jt3OT0EvwG5fgKySTroHkMUGCjiwL35m6ORvos8Pm9Y82mvU+tmXxpbla5pLn2ima9G5T4fN5DU+NV2LbnKbQJB9mM9ET9I9ubwMXXxNdObmzr5pPXLhhRc+nvzPXHXImfCzDzdlECaGdRSFf3MIGWbos5D2Jd3IIopSZNib14CMaMyc9i1kXfSHNg6wDd2PxqnI1ar7ZqgxzLKpZ50CN/aNTvNoPqUiJXeb4Q0AGHOk46I1YL1yfJ3Okd2kP3axZobwTvWRbIaidPYNTK7zV6RO6mIMgfddjuGss86qCu33BV6hRf0reqKr9m//7b+dWz9PFK+LLurt1a9+dRUZ2lVT2+j3fu/3unr9E97LGKeDc5tTbx333BHHykUY9JHoln1uiXjd1zTtzB1QgG4QoWVeRYHsa6NzUheG/cBe2kdbSUolO8mPfYbtqyTNvoGV6EzQCJ+Ov5rb9fYJsCSz5jJBMvSweTWf+wTOJh2RTrKfmlMtwA+7f+zlhtCTKEp0+vFvc6qZV/hDImTbkuONUgiHthEk57hcCAGqLH6nwgGq9iGaIaANUIMz6EQ4oJzFT7HvQ6G9yFlOnRgjaEUzEMe8Ajb2DcSx+Cm9hKia21x0sE8nF5nfGCXotW6zge3bvIZepxgcCXRT5BzEfTthLPcIAB16nRpLZekT5NjFXkVfqVfGadr3qCv85UAxwvp2JN7ylrd0CmABqX71V3/1CSK0KIVQ4XdGW1ftj/7oj2af+9znunr93Peee+651WUDKRHRa+c9d5bboVNjsOfue+1O6q1DTmuWnhr7xUnLmOfgD71AHfstevfBD5hHM/DDfpvsCnrZHrRv65cPkMM/9jKbgk8ArGRP7ZuNQTdZr0k/DNDDRibT+xLBzv5nP6U2ExlP1hcaUxJlH/RVQErzCugpwR66CsCVw6O+bau2NyPzSnYFnWh+L+fWfKaOeMr6NBnDaAAsQk1RpUge5y+5qSaakvazT2lFAJsIuU8OICEPaOO0cN82YsYGupNTjV4KOtdoNhHqMT2T1FU0k2kbc4oiOiXdx1YCkgmftnadpu1rI9e51II8O4lo6xRiqDxjSItWsXb3VZbrvFfrip5++OGHhzotrY7LvsTY3EWEw8/93M9VV7Z32dS0qtfVmQdgud3uRS96UZdDmX3sYx/biVyddNJJ1e1M++YEz5ssNqUb0+xH86LsOp3gHbzc+nVjb5zDMV3Bvgm72Fii7ey9ftgc+1AgfREvUgw+B4MAj6T9bMK/oX9H1F2icgPs+Ezd4qGPf53x5ZA7ZWGSSUSeHYj63CcgD73JpiLPAXlyqdg+yTX6zKvUb9lGSemnp0vwMjWr15GbIT7L3ze//GD+IXrNb4A7AFdwHoBmdPaRv/bX/trSGlh9E+vkgAMQtC6gFeEUfbJvIFX4i2ZRCkHZ0W1zpYgUh9vHlkL5TvAzz4xGNQz2ufZGwtvNNUUlXBbN+9wAdYqSi7JiRKF3n6OOzGXkm4MAxHGyv29F2OfJbIxIa7mP2+iGsG7sW9LoAFf7dIiyjLfk++yzz65qM+2iPf/5z59deOGFnXb9qU99avbII48c0wdgtg62iwbLqWJXA3rnO9/Z1atXvndZ4fqVXx7hA7lF7Nvf/vYIR7/ZkOltETx02D5EOKzigvWqkD8nSaQDvb1PDn+d/tw+pug9f4NscwT32dZGJ5lO5IdD/1xQtUo+xvp3IEDSStmbaOY/W9P7mFpayjXQhzzzmfepPFBdFs1xbrkE+DhcctAmoIWvsY9rOnKdgvp09ZGnP/3pvQFYBI3zHkQR4ubfubXQQtvHBUb4kg+adEcOPTQVILfPjnxuqMiVpObepumkb98jUIIkAyYpFnO97/VEyDqjIXWsrG1XQe+zYZjNhX6j04R7k/F9r6dSbqrmm6GYSNixGn/rjpsTpBC02wX3de+axxOyzvnbpYPPgHvxi1+87pSt9bx5/cIXvnDMd+xl9aiNV73qVVXaTleNbH30ox/t6vUr35vyDPtUmmAl0bNZdSJsXvfxBthF9IsC5wCzWRxCHAKYhRdsc3Szy4FZ+1iuYd6ci5K2vlN+hF2+7/ZaouHZLfHDctFTE70w1mfYpqkHHbrNuzW+b9k8mSOyTY+jm92S9Y3e0D7W+Vw2bjKezDXP5fIrn3iwD3q99RTC1GTy6UcInI3BwtE4dRgnJH3fWp12efcWjvQhhsA+p9IApgAXjD0/om2c6KXGD0dgH1HhyDAZRzcn3nxzrgA3jz322N47tsnfNt9k3pxzbPcZmM28o53cq3kEqHzooYcOJuoIDxgFp556anXCV49U2Tf9XqcHWAm8OpR0wZL+oUTkvOY1r6lSoLpqAJurr776mNfPo/0DH/hAZRx30Zyi33777bNPf/rTXby+8Tvt6YcGUGMOG45+f/DBBw8ijTICwaY7//zzq/3Mj1P+fXVyy0VgT2fHnXbaabP777//aN2dxgtlxA/az8i6uRYxbr2z2/cd0JIZQK9z+kXXiuABYuLDPkfN81XMN/qBOfxUdnvqEO3rvKPXOlfywZyba2Uu0G7OYRSpqzbi5fyEoTt8Q7u9PHSjmZ3jE81Z72PQ9RsBWAy1/BACC8BmRwFwZETXAGvqtSP2RRAAVejFA6cXws0BdLkFj/Lb50ibkn4bHuCCIrThJVx1X+Z6Hh3oT44ywOa4446bPfroo9XNaodwahdw2txb82im/A8lXSz0q79jQwDWHUKx7qwFQC3apSJ89atf3ZsCok11FvpPPvnkyrnZZ+N2ET/oem0ot0iKflK3qKv2ute9biWA9aEPfaiT7hmR11133eymm27q5P3rvhRYDcg5RLmn85xc73MR8EXywMa330sX3ofbydeRewdTF1988eyee+6pHHx2/hicu3VoXPQs/8YBAX/HARXfbh8d+3n0C76wr9B1aOfTmvdDoJ/MuzHaASVgQ8DJodCPdvqOnQPMsuZzERxZIAP7uv+hXY1AtNNz/Bp+beYe3eFBG/pl23c0ArAgdZwVJ84WNWfVJgawOIQoC0xmvDiVAdYwYABU+xhFtkigoLbCqyHW6hc5pTD/h9ROP/30o7eLod/CPqTmRFLaELpFGu17Cmh9bgNcALAO7TQ+vFDzyOkU8OZQjPhSDqS8A23J/yE20YZnnHFGFRE0pPYv/+W/rHRTF22XANbnP//52de+9rUuyNr4nfbBe++9d+Pvj/2Ll19++ezWW2/du9uPm8yLaLTLLrus0v+i6g+t8YXQL+qWHTT228HWnT8+kPWvfeMb39jrAvh13gDxBCqgny3oRuV9r11b8oDdi36HGA7wgRr0wD5n1pT0k30+cErC+Jt9cJ+DVer0w4HQbx9wgGn+A2qvq0vaeP7I3/gbf6OqgSWSgHJWoFREUSJJpEBxWIK67WtIYZgp9ctNByYoReNFlqA76HsbjB/yO+o8EGES5DV8GPL42xhbyQMo9He+851KBg6FfjzEAz8pDFiugzZ4PIZ30ItO4cx7ZOCQah1lbwAO2AcOISV2nlwCrpzKkYFDuI1t0dp0kDO0lEmGtf0JiJXosLZ0C+PsIx/5yDGvY8TXb2t761vf2noK4Ze//OXKSQQaDqk5yMTnQzvAyRxwZNnJ5uVQblety5/MCyf1bKNDcuLDBwAGH4Ez7yD70HgAwCADfCXpSFKQADqH0tBv36EHRamRhUPiQTKw8ABeIAuFPjwUHqRcAD1gP7AOBPdYE3hAH+x7VgYehH7rQJALkI8tBtxKSmaXOuHIySef/LiO9h2YKpkoigjDMVu6n4KseHAot0eFFyIJCB1jTFSZBQek2NfwyEULyQacWm3qVuHFofEAb6DrNiLrgKN+COmQ82TCKYuwebJwKDcHzuMDB4WOvOWWWw5yPYQnTlydNh6ak1KXCUDuEOucxZBiTL30pS+tgMa22te//vXZl770pWNeJwq7Xh7hXe96V2W8ttUUjhflhrYhAqaHDmJlnkUl2yMOda/EhwA5AIxDycior3POOyc2NRH33Xmdp+c48g48HXaJynHwPZQ087b0cpP3qIfLfgRsWQ+HyAc84FvytZOGyHY4JHmwHkQrsRcEByUlj499KHxIbezUWmM3WBP0IxtqWz40SiFssmiH9gxjMuFuKvFzQBgZnHOAlWiCIRqGXfDRiXFSAIU8+7GIpIAdEh/w1kKiVJ0aOEXHB/yITHTB/6G+E4AJrLEm8IJSIROHCN5xehlfgGwnKIcGZpcyesEFF1S1XkRbHVqaaMkH4B25uPvuuw8qVWKevmKE2SvqkUe71m30eW4FFCkK8Hn5y1/eWjqh4uz1SKN5Rdxf9rKXzaybNtr1119/FLzKzaYOVYbW1H881CiszAUDnZ7grKqRdKgNH6xFhx5Sauwdh9j4HRz2RKUA9ZSbOLSGD/wufLA22JSHVivUmnCoEj7QE2SDPIjaOxT/k+xHHoDdQAyf+MP/AmSwN/e95bIrYDceiF5jV7klEagjmIbvse82d8kH68OagFHIctDgNAmoWSUTowewnHhggtMPShLyn5sEAtbsw3WRqybS3wkAPlCUeIL+gHb4cminhJRk+EEpcL7Ch0PaPCI7Is2slwBWeEImDhGwylXhTkZyA8ehnh6TD3JBbyQl5FB05iK9etZZZ1WG5qFHXQX0t05EJA6tvfjFL56dc845s0996lNHi2vTZ8CVF73oRUdvP95k3Aqnf/azn33CVxfdwHjNNddUNy5v2pxQ/8f/+B8rsDQXpTznOc+ZPfvZz569//3vr4rJDqnlMgd1MA69AVHpUAel254qj52X7C57CScNgHNoKffl/InAAOI4HOOUueToEBun1R6CF4BOdrgo/0MALurzzWG3NgBbeEHX0xlk4//+3/97MOJh/wDe+Cl5wg63Vvgph1Jnld2ADwG38MPv/NT4a4fgv1sL6A79MA3rxP/hEV5YJ3hBh4wCwCLokEobo0k2cBMbMILBmisgD2X1i5zRbIycTbwwuQElDs1oIBeMBUgupccJwA8bwqECE2RE5J3GUADgAWsOtVGG9AjjgQLM9bGHyg8nYJwuMmJTAF4dmt6ozz3A24mxIv2HUpx0mfxzzIFBnI0htne/+92VU0Rub7jhhtmdd955tFYhu0Da4wte8IJqn1y3qWs17zR0EYAlDf1Nb3rTut3M7rjjjmrcimLnhlORV1deeeUMkKq5/e2Tn/zk2u/u+gvGC2AbWqH5rule9H77Cx3ikodD1x8cDjaI9Ql83ddbyZvKGvvUXsuPYYs5IDlEAAe/7CtATnY7BxUfRL8fEoATuaFD8cE64bj7nf9ivbBTD6m8D56w060T+iORW3xcsmHdHFJ2hHWCH1kn4QmZsL84YD00fgDC8QGoNSgAiyKj3KHSKQ5GcJM7ajFb2IfULGCgDOWWYq544qRPO8TwZMZ9Iqs44eTDBkjB4cuhKfysh/DEhph0Hyc7hxxNQ59wLBORCMA79BNyeoRjrwnhPkQdMm8PcW10TkIPaY9ZRiueSP0Yog4BRL/nPe85ZvjqRrm5r7zq3IEGo+eSSy6p0vyaFEUX0XXbbbfNZc0iAMtepJB8kxpcTpiBPo8++uj3ThKPHKl+7G32+3/xL/5FNeY0ds9VV101SLGkY9luhw5QlJMjlc6cDTH1cxdCxDZRazXpIbsYw5D65KDzc6wbDqj0oUO70bCcDw46GfHJfrV22CaHEHUyTy6BFvYB/GC7xqZPmtmQZLmPsQAsgg/gSYrIJ8uI73dI6ydpeHQqWUkdULZOMs8c0O97OuKRM844o7qFsK9mIVLeCQuLMwlZPZRwwUW8dkJDGAmnBYk3hx4RgVcJRxd1B6g65CiiUnbwhRFETgB3h5gKOG8t0S8A39S960u3Db0f8sJ5P9Q0hkXzgy82+kMygJrIKoeCwTzU5gaws88++wnDU4NH6p86I2mxMvyOEwAAIABJREFULYAtl1122ezcc89dmO4HiPn1X//1oyBvvQPvAjbNayJNXv/611cRBvOagt9f/epXjymGn3f5FC126aWXPuGrdPtv/dZvDXUqqnFxLKY1dOwUWUOc8EONtJknsHwAh0p0yyGWcli0iNn+9iL23CFFVSxTauwV0bNAnEOplbRKyaduENuff8h3nvTL9/YfoF9qYvITDzGir5SfpCY67IMrkBP6ZV/kpbMIrOQxJpcRYIWBjD8n/odQrGyRIsILm1UK2gVht6GnQv8qJbavf6eULToLjkLyu42LU3Jo0Xf1OQ4wQ27Cl0O9xrvkTQrIJlKRrHAUp/Y9DkiJk9pC707y8n2p4EgBQRiAU62rY1eLwxR7+JCjan7qp35qLoCFEnaG2zMVRBeNFQArn/YX0WUu9LA+7MmABlFRd9111+xnf/ZnZ5/4xCfmOtiLIrAuvPDCan2JVnve855XFbROer+i1tJSRbNpJWjl3xzXn/u5n6tsgkXtne9856DT4S+//PLZf/pP/2k6SKlN4IknnlgBEpOO+T5j2LyigK0D+nfIeqZPO4K/RB/l5ja8OdQSGHVHXGQru9dhk/XkgPLQAVBRurlB3T5nD8MT/vUh+0v2d+vIZzJ0gDaRnUNM745fnUhH8oIfKclEXnKhWZ86b5u+tgKwhK1RtDYhn5DPFGNLpIzT/kMUFpMCsEv+KsM0oFWKRh+6QUNeIjMcJjxygg0hnqKsvnc9dUKrk6IxxELK2yigTb/LALY5qc9D55CbiTff5yZ5wRuRaA8//PBkBNcEzSYOiLj11ls3FcG9/Z59C2+GWvcqjAf4AAdWtY9//OPVrWglkLXqO+9617tmn/vc56raU/W2CMCSzsip+vCHP7zq9UcBLKD7xRdfPHvWs5618jsf+9jHqrU85AYQVv/pUNP4F80NR/O4446rUkan6JpjuYQ3xx9/fHXo5PDp0DMxSu4A2KUJsW/UqJzArO9xh12DN+zA+g3zQ9aPfYwNb+xR/E2+lCgkwBZw4pAzehzIOShymAu7ANgAcKwpPAL8HaruITP0cG51xgsygy/wmwBdfcjvOn00ArAoiVSBT5grggFXFKtFccjOIz4k9Q+vIOKAB41yVQfhUEG8CGOKrgEbbMjAmdSsOvSruPGIDJEZgB754dg4zWfUDbH+zDpKpq1n6SD8sTkDaMjNoYPAdd6SIfzRRHxM7VgO0M8KYztYmVIp50uHotxu4Bt6awpgocOByGc+85nKTlllxL/kJS+ZnXfeeRX5b37zm5+wd88DsDjgr3nNa6rvSD9sEun4spe9rIoAbHpz4RgALPTbv6a1NX/1ALE4B6LtV8nh0Ndf2+PjU0Q329sPOYJkHm8dSAFtgPHALEECkwx9H9Cil/kXamclre7QI7Rwh80sDVNEkpbbDsnPlPI9q4AbsuOTvADRcyEaHXTI/hdcA6hlT7e2yIv1xXdPZBv+7Ar4OwpgcaBzA06uPBUVQ+ihb9JPGH+HrhDwBp84QpQCoccnIJWJtbEcegt/8OqpT31qxScoN/5MgMP3pSP5yQwT68wtVEkxOXQZCv1kCHDF0dPwaCo6fqx00N2M/4suuqjizyOPPDKJT40DTtyssac97Wmzb3zjGxN/FnDg5JNPrhykMezz6wBYIdf+rEC7g4F5UUKAcal65EX7jd/4jSpqpmzzAKyf//mfP1q8Hf/+/b//93MPrVKI9g1veMPaMjgWAMsac3o7RVHPn2J7mtpt9957797UIllbmFd8wX7PQQJkcbSn+p7HMoxNDczid4iy4WhPUY/f5xE9K4Vb2Q320MSjY+XH/oY/9jJgDd+evs6labsCJNrWI9u8j1/mlm7ADd4A/vix9JK1dsjrLWVbnvGMZ1QAF3uRHPHxrTW8IUtd86gq4s6RFhXDuBMxNPQw9W2Ecp3v5qYDE8T5IdCpxzTdLvN9ToZPQjNT9yNy1LUArzOfu342fOIkMj6k6DzwwAO7Htbg+scnob5qZED8GfqHHsE4b5IAxer42GRvuOGGwc3jUAaETyJqyNF04rh4VtgADLQxgFeoAGDlNs11ZY2x5bDguuuuO+occ3re9ra3HfOqP/iDP5h94QtfOOb/ADT1Gnu/8iu/ckzhdkbctddeWxlx9Bkb4oUvfOGM7t+0/bt/9+9GY5udfvrp1f62L8ViN52zZd9jL9nn7rvvvi5evxfvFFF8/vnnz+65556Dvz140YQCaU477bRKz0iJt+YmAOJYbvFx1SjEIynOomyAohOfvs8nh6AiROkl+xccwD45+XDf55HMGPwRtMKudFGMaFr+ySRP3+MTOwqfgKPKvLAp2QK5qK9NeTpy+eWXV7cQTgt5VkV6YLhGGOvRVBOPvr+QCWlue6g7hROfjt08KTutPJGeePREcwyf8CU3k056abEPgleRp0mWFvNJqnJqzkx8WsynFBUfE4/cJCgSYdsWmufdLGhvc2tg2UQX1YutX3HFFXNvJmRHeO+iWwvXGbvIwVI3rvPdvp9FLxvh0G+BWsV3fCJ/HOspymi5fhK5xj53ODq1J3Kg1DFArSlFbDmPrLvY5pNMHcurUpZKPvl9iqz9Hq/qezreANyl3WmTTC3mk8w1AKAmw2/TdPFGNbD2cbNwowXlxQCGoFqUwpWFBzIkJmPi+7NuM4Q645kwSmhqQpbbRFP3Qc6klios7JSePEk/gc6vU0B4H/jQlAYRCaIbRTSKapgirRZzTh66EzJ8UntwWnvLpcyptFPEQ65h0GQdMiQUEr/xxhubPD6YZzZJIdxk8K973euO+dq8FMIPfehDm7x6re+MJYUwRJErKQZTSvPqaXaphOj1MdSeW01Nd0+QKRHHfm6++ebuOhr5mwGiuYyDzYBXUwH4J04qPpEp0UcybPiE/Jspw2Y+r/g3eESv45uSFdLGxhK13ceyJlP4JOpP5DW/WRqiaC28moCt781C1p5PwB+c4SlPeUr1u4M663AVr/YewBKiLZxNLSZIn9NTBVZTAHFybo5d0qLQGOh+pEsC9ggTYG9TlLQPpbGrPqDtNj4LD6igxhcQZuLV4hlhqFuTwFAKfeLVcunFLwaWoux02NSWc4BxFb01HUSslhaRTHfcccfqBwf2RF8A1vvf//5jajfWASwHFsbSdRsbgIUf9kZRbNIHpracAxxCtZ/YW5MDvZxXHEQRfieddFJVv4cdMbX5HEg0pBRxe+Ptt98+mkjOvueUMy2zJLc4AyDuvPPOiV9zJoK+AtJYi+xTPjbQ1Hqsp9j3PY9D7I9chVcCQkQhiVDmM7JXp/IW35s1+ioAYHnbvDUJvyFb9kig6V4BWCIUnGRBO502IBLBQKrJ8Zu/pNViEoVGGPBIbjhAYQr9X6wC8YxhTulQPng38Wv5lnHmmWdWiDv5wreJX8v5RYm7Dc4phBS4iV+rTRKbHYfGqeDEr9X88oToR6nyYzSeXvrSl1Z1TbpuH/zgB48BFOoA1qtf/eoqeqbrVo8E67q/tt7vcIdNQfdPbTUHpMk5tRc9Oh3urOYX55lN5vD1rrvumqK4V7AMKINn7H7OoCiH6SB/MfgHaMjBPj7JrGDDThHwT+QZG5//DWzw6aDagT6bjE8+HSgeyzOAn4gjtquyBPALspbC+tOlcPP5hW8AwVECWCY6aW0iqWzywBdG+Db5lKu3yvE+QbEAXRhHJp5SoYQBfJy9SRnPn1uKRbh6buMMz6Zw7OVrgZFE3jQ8CzA63hXUz8g5LjZ/RqUItTHVJOqHQ0/sJcBVeLarcYytX06MvVRE8hhbXwDWxz/+8WMu26gDWL/wC79QnT533cYKYOGLVHERpFNrxgE6jUyxy6ZohmY849Sw0/gGE/jXjGfSwfgEMlUcxKY8SLNvH95TIo7wy4/9k1/lVuzpdvXFsoBneAWY4RcAtvjp9Br/c2rHcsDhNZ6xzfCMv45vsqAAWwDUqdTK93g2aADL5Al7hYDbnGzmAaiAVhzjycGbv/xtTDlpcWoApAK6APmmm4EWq0xyBrBiBOEbhYFvU+HC1dsMnnHuGEL45Wc6QV7NN4CVkGIbFUNoOnVZzbM8AfCzT6gvMNVhaM43p34iY9zEN9Z2+eWXzxRP77oNAcBi+7zhDW/omtTO3k+32RumG67XYzHb1zp97LHHJrutIeuAf7IxOMrsXSlNU1vNAWuUHWJvECkjjXWMkbmrKW3vCf5CAiqSTieddUppXc5jssZHJWvsX/LGL3VoO8ncfN6xc/ErEYF+B6DiG78hlxW1J93Df9NgACxAVcIOTQq0EYAAPODQTc7JYmHKKYpTgfAOsu1nihRarUgpBCdQGjlTr2MCrJopL2Ho1i4g2TodazRHM2rbfcp65dQB5cnctFab85dzojgtI3viW3O+5Um1du6///71vzigb1x00UWzl7zkJZ2PaAKw2mFx6spMINZ6/FRrhq5j240ZcF6P6naedogLzOIgi/iYnONmfOUcA7NyoxoQcCrDspp31ip7mNwBt8hdeDcFWyzmH9CZzEk59Jkb/kTVs+8m2VvMO/ySemit2iPCO7oOkLrPvDty+umnP756Wbb3hFBC6Cs0Mel/5cLeZ2a3wUVOL0GF9qvxNfFuPa5a3JQkGSz5N8ldcz4C+4DLqZsw8a457zzJoLYpW7sT79bjnaeliUxGzfp8yzcY2NIext7c9HrZZZd1TsZXvvKV6mR4UbvkkkuqmkVdNgd6v/3bv91lF728G4jF9rP3Tm09DnBO/LD9pn1jfd6lOLeo8EOMVliPY99/ms3MSeYQs11kc0xR4s24Gd55OhE0/F7yN9UdW81D+4VG3/E7rGHrV3DGFNSynH/hHT4BVkUKpnwQ+3kfsmM6i8CyWBNR5Xcn5j4JnsXrxrapLedAKvAD/fxA9C1k/JtyrptJD5kD+omy8unfUGl5xFNrxgFGM4Sf40sBup1y4l8z3uUp8mcDEbEmHWSK8FuPf562h6irJspvckDW559vWMeM6n1IcXjmM585e9WrXrUZI9b41jXXXFPpvLR6Dawrr7xy9pznPGeNN67/KGPzqquuWv+LA/yGgttSfqe2GQdOOeWUyvl99NFHp6LIG7DQraFAQFHP1vVU/3U9JrrJkD/Cl/vud79b+SQA9qmt5gAgMGVxyF0uUBFpNLXVHOB/CEAAZrFjyCD5cyCyD4DMag5s9wT/V8YWGYQv2EcCBpJFPBxTpGArABZgIFe1BiUVOplb2qaCY82EjoPmh4CJsoKaKn7tBoepNeNAQD88BBgAXzhrE+DXjH95ivyRRfXA/P7AAw9MBRfXY2H1NBnk8Dq1BPpNp24bMHE2q4Arcjil0GzGP99i/OGjQr370NTce8c73tE5KW9961uPiXipA1hqFHVdn8qp/b/+1/+6c1r76IBdc955582++c1v9tHd3vZxzjnnVEDgFM222RQ7YHdrLfsQgDClF67PR7qQHiaDojpy6/v6bzrMbwAUADJShFMDKkEKh8mR9akGpuIfHEK0EZ85l5NNoFYzfuKhiHY85KPgIZ8FdkMvDhXDWQvAYng4ubDoAFUpXie3HJo8AS3NhMVTkHgRVXKlU4OJgys6YzoRas5HgBV5tIkKb/ZvcliemDd/22E/mdsuKDKbKVmkxKa2HgfoSQAqx5ZhN+nF9fhXPg20OuOMM6rr0aeQ8c35SCZFLO3bTXDXXnttddDTVWPIvfe97z3m9XUAyx8/+MEPHq090cVYHnnkkdlHP/rRLl69k3fap0877bRqXU9tcw4ApO3bgKzJbtycj2RRw8cpPXMzPvJljj/++CqCg77i+E6RWevx0oG7dHTrWoSg1PWAgoJCptaMA7AJfHQIn5rG5HGSyWb8C0bBr1ayA9gPoFZ6IvII6Nr1+l4IYAEFGIbAFeFmCvpB4QAD0+0UzYXAk4CqFKmDFEvjsFFKo5wKEK/HSwoePzm2gBYKyunZVBh2PT7maescH4Et+HjPPfds9qLpW9UaB+wDCu68884pYm0LmRDRe/rpp1enQfsGumzBlo2/Ku0IIL1vJ5Kvf/3rK2O/q3bvvffOfvM3f3MlgPVrv/Zr1b7UVbv77rtn/+E//IeuXr+T99rL7eMTYLA9+88///wqsnKKxtqOl8Bpvo517xBvAg024yfHV6omm4jumoCDzfjoWw7w+OCySEQLOlQGHEyyuR5PI5OijJShEHiDh3CNCfxvzkt8VAoFYG19C7yRbYePfYNaR/7SX/pLj3MWRFbJbeaAmWDGrvzmfSj22nxqtn8SL/0wzk4++eTZU5/61AqoslggwVNbjwPhpTBb8gmwIpt+prYZBwDTHFrAleigsd9GthkX2vsWJW6tOwm/7bbb2nvxgb7Jac+P//iPz37v937vQDnQLtlOIkUS7eNhyU//9E/PzjrrrHYZVrzti1/84uzLX/7ySgDrPe95T2U3ddU+/OEP7+WeJ4XLLV3AgqltxwG2EdDA4cnk3G7HS3u6yxkcnrDbJ35ux08pwxzem2++uQKzJn5uxk+ZO8p6yDbBR2tdxNsEwKzPz2RKsN3563xKeMcEaK3PS9+Ijy5iC+bBtxQUQT6t9y5qax256KKLHmfcighKB110tBlLxvEtJ68MByi5iTJpQAF8nHi52RyKVHMSxpBw8sDInfi5GS/zLWHyThitdYbZJJvb8VN06oUXXji7/fbbqxOIiZ/b8dO3L7jggiqKYKp1tT0vvYHT4BBgXy8NuOKKK2aXX355O8ya85a3v/3tT7gwYF4K4Qtf+MLZc5/73M7G8brXva6zd+/6xS94wQtmX/jCF3Y9jL3o31oXASyqbbpoZfspzWGfg/2vfe1rE1CwJUsBBaeeemoV8X/rrbdOh/pb8NNa53uSTXaoPf7GG2+cZHQDnibwxFcFSkiFpUPvu+++SUa34KcMH9FaeApkdRgA3GormGetGlgb0LGXXxG5AgE3OUmpFNJpgqaThc2mHHrL8KKQASxCZfFzOlnYjJ/51tlnn13dGANQdcvEVER8O3769gknnFBFApJT+eDTmt+ep4AWkTQMsF3n1W9PzXDeIP1AOsy+gqsiSX/mZ36mE4Y72PvlX/7lJ/BuHoBlAO9///urA5e2m5P2X/zFX2z7tYN5H6dWJJaLQqbWDgfsT4CCqVB+O/wko4ACjq0yC9MtuNvxFWDAf5Kh4qDa2p9u4tuOp2RUJpXDf3zlmyqtsm9lA7bjUvNvp1yNzAprX6kCvFTfbV8PBJtzZ/0n8dOBgE+H/2RUrWApscpSAbXWvUjjyPOe97zH1x/K4X0D4ylcP0CA/BweJ9qlGGDlh1BTDpPz2g5/bWR+FL6eil+3w1NvUbNFm1Je2uPpVAunPV6Wb2J4CYffZ4AVYNRV5BPjX+p/vYkQBLjW23Oe85yj+qHNGXUSfNNNN7X5ysG9y16VQ8DBDW6kA5r0avsTxw+Q4j7ZVe3xFpgFcI1dNfkA7fCWTmUDkNV9twPa4djqt/BV8VSLv7qvh4OrudHOE2w4skq3Clghr011wBSBVcyBFECGqZA30SqigCCCUQDtTNdhvkXhemHDhNVJCwQbbycgYHt5cOIiL140kOKEat00VQDb977fb2CsnnnmmVVKG3mdCg63N9/0Lf66aWeo1/S2R22/byKzh3L62lUh93e84x1zL2JYFIHVVRrhPhZwn7calGFQLmCKbmlXV4jAFt0u1X1yttrjLdBFJobsAVFZk23QDm8FCYjKwldOLd5O9sH2vFU/i8zSBwpx4yneTjphO96yYQEw+CqiiPzmBslJJ2zG20Ro4i2+qi9KfgFc/AX8Jb8HC2BhhrBABcc4powmP8AqQMDUtuOAcEtCZzEDqYBW+DpFA23H13w7oddkV60LoNW0EbXDW29R2BHYqqijUOyptcsB/MVbaVpTa5cDwrMZAIdyI9mVV145E/3UZsO7X/qlX5qbwr4IwNJ/F7cRvu1tb6vC7A+huXAgV3UfAr190UgfOORyQKuuy9Ta4wCQxaG3Q1o3QR7KWm2Pg4vfJOLFQRfABUgg1XBKidue87m4jQ8sogjwAmyRHjeVGdmOv/RBwMInPelJlR/M7+Wn8YEnP21z/sITgLAyYfD4IAAsodSAKooQgmeBWqx+2iomtvmU7Mc3OU14TMAsVo4pcGXdnNb94EY3VDjtI8PkV3TgJLvt8tkmzgi1wcjJnmS3Xf56G0PfiYobSiZDqX3+5kKRQ3JSgaGvfOUrW2Xm7/zO78xuueWWue9cBmABm0QOtNXspW95y1vaet0o3qOu2VQPq5up4qyq49RmId1uRjq+t/IzgISiBtgQorYnZ7W9eXSgGP7a59waN4GF7fEXKCDyDTDAj3MoLtplAgy35zHe8i/oX7ILjGX/Ohyf6mltzt+9A7AIB0GBehIWSDNBISRO9qYNZXNhKb8JWWaoJ3edsvvud787Kbt22Hv0LSKtOPzq2AAF8Xhq7XKAHANfRV0ABae01nb5622M+h/7sR87egtJ+z1Mb7T3uWDg0Jx/xuGv/MqvtCoAV1999ULDchmA9ZKXvGR20UUXtTYWKeHXXntta+8bw4vYbg4SOKhT64YDAQJcRDKVG2ifx0AAeoL/IS1WSZKptccBUS5s4yoK48iR6pZyB477XO+xPe41e5OgBBFawBY8lqHEh54Odpvxb9VT+Gqf40vjL2wCb/l4U+rhKu597++jB7CElhIAYJUfEVbAKilrE3LcTAiaPIXPFJoNg6Pk5MNCm9Itm3Cv+TOcMWAKh98mrYjwoaQCNefS9k86LQWokGf8na4c356n897g1FTkoM360UcfnQ4QumFz9VY3uT300EMd9jDcV7/qVa+q6vy01d74xjcudOyXAVj2SbWz2mrXXXdddTPnoTWGPaNepPHUuuEAe1nKpiiA6Qa4bnjsrfQFO0PU22TLdcPnZzzjGRWPgbF8EryebjBvl9cO0kXQ81FEBvMBRWhNoGF7fE5dPf4f+QVowTGmg/X5PB4VgGXhAFGEN/r0byAKI2eKmmhvEXmTWgkMHClrnFAbr5OkqZhiu3wOr20OZNoGrPjytPm2z+fwOidLitpOrTsOiGxj8ABhp1D/7vjszS7IcHBzqCd3p5122uyf//N/3gqTv/Wtb80++clPLnzXMgDLl9pKI7QHvOENb2iFpjG+hFPKET1Ume5rzugOth49PaV1d8f1pz3taZU9zWch1xOvu+G1gAaHk/jLb8HvKcqwfV7js4hvkUO5lAvQMvG6XV7js5rS8A57IaxDNJyozkPn9WABLCf2JgwiKSWQ02nChIpOUT/tLhBvC68BV/hN6VNGE6/b57U3SpPAZ04+5a8m0NS64wC5ZtRMvO6Ox3mzCE1RV07ppgL43fObgcMxOuSUK/T/4i/+YivM/shHPlLVr1nUVgFYr33taytds20znx/+8Ie3fc2ovw+YPKR6bruaLPa22mNArCkaq9tZwOtTTz21Kgmh9MaUXtgdv/H6jDPOOGqLsP8m4LAbfue2UwcvZDsXo038bp/fapVJoQUe4jVgS3CJg+JD4vcgACwRPilsJn2KYw9lFFkl6mdq7XOAYnfqFn4DqhjMU35z+7zOG5MeKCqF0nFjzdS644BITUAKZa/Wx1Q/rDte582AWadFDz74YPedTT1U0bGKmN97770Hz42f/umfnp111llb8+Gqq65aWn5gFYB1/vnnz17+8pdvPY7rr79+9od/+Idbv2fML3CAyUaZ9sp+ZpETqsj7/fffP5Xg6IHlbBP7pdRvDv/UuuOAvfLcc889WmCfsy+CZaqL3A3P1c9ykKNcR+rA8S8PPWqoC26TbeULjjvuuKr0jNROYK30Q4DWvsr4kR/4gR94vAuGrnonoVazA9MxV7SPGimTcK/i3OZ/x3N1QiC3wEFG4RSevzk/m35TnQnpEE43pQdOrXsOkHFA4W233dZ9Z1MPFQc4mjZL4OzU+uEAZ3Ny7r/Ha2v+1a9+9daMf+tb37o0hRsozkBc1Dil/+pf/autxsGZfe9737vVO/bly2rb0C2HHGHY91yKxppuOu6P65z9Cy64YHbHHXdMdd96YvuFF15YBU6wySebpXumy6KiV/ihE8+757fDCAAi3SIgCM/hLPsEZh35m3/zb3YKYBFWxTghg9J4IIXSAKfUkm4FOHynMPBdSsTE82557u1kXeTPiSeeWKW9fv3rX5/qWXXP9qoHJw9uAOPoTLLeE9Nns2qDFClBr0+tPw4AShxATGne3+e5NEJ736btz/7sz2a//du/vfTrIsRXpVkBsEQjbtruvvvu2Q033LDp1/fue/TLdMtYv9PKlnn2s589u+WWWw4qLaVfLj+xN4cSnExlJRTI3ieHc9e8XdS/+mT2UwcHHP2J7/3MlGhlmSkiPqXSTnzvnu8iyB32ic4SVAG8HSvfO0khBJi4pleBN1FV0ncYHxTxpIy7FVBAoSgrJ8SMcc7NxPduee7tUjLPPPPMCry6+eabK55Pt3N0z3c9qCdB1/z+7/9+Vetgav1x4IorrqhAWrU8ptYfB0QBqTUx3dJ2LM+3TSO86aabZp/97GeXTuSqFEJffstb3lI5RJu2X/u1X1sa5bXpe8f8vdNPP31Kle15AoFYDuM49v/1v/7Xnns/3O6A8CIo2JTf/OY3p0uqehAFsu7HgZy0fDbNnXfe2UPPh90FnpN39YDpeDb8Aw88sPKQ6LC5tj314Tt5lw3HZwUi4v1Y6mhtDWAJ7waaQLBtcE4mhalx3qcb67YXslVv4LhDU/EdUChUEN8noHAV57b/OwdFiCbjThqPRT+lwG7P16ZvUO+GrOP9pGuacq2d5+gdURF33XXXpGvaYelab+FUTunIT2QZI9gtgJu2j33sYyv52gTAes1rXlPVEtqk2U/e/va3b/LVvf4Ogxtg7qBiav1ywAGdaKwbb7xx2mt7ZD3HXiT/2WefXUUrRAZIAAAgAElEQVSWT1HO/TCfrhHRz7/Fe37Vrbfe2k/nB94LvkvtVF4oNbQmQKt7oaBrwntBSErfmAdBSPCFId4kvhaAZTGLrFJbRvgZtE5hZIipf0+tew4wioGF+A4wxHc/U7RP97zXA7DQj9MZgCHeT6BVP7zXS24TFFkownCKuOqP93qSAn7ZZZdVaSVT/bx+eZ/enFIKuZ90/hP5Tz7f//73bzQx+Pn6179+5XebAFgve9nLqpo2mzQgwXXXXbfJV/f+O7FBp7pvu5lqtr/IoGW3dO5mZPvf61/5K3+l8r+AidPNnP3ON0fegZ3sFk2tssnu72cOAiRKybf34jv9/3/+z//pZwAH3AtQS4qnH3pfLcoEDQyB/0sBLMJiwJx0p4IG7HfpgNIXptY9B0S3CfHDd6AVp3G6raR7vpc9OAVgOABs5QxDoif573cOsg6cQgIPJ+OhX/7rTdQVQ85p2NR2wwHpspzHKeJwMf/dAKi2xrqtTQBrm5sIf/3Xf32KtFgyeRxJczXdmLyuhLfzPCDFfqzOpGyLqfXLAc6k6BQ26SOPPDKl7/fL/qPRQXxj4IoIlamEQn+ToEwLMAug8kM/9EOVb8wvmPzifuYg/OcLPPnJT64iRPFezb6+18FRAEtUiYE4wZQKZSCiHPxMzno/gqEXtU2CcgY09Dk57P3NgYX5lKc8pQIOXUWqyB3wamr9c0CaIEcFeDsExL9/Duy+R1EPIj9tUFPB8N3Nh5Rle/PkNC6fA4btu9/97rUnCm/f9KY3rfxekwgstWte8YpXrHxX/QEHVG5BnNpyDpxxxhmzhx56aAJydygo7FRAynSgsZtJkObGgTcP/DWHq5Ov1u9c8BVc6iF13e/mgZ00tf44ICKRHgJq+XG499/+23+b/IX+pqCKCpUd43CDvwBktxZkiXV50HTk9NNPf1wHnENAyZSS09+sC8/jlNiEbDzyrAEl8k2njai/edCTBSg18wd+4AeORhtOgEm/c5DegLiMArqIMTCWgoK74Va3vYo+zI1I3fY0vX0ZBxgGDphczjG15Rygw9/3vvetzSaG75vf/OaV32sCYFk3r33ta1e+q/6AOiuf/vSn1/7eIX5BbZp77rlnspV2OPnsJrVS/uIv/qI66JvabjjAeXTgKgBBRNBkM/U/D3gvOpRPB8ziV4sMmlq/HLD/AxTNhd+tBeVGhljDqV/O9NsbMJEfB8yyTwDcrQk2bFtzsVYNrH7J38/egFUWVyLdRPhMN0ntZq4triwwYahtLqzdUDTeXoG56mswwkRb+ZkuItjdfKbegFPdKepqd/OQnk855ZQq4mSqe9VsLq6++urZk570pGYP//+nAOZuD1zVmgBYnJgm76r39ZnPfKa6xXZqzTgAPJmcxGa86vIp6WwiHx988MEuu5nevYIDHEXpnfwLoCI7amr9c4A969BJZpMmOEEB/mn/7n8upLzJqBEZxKcAovC5u4wM6p/K4fcIwDIH/DyfWRcCRfgYm4DuE4DV8bwDSBjSfmwqNhThjVPbDQfMR0IdhTiq4zBFHe5mLvSayDebzGRw7W4eyp6f8YxnVKclU6HkYczHeeedV13nPUXlNp+P5z73ubMXvvCFzb8wm1W1NK666qqV32kCYG2axnjttddWYfdTa8YBh4FOeCeeNeNXl09x2qXO2sfZuNMBVJfcXv1uILr1IaPjz//8z1d/YXqiMw4As5RhEOUr+sRh+VQWpjN2/7/2zjxIr6O6261933eNNmsfzWgZrdZiSfiLzRenWD5wiqQqixMSyB9UMBQGQ0iqUgmBQEggEEiKVCBFxaTARYwTUgQ7tiTL1j4araPRaN/3fV+/ejpcZTwezbvdpfv2r6tUMujevt3P6ffe7l+fPqfdivHMQnDnu4GwiD0QUZSUKH174CGH0wJrcuLJYQ9+I9ijmBNQErBitBmLPiaueC9wJheVkQ8Hf8pRF2NsWtBVYQvswh9+FIcOHdLkKuMRwXEoJlgIWBwDUcmeAO+tadOm2Zgm+phnbw9awKSXIyFaDJZmDyanX/ziF0u6iR3Zz33ucwXvKUbAopKvfe1rBetqeUGxRxhLqjSAi6urq+0REe2ou2FsNmv5jfDekk2ytwmbtnxHImFRG7bZ2oRvU01Njd04x/MEbyDZJDub8L5C0EJkRMwijA920Rw4G5vg6DNmzBgbWok5URSLnRBXbDK29GKUgFWBjdhxQqRi4YdbHD8EdgJxFdWCowKwFd6KkovKjnBFgEtsgmilki0BXkyIiGSzwxNx79692TZIT7cEiNfABJcPQ2Njo6g4QoBdKYRevicqpRFgTH/5y1+2noTFlqwFLESYv/mbvym2ubquBQGEd44SKjunO8OCY894//Ct19Gp7O0Secjh+cOcmM1crVOytQsnD8gsjB1IzsJiXQmjsrUJa3qO4TL34v2FXbCJnFCyswvaSpRoEGGRbwreWh2WLFlyP7tm+fdkXN4QSFDMUWwpaaeO9I9a8i3GJlHAPnY4ZJfkmRf7BLysmMBiH146cp0ullzy1/EOQ1jUOyx51qU8AeGFCVQxbtSl1BvKtfD7wAc+UJKAhfjx8ssvF0TEOyz6xrR38dNPP12wrpYXNDU1mW3btpV0jy7+XwJsJCqVulsjgu8LR59ZoMvLxB3bsCDE2yQ6RiWBMXvbIDDyDmMuFq0z2VSRyJitbdgMQ9TiPcbaJVr/ax2TrV1whpAHVgEbMHhZ4OGhgALILh/BdFWyJ9DSNngrbNiwQW6f2ZvFtoAFJL8bdsaZHGlh5ohhftEMdv44erNlyxa3GqbW2N/OggULDBnpVMojwCTzr/7qr0oSsLL2wFqxYoV56aWXyuuw7rLxflhoyNvavcGANxZeDMT+0YLcHfsgZM2bN8/aBY94eZm4YxuOfjIPIBYpMeUQgPXbyd4+2IW5M3MMvjXEUUbMkqCVvm0kYLVizuKBXQmOOZEKm5cHmVUUQDf9wdnWE6NMBrxA2DFHGNFL3Q3bRK1gF+nxxx+3Yq+yErllG1rDpJUjzwrS7p5taBHfHR2vrcw2ErAq4+fr3Swu+P6QPVXFPQLMCxBq5fHjnm04ysb8mhiYso9b9uGdtnz5cvteY04t+7hjHzyByIZLzCYELRxcWJNqXZq8jSRgGWN37Qiqx6KORTfBJ3lB6CWR/AAs9glMTBEVOf8avcBln2LppXMdE6Cqqirz6quvajciHeQlPwUbEedKu0Ulo0vlBiZB7IKfO3culefl+SHEk/IpBtYPfvADs27dujybJJW+4S0vcT4V1GU9hLik/Nm4cWNZ9+um5AhEcX3xyqqvr1dogeRQl1VzZJ/FixfbOQJrVcXMKgtl7Dcx1+APx6ZxsGAuh3127doV+7NU4f8QCFbAYoDxESVAG4OMRYPcZ936WSCGcASNXQdcaLGPFt5u2YjW8DHFPrjSKoiue/ahRVEKZ+yk35CbNiLpBN5x8h6Jxz4SsOLh6FstLPLYkNSxdXctR3iBGTNmmH379mkB7qCZWIiTCGnOnDk285eOs7tnJH5DxMqaPXu2ndMhlGjjyx078RsiVAd/6urqrGcwYW4IDK8TXfHYKQgBi+MEHMsghhWpZMnAwUtZKX7jGURx1oKdRowYYcUQbIXHlTyt4iQcT12knUUAxk6kAZb4Gw/XuGvBqxQ74XVF8GkVdwmwoNu6dau7DfSoZYgYX/3qV0vywGJO8Pzzzxfs5SOPPFIwMyTxmD7/+c8XrKvlBa+88or56U9/WtI9urhtAizspk6dahoaGoTIUQIs8IhdSsYveWM5aqRfZClmDoFHyaZNm7T4dtBUxAMm9A2/J+Z8bFQS10zFLQKIWBw55LeEAEk2PW1Ylm+jXApYDBJEECaRZKU5ffq0FUKUoab8gZLUnWSoGzNmjH3x8tIlMwqpZFXcJMBkkxfw/v37tXPqpoketGr+/Pn2N8VHUjs+bhsLjxF2UGWneOzEhP7LX/5ySQIWQXI/85nPFGxAMQIW849i6mr5MLIQfvvb3y74fF1QHAHCDnCcQ0Hdi+OV1VXMAQkPwbdKHiRZWaHwc/EkwUs42rhk81LFPQJ8+3jvYSu+QwhZEkncsxMCFuGLyDaNZoH3Pe8/5gEqxRHIhYCF8jx69Gi7sMaritTjEkKKGwBZXMWPlY8gu6T8YBGsSB2r4iYBXrS4kiOEYCd+XyruEoh2SwnGKs84d+0UtWzSpEnWk5Fvlko8BPi2fOlLXyqpMo4/f/rTny54T1ICFguNr3zlKwWfrwuKJ8C8EI97FfcJ4JWAvTZv3iwh33Fz4RzAPIPTLQStRvxXcZMAAgliFn+YuytBjJt24reEoMVvCy0DYZ95Id8vBYRv22beCli8PIcMGWJ7hQDCuVJ57rj5w6RVeFgNHTrUilYEHeRFKnu5ay9axkKNXQG8F0luoOI2AY5kcAwNoZFjnSruE+C9SKwRLbLjtRUTwb/4i78oqVLE3ueee67gPcUIWMS8+O3f/u2CdbW+4Nlnny35Ht3wcAIcJSVxBUdztQjwY6TgjYWYjJe3itsE8PbhBAVOBMwROYat4i4BhBGOGLIOw9lDG2fu2or5PGIWc0TsxbcML1WcCLQx/T9280LAQonEkCjJeIMQE4ljgVqkufvjo2XYjD+4HiNWEdNKccfcthmLaY5e8KFjUS1vK7ftFbWOSQk72Fqo+WEvWsl3jbiMypgWv81mzZplnnnmmZIqZl7xyU9+suA9xQhYTzzxhPmVX/mVgnW1vgAPLMUuKRlbuzewEOA49fr16yVixYs2sdqY6xNnExGLDTQVtwmwLiO8BN80Nqi1IeO2vWgdc33mjIiPxEdFzNL6zG27kdgMpwK8tRCxELNC1kGcFLD4YfEH5ZEXIhkW8CpAtFJxlwAKMeIHf3gpcjyQD5mCsLtrs6hlHOvEfZ8YPLwQdaTTfZvRQnZAOYKG0KiYFH7YLGolXjpkSlNWyPjt9ju/8ztm5syZJVf8iU98oqDIUYyAhfcV9i21fOc73zE7duwo9TZdX4BANKcMebLv4yDBGwuvnoMHD/rY/CDbzLqNjRliDksU8WMI4LGMzaITMsz/FY/ObdvhGMJvDaGfOSS/N96Vx44dc7vhMbbOCQELQ+DxwSIag6AGnzlzxnrsqLhNANuhCCNaRYHYcXNU8YNAdBSXGAYEkVbxhwC2448yOPljs6ilHGtqbm7WkYuETEcGQLx/Sy0vvPCC9dRprxQjYP3BH/yBzYJXann55ZfNa6+9Vuptur4IAkz0iTOHh4iKPwSYX/Kb44iavLH8sRstra2ttZ4ibGTLu8cP2yFiEe4F7yxC8/C+lJjlvu1wIOFdSUIg3pPYDFELMTKvTiSZCFhRsDJiWCFa4UWAqzA/FhX3CfCCw8OKs+8IWGT5wUNOxQ8C7EZjP150b731lo03oeIPAX5zeHewKy2PAn/sFrWUzRreoXpnJmM7fh9kICynrFixwrz00ksVC1if+9zn7CKg1EKa+u9///ul3qbriySwdOlS8+abbypIeJG8XLoMMYTFmI6nuWSV4trCXBMvH9YKnKTJ64K6OBp+XUUmQzwhWaPz+9MGgD/2w6uOdTraCrbjDw5Cecl23aF79+730zAHohVeOuPGjbMvMhZfCtKYBvn4noHQWF1dbQXHffv2KT5SfGhTqYlYIByr4QWmVK2pII/9IUwm+CitXbs29rpVYToE8MyRt2NyrEkh/sd//MdlP+D5559v917iULQXp4qd0FIDyEcPZIH3rW99q+y268bCBKZNm2YaGxsLHhUtXJOuSJsAsZYQIVeuXJmbRVjaDLN8Hu9m5qBkLiQuroSsLK1R+rNZw8+bN8+Q4ZrNU4U/KJ1hlndMmDDBetZx1JC5BqFHfBazOtTU1MQuYCFWMYnjeEu00yzVNsthW96zmSwgVhEbCcFKL6vyOGZ5F79DjnZynEaiVZaWqOzZ/A45RqGA35VxzPLuKKuMYjkmawXc6D/0oQ+V/ZDvfve77X7rmN+0N+ljx/Pd73532c8nDpZKsgT4JipBSbKMk6yddykejvLmSZJysnW3TBakrGrJsk6qdmyIKMn6nuPZEiSTIp1MvawPSb7A33i2Mq/x6URObEcI+aBwJBA3X5R1gvcpm04ygy7JWrEjO8y4/GI/lHYV/whgRzLTYcd169bZs9Aq/hHAjhMnTrQfFkRkFX8JsPOsLJHJ22/hwoUVCVif/exnrZfqw0qhGFjvfe97zeOPP152RxXIvWx0Rd+IyIiNJSYXjczJC5ctW2Zj1rX3e3Wy4WrUAwKcyiFr7OrVq23sYxX/CBCWZMGCBbbhGzZssOuN+/dj943xD4xnLUbDWbJkiV37k2AITy2X7ViRgIXQgZcV8XTw7iBoGAstqbCejVpj7NHOyLU+UmJdHrj+EU6vxSzgCJhJNit5zaXHPYknIXrwbuVDouIvAY5+kpTEZ3dtX+h/+tOftvOScgseWFu2bClbwPr4xz9uvSXLLT/60Y9snCaVZAkQ10XBpZNlnEbteJdzSmDz5s1pPE7PSIAAG3V4mS9evNgeL1R8yAQgp1AldiREEJvn/Cb5jsrTNQXwMT8iOkVHuBI20HFIIuQTzkkulZIELCbhuJvROTLN0SkWyHL/dMmkxbeFWCy40nMWliBvWiQXz861K/v372/Ppjc0NNgPhoQr1yxUWnv4bfJ+5YMhIbk0dq5dze4kyUqwp0qyBAhZ8KUvfamihzBR+/rXv162gPWFL3zBHqsotyiQe7nkSr+PDYL2xMrSa9QdWRBA/CCzKynkldgkCwvE90wcItgAQJhcs2aN1pfxoU21JnSCbt262djX/Db5rkmYTNUEsT2MxDi8YxEm2RxE8yGcSdbZKdsVsBCrEDhQVfkosJjCVVeCVWzjItWKouNI0WKKjARKbZuqCWJ/GLvILNrYSeYcurwfY0ecaoV8KLDp3r179dtMlXwyD+Ojz/EI3OpVkidAXBwyAFZannvuuYfOc9o7Qsgm32c+85mKHs+G0l//9V9XVIduLo4Av8/Jkydbb2UV/wkwt+UkAUe1dazQb3sSg5f3OZ48LJblyeO3PYlNSQZmPHr27NmjbKKemhMdgd8mnnY4ThAYniOjOE+krQ29TcBCKcVljGMOBGTjPDJeOTdv3vQUtZrNbgaZA7EpR1iuXr3qnBugrFQaAV4co0aNMogdZPNUfKvS+Ll69aRJk6wttYPsqoVKb1ddXZ2OtpSOrew7iG30yU9+suz7oxvJYviw92p7AhbB23/5l3+54uc/++yzFdehCoojwCYtC6sDBw4Ud4OucpoAnh+IHiyyWCir+E0AO7JQxvsDUZLNPRW/CfC+xaZkxENnYM4rZwp/bcpadODAgdbzHJsiNvM9TXoToUN1dfV9PDgQrJiw8WAJVv4OJFpOIDbc/BCt8LLCbdOnzAJ+00+u9bhUE6ss8oZ07Txycj3Pd814bbCIwotOYmR+bM1OI+9e2TQ9my5fvty8//3vr/iBHAN8WIDv9gSsj3zkI9YDpNLy93//92bXrl2VVqP7iyTAhhBzJDb5VPJBAI8P5kuIWFoc58OmCB+sbVgoNzY22g15Fb8JYFP+sL5Be2BTHj1CxV8ChM1AoMQjFocL5sAc747brh169+59P+5K/cXub8txtWUhTOwjREhUbYlW/tqzZcujY4LYVJk982FTesEEm8UwsZG0cMqPXekJkzHiP+j3mq5dP/axj9kjCpWWH/7wh+att95qs5r2BKznn3/eegpUWl588UWblUslPQIcJeSokkp+COCNxakSirL45seuHTt2tHZlgcxGg+JL5sO2iB2sZREoOY4Wbdbno3fh9oLfaeShxbF9NhT4zVaqPZUUxD1c/O71nHOoeFpFk2WCqRFYXyUfBPixRz/45uZm7SDmw6wPekF8QX7DcofPmWGNsZMvMvRqMZy+bf/sz/7MLmoqLVkLWK+99pp5+eWXK+2G7i+BAMcgOMateFglQPPkUjw88MbSXMoTgxXZTOZQrIFYC+HlgfeO4sAWCc/xy5hHIWbxPY/ELMVBc9xoRTYP2+Jwg2CJ0w2CFpu9pcbQkoBVJHAXLkO5xC0PF1r+m+MpHDtSyQ8BRCuOM0QulzrOmx/b0hO8rojPwflwub/ny7ZRb2pra8327dvz2TmHe8U38Stf+UosLVy/fr154YUX2qyrPQ+sP/3TP7XHISota9euNf/6r/9aaTW6v0QCjKE5c+YY+KvkjwDxYDmZgDeWsvvmy74sihGg8erAK4vwKSr5IYAATZxuQqfgsHH27Nn8dC7wniBSsqmPx2wUzgobF1r/SsByfOBwDIX4OARGY4cQlZKzpCr5IcCPFo8NxCs+uqRxV8kfAXYcmGQpsGz+bBv1iPhHeNUV+vDml0B2PSPuwp//+Z/H0oAVK1aYl156KTMBi/hXxMFSSZ8AiyR2ghVjMn32aT1x7ty5dhOJsAwq+SNAZjQSWJHRVb/j/NmXTX4SthB6A6ED0UMhc/JjZ77B2JcEDnjd8Rtmbdx6Xi0By0Gb8+LFtQ5Fkl2inTt36giZg3aqtEmIGYiT7Cwo3kmlNN29HzvjlVNfX1+yi6y7vVLLWhMg9pJ2frMbFxwlIQZVHOW73/2u2bJlS8kC1oc//GEzffr0iptAfIi//Mu/rLgeVVAeAX7LeLdLiC6Pnw93sWnIzj8bShxjUckfAbxlWQhjY06syM75szHOHdiYudeFCxfsWlliVr7sjFc73pVRXFnszAkWCViO2BnDoDqyg8+LtqmpST9CR2wTdzMQNGbNmmVdYJVpKm667tRHfIaZM2faVLL8nlXyS4BMvggo7OqrZEOADZ8//MM/rPjh/F4/+9nPPrSe9o4QctNXv/pV6wpfSWEO8MUvfrGSKnRvBQR4dy9dutSsWrVKR80q4OjDrXhj4TWr+Do+WKu8NnJ6JfK6i0SO8mrSXS4TwCGAzQfmY1u3brVzb4lZLlusvLZxWonkZhKwyuNX8V1MkJjk1tTU2Exk7BAobkrFWJ2tIMqGg615sT4sRbuzHVDDSiJArKslS5aY//zP/yzpPl3sHwHe5XjYbdu2zb/G56jFcQhYbCh85zvfMXfv3i1bwCJG5e/93u/ZI+HlFo5EfP7zny/3dt0XEwE2IPheK15STEAdrQYvDjYgmIO399t3tPlqVgkEsDWx0NasWSMPyxK4+XYpc3DmBNh73bp19pihPPB8s2L77ZWAlYE9mRTh8kiWKnlmZGCAlB+JUsxihg+mSv4JIFyR/lexrvJva3r47ne/2/zXf/1XGJ11uJeVCFjs1P7gBz+wYkWhUsgDi/sRNZ9++mmzePHiQtW1+e8SsMrClshNfLuJs6KSfwIc/yVukgKA59/WgwcPNsuXLzcbNmyw2QtV8k0A0ZK12Ouvv67fd05MLQErJUPiaUWqVwJ0E4hdSnBK4DN6TMeOHc173vMee6SItNyyd0aGSPGx/L5nzJhhCACtXdwUwWf4qMmTJ5sjR44oRmGGNogeXY6AxfcY4QrBiMIklyQpeMzyDkeIal0IIIvNW5bIQ4ffPX+4j0UwWe3YAf71X/91G++w2CIBq1hSyV/Hb5wxEY2R5J+oJ2RJgBAPdXV1ikuapRFSfDbvaEJ6IFJzlFQlvwT4LmNv4t8hVr/55pvW7vKw9dPmErAStNv8+fPtRBZPDCY/CgiaIGxHqp46dar1rsPb6vLly460Ss1ImsCiRYvszm3rhW3Sz1X97yRA5hISYbQlPrS8GpGCyUxb8YoQnMlEdu/evXc8gP+Pf8Mzg7+ZALV1XVK2oV/Rn5Z9aK8/LdtC327cuGHjQyC2MHmDAy73cKO0Ztdygsd/RwzoP/+bv6P/5l5sQJ1RPa3b1pJ5ITvRntYTzEhciu7lb+zxm7/5m+1iJ5ECO7D0n9gY9IO6aOsHPvABG4OS7/T3vvc9e01bpS0BK7oOEfvXfu3XbB0rV6603wHaHjEmNge7wAsWLDBDhw61z26rsMn14osv2n+K7ue/aW9rFoX4tWW7qF5sxnhoadNosyXigi1b2q+1sNfy+dGz+DtKh02bo4UDyWmIR1MoRlj0+2N88t/8ifqexW9t9uzZNl4l7Wg5rlvbjn9r69+5j/FWaKHEdYwdbYAk9fYsrl7G+NixY+17rLm5ubibdJXXBHg38w0kWHRDQ4MNEq2SbwJRIq0ojA9ZSfkmqvhBoMPgwYPv+9FU91vJBJqdGxay+ui5b684W8gODild2alVCYcA8W6Y5PKbV0mXQMtFMZPPaFEcLchZhGCbhy3wCy382+sNdY8ePfodRw9aig3c/zCBonXdhRa2lbQ1Xatk+zSSoVAI1BuJMggpiHWRBw02YawQ8wZhAs8tfsctyw9/+MOHClj9+/e39bdVInEq+jc2McgoiLD92muvWWECAYY/iIWMW/6m3ZFgxCIKsUMiRnFjKY7fTsvfbUtRtGULEDQqPWr0sLYyHiLvPcZm9C5jMUVWrUhsLo6IroqLAGNhzpw5VtCQF31cVN2vh/cx34ZLly7ZExQqYRDo3bu3YYOKv4mH97BNrDBouN9LeWBVaKNx48aZESNGWG8bMgcpOHeFQD26nayRLH44KkLKbSaZKuEQIHA3gqXio2RjcxYXTDRZ8EfCRbEtiTyYihWYWtbLPQjWePNQWHxG2W74NzxMIkGi2PawsI28oQrdEyUAkajVNik4IhpFBbYRK97X/G450v+wIOuIU9///vcf6lXXngcWgtRHP/rRNhvGGGGTg2MqP/vZz9r0xkFwRVhTaZtAJPQUw6ec3wmCEeJhtAuPPflD4W+Og5YrYkXCZTFtj66J3i0spCWglEIu3mt5b/BuV1zLeLm6Xhseo2xU4VWpJFuuWyu+9jF/w0OauSViFgl62EhQcYuABKwy7MELjaMCqLMEa9YCtgyIHt+C/QkAie1bLpQ87tS1JBAAACAASURBVJKaXgIBzs/jNUF8My0qSgDn+KXRMSkEKCaskQdXdCQoWjyTppld2ZbH5zj209K7IhLI2utya2+tcvG0FONoc3TEK/rv1vVGx/8iT7VKhbDW/Wjd90hIQJyJ2tT6eFp7nnKlcuEISCRM4i3FH+JPIUD069evYHWrVq0ymzdvfuh17QlY3ETwdt4RhQpHVPiGsAFy/vx5O55gxTEG/sRRsHV0BI+/Iw+w6O+WR/NaiiYtn13MWC7UVsZIS5u3Neai31c0niJBN+7fSSm/Sd4JLGaimGiMLcQkvPmiMRv9nqLjjpEIFrEtxEb/7gcB3h144RE3T+Eh/LBZXK1EyGJjgW8J9ud9rRIGAd79eGgjZHHkkKPkiofohu0lYBVpB7ysUGSZlOBlxU6qSlgE2LmnYHvZPyzb01sWYAR+ZNGJt6WKnwQQqBAzogVotJiOFsytF/wthSmEa/732bNn/ey8B63GHg8LoB7FQeIaRGQmlS3jnRGLbt68eRX18lvf+la7cTAKCVjE0XriiSfKbgMCyMsvv/wgnh7jErGLP1EczYfxiY5NFjpWV3bjdKP1uub33zJTXSR2R/HCIsErElIju+Ddxcanjof6O5AQsXjn4EmpeDn+2rHclrOBjZCFkK2EXOVS9PM+5h38/hGyeNfjjYuYrfd5NvaUgPUQ7lGME15UFEQrxTfKZpBm+VSODERHOnAh1osqS2tk82zeBRwV5qOFK7GK3wQiwarURT5iCRsZim/ojv35bfK77NOnj31P/9Zv/VZFjUMk+sd//Md26ygkYHHzRz7ykQcB8ctpEHMN4nDRHoQShA8VdwiQbXbr1q0lNajc905JD9HFqRDAK2/ChAl2XaCwIakgd+4hHEFnPsCmAkKGxEznTJR4g1gXMC9kLslpHMQsjYPEsT94gASsFqyZCCNYcO4VdbWpqUmuwumNRWeehIcGwiVuo0xO2GVRCZMAHjeMA3ZblZUmzDFAr3kncHRw586d4UJwuOcc80RUKJSFsFAX/uVf/qXg8b1iBKwPfvCDNhhsuQXB6gtf+IKdf6SZda/c9oZ2n8Ts0Czedn+ZGyCec6xMInOYYwIxs7q62p7OwTs/ruPfYdL0t9dkn2fdGHnoMw70TkjWnsELWIhVHA0kRgZB2pRxItkB53LtfIhYdCBkckSQj5FKmAQYC8SxYXdNAmaYY6BlrzkWJvHKvXEQHSVk4rh06VLz6KOPlt1IvGu/+c1vFry/GAGLWElPPfVUwbrau+CFF16wcfYIKq+JcEUoE7mZMcf8URloE8HrTaWI53wfGAeKjeSN2RJpKB5ZeALjjUNsZL23E8HsfKXEy+OoOfMTxgJHzjUW4jdbkAJWlFmCQOzEstGRkPgHlk81Mh6ic80bN270qelqawIE+PggXkmwSACuh1U+8sgjVtCWB557xkNoZvOJmDTve9/77FHfcgsTzG9/+9sFby9GwOId8swzzxSsq70Lfv7zn9t3EF5YiFg6vl4RzkRunjJlihUulIE4EbxeVYpwwbuhoaFByV28slz8jcVje+bMmXbewHFwHSuLn7EvNRLmYO7cufZUF1oDsdOiWJa+9MHVdgYhYKGC8kKZPHmyPQ7EeWUyCaiES4Agqyx6FixYYD1sNB7CHQtRz9lJJUAni0VlFtV4gABCBLEuOCKi4g4BJoVsPOABg4hFQTAqJsvgw3rBvOCll14q2MliBCwq+fCHP2zjY5RbOLb8H//xH/ZIAt7hUSysUmO3lft83VccgZqaGnnuF4cqiKtIJIGoybxSv9UgTN5uJ/EKRrAgJA1Ct8ZE2GNizpw5dt6yZcsWm80wymYdNpXyep9bAQvRCsWTrGFMOJkM6nhgeYMkT3chXDHhxP1//fr1NiOQigggXk2dOlVB2jUUHhBAJCG2hb4b7gwKfqd4XCFeRUGxaR1xaH73d3+3ooa6JmAhpP/zP//z2/qEFxYeWYhZio1Vkblju5l5JovU1atXx1anKvKfwLJly8zatWvlbeG/KWPpAWuOuro6s2HDBuvNLSErFqxeV0LcTjZIcaAg3nKUZdnrTqXY+NwJWExscddj53PNmjXWm0IvihRHlKOPYpKJSy/HRMgmqDHhqKEyaNaSJUvM5s2bdUQsA/YuP5L3BbtkKm4Q4JvOIgARq3V57LHHzOzZsytqqGsCFp35+te/3maf8MhibqOjCBWZPLab8fDnOKGy1MaGNBcVMSb4jRLLTkUEIID3DSc/iLGr94XGBATYjCNuJidA+LajXagUJpALAYvo/2SIQtWOzp8rXkRh44dwBUdK+FiwOMELj0whKiIAATzxWHiQDl3vC42JlgQIyss7Q3Gv3BkXTPIQsXintxaxPvaxjxm8ayspeOP+wz/8Q8Eqij1C+PGPf7xgXYUuOHz4sPnxj3/8tssi8YrNGG3EFCKY3r93797dzi80x0iPuQ9P4l3FpjqbZPL498Fi6bSRTXVEC75neOqpiABzHDz/SSyH+I1HFp698rZue2x4K2DxwyfwNm53BEZjl0OLUL0AIgL8+PkwEASXc8YqIhARQLRavny5WbVqlSaUGhbvIMAuGLEqlA7bzcHBJI9FIWIWfx5//HEza9asihuL8PB3f/d3D+phscm8orUgQaD41h4VvFMQMCJhDe893jGVFiau3/jGN6znMEcHEVR1zKBSqsndT8gKjoMoaHNyjH2smUUp6xVOiOhIuo8WTK7NfDM4As+mGadD8KxVEQEIIHLyziCUBXOMdevWKZthi6HhlYA1YcIE62JHqlq8adiJlDKpH3pLAnhbkVmSxaeEK42N1gTwuuKd0djYKDgi0CYBFhp4X6m4T2DYsGHmueeesxO9OEp0ZI93BGIRGYNap78mK2XLoP4Iai0DyvO/Ea8QseIoPOub3/ymNujigJlCHU888YR55ZVXUniSHuEbARIHsbm6e/duu35REYGIAN8N4jsyPhDA6+vrtb7V8HhAgDkOIRTIkN6rVy/r0Rl69lvnBSw8rQhyxu4jWT0IXqoiAi0JcKRjyJAhdufiyJEj2v3U8HgHATw1omxREjY1QB5GgDhKHEPXxoj7YwSvhg996EP2iHgxhd89kz4EoWgyuHTp0rdlCvzJT37yNu8qPLD4rrRcbLYUsFh0ENOEiSXticr73/9+63ERFcYUnjmIYXhq4cU1b968twWif1gf8Cz/oz/6I3mLFmNkB65hp5ywFnv27HGgNWqCiwRYhA4ePFgxFl00jgNt4h3CugbPLDz2dCzZAaM41ATmL6x5ETwRxTmFxmZbaMU5AQtjjB8/3rrLsQOKN41Eq9CGZeH+Eu9k5MiRVtw8duyYPUqqIgJtEZg8ebJdOCqQqsZHewTmz59vdz01WfRjnHBEHGGHuUKhwjxi48aNBo+tSFji/8PeTz75pBk+fLitYtOmTQ+yybELzqSQeUjL8AStBSwmk7QFkTzKjIiwFtVJtlvqwSOLf+e/2Whh95Tjj20FpW/dHzzOOUqo4gcBxgNeecePH/ejwWpl6gR4bxG799y5czagt4oItCbQrVs3u85ByGKNo/eJxkhrAqyFmWuwkcbmGKEP2CwLIT6mEwIWk8pBgwbZiRy7pHhaKdihfqhtEeCFjostggQf/lOnTgmUCLRJgEUER44RruR1pUHSHgE2TTh2HOIulq8jg7hXzzzzTEXNZ57x7//+7+ZXf/VXbT14YHG8B49vvK7aEjNbHyGMGsCCFBEL4YL6EMr27dtn5zNkSayk0I5PfepTlVShe1MmUFtba0NdhH7MI2Xs3j0u2ogl/pGKCDyMAOtkgnvzLeC7ogy0GiutCbBBhhMQcxQ8wpnDEA4jr5uymQlYuL/hPYNiePbsWbsDkVfI+plVTgB3WkROxoiCYFbOM+81IHIyVlhAqIhAewSIJ8ARMIQGFX8I4OW0cOHCihuMuM2xQgJwf+9737P/jdfVw+YjDxOwmDwiYrFbTtsIf0DQ1WKPOBbqyLPPPlvoEv27YwSmTp1qFxASsRwzjGPNYbHJ+4fjyoq/6JhxHGsOjh547hHmgLEiZw/HDORQc9hQY76CNxZiFlmN85RgJFUBi/OanPsGKqLVoUOHHDK1muIaARaWeNGMGDHC7jgQvF9FBNojwHhBvNq2bZsWDRoqBQngfr1o0SLzxhtvFLxWF7hFIC4Bi1796Ec/Mk8//bT527/9WzvZYyGJN15bsdAeJmCxsGCOw3dr2bJlNjPim2++aRYvXhwLOAlYsWBMvRIySClpSOrYvXwgayO8xlloymvcSxOm1mjmLsR15Qg7YVR0DDU19F4+iNNLZLokHALzG8ZL6wQ1vnUscQErEq34mzO8LbP3+AZL7U2HAAsAgqCyK8WHXMd60uHu+1PYwcStmiNAKiJQiAAeMwRtJ+6Rin8EfuM3fsPMnTs3loazQfLII+PMG69/1/Tt09l06GDMpEeMuX//nqme0udtz+jSuau5fefWg//v4GFjrl27bDp27GR2NN0y9+53Nf0HVJnJ1f/Hxu9EVK+0IKT9yZ/8iRa1lYLM4H48x5nTaMM2A/iePhLPPQQshAklFPHUiCk2Gw9yYr0SW5GNfnl8pgjfw0chekYxOQnFEyU/8y1uVuwCFmBwoSeoGJ4zO3fulDLs4QDPoskcKWX3SccEs6Dv5zMRIfh4s5B97bXXlGreTzNm0mrc8JUpLBP0sTz0a1/7Wiz1RJVMGXfUPDojvjg0P1v9qDl5rnLxKmofk8tPfOITsfZZlaVDgHkNx1JZLKiIQDEEED3xJsd7T4JEMcR0DQRmzJhhjxUimOt4ocZEIQKsoVg/4UFOGA0EUGKA+iBmdaiurr5fqIOF/p24D3Ses5W+u6QV6qv+PV4C0dhhcqciAqUQwCWW3ck8nekupf+6tnwCvHf0rSqfnwt3fvSjH42tGd273jYf+r+vxVYfFZ08O8j87M14PMSoj/fcP/3TP8XaRlWWHgHivrI4UKzX9Jjn4Ul48DHPwZtT3lh5sGg6feB9gwiKaO6LIJEOGT2lPQIEgSfUE/NjTj8hgroqZpXtgcX5W1zjCVSK+KAMGvpRlEKA8UPael6sGjulkNO17BhwJBnPK47+qIhAKQRIHMLO9pYtW0q5Tdc6RuC5554zVVVVsbSqb++r5v89vjqWulpW8s8vvzu2OklI8Y1vfCO2+lRR+gTmzJmjI8vpY/f+iSwq6+rqzPr16yWAem/NdDtAVlwSiTQ0NEgETRe9909DyMI769SpU2br1q32hItLYlbJAhbHApn8s5NEoGQ641KHvB8xOe8AqWA533/gwAHr4qqxk3ODJ9A9XKQRPbUbmQDcAKrUIjIfRmZiRRysOIrrAhbvuk996lN658Vh7AzrYNOFUAnaeMnQCB4/eujQoTbMhuI2emzEjJpOTGFifuJ9/tZbb2XUCj3WRwI4DXDiheQ0OCytXh3/Zl85XIoSsMi6M378eHPmzBmza9cuuwOAEqciAsUSGDVqlBk3bpwVPQlOqfFTLDldFxFA/OTjS2BTjR+Ni3IIsPlC3CuNn3LouXUPnnTEhOK9UGnZXL/OjB911kyZ0MGMH9vRdOpkzMjhxnTvVlrN+w4a07zvnr1p1dp7pu/AGWb4iNGlVdLG1WvXrjUvvviivC8qJpl9BRKxsreBzy0gzjAJaw4ePKiYaj4bMqO2c/oFz2WCeK9Zs8au61VEoFgCjB/ErHnz5tlbcCY4e/ZssbfHet1DBSwm+mPHjrUZvXAfI7uXJv2xsg+iMgY5Z2lZNCrOVRAmj72TpJYmwwrvIqWWjh1vMBWS2ZQjy3gPq/hPgB1lRCzCGDz11FNlC1nr1q0zr776qn234OlEvRQmapQ+fbqb7t26PABGbBEyKkfl9JnLD/67pYs9cUE56vz7v//7NrFNqYU5FxuG//3f/22OHz9uxSt5LJdK0c3rGbPNzc1uNk6tcp4AHhF9+/Y11dXVhveX3gvOm8zJBjK3rq2ttWIo3xgVESiFAHMkjjdzqor5DvOVNOfXDwQsHs5HlYnW/v37zbVr17RYLMWSuvYBgQkTJhg8rhAcCCDIRFxFBMohsGjRogcfVx0ZLIeg7oEAZ/mJBaFU9vkYD0ycWMAxX4mEpkjQYlLODiGeWQRA5v/nb0r0N/+NJ+fhw4fNm2++aec6BEkuZpMOj3TmSIUKbcDbhlihS5YssR7ItDkq7FpeuHDBPpNgqYhiCKxs+PCH/44K31CuYRNIi9VC5N3/d8YkC0fiiqiIQLkEWLexeDxx4sTbRPVy69N9YRLgG0V4IL6dnJLRmi3McVBJr/EMZX7DWGK+zdwm6U2aDjU1Nfd5MG6ETODk4VCJCcO+l7T00SKRsaSJdtjjoZLeE+eBlyAfU2VtqoSk7oVATU2N2bFjh2DkiEAUlwEvLL47LOYi76lSuolYxPeKTbtiRPJiBSzmVQhsLUW2UtqFsMVCAtGKv5VttRR67l+L8IqwuXLlSvcbqxY6TYC50siRI83OnTs1X3LaUm43jm8o42j48OF24xhhVEUESiXAt405GeMIL3Q24xobG0utpuD1HXr16nVfR7sKctIFDyGAYs9ON26ER44csaqrigiUS4AFKNl28Izg6LKKCFRKgKD/mthXStH9+xG0eH9Ef5hERf9f9N/0gn/n/0cgQryKwiMUu+FSrIDFs3gOiwK8sYjfx/9GJIuexX/zJzp6yN/R/1eMmOa+VdTC9gggPCDAMndSEYFKCPCO4Zg8QvzRo0crqUr3ioBd1/F+YjwV43EsZCLwMALoBIhZbObduHHDNDU1FbVZWIhoUUHcC1Wifw+PAJl0OCaI+Bl574VHQT2OkwCBJRlXeF2piEAcBPAKZRdRnsVx0FQdEChFwBIxEShEgMxyHA9lYq8iApUSIEYfi0Uyfbc8hlxpvbo/TAJ40LDWY0MlCi8UJgn1Og4CeGYRXx0PdTYPEdvLdaKSgBWHRQKqg8k751w5csEHUkUEKiWAZwJZTgn+d/LkyUqr0/0iYAkQfwjPUAUn1YCIk4AErDhpqi4IzJ8/39TX1+v4l4ZDbATYvMGjU94zsSENuiK8h0mmhDcz8RpbJjIJGow6XzYBvI8Rs/BSZwMHMev69etF1ycBq2hU4V7IQpDgt7iTbtmyRTuF4Q6F2HtO4Mgo1lXslavCYAlwnIJdw7179wbLQB1PhoAErGS4hl7r7NmzTUNDQyxHK0Jnqf7/DwGO7pBUad++ffLG0qCIjQAxajliiHc7G4TFJD+J7eGqKJcEcGRAIEXUIvkb3qOFRFIJWLkcCpV3CrWd86p4xjCQCOinYNqVc1UN/0MAgWHmzJl2d7DQS0rMRKBUAnPmzLGLQU2sSiWn6wsRkIBViJD+vVwCxDBSptRy6em+hxGYMmWK3XhmHq8iAnER6NWrl5k2bZohoy4xaxWqIS6yYdeDlx9HVxHfWR9y4gtRq3WcUglYYY+Td/SegUNMBtR14jKwc6MiAnESIJ08cRo2bNgQZ7WqSwQsAZIAKHulBkNSBCRgJUVW9eI1SmIBJTDRWIibAB4Ojz32mFm/fr28seKGq/oMR1YRtJqbm23gdxURiIsAp8Dmzp1rBXjCzCCUEpNNAlZchD2vh48bR7nYqXn99dc9742a7yIBgvYtX77cbNy4UdkqXTRQDtrEBIqdZnle5cCYjnZBApajhslJs5iob968We+wnNjTtW4QDgRPv61bt2qMuWacHLSH7+PUqVNtTD+8Z5RNNwdGdagLnAxbuHChjZclAcshw2TRFDyu3vWud1lVU9nfsrBA/p/JcVSEUYL/s/unIgJJEOBYKruAO3bsSKJ61SkCloAELA2EpAnMmDHDzsdaH5lI+rmqPxwCixYtsmNMmQrDsXmaPWXDGo8/5mMcMdSmYpr0w3iWBKww7PyOXrLQmzRpkhUU2jpbGigWdTsBAgikq1evNrdv306gdlUpAsam5H300UftOFMRgSQJSMBKkq7qhgCbPjU1NWb79u0CIgKJERg4cKCNc4tXvIoIJEGgY8eO9nRPbW2tWbVqlWIpJwE50DolYAVmeFw7OWbDzguCgnb4AhsAKXaX4I4HDhzQefgUmYf6KNLQMwmXu3qoIyC9fkvASo91yE8aOXKkfZ+R6UtFBJIiwObP9OnTbfIAPGVURCAJAghZxL4l2+quXbtsAicVEaiEgASsSuh5ci9Ha3DlJDAoAfauX7/uScvVTB8J9OjRw+7q7d2718YjUhGBJAmQ0pl3282bN5N8jOoWAUtAApYGQloERowYYR9FqnoVEUiSAF4ynMpYs2ZNko9R3SJgevbsacfa1atXzZ49e0REBMoiIAGrLGx+3ISIwAQI0UpZbfywme+tnDx5sjl//rwN3qgiAkkTINVu7969zeHDh5N+lOoXAQlYGgOpE8BjgYDIKiKQNAFi4iLQ83dTU1PSj1P9gRNg7kaGOdapO3futIKWiggUS0ACVrGkPLqOs8Z37tyxrucXLlzwqOVqqq8ECNBeVVVl3dD1EfLVin61m8ypHIkmm5KKCKRFQB5YaZHWcyDAew5vBSWn0HhIiwDCAhvg+/btsynrVUQgSQIIpsOHDzccm2a8NTY2Jvk41Z0TAhKwcmJI3H9HjRplj9EcPHhQcYdyYlfXuxFlfrt06ZK8YFw3Vs7aR9wOZU7NmVE96I4ELA+MlLMmEreU+Z28YnJmWIe7Q8yiMWPGmC5duthTHCoikAYB3nWMO+L/7d69W3Ga04Du6TMkYHlquKjZw4YNM/zh2JaO0XhuTM+az64wkxx26ZRh0DPjed7cCRMm2GOqCKcqIpAmAQlYadLWsyIC0QaljudrTKRJAG8svrfENJU3Vprkw34WcbL41pKR9ejRo3aNqyICLQlIwPJwPCAa8EHp06ePOXnypP1xq4hAWgSIO8RxQSY0SgiQFnU9p+VCjuQAZ86cERQRSJ2ABKzUkeuBvyBQXV2t4zUaDZkQIL4phaDbyvabiQmCfei4ceMMnlmExGHNS4gcFRGQgOXRGBg4cKAh41b37t3NunXrPGq5mpoXAuwCE5MDrysVEUibALtyxErQ+EubvJ4XEZCApbGQFYHOnTubadOm2aPT9+/fz6oZem7ABEgqQKxTbSAFPAgy6jpr4LFjx5pz586ZY8eO6eRHRnZw5bESsFyxxEPagViA8jxx4kSrPPPhUBGBtAng7UdQz+3bt5u7d++m/Xg9TwQMizeCtjMGVUQgKwISsLIir+dCgCM1jz76qFmzZo2AiEAmBNhEQkzAG+vWrVuZtEEPDZcAsXdnzZplj7QeOXLEXLx4MVwYAfdcApajxke4wtulX79+VmlGvFIRgbQJcFwV913+ZrKiIgJZEairq7OZuDRhzsoCei4EJGBpHGRNgGP8HOPSwi1rS4T9fHljhW1/F3o/YsQI65W1a9cuK2jpeKELVkmnDRKw0uFc9FNQlvEy0DHBopHpwoQIMEmeN2+e+fnPf57QE1StCBRHgHciO20KIlscL12VHAEJWMmxVc3FEyCJCpubV69eLf4mXSkCMRMgAzqhTbZu3Srv/JjZqrriCbDJvmjRIntKibjQOilSPDtfr+zQoUMHHaR3wHq4hb/vfe8z69evt5MSFRHIksBjjz1ms1oeOHAgy2bo2SJgj8wwQdbxaQ0GFwhIwHLBCmoDBJ544gnzyiuvCIYIZE6AzU689JUtLnNTBN8AhCxiBG7evNmQ8EclnwQ6zJw5UwJWhrYls8fu3bvtES1l9sjQEHq0JcBuGoIBAToVJFaDwgUCHKfWsUEXLKE2QIBj/Tq6pbHgAgG+1YMGDVJAbReMoTbYdQwCPxmqVUQgSwK8Gyljxowxp0+fNteuXcuyOXp2AgR0hDABqIWqZEFWW1trrl+/bl/0WpwVIqZ/T4PA0qVLTXNzszl+/Hgaj9MzRKBdAkxAFi9ebN58802JqRorzhCQB5YzplBDjLHJLQiqzRFrFRHImkDkMU3yqcbGxqybo+cHTgBRtX///jZ7KxtPZHBVyQcBCVgp2pGsHfyITpw4YY9n3bx5M8Wn61Ei0DYBkgWMHDnS1NfXKwCiBokzBPBOPXjwoN6TzlhEDYGABCyNA9cITJgwwZw9e9ZcuHDBtaapPYES6Nmzp5kxY4adV2qTPtBB4Fi3iS2NRxZZ1Tdt2uRY69ScUglIwCqVWBnXjx8/3irALMaYZKiIgCsE5syZY/bv32/OnTvnSpPUDhGwR1kR+C9fviwaIuAUAQlYTplDjfkFATZH9+3bp5gvGhFOESBDHMJBU1OTU+1SY8IlQLI0jl4TW5VxKeHfz7EgASshu/Xu3dvgQXDp0iUrWimwYUKgVW1ZBNiF6NSpkw2MrWwdZSHUTQkRYLJbVVWlOBoJ8VW1lRGQgFUZP92dHAE8XsgGpyICLhHA44WNfIK8K2umS5ZRWzh+PXToUAtix44dWg95NCQkYMVsLBZeeA9w1paYBHfu3In5CapOBMonQLwMdmqJc0VgQxURcIkAompdXZ3ZuHGjS81SW0TgAQEJWBoMrhLg2BYhAUgMpCICrhHAG4vYWDt37nStaWpP4ATYOGV8EjMLofX27duBE3G/+xKwYrARQdkRrYYMGWJOnjxpY1ypiIBrBJjY9u3bV5MH1wyj9jwgMGXKFB010HhwmoAELKfNE3zjhg0bZpNenDp1KngWAuAeAdZLU6dOteNTayX37BN6izheiLcgm/2MUdb0Km4SkIBVgV0ixZYBzyDXQK8Apm5NjADx18aNG2eOHTumSW1ilFVxpQSIR3Djxg15BlYKUvcnSkACVqJ4VXkMBAjqjoc1ISxURMBFAgitJLYibpsSWrloIbVpxIgR1jGFWKysnzRO3RoTErDKsAcvXs7Nki62oaGhjBp0iwgkTwCBFVGAGFdMElREwFUC/fr1s16se/fudbWJapcIWAISsDQQfCAwa9Ys3ytAAwAAIABJREFUzU99MFTAbYxCWiAOnDlzJmAS6rrLBBinNTU15sqVKzY0kIQsN6wlAatIO/To0cMQXwDXVwK9KWtBkeB0WSYE2NlCaG1sbMzk+XqoCBRLgCMFkyZNsu9VFRFwnYAELNctpPZBgPkqyVp27dolICLgNAG8XJivkhFOsYecNlXQjSM+1uzZs+3xwubmZpu9nePaKtkQkIBVgDteLLhjE1wY7wBl0MhmoOqpxRFADCAQIccHJLIWx0xXZUugtrbWbN++PdtG6OkiUCQBCVhFgtJlmRNg/sqmq04KZG4KNaAAAcSB+fPn2wQEZG2XMKAh4zIBQrPglcUGAUcMb9265XJzc9k2CVhtmJWjgWTKmDhxoj1+tW3btlwaX53KFwEmq4xZiQH5smuee0PQ9sOHD5tr167luZvqW44ISMDKkTED6AqLLDxblBE7AGPnpIvLli0z69evN9evX89Jj9SNPBPguDbHCvHK0ns2PUtLwGrBGuGqd+/e5vHHHzc/+clP0rOCniQCFRBg3E6bNs16CBIEW0UEfCBARkxiXyFgqYiALwQkYPliKbUzIjBjxgy7sXXv3j1BEQEvCLAZixeW4mJ6YS410hgzffp0GyNzxYoVSqCRwoiQgPULyIsXL7YB2nbu3Kkz2CkMPD0iHgJDhw41ZMpgcoq3oIoI+EIA7ys8A1REwCcCErB8spbaCgE2ufBqYWGlIgK+ECB0y4IFC8zmzZvljeWL0QJvJ+9a4g9yHJZxq1AuyQ2IoAWskSNHWrUUDwCyYMj1L7mBpprjJUBSgaVLl5pVq1bpwx4vWtWWAgF2qgjaLo+AFGDrEbESkIAVK05VlhIB4mMSz1WJXVICrsfEQoDYWKNGjTLMebXhFQtSVZICAYQsxixOBsOHDzdr165N4alhPSJIAWv06NF2QPEy5Iy1sl6ENeh97y3HAThvrY+575YMs/2LFi2y8S20YRCm/X3vtQQs3y0Ybvv79OljvbEuXboULgT13EsCiAHRUVgl0/LShME2ukuXLgaHmShG8cmTJ4NlEWfHgxGw+Gjz8qMcOnTIZrlQEQGfCBAvqLq62mzdulVBr30ynNr6gACbB2RskVu1BoWvBCRg+Wo5tRsCzCEOHDggz20NBy8JEDKDeQSbYCoi4BuBgQMH2kzxiFic/FIpn0DuBSxedLzwTp06ZQeMslqUP1h0Z3YECNJOgPZ9+/Zl1wg9WQQqIMDuP6mHFbS9Aoi6NXMCErAyN4EaUCEBvGDfeuutCmvR7SKQDYHOnTubSZMmWU/Co0ePZtMIPVUEKiAwePBgM2TIEIN3FqdpOFWjUhqB3ApYTDJZMB0/ftycPn26NCq6WgQcITBgwABTVVVlhatr16450io1QwRKI4AHLEEt2TUls5CKCPhKQAKWr5ZTuyMC3bp1s14se/bsERQR8JbAsGHDDH+UYdNbEwbfcAQsPLJ69epl9QqcbVSKI5ArAat37952sd+9e3cdEyzO/rrKYQK4+uMxiLu/igj4SgDxikxC69atk3jlqxHV7gcEJGBpMOSBAN6wffv2tXNlFRHwmUBtba05e/asFQBURMBXAiQrwGmBEBs6qVDYirkQsAYNGmRV+Lt379rFvlzxChteV7hLgBcY2YK2bdumseyumdSyIgmw00/MwStXrhR5hy4TAXcJSMBy1zZqWWkEFA+rNF662l0CJOYivhCnFQi3oSICvhKI1oDMmdlg0Ombti3ptYBFVH/OkF68eFFeKr7+UtXuBwTwVJk+fbohw8revXtFRgS8J0DiAXb5tZvkvSnVgV8QkICloZAnAlOnTjUHDx5UfNg8GTXgvpCsC2+sEydOWKcGFRHwmQDehbdv37ZHC5V87u2W9E7A4pwoohWTyNWrV1vDqoiA7wRw56+rqzMrVqzQMSvfjan2WwIc5Z4yZYrZsmWLiIhAbghIwMqNKdWRXxCYNWuWaWhoEA8RyAWBnj172rnH7t277Yawigj4ToA4WZxmaG5utnG9792753uXKm6/FwIWnikshsjExsto165dFXdcFYiACwS6du1qZs6caXeMlGHQBYuoDXEQ6NSpk31fcwxWRQTyREACVp6sqb5AgCMrbKLt379fQEQgNwQmTpxovbDwMNSCPzdmDbojOPGw4UD2TbwMQz4u67SA1bFjR+ttherIAl8f16B/t7nqPGObNKoE7auvr89V39QZEZg8ebLd/VQRgbwRkICVN4uqPxAYOnSoXewz11YRgbwQwPlh9uzZZsOGDTqxkxejqh+WALGSifuG92yIp9GcFbAwDBPFV199VUNVBHJHAK8rHa3KnVnVIWOsKHvp0iX7R0UE8kZAAlbeLKr+RAQ0L9FYyCuBcePGmW7dupmmpqa8dlH9CpRAVVWVWbhwoQ1Bc+bMmWAoOCdgPfnkk+bkyZNmx44d5s6dO8EYQh0NgwCJByi4fsqlOQybh9RLYk9wVr+xsTGkbquvARGQgBWQsQPrapRIZuvWrYH1XN0NgUDnzp3NkiVL7EJfRQTyRoCQNIsWLbLzb3SUvBcnBKxJkyYZ1HHc4HBf1sI+78MuzP6RYZDsgkqJGqb9Q+g1Y1xxr0KwdLh9lIAVru1D6DmLIN7jmzZtCqG76mOABMiMXFNTY9atW6f1ZoD2z3uX2UgmpiG6ysaNG82tW7dy2eVMBSyyRHA+ec+ePTaFr4SrXI6x4DsVpfVFEZdXYfDDIbcACNrOuzyvH8vcGk4dK4mABKyScOliDwn069fPxuhkw01FBPJIoEuXLoZYnThNcCJCRQTyRgCPw2HDhhmSGRw6dCh3ccRTF7BQBjlnf/nyZZsZgr9VRCCPBFC/UcE5c49AqyICeSUwfvx4OxG8ePFiXruofomAJSABSwMhBAIsesiMrI3lEKwdbh8Jgk2isJ07dwYZCDtcy4fVc7wOx4wZY9eiedmYSE3A4gVBlpNTp06Zw4cPhzVy1NugCKB619XV2cmfMvoEZfogO0umWMb88ePHg+y/Oh0WAQlYYdk71N5G8bCIR0t2QhURyCsBjs3yXseh4tixY3ntpvolAibyru3Tp49pbm42V69e9ZZK4gIWLpq4ap4+fdqKVyoikGcCKNwo3du3b89zN9U3EXhAgKPgyuyjAREKAQlYoVha/YTAsmXLzMqVKwVDBHJPACcLjlzt3r3b3Lx5M/f9VQfDJdCxY0ebcAkhC68swn/cv3/fKyCJCFi4ZJLWEUAofApa7dWYUGPLIEAsN45RIdKGlMa0DFS6JUcE5syZY5NvaIc+R0ZVV9olIAFLAyQkAizoO3XqJM+UkIweeF+rq6vtcUIW9SoikHcCvXr1MhMmTHgQ2smXY+OxCVi4Gw8YMMCMGjXKQti/f3/eba7+iYAlMHz4cDv2SV2qIgKhEOCDh7u94ruFYnH1EwISsDQOQiPAHIcENNqcC83y4fa3R48eNsj7gQMHFNsz3GEQVM8RsqZOnWrn9EePHnV+3FcsYLEzg7cVMa5YzEi4Cmq8B91ZvK4mTZpkx71iXQU9FILrPG7HjH+OhquIQEgEJGCFZG31NSJAXE9CI+CZoiICoRBgjo94q7VtKBZXPyHABjUiLpsW/OE34FopW8Aizg8TORYyq1evdq1fao8IJEqAHze/gc2bNyf6HFUuAq4RIOApZ+c5Hq4iAqERkIAVmsXV34gAGcS3bdumzIQaEkERwFFj/vz5duxfuXIlqL6rs2ET6Natm5k1a5Y5cuSIOXnypFNCVkkCFpmmWLzMnj3bpmFU1qmwB3aIvWf8P/bYY2b9+vX2qKyKCIREgKPiTz31lPnpT38aUrfVVxF4QEAClgZDyAQ4VkWQaxURCI0AYx9PFI4V+hInKDQbqb/JECAZ38KFC82tW7fM1q1bnYht3qFr165FhZ1nx33w4MHm4MGDOgefzPhQrY4TINta7969zaZNmxxvqZonAskQqK2tVYbNZNCqVk8IMBdiHqQiAiESGDlypF3EK6t4iNZXnyHwS7/0S2bdunXaxNZwCJIAiT2IlfXGG29kKuR26NChQ7sC1owZM+w5SH6sKiIQIgGyaX7wgx80//Zv/+aU+2SItlCfsyNAnMPDhw9n1wA9WQQcIDBu3Di7A68iAqES0EZGqJZXvyMC/fr1M2xqcxpDRQRCJbB8+XI7H8piTtTmEULO+77nPe8xGzZscO7MY6iDRP3OhgACLjuNJ06cyKYBeqoIOECA7CQIWLt27XKgNWqCCGRHQEcIs2OvJ7tBgKPk06dPt0dJVEQgVAKslRFzCacjj8RQR4H6zfFC4iPyd0NDQ2qZyd8mYNXU1BjiXJFt4dKlS7KKCARLIFqw81u4efNmsBzUcREg7huTtPr6esEQgeAJSMAKfggIgDGGxTsiFgsWFREImcDAgQPN+PHjzcaNG0PGoL4HTgABq3///oZYcXwXrl69miiRDv37979PTIcbN27Y4yHXrl1L9IGqXARcJ8DZXnZTzp0753pT1T4RSJwAi5TGxkYdn02ctB7gAwEJWD5YSW1MgwBxcdngOHbsWBqP0zNEwFkCLN7JTn7//n3T1NTkbDvVMBFImgBhdxCyCLeAA8iOHTsSeWSHkSNH3j9//nxqLl+J9EKVikAMBPjBEZxOQm4MMFVFLgiwq8jxWW1s5MKc6kQMBCRgxQBRVeSGwPDhww1HCpWVPDcmVUcqIECiJzbBEbGUqbwCkLo1FwR69uxpw4+w0bFt27ZY+9RmDKxYn6DKRMADAgRjvHLlijl69KgHrVUTRSB5AixM2E08efJk8g/TE0TAEwISsDwxlJqZGgFihSoeVmq49SDHCeCBUlVVZQhFgpDFPEpFBEImQDJAMtj27dvXBnzHcarSIgGrUoK632sCKMP8oPbt2ycvRK8tqcbHSYDfxJAhQ8zevXvjrFZ1iYD3BCRgeW9CdSBmAhyfYhNw+/btMdes6kTAXwIIWBwrZMGuuNL+2lEtj5cA6+4BAwbY44WsMe7cuVPWAyRglYVNN/lOYNCgQXaH5MiRI4p15bsx1f7YCRD3Km5339gbqQpFIAMCErAygK5HOk8AEYtEUArq7ryp1MCUCRCKgXLw4EFz9+7dlJ+ux4mAmwS6d+9uBV6ELI6glxr0XQKWm3ZVqxIiQKwGkhZQ2BVREQEReDsBxCvc3m/duiU0IiACrQhIwNKQEIG2CTC3Iu6PEuBohIjA2wlE3ljE2I3j+JT4ikBeCHTr1s1m8WQThIQgZ86cKaprErCKwqSL8kCgX79+VrzCs0Rn0vNgUfUhbgK49rILogVI3GRVX14ISMDKiyXVjyQI8Psglqg2QJKgqzp9J8AahAU73lh4nqiIgAj8L4ERI0aYUaNG2WRqrEPa+45IwNLIyT2BTp062Xg+uCvK6yr35lYHyyTA72Po0KHm0KFDZdag20Qg/wQkYOXfxuphZQQWL15s1qxZY+7du1dZRbpbBHJKYObMmfbY1KlTp3LaQ3VLBMonwLp9zpw5NokUXlm3b99+R2USsMrnqzs9IEAw6mnTppm1a9d60Fo1UQSyIUDWnOrqarNjx45sGqCnioAnBCRgeWIoNTNTArNmzTJbtmyRt3umVtDDXSZAIGu+J5wKaWuB7nLb1TYRSIvAo48+ah1QNm3aZK5cufLgmyIBKy0L6DmpEiDW1WOPPWb2799vXRFVREAEHk5g4cKFZsOGDWVnAxFbEQiFgASsUCytflZCoH///oZd9LNnz1ZSje4VgdwTmD17tvV8Lzb2T+6BqIMi0AYBwgDxW2Gtcu3aNSMBS8MkdwTILkhK59dff127f7mzrjoUNwEyR+3Zs0fxGOIGq/pySUACVi7Nqk4lQIAMUyzKL168mEDtqlIE8kOgZ8+eZu7cuWbVqlX56ZR6IgIJEODESG1trQSsBNiqygwJPP7442b79u06V56hDfRofwjwIejRo0fJ6Wv96aFaKgLxEpCAFS9P1ZZvAnj3Eg9LRQREoH0CeCwOHz7cHidUbCyNFhFon4A8sDRCckFg3LhxNlB7fX29uXv3bi76pE6IQJIEOnfubGbMmGF/MyoiIALFEZCAVRwnXSUCEOjatauZOHGi2blzp4CIgAgUQaBXr15m+vTppqGhwdy4caOIO3SJCIRHQAJWeDbPXY+XLl1qva5IuakiAiJQmAA7fXV1dWbjxo2FL9YVIiACDwhIwNJgEIHSCHTr1s2wydjU1FTajbpaBAImMHr0aNO7d2/T2NgYMAV1XQTaJiABSyPDWwJMiLp06WL27t2rdM3eWlENz4IAsUlIbnDr1q0sHq9nioC3BCRgeWs6NTxDAmPHjjWXL1/WRmOGNtCj/SOANxYejCSkunTpkn8dUItFICECErASAqtqkyOAS/rUqVPNkSNHNBlKDrNqzikBYizgln7hwoWc9lDdEoHkCEjASo6tas43gUmTJtmNEx2Lyred1bv4CSAAd+/eXV6M8aNVjZ4SkIDlqeFCbfaYMWNs0Gm5ooc6AtTvSgiwm4db+q5duyqpRveKQLAEJGAFa3p1PAYCc+bMMZs2bYqhJlUhAmERYP7G9+f06dPm5MmTYXVevRWBVgQkYGlIeEEA0WrKlCl29+7s2bNetFmNFAGXCBC0fdq0aWbr1q0uNUttEQGvCEjA8spcaqxjBHr27GnYiNQmimOGUXO8IYAX/aBBg2z4FHkzemM2NTRmAhKwYgaq6uIlwKKbWFcIWNu2bYu3ctUmAgERqKmpMTt27Aiox+qqCMRPQAJW/ExVY1gEBg4caDp06KDNyLDMrt7GSIC1EaFUTp06Zf+oiEBoBCRghWZxj/o7ePBgM2rUKLtTp10GjwynpjpHgGOD169fN2fOnHGubWqQCPhEQAKWT9ZSW10lQDysY8eOmatXr7raRLVLBJwngCdWVVWVXScpKY/z5lIDYyQgAStGmKoqHgIEKiRgIZMbstaoiIAIlE9gwIABpk+fPubQoUPlV6I7RUAELAEJWBoIIhAPgblz55qNGzfGU5lqEYGACcybN88eKTx//ry5f/9+wCTU9VAISMAKxdKe9JP4CBwZ3LlzpyctVjNFwF0CuJlPmDBBSQ/cNZFa5hkBCVieGUzNdZZAly5d7DEohYdw1kRqmEcE+vfvb2bMmGHWrFljbt++7VHL1VQRKJ2ABKzSmemOBAh07NjR1NbWmsbGRr14E+CrKsMjQIyRuro6U19fH17n1WMRSIiABKyEwKraIAkw95s5c6bZvHlzkP1Xp0UgbgL8nggZ0dzcLG+suOGqPmcISMByxhThNiTahSPA9L1798IFoZ6LQIwEmMQ0NTUpflyMTFWVCEjA0hgQgXgJDBs2zFy4cMHcvHkz3opVmwgESgBh+NFHHzUNDQ3m2rVrgVJQt/NMQAJWnq3reN8Qrji3zc4buwUqIiAC8RBgkc2CgHgIKiIgAvERkIAVH0vVJAIRAbLkEsNHCXs0JkQgHgJ44Y8cOdJwtFAZqONhqlrcISAByx1bBNUSjjaRfYYJy927d4PquzorAkkTmDhxotmzZ0/Sj1H9IhAcAQlYwZlcHU6JwLJly8zKlStTepoeIwJhECAx1rRp0+yRQiXGCsPmIfRSAlYIVnaoj2REI2gnXlfaaXPIMGpKbgjMnj3b/r6UiSY3JlVHHCIgAcshY6gpuSJAEp9Ro0aZ3bt356pf6owIZE2AI4XDhw83o0ePNuvWrcu6OXq+CFRMQAJWxQhVQbEEyI5x6dIlc+DAgWJv0XUiIAIlEEC82rJli7waS2CmS0WgFAISsEqhpWtFoDQCvXv3Nvw5ceJEaTfqahEQgYIEoszUhG05dOhQwet1gQi4SkAClquWyVG7Bg8ebHfVdu3aJa+rHNlVXXGLAL8x4l5duXLFrYapNSKQIwISsHJkTHXFSQJ46R8+fNiGmVARARGIn8CQIUNMVVWV2bZtmzY848erGlMgIAErBcghP6K6utouqJmMqIiACCRDoF+/foY4BydPnkzmAapVBETAEpCApYEgAskTqK2ttVl0b9++nfzD9AQRCJQAsbE4GXPkyJFACajbvhKQgOWr5Rxv96BBg8zYsWOtuq8JiOPGUvO8JkA2T3as+a2piIAIJEtAAlayfFW7CECgW7duZty4cVbEUhEBEUiOwNChQw0eWST+uXnzZnIPUs0iECMBCVgxwlRVxhAocPr06ebixYuKdaUBIQIJE+D3NmvWLFNfX5/wk1S9CIgABCRgaRyIQDoE+vfvbwYOHGj27duXzgP1FBEImABej6zddGIm4EHgUdclYHlkLNebitcV7qhvvPGG601V+0QgFwTwcjx48GAu+qJOiIAPBCRg+WAltTEvBMaMGWPOnTun2I55Maj64TSBHj16WI9+vLEuX77sdFvVuLAJSMAK2/6x9L5Tp06G7GenTp3SYjoWoqpEBAoTQDAm7bh2ywqz0hUiEBcBCVhxkVQ9IlAcAWKp7t2719y6dau4G3SVCIhARQT4zuHhT9b4u3fvVlSXbhaBJAhIwEqCaiB1dujQwQwbNswwuXj99dcD6bW6KQLZE+jVq5eND7Jjx47sG6MWiEBABCRgBWRsddUZAnPnzjUbN250pj1qiAjknUDXrl3NnDlzbIgKxcbKu7X9658ELP9s5kSLUebnz59vtm/fLtduJyyiRoRCAOGYOHNbt24Npcvqpwg4Q0ACljOmUEMCItCnTx8zYsQIs3v37oB6ra6KQPYERo8ebfj9NTY2mvv372ffILVABIwxErA0DEomwMsMNf706dN6mZVMTzeIQGUEiDOniURlDHW3CJRLQAJWueR0nwhURoCg7mzgnD9/vrKKdLcIiEBJBMh2vWTJErNy5Upz7969ku7VxSKQBAEJWElQzXGdeH40NzebGzdu5LiX6poIuEmAxTMBbckUoyICIpA+AQlY6TPXE0UgIsCRpk2bNgmICIhABgQIX1FXV2dWr16dwdP1SBH4XwISsDQaiiLApP3atWvmzJkzCuhXFDFdJALxEmDiQMw5pRSPl6tqE4FSCEjAKoWWrhWBeAnggTVjxgx7hF7HmeJlq9pEoBgCnTt3NpMmTTKXLl0yR48eLeYWXSMCsROQgBU70nxViMv22LFjbSYKeX3ky7bqjV8EODq4c+dOvxqt1opAzghIwMqZQdUd7wgQg3XmzJlm8+bN3rVdDRaBvBBgfUgyIealyhCaF6v60w8JWP7YKtWWkn0CN9GDBw+aEydOpPpsPUwERODtBBCv9uzZo0mCBoYIZExAAlbGBtDjRcAYM2DAANOvXz+7uaoiAiKQDQFiYyFiEVbm8OHD2TRCTw2SgASsIM3efqd5GfXs2VPeHhobIuAAAVy1jx8/rmyfDthCTRABCVgaAyLgBoGqqiob0J3wFioiIALZERg8eLANcbF3717FSM7ODEE9WQJWUOZuv7OIVuPHjzfHjh2zgaJVREAEsiXApICYH2T8VBEBEciegASs7G2gFohARKCmpsYmFtIRJo0JEciWAN5YrCFv376tWK3ZmiKIp0vACsLMhTvJTlbv3r1NU1NT4Yt1hQiIQOIEunfvbl2zd+3alfiz9AAREIHiCEjAKo6TrhKBtAgsWLDArFu3Lq3H6TkiIALtECDh0MSJE82hQ4esh6SKCCRBQAJWElQ9qhOvKybkZJK4cOGCRy1XU0Ug3wQWLVpk1q5da+7du5fvjqp3IuARAQlYHhlLTQ2CAAtmvJWJ2aoiAiLgBgG8sUi4wLFCZQx1wyZ5aoUErDxZs8S+4HVFEExlNisRnC4XgQQJcGRwzpw5pr6+XuJVgpxVtQiUQ0ACVjnUdI8IJEtg+PDh9gFKOpQsZ9UuAqUQYD47f/5809jYaC5dulTKrbpWBNolIAErwAHSrVs3s2TJEuvdcfXq1QAJqMsi4C4BUhPz0Zfrtbs2UsvCJSABK1zbq+duE5g1a5bZvn27uXPnjtsNVetEIDACeGMxryVr6N27dwPrvbqbBAEJWElQdbjO6dOnW5fOLVu2ONxKNU0EwiTAkd7Ro0crFl2Y5levPSAgAcsDI6mJwRJgjsupAi2Sgx0C6rjDBJYuXWo2b95sLl++7HAr1TQfCEjA8sFKMbSxa9eu5r3vfa/58Y9/rGNJMfBUFSIQNwEyuHB0EM9IFREQATcJSMBy0y5qlQhEBPDEamhoEBAREAEHCfTt29fU1dWZVatWKTaWg/bxpUkSsHyxVAXtZFF8/fp1xbqqgKFuFYGkCbBzzPEHBbtMmrTqF4HyCUjAKp+d7hSBNAgMHTrUsGl75MiRNB6nZ4iACJRIgJNANTU15syZM+b48eMl3q3LRcAYCVg5HgWo3FOmTLE7Ubdv385xT9U1EfCbAItiJtv6nfptR7U+/wQkYOXfxuqh/wRGjRplLl68qKNK/ptSPcgxARKJsU5dv359jnupriVBoMOgQYPuJ1Gx6syWwKRJk0xzc3O2jdDTRUAEChIYMmSIuXbtmhIqFCSlC0QgewIjRozQjnH2ZlALRKAgAc2DCyLSBSLgBIGRI0eaTp06mcOHDzvRHjXCfQLywHLfRiW1cNCgQWbAgAHWm+PGjRsl3auLRUAE0iVARtCJEyeaHTt2pPtgPU0ERKAsAvLAKgubbhKB1Al07tzZTJ061R7NVxEBEXCbwMCBA+18WN5YbtvJldZJwHLFEjG0o7q62pw/f96cOHEihtpUhQiIQNIEamtrNblOGrLqF4EYCUjAihGmqhKBhAmQ2beqqkonEhLmrOpFIA4CHTp0MOPGjTP8bhsbG5V0LA6oOa1DAlYODDts2DCDcr1//355XeXAnupCGAQ43nDs2DEdHQzD3OplTghIwMqJIdWNYAhw7JfkKNrcDcbk6qjnBHr06GG9sThSeOHCBc97o+YnQUACVhJUU6oz+oGfO3fOHD16NKWn6jEiIAKVEmBH+NatW+b06dOVVqX7RUAEUiQgAStF2HqG5GGwAAAEGUlEQVSUCMREYMaMGWbbtm3K8hsTT1UjAmkQGDt2rOnSpYt10Lh7924aj9QzPCEgAcsTQ7VsJulHmUSTJripqUkulh7aUE0Ol0CfPn0Mab737t0bLgT1XAQ8JSABy1PDqdlBE2DePH36dCti3bt3L2gW6rwI+ERA3lg+WSu9tkrASo91LE8iQDvpgfkIq4iACPhHIJpE+9dytVgEREAClsaACPhLYNq0aWbnzp3+dkAtF4FACfDtJfHRnj17zJ07dwKloG5HBCRgeTIWyKYyfPhwQ4A7pRn1xGhqpgi0IjB37lyzZcsWc/v2bbERARHwkIAELA+NpiaLwC8IECD64sWLNuGRigiIgH8E5s+fb5My6Dfsn+3ibLEErDhpJlQX2RgmTJggr6uE+KpaEUiDAIFkr1y5Yi5fvpzG4/QMERCBBAhIwEoAqqoUgRQJ8Bs+c+aMvsUpMtejRCBOAn379jWTJ082W7dutfFkVcIjIAHLYZtzZh9357Nnz5rjx4873FI1TQREoD0CeFAS94qsgyoiIAL+EpCA5a/t1HIRiAjgxbFhwwYFddeQEAGPCcycOdNmFz158qTHvVDTyyEgAascaincM2bMGDN+/HizYsWKFJ6mR4iACCRFgGO/ZEDi6KCKCIiA3wQkYPltP7VeBCICLH71XdZ4EAG/CZDQbPHixXa9fP/+fb87o9YXTUACVtGo0rvwySefNJs2bbKeVyoiIAJ+E1i+fLlZtWqVMh/5bUa1XgQsAQlYGggikA8CnTp1MmwW79+/Px8dUi9EIFACnFiqra01p06dsh5ZKvknIAHLIRsT52rgwIFWvFKaX4cMo6aIQJkEqqurze7du83du3fLrEG3iYAIuERAApZL1lBbRKAyAmPHjrWxKbVhXBlH3S0CLhDo0aOHWbhwoXnjjTeULMkFgyTYBglYCcIttmqOGL3rXe+ywhXZUVREQAT8JzBs2DBz/fp1c+nSJf87ox6IgAhYAhKwNBBEIF8EOOJPMGgVERCBfBCoqqoyAwYMMNu3b89Hh9SLdxCQgJXxoMDrqlevXjbDoM7uZmwMPV4EYiLQvXv3BxlSYqpS1YiACDhAQAKWA0ZQE0QgRgIcJcRbWovdGKGqKhHImADeWJMmTTKHDh0yFy5cyLg1enzcBCRgxU20yPq6detmP5gHDhzQD6tIZrpMBHwgQMZBdnTr6+t9aK7aKAIiUAIBCVglwNKlIuAJATad2FDesWOHJy1WM0VABIohMHr0aNO7d2/T2NhYzOW6xhMCErAyMBQTYALO7d27N4On65EiIAJJEpgyZYoVpm/evJnkY1S3CIhABgQkYGUAXY8UgRQIDB8+3Ny6dcucO3cuhafpESIgAmkRwBsLgfr8+fPm6NGjaT1Wz0mQwP8HAHrS4yWd2y0AAAAASUVORK5CYII=;clipPath=inset(35.56% 67.33% 25.56% 0.33%);sketch=1;curveFitting=1;jiggle=2;" vertex="1" parent="1">
          <mxGeometry x="266" y="172" width="199.05" height="143.64" as="geometry" />
        </mxCell>
        <mxCell id="BxdCIY4UVa0yPK-bbgme-4" value="&lt;font style=&quot;font-size: 17px; color: rgb(255, 51, 255);&quot; face=&quot;Courier New&quot;&gt;&lt;b&gt;https://mesquite.cc&lt;/b&gt;&lt;/font&gt;" style="rounded=0;whiteSpace=wrap;html=1;align=center;fillColor=#ffe6cc;strokeColor=#d79b00;" vertex="1" parent="1">
          <mxGeometry x="262.5" y="173" width="205.5" height="20" as="geometry" />
        </mxCell>
        <mxCell id="BxdCIY4UVa0yPK-bbgme-5" value="" style="shape=flexArrow;endArrow=classic;startArrow=classic;html=1;fillColor=#60a917;strokeColor=#2D7600;" edge="1" parent="1">
          <mxGeometry width="100" height="100" relative="1" as="geometry">
            <mxPoint x="240" y="350" as="sourcePoint" />
            <mxPoint x="158" y="350" as="targetPoint" />
          </mxGeometry>
        </mxCell>
      </root>
    </mxGraphModel>
  </diagram>
</mxfile>
